<svg width="312" height="120" viewBox="0 0 312 120" fill="none" xmlns="http://www.w3.org/2000/svg">
<path fill-rule="evenodd" clip-rule="evenodd" d="M272.583 49.8301C270.276 48.1934 262.788 49.4265 259.701 49.8301C258.079 50.0421 257.121 52.1829 256.27 55.4381C251.825 54.3294 245.991 53.2793 241.801 56.2843C240.507 57.4307 240.265 59.3845 241.758 60.4747C242.244 60.8083 243.182 61.0917 243.33 61.3809C243.931 62.9354 244.6 64.9901 244.494 66.6437C242.586 84.0041 238.76 101.412 236.07 118.661L235.998 119.314C235.683 122.249 235.428 125.712 237.387 128.048C238.705 129.184 240.579 129.028 242.189 129.355C257.368 131.424 272.694 129.447 287.935 130.078C290.532 130.226 293.143 130.419 295.746 130.438L295.747 130.408C295.467 130.406 295.186 130.401 294.905 130.396C295.193 121.772 295.787 113.159 295.978 104.531C296.039 101.812 296.056 99.0916 296.004 96.3718C295.993 95.8207 296.834 95.8207 296.845 96.3718C296.863 97.2743 296.87 98.1766 296.874 99.0789C297.505 98.576 298.205 98.1772 298.878 97.7284C299.332 97.4253 299.754 98.1664 299.303 98.4677C298.505 99.0001 297.656 99.4468 296.964 100.127C296.936 100.155 296.907 100.176 296.877 100.193C296.862 108.862 296.278 117.524 295.908 126.181C295.853 127.462 295.803 128.744 295.76 130.025L295.746 130.438C298.564 130.46 301.373 130.279 304.146 129.621C304.614 130.285 305.706 130.417 306.26 129.56C306.538 129.236 306.594 128.686 307.023 128.562C307.139 128.471 306.96 128.405 306.879 128.449C310.672 117.39 307.21 96.781 304.152 85.4513C302.814 79.6098 299.598 74.2017 299.263 68.1546C299.228 65.3044 301.237 61.871 298.69 59.5812C299.065 57.4879 297.12 55.7435 295.156 55.6055C292.739 46.7259 282.04 57.082 276.247 57.1867C275.453 55.8427 273.686 50.613 272.583 49.8301ZM240.014 107.962C240.015 107.411 240.856 107.41 240.856 107.962C240.85 113.822 240.356 120.837 239.644 126.648C239.578 127.187 238.736 127.194 238.802 126.648C239.514 120.837 240.009 113.822 240.014 107.962ZM279.488 115.483C279.01 115.223 279.435 114.483 279.913 114.744C283.42 116.655 286.698 118.939 289.85 121.402C290.274 121.733 289.855 122.477 289.425 122.141C286.273 119.678 282.995 117.394 279.488 115.483ZM249.051 114.389C249.383 113.984 250.094 114.405 249.766 114.836C249.005 115.84 248.058 116.631 246.949 117.209C246.474 117.457 246.052 116.739 246.508 116.479L246.525 116.47C247.471 115.976 248.325 115.322 248.988 114.472L249.051 114.389ZM291.171 89.3342C291.054 88.7974 291.865 88.5682 291.983 89.1067C292.23 90.2384 292.05 91.4423 291.793 92.5636L291.775 92.6382L291.74 92.7867C291.694 92.9796 291.517 93.0871 291.334 93.101C288.239 93.3341 285.177 92.2638 282.209 91.4742L281.989 91.4162L281.77 91.3595C281.245 91.225 281.467 90.399 281.994 90.5338L282.228 90.5946C285.081 91.3425 288.02 92.397 290.997 92.2644L291.029 92.1249C291.224 91.2383 291.362 90.2897 291.186 89.404L291.171 89.3342ZM243.65 87.2478C243.646 86.6966 244.488 86.6961 244.492 87.2478L244.493 87.3558C244.503 88.2245 244.573 89.4585 245.41 89.9189C246.154 90.3284 247.142 90.021 247.931 89.7078L248.091 89.6431L248.322 89.5474C248.823 89.3388 249.041 90.1668 248.545 90.3731L248.422 90.424C247.35 90.86 245.973 91.2748 244.915 90.6164C243.88 89.9726 243.681 88.6082 243.653 87.4621L243.652 87.3744L243.65 87.2478Z" fill="#D08B5B"/>
<path fill-rule="evenodd" clip-rule="evenodd" d="M245.987 54.2262L245.901 54.2422L243.52 54.6928L245.935 54.8781C246.047 54.8867 246.159 54.8973 246.272 54.91C246.504 54.9359 246.732 54.9684 246.955 55.0077L247.1 55.0342L247.038 55.031C246.156 54.9893 245.273 55.0624 244.402 55.2484C243.544 55.4316 242.782 55.6809 242.1 56.02L242.019 56.0612L241.914 56.1161L241.863 56.1407L241.823 56.1596C241.636 56.2473 241.56 56.2925 241.481 56.4013C241.325 56.6171 241.392 56.8608 241.593 57.046C241.745 57.1847 241.94 57.2534 242.196 57.2929C242.234 57.2987 242.273 57.3038 242.314 57.3086L242.541 57.3312C242.963 57.376 243.242 57.6086 243.284 57.9693C243.325 58.3227 243.122 58.6811 242.83 58.7692L242.808 58.7751L242.781 58.7815C242.743 58.7902 242.71 58.7996 242.677 58.8116L242.653 58.821L242.6 58.843L242.598 58.8434L242.596 58.8447L242.546 58.8656L242.533 58.8916L242.525 58.8978C242.495 58.9224 242.483 58.9399 242.463 58.9778L242.446 59.0115L242.432 59.0604L242.428 59.0763L242.426 59.0893L242.425 59.0932L242.412 59.1826L242.408 59.213L242.407 59.2328L242.406 60.6058L242.752 59.9015L242.764 59.9116C242.932 60.0488 243.147 60.1615 243.42 60.2714L243.476 60.2933L243.62 60.3474L243.905 60.451L243.97 60.4757L244.029 60.4986C244.075 60.5171 244.115 60.5341 244.151 60.551C244.205 60.5764 244.253 60.6052 244.295 60.637L244.319 60.6564L244.456 60.7717L244.793 60.6519C244.833 60.6377 244.869 60.6245 244.904 60.6118L245.231 60.4878L245.511 60.3828C245.875 60.2474 246.203 60.1298 246.521 60.0205L246.907 59.8896L247.189 59.7961C247.287 59.764 247.39 59.7302 247.504 59.6933L249.096 59.1815L249.403 59.0815C249.575 59.0249 249.73 58.9732 249.89 58.9189L250.187 58.8171L250.475 58.7164C251.413 58.3848 252.31 58.0301 253.908 57.3736L253.561 57.5745L253.304 57.7225C252.995 57.8992 252.658 58.0907 252.28 58.3035L250.561 59.2698L250.216 59.4655L249.446 59.906L249.039 60.1369C248.311 60.5482 247.794 60.8265 247.243 61.0998C246.817 61.3116 246.379 61.5148 245.923 61.7127L245.751 61.7867L245.487 61.8984L245.279 61.9902L245.139 62.0529L245.046 62.0932C244.548 62.305 244.257 62.36 243.933 62.2739L243.91 62.2672L243.888 62.2593L243.256 62.013L243.476 62.6635C243.501 62.7376 243.526 62.8126 243.551 62.8883L243.595 63.0263L243.631 63.0987C243.842 63.5263 244.051 63.967 244.261 64.4285L244.374 64.6775L244.439 64.7266C244.463 64.7446 244.485 64.7709 244.503 64.8066C244.587 64.9728 244.668 65.1383 244.746 65.3038L244.828 65.4797L244.913 65.6658C245.285 66.4796 245.622 67.315 246.06 68.4805L246.636 70.0343L246.722 70.266C247.43 72.1658 248.097 74.07 248.723 75.9779C249.961 79.7423 251.055 83.5626 252.004 87.4275C253.908 95.1911 255.179 103.072 255.801 111.003C255.919 112.499 256.004 113.986 256.055 115.469L256.068 115.854L256.108 116.195C256.14 116.463 256.169 116.724 256.197 116.979L256.213 117.132C256.416 119.02 256.513 120.505 256.503 121.928C256.498 122.634 256.477 123.291 256.437 123.925L256.428 124.07L256.272 126.399L257.04 124.2C257.095 124.044 257.147 123.886 257.207 123.702L257.281 123.466L257.317 123.348C257.35 123.24 257.381 123.128 257.419 122.981L257.555 122.458L257.589 122.333C257.624 122.203 257.654 122.103 257.688 121.997L257.728 121.872L257.758 121.786C257.813 121.63 257.877 121.465 257.979 121.214L258.135 120.828L258.166 120.749V120.687L258.161 120.479C258.15 119.984 258.153 119.462 258.167 118.877L258.18 118.418L258.194 118.025C258.196 117.985 258.197 117.943 258.199 117.9L258.271 116.133L258.41 112.207L258.432 111.545C258.448 111.051 258.461 110.605 258.471 110.17L258.481 109.773L258.484 109.637C258.569 105.743 258.537 101.736 258.396 97.5696L258.382 97.1659L258.367 96.7683C258.13 90.2952 257.72 84.7856 256.747 73.9389L256.585 72.1442L256.342 69.488L256.287 68.8647C256.174 67.5951 256.093 66.6053 256.025 65.6356L255.995 65.2035C255.881 63.49 255.811 61.7106 255.778 59.7565L255.772 59.4051L255.924 59.9418L256.055 58.1564C256.095 57.6159 256.162 57.1163 256.261 56.6507L256.283 56.5515L256.325 56.3618L256.359 56.236C256.415 56.0234 256.061 55.0454 256.061 55.0454L255.861 54.9967L255.619 54.9386C251.758 54.0217 248.752 53.7209 245.987 54.2262ZM284.038 52.637L283.921 52.6696L283.848 52.6908C283.257 52.8635 282.63 53.1078 281.907 53.4343L281.7 53.5288C281.607 53.5712 281.073 53.7862 280.861 53.8783L280.824 53.8943C280.04 54.2447 279.572 54.6128 279.469 55.1545L279.463 55.1913C279.234 55.4145 278.969 55.629 278.667 55.8349L278.591 55.8861L278.519 55.9334C278.194 56.1436 277.887 56.3289 277.598 56.4889L277.519 56.5319L277.465 56.561L276.945 56.7429L276.301 56.97L276.172 57.0149C275.501 57.2474 275.105 57.3695 274.631 57.4879L274.365 57.5541C273.357 57.8029 272.463 57.9969 271.602 58.1489C270.725 58.303 269.825 58.438 268.895 58.5562L268.58 58.5954C268.271 58.6325 267.967 58.6607 267.494 58.6983L266.728 58.7586L266.211 58.8012L266.486 59.249C267.208 60.422 267.764 61.729 268.387 63.5772L268.457 63.7848C269.022 65.4834 269.419 67.014 270.103 69.9509C271.139 74.4071 271.992 78.9055 272.66 83.4287C273.12 86.5462 273.493 89.6563 273.777 92.7562L273.817 93.199L274.446 93.1983C274.528 92.2458 274.631 91.2649 274.755 90.2338C275.143 87.0219 275.703 83.8681 276.434 80.7908L276.503 80.5025L276.533 80.3783L276.471 80.2671C276.433 80.2003 276.418 80.1252 276.429 80.0595C276.506 79.5745 276.646 79.1318 276.913 78.4637L277.186 77.793L277.247 77.639L277.252 77.623C277.541 76.5902 277.85 75.5694 278.177 74.5608L278.287 74.225L278.292 74.2094C278.767 72.4803 279.234 71.0528 279.783 69.7152C280.213 68.6705 280.702 67.6459 281.247 66.6458L281.349 66.4586L281.359 66.4402C282.049 64.9809 282.783 63.6012 283.562 62.3081L283.687 62.1021L283.698 62.0684C283.725 61.9902 283.765 61.9208 283.818 61.8619L283.839 61.8404L283.865 61.8143L283.922 61.723L284.378 61.6068C285.662 61.2802 286.998 61.2516 288.49 61.4778L288.589 61.4933L288.689 61.5095C289.784 61.6905 290.725 61.9372 292.434 62.4656L294.115 62.9893L294.354 63.0618L294.58 63.1295C295.399 63.3724 296.117 63.5557 296.814 63.6933L296.909 63.7118L297.166 63.761L297.294 63.7846C298.061 63.9238 298.599 63.9614 299.107 63.8625L299.153 63.8531L299.21 63.8403L299.26 63.8274C299.854 63.6663 300.073 63.2293 299.8 62.6199C299.574 62.1154 299.084 61.7576 298.364 61.4441L298.259 61.3996L298.233 61.3888L298.206 61.3828C298.035 61.3453 297.87 61.2789 297.714 61.1823C297.399 60.9879 297.267 60.5858 297.41 60.2537C297.557 59.9136 297.96 59.6897 298.24 59.8046L298.452 59.8901L298.684 59.9828L298.826 59.7754C298.834 59.7639 298.842 59.7519 298.849 59.7388L298.86 59.7183L298.867 59.7036L298.884 59.6881L298.902 59.6703C298.945 59.6223 298.969 59.5702 298.98 59.5167C298.985 59.4965 298.987 59.4781 298.988 59.4598L298.989 59.4415C298.989 59.4034 298.987 59.3729 298.975 59.2665C298.924 58.8044 298.627 58.4312 298.112 58.0022L298.029 57.934L298.004 57.914C297.019 57.1199 295.77 56.7113 294.709 56.962C294.657 56.974 294.606 56.9874 294.554 57.0029L294.502 57.0192L294.44 57.0403C294.113 57.1553 293.858 57.0139 293.739 56.6979C293.62 56.3797 293.7 56.0284 293.953 55.8387L293.976 55.8224L294.054 55.7699L294.144 55.7069L294.244 55.6352L294.29 55.6014L294.356 55.5514C294.864 55.1604 295.143 54.7953 295.062 54.3634L295.056 54.3358L295.049 54.3033L295.035 54.2731L294.992 54.18L294.948 54.0872L294.935 54.0617L294.919 54.0388C294.744 53.7991 294.451 53.617 294.031 53.4406L293.982 53.4203C293.807 53.3484 293.317 53.1735 293.244 53.1449L293.238 53.1427C291.788 52.5442 290.212 52.1989 288.628 52.1284C287.072 52.0595 285.514 52.2306 284.038 52.637Z" fill="#D64568"/>
<path d="M256.873 69.1313L256.892 69.2768L256.91 69.4224C257.425 73.5966 257.86 78.8495 258.239 83.0377C258.994 91.3872 259.457 99.7709 259.393 108.158C259.376 110.327 259.299 112.489 259.201 114.654L259.179 115.118C259.069 117.478 258.899 119.972 258.253 122.248C258.182 122.5 258.023 122.644 257.84 122.697C257.832 122.962 257.817 123.228 257.8 123.492L257.786 123.689C257.712 124.754 257.498 126.966 257.042 127.932C256.597 128.874 255.855 129.621 254.909 130.032C254.644 130.147 254.374 130.229 254.101 130.287C259.844 130.406 267.387 130.218 273.14 130.076C272.542 129.981 272.203 129.5 272.124 128.886C271.966 127.656 272.263 126.383 272.934 125.348C273.003 125.241 273.085 125.146 273.177 125.064L273.161 124.383C273.15 123.873 273.144 123.361 273.173 122.851C273.234 121.725 273.325 120.599 273.405 119.474C273.567 117.221 273.692 114.964 273.742 112.706C273.843 108.189 273.769 103.668 273.518 99.1576C273.014 90.1467 271.841 80.1233 269.921 71.3093C269.781 70.6671 269.64 70.0249 269.494 69.3838C268.001 70.1726 265.344 70.4562 263.712 70.467C261.667 70.4798 258.72 70.0013 256.873 69.1313Z" fill="#E86BBB"/>
<path fill-rule="evenodd" clip-rule="evenodd" d="M239.659 126.679C240.37 120.868 240.865 113.852 240.871 107.993C240.871 107.441 240.03 107.442 240.029 107.993C240.023 113.852 239.529 120.868 238.817 126.679C238.75 127.225 239.593 127.218 239.659 126.679ZM244.929 90.6473C246.029 91.3314 247.472 90.8569 248.56 90.4039C249.056 90.1977 248.837 89.3697 248.336 89.5783C247.508 89.923 246.298 90.4306 245.424 89.9498C244.552 89.4699 244.513 88.1498 244.506 87.2786C244.502 86.727 243.661 86.7274 243.665 87.2786C243.674 88.4638 243.829 89.9628 244.929 90.6473ZM246.964 117.24C248.073 116.662 249.02 115.871 249.781 114.867C250.112 114.431 249.381 114.005 249.054 114.435C248.384 115.318 247.511 115.994 246.539 116.501C246.057 116.752 246.483 117.491 246.964 117.24ZM252.295 87.3568C254.198 95.1155 255.475 103.013 256.101 110.985C256.228 112.603 256.318 114.219 256.368 115.837C256.419 116.258 256.467 116.681 256.513 117.104C256.684 118.703 256.815 120.328 256.804 121.937C256.799 122.66 256.777 123.379 256.728 124.099C256.812 123.858 256.89 123.617 256.966 123.376C257.121 122.882 257.223 122.371 257.38 121.881C257.511 121.475 257.679 121.086 257.836 120.694V120.693C257.789 119.084 257.896 117.46 257.951 115.859C258.021 113.785 258.108 111.713 258.154 109.637C258.244 105.487 258.199 101.333 258.052 97.1844C257.756 88.8252 257.009 80.5058 256.256 72.1809C256.046 69.8658 255.821 67.5518 255.666 65.2323C255.509 62.8885 255.446 60.5402 255.428 58.1899C255.427 58.0207 255.679 57.9759 255.726 58.1395C255.767 57.5819 255.839 57.0253 255.96 56.487C254.146 57.6643 252.232 58.6822 250.356 59.7525C249.368 60.3165 248.385 60.8902 247.367 61.3954C246.807 61.6736 246.242 61.9295 245.665 62.1714C245.068 62.4218 244.497 62.7665 243.839 62.5919C243.782 62.577 243.729 62.5556 243.677 62.5278C243.752 62.6722 243.827 62.8157 243.898 62.9614C244.146 63.4632 244.383 63.9673 244.612 64.4757C244.673 64.5218 244.727 64.585 244.769 64.6673C244.881 64.8889 244.989 65.1126 245.094 65.3394C245.115 65.3191 245.136 65.2988 245.157 65.2785C245.246 65.1939 245.368 65.3212 245.29 65.4133C245.254 65.455 245.219 65.4957 245.185 65.5375C245.871 67.0391 246.428 68.6178 247.003 70.1592C247.708 72.0535 248.378 73.9619 249.008 75.8831C250.25 79.6623 251.346 83.4908 252.295 87.3568ZM279.503 115.514C283.01 117.425 286.288 119.709 289.44 122.172C289.87 122.508 290.288 121.764 289.865 121.433C286.712 118.969 283.435 116.686 279.927 114.774C279.45 114.514 279.025 115.254 279.503 115.514ZM291.349 93.1318C291.531 93.118 291.709 93.0105 291.755 92.8176C292.039 91.634 292.261 90.3447 291.997 89.1375C291.879 88.5991 291.068 88.8282 291.186 89.3651C291.394 90.317 291.229 91.346 291.012 92.2953C287.953 92.4315 284.935 91.3147 282.008 90.5647C281.482 90.4298 281.26 91.2559 281.785 91.3903C284.889 92.1858 288.1 93.3765 291.349 93.1318ZM230.45 124.702C230.446 124.694 230.443 124.686 230.441 124.678C230.261 124.124 230.257 123.48 230.237 122.899C230.202 121.865 230.239 120.828 230.331 119.798C230.524 117.628 230.941 115.494 231.438 113.378C232.424 109.187 233.817 105.109 234.573 100.861C236.058 92.5221 235.705 83.8397 238.618 75.7965C239.829 72.4527 241.559 69.2386 243.909 66.5821C243.737 66.0512 243.57 65.5193 243.407 64.9852C243.122 64.0562 242.83 63.0972 242.655 62.1403C242.65 62.1146 242.645 62.0879 242.642 62.0611C241.642 61.6223 240.732 60.7949 240.576 59.6947C240.509 59.2195 240.586 58.6929 240.788 58.2337C240.376 57.8463 240.111 57.3432 240.174 56.6689C240.292 55.3995 241.749 55.073 242.763 54.8248C243.916 54.5433 245.112 54.4652 246.291 54.5979C246.887 54.6642 247.476 54.7755 248.051 54.9425C248.551 55.087 249.095 55.2358 249.496 55.5847C249.543 55.6254 249.504 55.7046 249.447 55.7046C248.636 55.7015 247.828 55.3985 247.009 55.3588C246.15 55.3182 245.294 55.3899 244.453 55.5697C243.63 55.7452 242.809 56.0021 242.061 56.3992C241.851 56.5116 241.543 56.5876 241.79 56.8145C241.971 56.9804 242.326 56.9944 242.559 57.0189C243.073 57.0735 243.517 57.3796 243.583 57.9383C243.64 58.4317 243.351 58.9904 242.836 59.1017C242.807 59.1083 242.781 59.1156 242.758 59.1253C242.744 59.152 242.723 59.1745 242.725 59.1381C242.725 59.1381 242.724 59.137 242.724 59.1381C242.711 59.2162 242.707 59.2472 242.707 59.2526C242.71 59.2462 242.716 59.2195 242.72 59.1981C242.717 59.2173 242.71 59.2484 242.702 59.2944C242.714 59.2441 242.704 59.3673 242.714 59.3864C242.987 59.9002 243.796 60.0448 244.267 60.2662C244.359 60.3089 244.438 60.3593 244.505 60.416C244.617 60.3765 244.73 60.3369 244.845 60.293C245.41 60.0778 245.974 59.8691 246.546 59.6753C247.651 59.2997 248.769 58.9647 249.873 58.588C251.965 57.8752 253.987 56.975 256.039 56.1594C256.104 55.9133 256.18 55.6725 256.27 55.4381C256.287 55.3889 256.374 55.3728 256.383 55.4381C256.415 55.6457 256.44 55.8544 256.461 56.0642C256.469 56.0835 256.471 56.1049 256.467 56.1252C256.586 57.3453 256.555 58.5944 256.616 59.8135C256.691 61.3333 256.903 62.8424 256.963 64.3634V64.3912C257.184 65.6895 257.384 66.992 257.565 68.2989C257.768 68.2347 258 68.2475 258.238 68.377C259.919 69.29 261.808 69.7984 263.709 69.9118C264.666 69.9684 265.614 69.9366 266.566 69.8241C267.192 69.7513 267.809 69.6186 268.426 69.4923C268.101 68.1062 267.752 66.7266 267.357 65.361C267.032 64.2381 266.671 63.1207 266.223 62.0408C265.772 60.9501 265.21 59.9087 264.688 58.8513C264.447 58.3621 264.731 57.614 265.357 57.6654C265.542 57.6804 265.727 57.6921 265.913 57.7007C267.725 57.7886 269.609 57.5831 271.397 57.3999C273.433 57.1902 275.496 56.9728 277.513 56.6315C277.663 56.6068 277.724 56.8134 277.576 56.8637C276.619 57.1912 275.673 57.5614 274.692 57.8067C273.682 58.0603 272.666 58.2915 271.641 58.4724C270.66 58.6448 269.674 58.7892 268.685 58.9112C268.04 58.9915 267.388 59.0322 266.739 59.0857C267.613 60.507 268.216 62.1102 268.741 63.689C269.415 65.7162 269.911 67.8023 270.396 69.884C271.433 74.3461 272.288 78.8532 272.957 83.3881C273.437 86.6397 273.825 89.9041 274.116 93.1771C274.203 92.1828 274.308 91.1917 274.427 90.2016C274.824 86.9146 275.405 83.6492 276.182 80.4329C276.112 80.3088 276.079 80.16 276.103 80.0155C276.243 79.1315 276.611 78.3619 276.934 77.542C277.255 76.3968 277.601 75.2591 277.973 74.1299C278.396 72.5919 278.87 71.0774 279.477 69.5982C279.941 68.4712 280.47 67.373 281.06 66.3081C281.763 64.8193 282.537 63.3627 283.386 61.9701C283.43 61.8406 283.501 61.7197 283.603 61.618C283.758 61.3697 283.915 61.1246 284.075 60.8816C284.179 60.7232 284.477 60.8196 284.399 61.0208C284.362 61.1151 284.325 61.2092 284.287 61.3024C287.745 60.4225 291.136 61.7679 294.429 62.7611C295.26 63.0126 296.1 63.2395 296.952 63.4033C297.622 63.5317 298.403 63.688 299.071 63.5466C299.518 63.4525 299.716 63.246 299.498 62.76C299.273 62.2571 298.658 61.9263 298.125 61.7037C297.924 61.6598 297.726 61.5816 297.536 61.4639C297.092 61.1899 296.897 60.6183 297.107 60.1314C297.297 59.6915 297.852 59.3126 298.344 59.5138C298.414 59.5427 298.484 59.5705 298.553 59.5983C298.56 59.5876 298.569 59.5727 298.576 59.5513C298.647 59.3554 298.677 59.5899 298.647 59.3094C298.596 58.8513 298.12 58.4349 297.794 58.1727C296.982 57.5187 295.811 57.035 294.764 57.2822C294.685 57.3004 294.606 57.3229 294.528 57.3507C293.45 57.7307 292.925 56.1509 293.787 55.5622C293.839 55.5269 293.905 55.4819 293.978 55.4295C294.337 55.1758 294.862 54.7488 294.719 54.3636C294.542 53.885 293.499 53.61 293.105 53.4473C291.678 52.8586 290.137 52.5247 288.599 52.4562C287.052 52.3877 285.484 52.5611 283.991 52.9859C283.259 53.1936 282.507 53.5094 281.815 53.8284C281.193 54.1141 279.84 54.4919 279.754 55.2925C279.735 55.4692 279.488 55.529 279.434 55.3364C279.01 53.7994 280.656 52.8072 281.741 52.1726C282.453 51.755 283.261 51.495 284.043 51.2392C284.792 50.9931 285.557 50.8122 286.337 50.7029C288.013 50.4697 289.709 50.4997 291.371 50.8272C292.885 51.1259 294.569 51.6353 295.793 52.6264C296.544 53.2343 296.884 54.2019 296.582 55.1459C296.571 55.1769 296.561 55.209 296.55 55.2401C297.902 55.4862 299.181 56.274 300.036 57.3721C300.739 58.2744 301.107 59.5298 300.478 60.5799C300.505 60.5991 300.531 60.6194 300.556 60.6408C301.156 61.1289 301.602 61.8375 301.734 62.6123C301.994 64.1407 301.086 65.21 299.817 65.6188C300.131 65.9315 300.433 66.2632 300.729 66.5949C301.39 67.3388 302.023 68.1489 302.58 68.9753C303.71 70.6493 304.676 72.472 305.52 74.3086C307.257 78.0804 308.352 82.1401 308.933 86.2565C309.225 88.3307 309.421 90.4157 309.496 92.5092C309.582 94.896 309.495 97.2839 309.54 99.6717C309.584 101.966 309.834 104.206 310.337 106.443C310.82 108.582 311.464 110.679 312.047 112.79C312.704 115.169 313.428 117.536 313.775 119.988C313.951 121.236 314.077 122.487 313.979 123.749C313.881 125.035 313.422 126.134 312.999 127.33C312.892 127.635 312.564 127.758 312.303 127.692C312.244 128.265 312.031 128.824 311.714 129.307C311.042 130.333 310.007 130.987 308.822 131.224C307.485 131.491 306.108 131.428 304.756 131.379C303.288 131.325 301.819 131.277 300.352 131.215C298.816 131.15 297.279 131.084 295.743 131.017C295.794 129.415 295.854 127.813 295.923 126.212C296.293 117.555 296.876 108.893 296.892 100.224C296.922 100.207 296.951 100.185 296.979 100.158C297.671 99.4777 298.52 99.0309 299.318 98.4986C299.769 98.1973 299.347 97.4562 298.893 97.7593C298.22 98.2081 297.519 98.6069 296.889 99.1098C296.885 98.2074 296.877 97.3052 296.86 96.4027C296.849 95.8516 296.007 95.8516 296.018 96.4027C296.071 99.1224 296.053 101.843 295.993 104.562C295.797 113.375 295.182 122.171 294.901 130.981C290.778 130.801 286.654 130.621 282.529 130.468C279.174 130.344 275.82 130.219 272.465 130.095C271.761 130.07 271.366 129.558 271.279 128.889C271.121 127.658 271.418 126.386 272.089 125.351C272.159 125.244 272.241 125.148 272.332 125.067C272.317 124.329 272.287 123.591 272.328 122.854C272.389 121.728 272.481 120.602 272.561 119.477C272.723 117.224 272.848 114.966 272.897 112.708C272.998 108.191 272.925 103.67 272.673 99.1601C272.169 90.1492 270.996 81.1961 269.076 72.3821C268.936 71.7399 268.796 71.0977 268.649 70.4566C267.157 71.2454 265.341 71.529 263.709 71.5398C261.664 71.5526 259.664 71.0741 257.817 70.2041C257.83 70.3014 257.842 70.3977 257.854 70.4951C258.369 74.6693 258.804 78.852 259.182 83.0402C259.938 91.3897 260.401 99.7734 260.336 108.16C260.319 110.484 260.231 112.8 260.123 115.121C260.012 117.481 259.843 119.974 259.197 122.251C259.126 122.502 258.967 122.647 258.784 122.699C258.774 123.031 258.753 123.364 258.73 123.692C258.655 124.757 258.442 126.969 257.985 127.934C257.54 128.876 256.799 129.623 255.853 130.034C254.652 130.555 253.352 130.406 252.084 130.322C246.567 129.956 241.055 129.466 235.541 129.036C234.773 128.976 234.005 128.917 233.238 128.856C232.556 128.802 231.85 128.755 231.244 128.394C230.555 127.985 230.017 125.971 230.255 125.139C230.298 124.987 230.363 124.837 230.45 124.702Z" fill="#0D0D0D"/>
<path fill-rule="evenodd" clip-rule="evenodd" d="M266.198 12.3206C260.237 12.3206 251.512 16.3788 250.856 20.2832C250.083 24.8844 248.366 42.1863 249.301 47.8482C250.236 53.51 253.881 57.6935 261.943 57.6935C270.005 57.6935 276.023 53.2109 277.404 51.6718C278.786 50.1327 280.46 45.3431 280.46 45.3431C280.46 45.3431 284.874 44.5803 284.895 40.9927C284.915 37.4052 282.677 36.2965 282.677 36.2965C282.677 36.2965 283.885 21.414 281.347 17.728C278.808 14.0419 272.158 12.3206 266.198 12.3206Z" fill="#D08B5B"/>
<path fill-rule="evenodd" clip-rule="evenodd" d="M248.201 31.2733C247.875 34.8898 247.752 38.5374 247.689 42.1679C247.628 45.6079 247.925 49.1955 249.847 52.1368C251.528 54.7098 254.087 56.5775 256.938 57.5857C258.559 58.1604 260.356 58.3734 262.069 58.4259C262.954 58.4526 263.841 58.4141 264.72 58.321C264.831 58.3092 264.942 58.2991 265.054 58.289C265.799 58.2213 266.538 58.1541 267.08 57.5803C267.252 57.3995 267.249 57.0281 266.996 56.9103C266.515 56.6866 266.188 56.6631 265.66 56.7369C265.222 56.7978 264.783 56.8461 264.343 56.8771C263.398 56.9446 262.447 56.9467 261.502 56.8729C259.766 56.7369 257.989 56.237 256.413 55.4793C253.941 54.2891 251.817 52.3389 250.67 49.7799C249.356 46.8499 249.422 43.4616 249.484 40.3065L249.486 40.1771C249.555 36.6772 249.682 33.188 249.98 29.6999C250.093 28.3803 250.254 27.0679 250.415 25.7551C250.46 25.3854 250.505 25.0158 250.55 24.6459C250.656 23.7511 250.795 22.8605 250.967 21.9766C251.018 21.7096 251.078 21.4448 251.139 21.1803C251.184 20.9813 251.229 20.7825 251.271 20.583C251.341 20.5947 251.413 20.6012 251.486 20.6043C251.925 20.6194 252.405 20.5102 252.73 20.1924C252.855 20.2791 253.014 20.3336 253.205 20.3433C254.371 20.402 255.55 20.3759 256.727 20.3497C257.369 20.3354 258.011 20.3212 258.65 20.3208C260.464 20.3197 262.279 20.3208 264.094 20.3262C264.371 20.327 264.647 20.328 264.924 20.3291C266.461 20.3351 268.001 20.3411 269.537 20.2994C269.862 20.2905 270.19 20.2847 270.518 20.279C271.894 20.2547 273.289 20.2301 274.632 19.9762C275.192 22.0033 275.172 24.2306 274.006 26.0416C273.676 26.5521 273.944 27.1536 274.373 27.4726C274.812 27.7981 275.601 28.2972 276.276 28.3484C276.302 28.4084 276.329 28.4682 276.355 28.5279C276.395 28.6174 276.434 28.7066 276.472 28.7957C276.794 29.5442 277.085 30.2973 277.288 31.0898C277.393 31.4982 277.483 31.9134 277.558 32.3311C277.552 32.4042 277.546 32.4772 277.538 32.5501C277.538 32.5543 277.538 32.5585 277.537 32.5628C277.537 32.5663 277.537 32.5698 277.536 32.5736C277.532 32.6036 277.527 32.6379 277.523 32.6572C277.514 32.7086 277.504 32.76 277.495 32.8114C277.466 32.9697 277.437 33.1279 277.406 33.2854C277.308 33.7938 277.233 34.3065 277.179 34.8212C277.081 35.7632 277.091 36.9876 277.992 37.5453C278.473 37.8439 279.051 37.8128 279.56 37.6126C279.844 37.5008 280.093 37.3506 280.349 37.1957C280.401 37.1639 280.454 37.1319 280.508 37.1C280.591 37.0506 280.675 37.0053 280.76 36.96C280.865 36.9032 280.971 36.8465 281.073 36.7821C281.123 36.75 281.171 36.7115 281.217 36.6708C281.558 36.7447 281.891 36.8827 282.077 36.9769C282.578 37.2306 283.018 37.5977 283.392 38.0194C284.186 38.9174 284.425 40.1825 284.313 41.3566C284.21 42.4494 283.788 43.7048 282.941 44.4316C282.573 44.7483 282.113 44.9336 281.627 44.9282C281.388 44.9261 281.167 44.8747 280.936 44.8126C280.838 44.7863 280.729 44.7747 280.621 44.7631C280.478 44.748 280.336 44.7328 280.217 44.6842C279.905 44.5568 279.521 44.9454 279.648 45.2643C279.676 45.3352 279.701 45.4036 279.725 45.4697C279.782 45.6272 279.834 45.7713 279.918 45.9033C279.049 47.3503 278.097 48.7524 277.084 50.0978C276.441 50.9499 275.719 51.7067 274.994 52.4669C274.687 52.7876 274.381 53.1089 274.079 53.4382C273.631 53.9284 273.444 54.8939 274.256 55.1035C274.969 55.2896 275.524 54.6224 275.964 54.0929C276.023 54.022 276.08 53.9535 276.135 53.8899C278.061 51.6562 279.517 49.0916 280.198 46.1965C280.506 46.4192 280.859 46.5401 281.23 46.5926C281.97 46.6964 282.719 46.5476 283.368 46.1655C285.824 44.7195 286.418 40.8118 285.268 38.363C284.99 37.7733 284.58 37.247 284.081 36.8382C284.12 36.7615 284.136 36.6716 284.11 36.5749C284.066 36.4057 284.017 36.2385 283.966 36.072C284.022 36.0466 284.063 35.9942 284.055 35.9162C284.016 35.5087 283.978 35.1012 283.94 34.6936L283.919 34.4713C283.923 34.2505 283.93 34.0297 283.937 33.8088C283.952 33.3019 283.967 32.7946 283.961 32.2847C283.955 31.7421 283.937 31.1998 283.919 30.6575C283.898 30.0337 283.877 29.4099 283.875 28.7859C283.868 26.7647 283.824 24.7447 283.781 22.7246C283.737 20.6775 283.692 18.6304 283.687 16.5822C283.68 14.5924 283.676 12.5996 283.728 10.611C283.728 10.5969 283.728 10.5831 283.729 10.5693C283.729 10.5569 283.729 10.5444 283.73 10.5318C283.736 10.2877 283.751 10.031 283.767 9.76754C283.853 8.31287 283.951 6.65241 282.659 5.78057C282.408 5.61157 282.095 5.60943 281.822 5.7186C281.037 5.16097 280.052 4.89222 279.111 4.73702C277.723 4.50855 276.325 4.37157 274.927 4.23452C274.518 4.19444 274.109 4.15435 273.7 4.11196C272.758 4.01456 271.766 3.97721 270.817 3.99862C270.323 4.00963 269.826 3.99146 269.328 3.97326C268.858 3.95609 268.388 3.9389 267.919 3.94617C266.823 3.96437 265.719 4.00611 264.619 4.09815C264.593 4.09549 264.567 4.09309 264.541 4.09069C264.515 4.08827 264.489 4.08586 264.463 4.08317C262.797 3.92023 261.132 4.00639 259.467 4.09258C259.064 4.11345 258.66 4.13433 258.257 4.15167C256.286 4.23622 254.204 4.44386 252.434 5.40596C252.206 5.52948 252.014 5.6699 251.849 5.82638C251.618 5.85945 251.399 5.92613 251.201 6.03819C250.631 5.92078 249.995 6.18108 249.86 6.85527C249.664 7.84316 249.589 8.83951 249.707 9.84142C249.708 9.85401 249.71 9.86697 249.711 9.88025C249.712 9.8917 249.714 9.90338 249.715 9.91528C249.477 10.8447 249.493 11.8598 249.691 12.7765C249.607 13.9348 249.56 15.0964 249.553 16.2561C249.552 16.4316 249.55 16.6078 249.547 16.7844C249.539 17.4149 249.53 18.05 249.587 18.6749C249.651 19.3781 249.935 19.9345 250.382 20.4686C250.466 20.5692 250.608 20.5859 250.727 20.5615C250.757 20.5552 250.784 20.5466 250.808 20.5365C250.588 21.0182 250.405 21.524 250.226 22.0187C250.187 22.1284 250.147 22.2376 250.108 22.3458C249.761 23.2941 249.425 24.2585 249.187 25.241C248.704 27.222 248.386 29.2407 248.201 31.2733ZM281.654 40.2389C281.754 40.1688 281.854 40.098 281.963 40.0455C281.977 40.039 282.552 39.8485 282.441 40.1001C282.403 40.1836 282.501 40.2767 282.572 40.2028C282.771 39.9963 282.66 39.7479 282.47 39.5638C282.127 39.231 281.614 39.3079 281.193 39.3872C280.608 39.4975 280.039 39.7586 279.545 40.0936C279.014 40.4543 278.358 40.9542 278.253 41.6381C278.158 42.2664 278.771 42.9589 279.402 42.5382C279.743 42.3102 279.982 41.9712 280.222 41.631C280.393 41.3885 280.564 41.1454 280.774 40.9413C281.02 40.7016 281.287 40.4907 281.569 40.298C281.598 40.2786 281.626 40.2588 281.654 40.2389Z" fill="#0D0D0D"/>
<path fill-rule="evenodd" clip-rule="evenodd" d="M259.459 49.9598C260.166 49.6663 260.797 49.1767 261.258 48.5513C261.419 48.3338 261.46 48.1042 261.427 47.8942C261.389 47.6581 261.252 47.4441 261.064 47.3005C260.876 47.1565 260.641 47.0855 260.414 47.1217C260.217 47.1532 260.02 47.2631 259.865 47.4912L259.832 47.5368C259.558 47.9143 259.201 48.224 258.794 48.4236C258.401 48.6161 257.962 48.7059 257.508 48.6536C256.643 48.5542 256.047 48.0782 255.413 47.4318C255.334 47.3501 255.256 47.266 255.177 47.1804C255.127 47.1029 255.057 47.0531 254.981 47.0269C254.895 46.9979 254.799 46.9996 254.71 47.031C254.625 47.0612 254.549 47.1186 254.498 47.195C254.449 47.2676 254.421 47.3572 254.43 47.4604C254.488 48.1303 254.833 48.7282 255.322 49.1976C255.865 49.719 256.585 50.0797 257.262 50.2062C258.009 50.3456 258.77 50.2458 259.459 49.9598ZM256.91 39.625C256.116 40.1163 254.905 41.2618 255.76 42.4798C256.766 43.5536 258.214 42.3224 258.928 41.7655C259.59 41.3339 260.333 42.4439 259.719 42.9478C254.562 46.8325 252.469 39.7534 256.508 39.0474C256.953 38.9696 257.118 39.473 256.91 39.625ZM266.152 35.1061C266.064 33.9976 264.405 33.7459 264.24 34.8428C264.092 35.8253 264.266 36.7279 264.701 37.6125C265.117 38.4576 266.161 38.0633 266.24 37.2938C266.346 36.2622 266.207 35.7956 266.152 35.1061ZM253.521 34.6153C253.29 34.3071 252.956 34.0967 252.556 34.2156C251.306 34.5873 251.674 36.3932 252.113 37.2723C252.352 37.7496 253.123 37.8707 253.472 37.4504C254.04 36.7649 254.312 35.3961 253.589 34.721C253.57 34.6861 253.548 34.6509 253.521 34.6153ZM264.719 30.2559L264.521 30.2207C263.91 30.1132 263.151 30.0099 262.718 30.5096C262.489 30.7747 262.41 31.2672 262.718 31.5209C263.26 31.9672 263.86 31.7942 264.509 31.832C265.044 31.8633 265.559 31.9534 266.074 32.1033C267.205 32.4322 268.127 33.0327 269.093 33.692C269.22 33.7785 269.349 33.6135 269.289 33.4929C268.731 32.3816 267.65 31.4687 266.568 30.9123C265.99 30.6153 265.358 30.3689 264.719 30.2559ZM254.661 29.7581L254.51 29.7895C252.865 30.1394 250.728 30.8382 249.949 32.4822C249.919 32.7146 249.95 32.7644 249.976 32.797L249.984 32.8078C250.005 32.8356 250.022 32.8739 250.121 32.9056C250.149 32.8989 250.176 32.8918 250.205 32.8844C250.562 32.7892 250.844 32.658 251.118 32.5219L251.414 32.3733C251.758 32.2016 252.105 32.0362 252.473 31.9141C253.258 31.6536 254.066 31.4701 254.886 31.3721C255.063 31.3509 255.234 31.2899 255.369 31.1853C255.498 31.086 255.595 30.9486 255.64 30.7659C255.698 30.5294 255.681 30.3504 255.557 30.1371C255.463 29.9769 255.329 29.8659 255.175 29.8022C255.018 29.7372 254.839 29.7218 254.661 29.7581Z" fill="#0D0D0D"/>
<path fill-rule="evenodd" clip-rule="evenodd" d="M248.187 37.4855C248.482 38.3046 248.93 39.1572 249.478 39.8465C251.696 41.7655 253.851 40.703 254.946 38.1021C255.361 36.2642 254.257 34.2843 253.088 32.9322C251.398 31.2022 248.641 32.1102 247.864 34.1668C247.817 34.4333 247.788 34.6991 247.775 34.9641C247.791 35.8252 247.892 36.5611 248.187 37.3791M269.507 35.8338C266.585 32.2829 261.118 32.093 261.258 37.5582C261.886 44.476 272.455 42.778 269.507 35.8338ZM247.268 32.8716C247.37 32.6944 247.484 32.523 247.608 32.359C247.654 32.3311 247.68 32.0838 247.849 32.0655C250.102 29.5264 254.059 30.967 255.489 33.497C255.75 33.8169 255.963 34.1914 256.12 34.5871C257.529 34.3231 259.171 34.3744 260.482 34.9181C261.781 31.4517 265.715 31.1423 268.307 32.6233C269.919 33.4335 270.965 35.1301 272.533 36.0622C276.219 36.3332 280.175 35.4894 283.795 36.4341C286.649 37.0405 284.263 38.5173 283.784 37.5317C280.372 36.5016 276.329 37.3721 272.785 37.14C272.417 37.7767 271.71 38.2977 271.006 38.2755C270.246 45.1631 260.415 44.021 260.076 37.8984C259.691 37.277 259.213 36.6823 258.528 36.2951C258.266 36.2397 258.012 36.1676 257.781 36.0561C257.385 35.9991 256.776 36.1704 256.412 36.5069C255.165 44.1496 247.983 43.2595 246.699 36.5642C246.674 36.5376 246.602 36.4377 246.547 36.2776C246.108 35.6841 245.033 35.4635 245.204 34.4615C245.357 33.4593 246.596 33.4713 247.268 32.8716Z" fill="#0D0D0D"/>
<path d="M238.303 89.3328C241.479 103.625 238.303 122.417 236.318 130.027C221.595 130.358 192.547 130.821 194.135 130.027C196.12 129.034 202.075 118.613 202.075 116.628C202.075 114.643 203.068 111.665 200.586 101.74C198.105 91.8143 194.631 80.3999 194.631 67.497C194.631 54.594 210.015 45.6611 214.978 46.1574C219.941 46.6537 234.332 71.4671 238.303 89.3328Z" fill="#D9D9D9" stroke="#D9D9D9"/>
<path d="M181.727 45.1653C193.638 42.3862 215.37 45.3466 215.37 46.2908C215.37 47.2349 203.265 51.8152 200.089 54.5943C196.119 58.0682 194.63 63.5272 194.63 73.9488C194.63 84.3705 204.556 107.695 202.571 115.635C200.983 121.988 195.954 127.877 193.638 130.027H171.306C170.479 122.252 171.306 111.169 166.839 96.2809C164.4 88.1516 150.223 63.2857 149.966 60.0533C149.709 56.8209 169.817 47.9444 181.727 45.1653Z" fill="#E6EBF7" stroke="#E6EBF7"/>
<path d="M170.809 130.027L169.817 121.591C165.351 121.591 150.681 108.21 145.719 101.263C141.204 94.9417 131.604 81.3932 122.671 75.4378C115.861 70.8977 104.475 70.3097 99.3467 70.9714C104.475 77.2575 112.743 82.6331 119.197 102.733C122.671 113.55 132.928 125.23 137.559 130.027H170.809Z" fill="#C3D6ED" stroke="#C3D6ED"/>
<path d="M44.5724 84.1574C65.6142 70.6589 90.7448 70.6399 98.8505 70.9708C97.5272 69.3165 90.8318 64.9406 82.2989 60.8326C70.1298 54.974 45.9721 52.684 27.5994 68.7601C5.40246 88.1824 3.56736 112.993 0 135.19C8.72069 123.562 23.5306 97.6559 44.5724 84.1574Z" fill="#E6EBF7" stroke="#E6EBF7"/>
<path d="M70.914 69.8948C66.6882 66.1899 56.6441 61.5493 53.9193 62.3416" stroke="#C3D6ED" stroke-width="2" stroke-linecap="round"/>
<path d="M59.5842 75.56C55.2371 71.8802 45.1451 67.4478 42.5894 68.0067" stroke="#C3D6ED" stroke-width="2" stroke-linecap="round"/>
<path d="M42.5894 79.3366C40.3445 77.2375 33.6433 73.7915 31.2595 73.6716" stroke="#C3D6ED" stroke-width="2" stroke-linecap="round"/>
<path d="M163.441 79.3365C166.274 77.7629 172.883 74.6157 176.66 74.6157" stroke="#C3D6ED" stroke-width="2" stroke-linecap="round"/>
<path d="M165.329 84.0571C168.162 82.4835 174.771 79.3363 178.548 79.3363" stroke="#C3D6ED" stroke-width="2" stroke-linecap="round"/>
<path d="M167.218 88.7779C170.051 87.2043 176.66 84.0571 180.436 84.0571" stroke="#C3D6ED" stroke-width="2" stroke-linecap="round"/>
<path d="M155.888 62.3417C168.264 56.9628 176.966 54.817 191.766 54.7885" stroke="#C3D6ED" stroke-width="2" stroke-linecap="round"/>
<path d="M169.897 96.1099C178.101 91.0291 183.869 89.0022 193.68 88.9752" stroke="#C3D6ED" stroke-width="2" stroke-linecap="round"/>
<path d="M157.776 68.0065C169.501 62.6276 177.745 60.4818 191.766 60.4532" stroke="#C3D6ED" stroke-width="2" stroke-linecap="round"/>
<path d="M171.483 101.659C179.14 96.5783 184.523 94.5514 193.68 94.5244" stroke="#C3D6ED" stroke-width="2" stroke-linecap="round"/>
<path d="M159.665 73.6715C170.738 68.2926 178.524 66.1469 191.766 66.1183" stroke="#C3D6ED" stroke-width="2" stroke-linecap="round"/>
<path d="M171.483 108.001C179.14 102.356 184.523 100.104 193.68 100.074" stroke="#C3D6ED" stroke-width="2" stroke-linecap="round"/>
</svg>
