<svg width="8" height="8" viewBox="0 0 8 8" fill="none" xmlns="http://www.w3.org/2000/svg">
<path d="M7.13773 1.80467L4.9424 4L7.13773 6.19534C7.2014 6.25683 7.25219 6.3304 7.28713 6.41173C7.32207 6.49307 7.34046 6.58055 7.34123 6.66907C7.342 6.75759 7.32513 6.84537 7.29161 6.92731C7.25809 7.00924 7.20859 7.08367 7.14599 7.14627C7.0834 7.20886 7.00896 7.25836 6.92703 7.29188C6.8451 7.32541 6.75731 7.34227 6.66879 7.3415C6.58028 7.34073 6.49279 7.32234 6.41146 7.2874C6.33012 7.25246 6.25656 7.20168 6.19506 7.138L3.99973 4.94267L1.8044 7.138C1.7429 7.20168 1.66933 7.25246 1.588 7.2874C1.50666 7.32234 1.41918 7.34073 1.33066 7.3415C1.24214 7.34227 1.15436 7.32541 1.07243 7.29188C0.990495 7.25836 0.91606 7.20886 0.853465 7.14627C0.79087 7.08367 0.741368 7.00924 0.707847 6.92731C0.674327 6.84537 0.657459 6.75759 0.658228 6.66907C0.658998 6.58055 0.677388 6.49307 0.712328 6.41173C0.747267 6.3304 0.798055 6.25683 0.861729 6.19534L3.05706 4L0.861729 1.80467C0.798055 1.74317 0.747267 1.66961 0.712328 1.58827C0.677388 1.50694 0.658998 1.41946 0.658228 1.33094C0.657459 1.24242 0.674327 1.15463 0.707847 1.0727C0.741368 0.99077 0.79087 0.916335 0.853465 0.85374C0.91606 0.791145 0.990495 0.741643 1.07243 0.708122C1.15436 0.674601 1.24214 0.657734 1.33066 0.658503C1.41918 0.659272 1.50666 0.677663 1.588 0.712602C1.66933 0.747542 1.7429 0.79833 1.8044 0.862003L3.99973 3.05734L6.19506 0.862003C6.25656 0.79833 6.33012 0.747542 6.41146 0.712602C6.49279 0.677663 6.58028 0.659272 6.66879 0.658503C6.75731 0.657734 6.8451 0.674601 6.92703 0.708122C7.00896 0.741643 7.0834 0.791145 7.14599 0.85374C7.20859 0.916335 7.25809 0.99077 7.29161 1.0727C7.32513 1.15463 7.342 1.24242 7.34123 1.33094C7.34046 1.41946 7.32207 1.50694 7.28713 1.58827C7.25219 1.66961 7.2014 1.74317 7.13773 1.80467Z" fill="#1C262C"/>
</svg>
