<svg width="264" height="176" viewBox="0 0 264 176" fill="none" xmlns="http://www.w3.org/2000/svg">
<rect width="264" height="176" rx="15" fill="#F4C95D"/>
<path d="M118.698 50.2143C124.762 47.7024 131.576 47.7024 137.641 50.2143L146.699 53.9665C152.764 56.4785 157.582 61.2967 160.094 67.3611L163.846 76.4197C166.358 82.4842 166.358 89.2981 163.846 95.3626L160.094 104.421C157.582 110.486 152.764 115.304 146.699 117.816L137.641 121.568C131.576 124.08 124.762 124.08 118.698 121.568L109.639 117.816C103.575 115.304 98.7565 110.486 96.2445 104.421L92.4923 95.3625C89.9803 89.2981 89.9803 82.4842 92.4923 76.4197L96.2445 67.3611C98.7565 61.2967 103.575 56.4785 109.639 53.9665L118.698 50.2143Z" fill="url(#paint0_linear_4034_106131)"/>
<g clip-path="url(#clip0_4034_106131)">
<path d="M136.368 74.2636H141.944L143.984 71.1356H123.04L121 74.2636H124.536C128.208 74.2636 131.608 74.5356 132.968 77.6636H123.04L121 80.7916H133.376V80.9276C133.376 83.2396 131.472 86.7756 125.216 86.7756H122.088V89.7676L134.328 105.136H139.904L127.12 89.2236C132.424 88.9516 137.32 85.9596 138 80.7916H141.944L143.984 77.6636H137.864C137.728 76.4396 137.184 75.2156 136.368 74.2636Z" fill="white"/>
</g>
<path d="M111.218 53.8709C116.299 49.2146 123.022 46.7675 129.908 47.0682L142.386 47.613C149.272 47.9136 155.756 50.9373 160.413 56.0189L168.851 65.2277C173.508 70.3092 175.955 77.0324 175.654 83.9181L175.109 96.3965C174.808 103.282 171.785 109.767 166.703 114.423L157.494 122.861C152.413 127.518 145.69 129.965 138.804 129.664L126.326 129.119C119.44 128.819 112.956 125.795 108.299 120.713L99.8608 111.505C95.2044 106.423 92.7574 99.6999 93.058 92.8141L93.6029 80.3357C93.9035 73.4499 96.9272 66.9656 102.009 62.3093L111.218 53.8709Z" stroke="#D64568" stroke-opacity="0.4" stroke-width="2.475"/>
<rect x="44" y="128" width="176" height="32" rx="8" fill="#F2542D"/>
<path d="M72.4851 144.1C72.4851 143.139 72.6998 142.28 73.1291 141.524C73.5678 140.759 74.1605 140.166 74.9071 139.746C75.6631 139.317 76.5078 139.102 77.4411 139.102C78.5331 139.102 79.4898 139.382 80.3111 139.942C81.1325 140.502 81.7065 141.277 82.0331 142.266H79.7791C79.5551 141.799 79.2378 141.449 78.8271 141.216C78.4258 140.983 77.9591 140.866 77.4271 140.866C76.8578 140.866 76.3491 141.001 75.9011 141.272C75.4625 141.533 75.1171 141.907 74.8651 142.392C74.6225 142.877 74.5011 143.447 74.5011 144.1C74.5011 144.744 74.6225 145.313 74.8651 145.808C75.1171 146.293 75.4625 146.671 75.9011 146.942C76.3491 147.203 76.8578 147.334 77.4271 147.334C77.9591 147.334 78.4258 147.217 78.8271 146.984C79.2378 146.741 79.5551 146.387 79.7791 145.92H82.0331C81.7065 146.919 81.1325 147.698 80.3111 148.258C79.4991 148.809 78.5425 149.084 77.4411 149.084C76.5078 149.084 75.6631 148.874 74.9071 148.454C74.1605 148.025 73.5678 147.432 73.1291 146.676C72.6998 145.92 72.4851 145.061 72.4851 144.1ZM87.1512 149.126C86.4045 149.126 85.7325 148.963 85.1352 148.636C84.5379 148.3 84.0665 147.829 83.7212 147.222C83.3852 146.615 83.2172 145.915 83.2172 145.122C83.2172 144.329 83.3899 143.629 83.7352 143.022C84.0899 142.415 84.5705 141.949 85.1772 141.622C85.7839 141.286 86.4605 141.118 87.2072 141.118C87.9539 141.118 88.6305 141.286 89.2372 141.622C89.8439 141.949 90.3199 142.415 90.6652 143.022C91.0199 143.629 91.1972 144.329 91.1972 145.122C91.1972 145.915 91.0152 146.615 90.6512 147.222C90.2965 147.829 89.8112 148.3 89.1952 148.636C88.5885 148.963 87.9072 149.126 87.1512 149.126ZM87.1512 147.418C87.5059 147.418 87.8372 147.334 88.1452 147.166C88.4625 146.989 88.7145 146.727 88.9012 146.382C89.0879 146.037 89.1812 145.617 89.1812 145.122C89.1812 144.385 88.9852 143.82 88.5932 143.428C88.2105 143.027 87.7392 142.826 87.1792 142.826C86.6192 142.826 86.1479 143.027 85.7652 143.428C85.3919 143.82 85.2052 144.385 85.2052 145.122C85.2052 145.859 85.3872 146.429 85.7512 146.83C86.1245 147.222 86.5912 147.418 87.1512 147.418ZM102.267 141.132C103.219 141.132 103.984 141.426 104.563 142.014C105.151 142.593 105.445 143.405 105.445 144.45V149H103.485V144.716C103.485 144.109 103.331 143.647 103.023 143.33C102.715 143.003 102.295 142.84 101.763 142.84C101.231 142.84 100.806 143.003 100.489 143.33C100.181 143.647 100.027 144.109 100.027 144.716V149H98.0669V144.716C98.0669 144.109 97.9129 143.647 97.6049 143.33C97.2969 143.003 96.8769 142.84 96.3449 142.84C95.8036 142.84 95.3743 143.003 95.0569 143.33C94.7489 143.647 94.5949 144.109 94.5949 144.716V149H92.6349V141.244H94.5949V142.182C94.8469 141.855 95.1689 141.599 95.5609 141.412C95.9623 141.225 96.4009 141.132 96.8769 141.132C97.4836 141.132 98.0249 141.263 98.5009 141.524C98.9769 141.776 99.3456 142.14 99.6069 142.616C99.8589 142.168 100.223 141.809 100.699 141.538C101.184 141.267 101.707 141.132 102.267 141.132ZM108.299 140.32C107.954 140.32 107.664 140.213 107.431 139.998C107.207 139.774 107.095 139.499 107.095 139.172C107.095 138.845 107.207 138.575 107.431 138.36C107.664 138.136 107.954 138.024 108.299 138.024C108.644 138.024 108.929 138.136 109.153 138.36C109.386 138.575 109.503 138.845 109.503 139.172C109.503 139.499 109.386 139.774 109.153 139.998C108.929 140.213 108.644 140.32 108.299 140.32ZM109.265 141.244V149H107.305V141.244H109.265ZM115.499 141.132C116.423 141.132 117.17 141.426 117.739 142.014C118.309 142.593 118.593 143.405 118.593 144.45V149H116.633V144.716C116.633 144.1 116.479 143.629 116.171 143.302C115.863 142.966 115.443 142.798 114.911 142.798C114.37 142.798 113.941 142.966 113.623 143.302C113.315 143.629 113.161 144.1 113.161 144.716V149H111.201V141.244H113.161V142.21C113.423 141.874 113.754 141.613 114.155 141.426C114.566 141.23 115.014 141.132 115.499 141.132ZM123.495 141.118C124.074 141.118 124.583 141.235 125.021 141.468C125.46 141.692 125.805 141.986 126.057 142.35V141.244H128.031V149.056C128.031 149.775 127.887 150.414 127.597 150.974C127.308 151.543 126.874 151.991 126.295 152.318C125.717 152.654 125.017 152.822 124.195 152.822C123.094 152.822 122.189 152.565 121.479 152.052C120.779 151.539 120.383 150.839 120.289 149.952H122.235C122.338 150.307 122.557 150.587 122.893 150.792C123.239 151.007 123.654 151.114 124.139 151.114C124.709 151.114 125.171 150.941 125.525 150.596C125.88 150.26 126.057 149.747 126.057 149.056V147.852C125.805 148.216 125.455 148.519 125.007 148.762C124.569 149.005 124.065 149.126 123.495 149.126C122.842 149.126 122.245 148.958 121.703 148.622C121.162 148.286 120.733 147.815 120.415 147.208C120.107 146.592 119.953 145.887 119.953 145.094C119.953 144.31 120.107 143.615 120.415 143.008C120.733 142.401 121.157 141.935 121.689 141.608C122.231 141.281 122.833 141.118 123.495 141.118ZM126.057 145.122C126.057 144.646 125.964 144.24 125.777 143.904C125.591 143.559 125.339 143.297 125.021 143.12C124.704 142.933 124.363 142.84 123.999 142.84C123.635 142.84 123.299 142.929 122.991 143.106C122.683 143.283 122.431 143.545 122.235 143.89C122.049 144.226 121.955 144.627 121.955 145.094C121.955 145.561 122.049 145.971 122.235 146.326C122.431 146.671 122.683 146.937 122.991 147.124C123.309 147.311 123.645 147.404 123.999 147.404C124.363 147.404 124.704 147.315 125.021 147.138C125.339 146.951 125.591 146.69 125.777 146.354C125.964 146.009 126.057 145.598 126.057 145.122ZM136.249 149.126C135.615 149.126 135.045 149.014 134.541 148.79C134.037 148.557 133.636 148.244 133.337 147.852C133.048 147.46 132.889 147.026 132.861 146.55H134.835C134.873 146.849 135.017 147.096 135.269 147.292C135.531 147.488 135.853 147.586 136.235 147.586C136.609 147.586 136.898 147.511 137.103 147.362C137.318 147.213 137.425 147.021 137.425 146.788C137.425 146.536 137.295 146.349 137.033 146.228C136.781 146.097 136.375 145.957 135.815 145.808C135.237 145.668 134.761 145.523 134.387 145.374C134.023 145.225 133.706 144.996 133.435 144.688C133.174 144.38 133.043 143.965 133.043 143.442C133.043 143.013 133.165 142.621 133.407 142.266C133.659 141.911 134.014 141.631 134.471 141.426C134.938 141.221 135.484 141.118 136.109 141.118C137.033 141.118 137.771 141.351 138.321 141.818C138.872 142.275 139.175 142.896 139.231 143.68H137.355C137.327 143.372 137.197 143.129 136.963 142.952C136.739 142.765 136.436 142.672 136.053 142.672C135.699 142.672 135.423 142.737 135.227 142.868C135.041 142.999 134.947 143.181 134.947 143.414C134.947 143.675 135.078 143.876 135.339 144.016C135.601 144.147 136.007 144.282 136.557 144.422C137.117 144.562 137.579 144.707 137.943 144.856C138.307 145.005 138.62 145.239 138.881 145.556C139.152 145.864 139.292 146.275 139.301 146.788C139.301 147.236 139.175 147.637 138.923 147.992C138.681 148.347 138.326 148.627 137.859 148.832C137.402 149.028 136.865 149.126 136.249 149.126ZM144.354 149.126C143.608 149.126 142.936 148.963 142.338 148.636C141.741 148.3 141.27 147.829 140.924 147.222C140.588 146.615 140.42 145.915 140.42 145.122C140.42 144.329 140.593 143.629 140.938 143.022C141.293 142.415 141.774 141.949 142.38 141.622C142.987 141.286 143.664 141.118 144.41 141.118C145.157 141.118 145.834 141.286 146.44 141.622C147.047 141.949 147.523 142.415 147.868 143.022C148.223 143.629 148.4 144.329 148.4 145.122C148.4 145.915 148.218 146.615 147.854 147.222C147.5 147.829 147.014 148.3 146.398 148.636C145.792 148.963 145.11 149.126 144.354 149.126ZM144.354 147.418C144.709 147.418 145.04 147.334 145.348 147.166C145.666 146.989 145.918 146.727 146.104 146.382C146.291 146.037 146.384 145.617 146.384 145.122C146.384 144.385 146.188 143.82 145.796 143.428C145.414 143.027 144.942 142.826 144.382 142.826C143.822 142.826 143.351 143.027 142.968 143.428C142.595 143.82 142.408 144.385 142.408 145.122C142.408 145.859 142.59 146.429 142.954 146.83C143.328 147.222 143.794 147.418 144.354 147.418ZM153.282 149.126C152.535 149.126 151.863 148.963 151.266 148.636C150.669 148.3 150.197 147.829 149.852 147.222C149.516 146.615 149.348 145.915 149.348 145.122C149.348 144.329 149.521 143.629 149.866 143.022C150.221 142.415 150.701 141.949 151.308 141.622C151.915 141.286 152.591 141.118 153.338 141.118C154.085 141.118 154.761 141.286 155.368 141.622C155.975 141.949 156.451 142.415 156.796 143.022C157.151 143.629 157.328 144.329 157.328 145.122C157.328 145.915 157.146 146.615 156.782 147.222C156.427 147.829 155.942 148.3 155.326 148.636C154.719 148.963 154.038 149.126 153.282 149.126ZM153.282 147.418C153.637 147.418 153.968 147.334 154.276 147.166C154.593 146.989 154.845 146.727 155.032 146.382C155.219 146.037 155.312 145.617 155.312 145.122C155.312 144.385 155.116 143.82 154.724 143.428C154.341 143.027 153.87 142.826 153.31 142.826C152.75 142.826 152.279 143.027 151.896 143.428C151.523 143.82 151.336 144.385 151.336 145.122C151.336 145.859 151.518 146.429 151.882 146.83C152.255 147.222 152.722 147.418 153.282 147.418ZM163.064 141.132C163.988 141.132 164.734 141.426 165.304 142.014C165.873 142.593 166.158 143.405 166.158 144.45V149H164.198V144.716C164.198 144.1 164.044 143.629 163.736 143.302C163.428 142.966 163.008 142.798 162.476 142.798C161.934 142.798 161.505 142.966 161.188 143.302C160.88 143.629 160.726 144.1 160.726 144.716V149H158.766V141.244H160.726V142.21C160.987 141.874 161.318 141.613 161.72 141.426C162.13 141.23 162.578 141.132 163.064 141.132ZM170.556 139.06L170.332 145.822H168.68L168.442 139.06H170.556ZM169.548 149.098C169.193 149.098 168.899 148.991 168.666 148.776C168.442 148.552 168.33 148.277 168.33 147.95C168.33 147.623 168.442 147.353 168.666 147.138C168.899 146.914 169.193 146.802 169.548 146.802C169.893 146.802 170.178 146.914 170.402 147.138C170.626 147.353 170.738 147.623 170.738 147.95C170.738 148.277 170.626 148.552 170.402 148.776C170.178 148.991 169.893 149.098 169.548 149.098Z" fill="white"/>
<path d="M184.5 136.667C183.05 136.667 181.632 137.097 180.426 137.903C179.22 138.708 178.28 139.854 177.725 141.194C177.17 142.534 177.025 144.008 177.308 145.431C177.591 146.853 178.289 148.16 179.315 149.185C180.34 150.211 181.647 150.909 183.069 151.192C184.492 151.475 185.966 151.33 187.306 150.775C188.646 150.22 189.792 149.28 190.597 148.074C191.403 146.868 191.833 145.45 191.833 144C191.831 142.056 191.058 140.192 189.683 138.817C188.308 137.442 186.444 136.669 184.5 136.667ZM184.5 150C183.313 150 182.153 149.648 181.167 148.989C180.18 148.329 179.411 147.392 178.957 146.296C178.503 145.2 178.384 143.993 178.615 142.829C178.847 141.666 179.418 140.596 180.257 139.757C181.096 138.918 182.166 138.347 183.329 138.115C184.493 137.884 185.7 138.003 186.796 138.457C187.892 138.911 188.83 139.68 189.489 140.667C190.148 141.653 190.5 142.813 190.5 144C190.498 145.591 189.866 147.116 188.741 148.241C187.616 149.365 186.091 149.998 184.5 150ZM181.833 143.333V142C181.833 141.823 181.904 141.654 182.029 141.529C182.154 141.404 182.323 141.333 182.5 141.333C182.677 141.333 182.846 141.404 182.971 141.529C183.096 141.654 183.167 141.823 183.167 142V143.333C183.167 143.51 183.096 143.68 182.971 143.805C182.846 143.93 182.677 144 182.5 144C182.323 144 182.154 143.93 182.029 143.805C181.904 143.68 181.833 143.51 181.833 143.333ZM187.167 142V143.333C187.167 143.51 187.096 143.68 186.971 143.805C186.846 143.93 186.677 144 186.5 144C186.323 144 186.154 143.93 186.029 143.805C185.904 143.68 185.833 143.51 185.833 143.333V142C185.833 141.823 185.904 141.654 186.029 141.529C186.154 141.404 186.323 141.333 186.5 141.333C186.677 141.333 186.846 141.404 186.971 141.529C187.096 141.654 187.167 141.823 187.167 142ZM181.833 145.333H187.167C187.167 146.041 186.886 146.719 186.386 147.219C185.886 147.719 185.207 148 184.5 148C183.793 148 183.115 147.719 182.614 147.219C182.114 146.719 181.833 146.041 181.833 145.333Z" fill="white"/>
<defs>
<linearGradient id="paint0_linear_4034_106131" x1="88.5691" y1="85.8911" x2="167.769" y2="85.9175" gradientUnits="userSpaceOnUse">
<stop stop-color="#E25375"/>
<stop offset="1" stop-color="#BB2549"/>
</linearGradient>
<clipPath id="clip0_4034_106131">
<rect width="23.12" height="34" fill="white" transform="translate(121 70.9996)"/>
</clipPath>
</defs>
</svg>
