<svg width="261" height="176" viewBox="0 0 261 176" fill="none" xmlns="http://www.w3.org/2000/svg">
<g clip-path="url(#clip0_1160_28274)">
<rect width="261" height="176" rx="15" fill="#F4C95D"/>
<path fill-rule="evenodd" clip-rule="evenodd" d="M213.124 112.858C210.929 113.073 208.734 113.288 206.539 113.504C196.025 114.307 185.517 115.985 175.084 116.991C174.824 116.569 174.316 116.638 174.007 116.932C172.966 116.841 171.799 116.045 170.856 116.873C170.826 116.868 170.795 116.863 170.764 116.86C169.085 113.638 167.925 110.201 166.798 106.759C166.079 104.643 165.112 102.595 163.325 101.174C160.274 99.0562 153.284 94.7622 149.702 94.9426C149.643 94.3013 149.344 93.6403 148.853 93.2132C149.935 91.3687 145.609 90.1651 145.304 90.379C145.499 84.2164 142.601 78.8646 136.209 77.6374C130.482 76.4441 122.338 76.2437 119.258 82.2281C118.919 82.19 115.459 82.172 115.124 82.2095C114.603 81.5501 108.886 87.7979 111.229 89.973C90.2807 99.2399 78.3693 98.1341 72.571 124.186C71.7872 126.633 71.7301 129.311 70.9023 131.704C67.9575 138.58 65.569 145.903 64.9745 153.385C63.5388 153.753 63.3737 156.284 65.0367 156.65C65.6719 156.79 66.2031 156.981 66.6663 157.344C66.3042 163.476 67.7872 177.482 68.7215 177.439C70.6267 183.502 79.125 185.214 85.1414 183.083C84.1043 185.034 85.1414 186.261 85.1414 187.304C106.79 188.123 130.461 187.651 152.104 188.774C154.872 188.735 157.784 189.454 160.515 189.04C162.18 188.641 162.183 186.022 160.494 185.699L167.874 184.096C167.71 184.033 170.917 181.9 173.341 177.913C175.597 173.454 174.062 168.071 175.084 163.22C183.069 162.567 191.187 162.287 199.084 160.935C200.161 164.157 204.823 160.304 206.304 158.754C206.303 158.751 206.301 158.749 206.299 158.747C207.016 158.55 207.591 157.878 207.61 157.083C208.113 156.364 208.219 155.351 207.736 154.657C209.947 141.903 213.317 128.88 214.535 116.006C214.965 115.911 215.371 115.722 215.714 115.431L215.686 115.403C216.269 114.754 216.382 113.633 215.411 113.081C214.628 112.636 213.974 112.774 213.124 112.858Z" fill="#D08B5B"/>
<path fill-rule="evenodd" clip-rule="evenodd" d="M129.638 160.594L131.329 161.67L145.164 166.128L153.619 167.204L160.537 166.128V177.965L161.92 189.033C161.305 190.161 155.464 190.161 144.396 189.033C137.34 188.315 111.553 187.966 105.682 187.813L105.349 187.803C98.45 187.604 91.6348 187.604 84.9036 187.803V183.653L104.119 174.122L121.337 164.437L129.638 160.594ZM119.835 81.2607L121.105 82.2095L118.331 86.7675L131.845 97.6991V106.431L136.124 110.477L138.57 106.431L142.016 101.848L144.465 94.4192L143.631 89.525L145.308 89.3671C145.316 89.7016 145.315 90.0391 145.304 90.3791C145.609 90.1652 149.935 91.3687 148.853 93.2133C149.344 93.6404 149.643 94.3014 149.702 94.9427C153.284 94.7622 160.274 99.0563 163.325 101.174C165.112 102.595 166.079 104.643 166.798 106.759L166.967 107.275L167.142 107.805L167.318 108.335C168.291 111.246 169.342 114.13 170.764 116.861C170.795 116.863 170.826 116.869 170.856 116.873C171.799 116.045 172.966 116.841 174.007 116.932C174.309 116.645 174.801 116.572 175.065 116.963L175.084 116.991L162.114 119.546L153.557 149.561L146.106 143.512L142.106 144.107L131.544 147.916L119.259 151.107L91.2148 158.839H87.6435L66.8621 153.821L64.9893 153.202C65.6077 145.784 67.9813 138.525 70.9022 131.704C71.73 129.311 71.787 126.633 72.5709 124.186C78.3692 98.1342 90.2806 99.24 111.229 89.973C108.886 87.798 114.603 81.5502 115.124 82.2095L115.157 82.2067L115.227 82.2029L115.319 82.1997C116.136 82.176 118.954 82.194 119.258 82.2282C119.434 81.8858 119.627 81.5636 119.835 81.2607Z" fill="#D64568"/>
<path fill-rule="evenodd" clip-rule="evenodd" d="M215.197 113.769L214.811 115.922C214.719 115.952 214.625 115.977 214.531 115.998C214.409 117.282 214.266 118.567 214.106 119.853L211.71 133.202C211.297 135.564 210.905 137.931 210.516 140.298L210 142.841L209.68 144.422C208.991 147.845 208.321 151.257 207.733 154.649C207.821 154.777 207.89 154.916 207.94 155.061L207.895 155.252L207.864 155.38L207.831 155.506C207.368 157.289 206.56 159.019 204.658 159.543C203.223 159.939 201.649 159.975 200.167 160.131L200.003 160.149L174.075 163.065C170.943 163.417 167.811 163.78 164.68 164.146L161.966 164.465C158.183 164.903 154.378 165.248 150.65 166.041C150.513 166.07 150.4 166.125 150.307 166.196C151.058 163.355 151.776 160.518 152.428 157.647C153.161 154.417 153.856 151.181 154.64 147.962C156.22 141.478 157.99 135.036 159.928 128.65C160.335 127.31 160.751 125.972 161.176 124.637L161.475 123.705L161.704 122.961C162.06 121.828 162.5 120.663 163.542 120.037C164.761 119.306 166.424 119.184 167.808 118.931L168.744 118.755C170.146 118.494 171.549 118.242 172.954 118.001C179.68 116.844 186.445 115.916 193.234 115.219C200.299 114.493 207.389 114.022 214.487 113.791L215.197 113.769ZM150.844 158.279L150.911 158.285L149.942 166.027C149.787 165.918 149.591 165.852 149.351 165.852C146.174 165.862 143.129 164.846 140.184 163.73L139.735 163.559L138.484 163.079C137.213 162.592 135.935 162.115 134.634 161.72L134.107 161.562L133.84 161.483C132.854 161.195 131.818 160.933 130.792 160.868L130.653 160.861L130.951 160.704C130.995 160.681 131.033 160.655 131.067 160.628C131.631 160.67 132.197 160.658 132.792 160.551C133.911 160.349 135 159.96 135.999 159.418L136.446 159.176L136.629 159.079L136.749 159.016L136.869 158.956C137.728 158.528 138.549 158.26 139.633 158.488C140.863 158.747 141.941 159.41 143.051 159.97L143.247 160.068L143.38 160.132L143.515 160.195L143.651 160.258C145.151 160.933 147.538 161.661 148.113 159.622C148.344 158.803 148.164 158.035 147.763 157.363C148.51 157.298 149.844 158.179 150.844 158.279ZM188.181 132.772L188.199 132.865C188.411 134.007 187.879 135.099 187.074 135.895C186.414 136.548 185.246 136.911 184.915 137.85C184.726 138.385 184.927 138.892 185.314 139.245L185.225 139.289L185.138 139.334L185.052 139.379L184.97 139.424L184.889 139.47C183.574 140.225 182.503 141.454 183.689 142.938C185.034 144.621 187.845 144.676 189.826 144.544L189.96 144.535C191.88 144.391 194.155 143.745 195.196 141.972C195.674 141.159 195.622 140.175 194.956 139.479C194.554 139.059 193.838 138.627 193.181 138.576C193.209 138.206 193.165 137.848 193.035 137.547C192.753 136.894 192.004 136.455 191.281 136.439C191.34 135.054 190.23 133.687 189.413 132.58L189.33 132.466L189.249 132.355C188.874 131.833 188.072 132.125 188.181 132.772ZM189.277 134.246L190.021 137.034L190.008 137.057C189.746 137.554 190.434 138.119 190.841 137.701L190.882 137.657C191.366 137.157 192.108 137.829 192.118 138.361C192.131 139.109 191.644 139.688 191.063 140.07L191.022 140.097L190.915 140.163C190.439 140.478 190.8 141.136 191.323 141.056C191.971 140.957 192.503 140.443 192.83 139.801C193.18 139.901 193.578 139.889 193.947 140.095C194.875 140.615 194.341 141.523 193.736 142.072L193.712 142.094L193.663 142.137C192.553 143.083 191.043 143.412 189.619 143.482L189.537 143.486C188.099 143.548 186.225 143.568 184.993 142.722C184.226 142.196 184.004 141.449 184.653 140.742C185.02 140.343 185.391 139.94 185.772 139.55C186.343 139.823 186.853 139.712 187.437 139.454C187.512 139.421 187.471 139.307 187.397 139.307C187.075 139.306 185.893 138.708 185.835 138.326C185.782 137.972 186.436 137.674 186.754 137.503L186.8 137.478L186.84 137.455C187.173 137.253 187.486 137.019 187.772 136.755C188.499 136.086 189.027 135.248 189.257 134.33L189.277 134.246Z" fill="#5B2A86"/>
<path fill-rule="evenodd" clip-rule="evenodd" d="M119.657 80.8382C120.309 79.199 122.514 79.8362 122.268 81.5583C122.121 82.5898 121.556 83.6792 121.049 84.5833C120.636 85.3192 120.164 86.0374 119.525 86.589C120.663 87.6503 121.843 88.6729 123.054 89.6438C124.375 90.7031 125.765 91.6796 127.201 92.5771C128.46 93.3641 129.776 94.0614 130.963 94.9595C132.066 95.7944 133.072 96.7985 133.583 98.1094C134.128 99.5052 133.891 100.947 133.49 102.342L133.444 102.499C133.034 103.881 132.324 105.547 133.308 106.849C133.809 107.512 134.538 107.982 135.167 108.512C135.726 108.983 136.25 109.495 136.731 110.045C137.781 111.244 138.634 112.594 139.172 114.098L139.221 114.234C139.682 115.566 140.019 117.196 139.396 118.503C139.217 118.878 138.64 118.756 138.54 118.391C138.313 117.565 138.325 116.699 138.135 115.861C137.937 114.99 137.608 114.162 137.178 113.38C136.347 111.865 135.221 110.572 133.891 109.478L133.493 109.154C132.455 108.303 131.502 107.399 131.291 105.99C131.066 104.482 131.67 103.046 132.058 101.618C132.329 100.624 132.418 99.6704 132.125 98.7716C131.768 99.355 131.28 99.9087 130.894 100.403C130.126 101.387 129.351 102.365 128.577 103.344C127.784 104.349 127.011 105.37 126.274 106.417C125.945 106.885 125.619 107.356 125.294 107.828C125.05 108.183 124.709 108.537 124.443 108.898C124.508 109.092 124.503 109.315 124.386 109.473C122.974 111.381 120.965 107.4 120.441 106.394C119.374 104.346 118.58 102.17 117.51 100.123C116.401 98.0002 115.138 95.9341 113.73 93.9963C112.878 92.8241 111.924 91.7231 111.145 90.5137C109.31 92.1777 106.895 93.2931 104.678 94.3046C102.241 95.4159 99.7088 96.3236 97.2103 97.2876L96.4722 97.5743C92.1672 99.2544 87.7569 101.1 84.1786 104.085C79.9737 107.591 77.4861 112.479 75.6342 117.541C73.5023 123.368 71.7386 129.352 70.0945 135.333C69.2532 138.393 68.4549 141.466 67.7044 144.55C67.043 147.267 66.4948 150.01 65.7293 152.699C67.2819 152.644 69.0527 153.245 70.3783 153.419C76.4196 154.209 82.3795 155.47 88.0832 157.652C88.7878 157.922 88.9916 158.626 88.8382 159.196C89.2445 159.081 89.6505 158.965 90.0568 158.851C89.6116 158.169 89.8241 156.95 89.8591 156.194L89.8612 156.142C89.8972 155.134 90.0065 154.126 90.0774 153.12C90.2123 151.203 90.388 149.301 90.6216 147.395L90.6812 146.918C90.9459 144.845 91.1416 142.759 91.4305 140.689L91.4646 140.452C91.3261 139.923 91.1648 139.4 90.9956 138.879C90.5445 137.492 89.908 136.186 89.3501 134.842C89.2843 134.684 89.5097 134.593 89.615 134.688C90.5598 135.538 91.3102 136.616 91.9132 137.744C91.9236 137.69 91.9328 137.637 91.9438 137.584L92.0126 137.245C92.1822 136.419 92.3886 135.551 92.8952 134.881C92.9491 134.81 93.0558 134.795 93.1068 134.881C93.5917 135.701 93.646 136.74 93.7205 137.674C93.8049 138.73 93.8155 139.799 93.8006 140.858C93.7716 142.928 93.6257 145.004 93.5095 147.07C93.3954 149.1 93.1715 151.105 92.883 153.115L92.8281 153.492C92.6871 154.449 92.5716 155.418 92.3856 156.369L92.333 156.627C92.2335 157.099 92.1723 157.763 91.9743 158.315C97.0685 156.894 102.171 155.506 107.282 154.142C110.977 153.156 114.675 152.185 118.372 151.207C118.567 150.856 118.81 150.527 119.113 150.234C120.112 149.267 121.435 148.835 122.649 149.58C122.748 149.64 122.756 149.795 122.649 149.854C122.417 149.981 122.184 150.111 121.955 150.247L124.175 149.646C125.834 149.196 127.513 148.634 129.211 148.321C132.339 146.777 135.703 145.66 138.998 144.556L139.386 144.424C141.073 143.849 142.818 143.205 144.561 142.886C145.838 142.653 147.335 142.935 147.849 144.242C148.498 144.67 149.109 145.173 149.699 145.668C150.126 146.026 150.534 146.406 150.95 146.776L151.027 146.843C151.367 147.138 151.636 147.336 151.719 147.805C151.762 148.047 151.608 148.375 151.309 148.343C150.394 148.245 149.651 147.185 149.03 146.551C148.551 146.062 148.068 145.556 147.63 145.018C147.375 145.157 147.026 145.132 146.863 144.824C146.021 143.23 143.715 144.335 142.439 144.713L140.612 145.254C139.698 145.525 138.784 145.797 137.872 146.074C135.366 146.835 132.872 147.687 130.343 148.386C130.569 148.635 130.538 149.077 130.108 149.245C128.128 150.022 125.957 150.424 123.9 150.957C122.601 151.294 121.304 151.632 120.006 151.973C119.784 152.334 119.624 152.741 119.557 153.216C119.309 154.961 119.786 156.974 120.252 158.662L120.322 158.913C120.704 160.27 121.266 161.933 122.437 162.79C122.723 162.999 123.087 163.145 123.453 163.177C125.745 161.998 128.036 160.819 130.329 159.641C130.754 159.423 131.147 159.718 131.242 160.07C132.05 159.937 132.857 159.728 133.592 159.479C134.826 159.059 135.79 158.26 136.947 157.707C139.186 156.637 141.473 157.951 143.478 158.95L143.94 159.177C144.839 159.613 146.709 160.451 147.141 159.258C147.558 158.104 146.239 156.871 145.387 156.351C144.371 155.732 143.189 155.4 142.041 155.124C141.386 154.967 140.722 154.838 140.055 154.744C139.298 154.637 138.516 154.653 137.788 154.408C137.425 154.286 137.37 153.711 137.788 153.616C138.909 153.361 140.248 153.639 141.419 153.924L142.031 154.074C143.211 154.364 144.402 154.727 145.476 155.305C146.257 155.725 147.082 156.362 147.62 157.143C148.088 156.709 148.67 156.724 149.277 156.885L149.606 156.976C150.15 157.127 150.59 157.231 151.119 157.126C151.19 156.741 151.261 156.357 151.338 155.972C152.092 152.188 152.918 148.418 153.831 144.669C155.404 138.202 157.224 131.806 159.276 125.476L159.482 124.843C159.956 123.395 160.337 121.818 161.1 120.487C161.822 119.23 162.978 118.505 164.352 118.121C165.911 117.686 167.549 117.458 169.139 117.164C169.494 117.099 169.85 117.036 170.205 116.972C169.905 116.43 169.681 115.815 169.479 115.343L169.444 115.261C169.01 114.273 168.621 113.267 168.245 112.256L167.964 111.495C167.285 109.664 166.584 107.863 165.629 106.151C164.625 104.348 163.292 102.875 161.63 101.656C158.242 99.1688 154.159 97.9004 150.873 95.243C150.738 95.1341 150.911 94.948 151.048 95.0168C153.266 96.1317 155.662 96.8897 157.969 97.7973L158.425 97.9769C160.249 98.7 162.101 99.4871 163.68 100.658C165.44 101.963 166.826 103.584 167.868 105.512C168.895 107.413 169.552 109.54 170.276 111.57L170.47 112.11C170.762 112.921 171.064 113.73 171.41 114.519C171.685 115.146 172.197 115.861 172.43 116.577C173.067 116.466 173.704 116.356 174.342 116.249C188.157 113.943 202.126 112.587 216.127 112.191C216.674 112.175 216.958 112.698 216.877 113.176C215.533 121.12 214.339 129.092 213.029 137.043C212.457 140.513 211.874 143.981 211.277 147.446C210.975 149.202 210.625 150.951 210.339 152.71C210.108 154.13 209.94 155.561 209.543 156.948C209.187 158.192 208.641 159.392 207.743 160.34C206.776 161.363 205.426 161.859 204.067 162.092C200.617 162.686 197.079 162.929 193.601 163.324L175.085 165.431C175.356 167.89 175.376 170.311 175.252 172.799L175.181 174.157C175.123 175.25 175.054 176.344 174.897 177.425C174.7 178.782 174.08 179.93 173.166 180.943C172.327 181.874 171.307 182.667 170.316 183.428C169.286 184.218 168.223 184.98 167.012 185.469L166.855 185.531C165.794 185.945 163.802 186.587 162.35 186.353C162.54 187.303 162.907 188.325 162.582 189.266C162.431 189.702 161.86 189.92 161.51 189.549C160.817 188.812 160.763 187.839 160.598 186.879C160.428 185.879 160.28 184.875 160.15 183.87C159.897 181.925 159.7 179.962 159.64 178.001C159.578 175.987 159.602 173.97 159.71 171.958C159.766 170.925 159.835 169.892 159.966 168.866C160.022 168.428 160.079 167.99 160.145 167.553C160.169 167.394 160.195 167.235 160.223 167.077L158.561 167.265C156.013 167.549 153.464 167.806 150.897 167.846C150.594 167.85 150.36 167.712 150.207 167.511C150.044 167.776 149.761 167.965 149.355 167.964C145.771 167.951 142.433 166.779 139.174 165.398C137.531 164.701 135.913 163.947 134.268 163.257C132.732 162.613 131.09 162.153 129.591 161.427L125.653 163.493C125.624 163.594 125.587 163.69 125.547 163.771C125.291 164.294 124.785 164.578 124.269 164.792C123.773 164.998 123.26 165.062 122.76 165.01C119.773 166.575 116.785 168.139 113.796 169.699L110.805 171.257C104.848 174.36 98.9134 177.512 92.9181 180.542L92.4767 180.764C90.4059 181.802 88.1823 182.855 85.8842 183.64C85.8433 184.222 85.8691 184.788 85.9178 185.403L85.9296 185.537C85.9981 186.265 86.145 187.177 85.5613 187.695C85.2577 187.964 84.7154 187.965 84.5089 187.559C84.1343 186.822 84.4707 185.661 84.5893 184.861C84.6315 184.576 84.6828 184.284 84.7587 184C82.1242 184.784 79.4098 185.165 76.7289 184.724C74.1186 184.296 72.0969 182.652 70.4671 180.64C68.7471 178.518 67.5248 176.044 66.869 173.392C66.1227 170.375 66.0739 167.259 66.0915 164.168C66.1101 160.877 66.2318 157.57 66.6321 154.301C66.1935 154.198 65.7072 154.109 65.264 154.139C65.0444 154.491 64.6186 154.638 64.2338 154.593C63.3971 155.516 65.5195 156.459 66.1977 156.695C66.4332 156.777 66.408 157.159 66.1364 157.148L65.9653 157.14C64.9173 157.084 63.8345 156.905 63.2183 155.931C62.7246 155.151 62.8729 154.226 63.4615 153.589C63.8503 149.913 64.7797 146.334 65.6447 142.748C66.4936 139.228 67.4377 135.731 68.4383 132.252L68.8868 130.695C70.4623 125.239 72.109 119.74 74.2822 114.501C75.3673 111.885 76.6174 109.318 78.3119 107.037C79.8915 104.911 81.7563 103.091 83.8999 101.537C87.896 98.6402 92.585 96.8897 97.1922 95.222L97.3984 95.1474C99.7859 94.2837 102.168 93.4098 104.528 92.4741C106.615 91.6466 108.615 90.5974 110.693 89.7574C110.625 89.6349 110.56 89.511 110.497 89.3857L110.459 89.418C110.452 89.4232 110.446 89.4283 110.439 89.4331C110.23 89.5779 109.922 89.5067 109.75 89.3442C109.264 88.8855 109.428 88.3763 109.753 87.9005L109.795 87.84C110.192 87.284 110.546 86.6961 110.912 86.1199L111.142 85.7596C111.757 84.7971 112.403 83.8281 113.223 83.0325C113.603 82.6639 114.018 82.3881 114.459 82.1826C114.421 82.1029 114.751 81.9401 114.845 82.0221C116.24 81.5114 117.846 81.6184 119.367 81.7592M174.189 165.532L172.249 165.753C170.115 165.996 167.98 166.231 165.844 166.463L161.206 166.967C161.194 167.232 161.162 167.49 161.156 167.69C161.126 168.719 161.103 169.749 161.082 170.779C161.039 172.843 161.086 174.91 161.222 176.97C161.354 178.966 161.527 180.963 161.797 182.946L161.852 183.342L161.884 183.551C162.104 183.572 162.32 183.676 162.5 183.891C162.892 184.359 164.313 183.904 164.867 183.707C165.78 183.382 166.639 182.834 167.432 182.284C168.206 181.746 168.903 181.12 169.573 180.46L170.121 179.918C170.666 179.377 171.212 178.799 171.546 178.118C171.999 177.194 172.058 176.059 172.191 175.053C172.354 173.814 172.549 172.576 172.755 171.345M117.871 152.536L117.67 152.589C110.36 154.531 103.061 156.531 95.7286 158.388C92.1001 159.307 88.4543 160.159 84.8213 161.06L84.2331 161.207C81.3671 161.931 78.4666 162.803 76.2718 164.882C76.1908 164.959 76.0732 164.841 76.1495 164.76C78.5148 162.242 81.879 161.176 85.1091 160.252C85.7062 160.081 86.304 159.914 86.9012 159.744C82.5083 158.178 78.0461 156.816 73.4809 155.844C72.3054 155.594 71.1162 155.41 69.9415 155.159C69.1224 154.984 68.3223 154.73 67.5118 154.52L66.8742 154.36L66.8658 156.375C66.8552 159.229 66.8602 162.08 67.0058 164.934L67.0334 165.462C67.2033 168.638 67.4684 171.879 68.5954 174.874C69.5111 177.307 70.9707 179.599 72.8796 181.371C73.8454 182.268 74.8838 182.966 76.1675 183.311C77.3593 183.631 78.608 183.668 79.8332 183.583C85.71 183.173 90.9413 179.98 96.0462 177.337C104.396 173.014 112.747 168.693 121.105 164.386C120.879 164.232 120.667 164.054 120.473 163.854C119.352 162.696 118.761 161.112 118.373 159.577C117.959 157.943 117.712 156.193 117.684 154.506M128.506 166.055C128.58 166.015 128.665 166.065 128.669 166.148C128.695 166.787 128.342 167.416 128.078 167.992L128.05 168.053C127.73 168.765 127.379 169.468 127.017 170.16C126.292 171.542 125.539 172.909 124.753 174.257C123.172 176.969 121.415 179.567 119.338 181.928C118.869 182.462 118.098 181.778 118.399 181.203C119.85 178.435 121.542 175.821 123.283 173.229C124.155 171.932 125.026 170.633 125.907 169.342C126.274 168.803 126.646 168.266 127.028 167.737L127.258 167.421M215.201 113.777C207.865 113.998 200.539 114.476 193.238 115.226C186.449 115.923 179.684 116.851 172.958 118.008C171.553 118.25 170.15 118.501 168.748 118.763L167.908 118.921C166.506 119.187 164.794 119.296 163.546 120.045C162.23 120.834 161.874 122.484 161.436 123.845C160.922 125.445 160.42 127.049 159.932 128.658C157.994 135.044 156.223 141.486 154.644 147.97C153.86 151.188 153.164 154.425 152.431 157.655C151.78 160.525 151.062 163.363 150.311 166.204C150.404 166.132 150.517 166.077 150.654 166.048C154.382 165.255 158.187 164.91 161.97 164.472L162.336 164.43C166.25 163.969 170.163 163.512 174.079 163.072L200.007 160.156C201.536 159.985 203.174 159.961 204.662 159.551C207.192 158.853 207.785 156.024 208.209 153.772L208.222 153.704C209.502 146.898 210.521 140.033 211.714 133.21M150.914 158.292C149.908 158.226 148.53 157.304 147.766 157.37C148.167 158.043 148.348 158.81 148.117 159.629C147.474 161.91 144.566 160.73 143.165 160.033C142.017 159.462 140.908 158.763 139.637 158.495C138.196 158.192 137.22 158.765 136.003 159.425C135.004 159.968 133.915 160.357 132.796 160.558C132.201 160.666 131.635 160.677 131.071 160.635C131.037 160.663 130.999 160.689 130.955 160.712L130.656 160.868C132.006 160.93 133.381 161.347 134.638 161.728C135.939 162.123 137.217 162.599 138.488 163.086L139.739 163.567C142.823 164.748 146.016 165.87 149.355 165.86C149.595 165.859 149.791 165.926 149.946 166.034M145.283 151.148C146.277 151.027 147.195 151.157 147.99 151.804C148.948 152.585 149.592 153.88 150.969 153.965C151.371 153.989 151.464 154.554 151.065 154.672C150.04 154.976 149.209 154.421 148.511 153.701L148.041 153.21C147.351 152.495 146.714 151.942 145.542 151.985C144.287 152.031 143.031 152.321 141.784 152.468C140.372 152.635 138.96 152.777 137.543 152.9C137.478 152.906 137.466 152.802 137.528 152.787L139.115 152.392M144.323 147.083L144.487 147.066C145.931 146.926 147.251 146.921 148.541 147.697L148.788 147.847C149.951 148.554 151.217 149.386 151.944 150.531C152.063 150.718 151.866 150.938 151.667 150.891C150.27 150.555 149.248 149.53 148.073 148.762C146.754 147.901 145.391 148.043 143.888 148.177C142.431 148.307 140.976 148.485 139.534 148.727C138.179 148.955 136.82 149.315 135.452 149.43L135.452 149.427C135.296 149.427 135.207 149.192 135.366 149.112C136.755 148.419 138.363 148.09 139.874 147.774M188.191 132.81C188.051 132.142 188.872 131.833 189.253 132.362L189.334 132.474C190.156 133.601 191.345 135.014 191.285 136.447C192.008 136.463 192.757 136.902 193.039 137.554C193.169 137.856 193.213 138.214 193.184 138.584C193.841 138.635 194.558 139.066 194.96 139.486C195.625 140.182 195.678 141.166 195.2 141.98C194.159 143.753 191.884 144.398 189.963 144.542L189.895 144.547C187.911 144.684 185.053 144.647 183.693 142.945C182.381 141.304 183.831 139.975 185.318 139.253C184.931 138.899 184.73 138.393 184.919 137.858C185.25 136.919 186.418 136.556 187.078 135.903C187.883 135.106 188.415 134.014 188.203 132.872M189.281 134.254C189.062 135.204 188.525 136.074 187.776 136.763C187.49 137.026 187.177 137.261 186.844 137.462L186.804 137.486C186.509 137.651 185.783 137.962 185.839 138.334C185.897 138.716 187.079 139.314 187.401 139.314C187.475 139.314 187.516 139.429 187.441 139.462C186.857 139.72 186.347 139.83 185.776 139.558C185.394 139.947 185.024 140.351 184.657 140.75C184.008 141.457 184.23 142.204 184.997 142.73C186.229 143.576 188.103 143.555 189.541 143.494C190.989 143.432 192.536 143.109 193.666 142.145L193.716 142.102C194.33 141.555 194.891 140.629 193.95 140.103C193.582 139.897 193.184 139.909 192.834 139.809C192.506 140.451 191.975 140.965 191.327 141.064C190.803 141.144 190.443 140.486 190.919 140.171L191.026 140.104C191.625 139.722 192.135 139.134 192.122 138.368C192.112 137.837 191.37 137.165 190.886 137.665L190.864 137.688C190.459 138.145 189.746 137.57 190.012 137.064L190.025 137.041M94.8748 107.816C94.873 107.702 95.0336 107.659 95.0897 107.758C96.0293 109.411 96.5204 111.437 97.021 113.258C97.5452 115.166 97.9684 117.093 98.3486 119.034C99.1186 122.965 99.5289 126.874 99.5567 130.88C99.5605 131.452 98.6286 131.604 98.5375 131.018C97.9323 127.121 97.3524 123.22 96.7426 119.324C96.4357 117.364 96.0786 115.412 95.7369 113.459M104.176 110.695C104.107 110.467 104.439 110.391 104.524 110.599C106.409 115.228 107.048 120.473 105.837 125.356C105.652 126.103 104.558 125.78 104.698 125.042M128.499 106.582C128.489 106.412 128.711 106.385 128.794 106.502C129.688 107.761 130.058 109.447 131.626 110.098C132.408 110.422 133.289 110.366 133.98 110.914C134.443 111.281 134.797 111.861 134.45 112.416C134.338 112.596 134.025 112.686 133.873 112.491C133.652 112.207 133.534 111.866 133.233 111.653C132.808 111.353 132.236 111.334 131.749 111.193C131.119 111.01 130.563 110.691 130.109 110.216M143.425 85.5858C143.517 85.5389 143.606 85.5689 143.665 85.6485C143.749 85.762 143.738 85.8724 143.635 85.9501C143.773 86.2313 143.935 86.9357 143.959 87.0382C144.053 87.4539 144.153 87.8671 144.257 88.28C144.469 89.1127 144.654 89.9519 144.865 90.785C145.089 91.668 145.356 92.5416 145.653 93.4026C145.673 93.4584 145.694 93.5153 145.716 93.573L145.75 93.6603L145.758 93.6471C145.818 93.5516 145.944 93.6183 145.929 93.7192C145.915 93.8111 145.897 93.9025 145.881 93.9945L145.912 94.0768C146.107 94.6 146.24 95.151 145.883 95.6126C145.75 95.7852 145.603 95.8875 145.42 95.9179C145.127 96.8848 144.759 97.8338 144.365 98.7451L144.249 99.0112C143.67 100.341 143.051 101.653 142.129 102.785C141.121 104.021 139.735 104.865 138.858 106.22C138.449 106.85 138.165 107.512 137.935 108.223L137.848 108.493C137.684 108.997 137.495 109.484 137.023 109.78C136.873 109.874 136.647 109.844 136.526 109.715C135.558 108.691 136.571 106.779 137.155 105.788C137.966 104.409 139.14 103.527 140.316 102.487C141.584 101.366 142.392 99.8664 143.174 98.3889C143.653 97.4838 144.116 96.5591 144.602 95.65C144.094 95.2004 143.931 94.3074 143.759 93.6867L143.743 93.6311C143.458 92.6371 143.232 91.6173 143.089 90.593C142.951 89.6081 142.894 88.6374 142.93 87.647L142.941 87.3948M145.316 90.2732C145.204 90.1192 145.39 89.9447 145.544 89.9768C146.482 90.1707 147.398 90.7381 148.24 91.1969L148.329 91.2457C149.001 91.6078 149.677 92.0515 150.029 92.7551C150.413 93.5198 150.381 94.4006 150.329 95.2317L150.324 95.3094C150.26 96.306 150.25 97.3415 150.039 98.3201C149.931 98.821 149.477 98.9621 149.089 98.8437C148.628 100.301 147.332 101.375 146.385 102.524C145.177 103.99 145.404 105.97 145.531 107.735C145.582 108.45 144.693 108.653 144.235 108.272L143.179 107.395C143.003 107.249 142.828 107.102 142.653 106.955C142.503 106.829 142.354 106.702 142.207 106.573L141.987 106.379C141.889 106.291 141.459 105.81 141.333 105.79C141.028 105.742 140.303 106.546 140.055 106.798L140.024 106.829C139.557 107.287 139.136 107.779 138.743 108.301C138.671 108.397 138.529 108.318 138.581 108.207C138.933 107.453 139.342 106.732 139.828 106.058L139.926 105.923C140.25 105.488 140.683 104.718 141.254 104.59C141.951 104.433 142.647 105.131 143.154 105.519L143.186 105.544C143.427 105.725 143.665 105.909 143.903 106.094C143.878 104.78 144.044 103.451 144.723 102.319C145.202 101.52 145.919 100.928 146.532 100.241C147.215 99.4769 147.572 98.5374 148.19 97.7412C148.27 97.6388 148.379 97.5836 148.498 97.5661C148.522 96.9261 148.616 96.2796 148.689 95.6465L148.71 95.457C148.784 94.7691 148.958 93.9288 148.621 93.2845C148.303 92.676 147.573 92.2465 147.032 91.8336L146.591 91.4912M114.892 82.9991C114.609 83.1624 114.346 83.3655 114.106 83.6193C113.353 84.4185 112.814 85.4131 112.29 86.3699C112.008 86.8852 111.736 87.4062 111.451 87.9202C111.327 88.1439 111.2 88.3651 111.071 88.586C111.012 88.6878 110.835 88.8901 110.748 89.0148C110.845 89.1512 110.946 89.2855 111.048 89.4184C111.087 89.4691 113.79 92.4131 114.732 93.5654C116.175 95.3303 117.464 97.1945 118.567 99.1899C119.646 101.144 120.468 103.213 121.468 105.205C121.968 106.202 122.527 107.192 123.24 108.055C123.267 108.089 123.296 108.12 123.324 108.154C123.596 107.419 124.293 106.632 124.635 106.181L124.667 106.138C125.444 105.092 126.263 104.077 127.101 103.08C127.866 102.169 128.65 101.278 129.453 100.401L129.756 100.073C130.315 99.4684 131.026 98.5638 131.846 98.1318C131.758 97.9753 131.656 97.8205 131.539 97.6677C130.772 96.6645 129.687 95.9365 128.616 95.2796L127.921 94.8571C125.304 93.262 122.727 91.5928 120.454 89.5202C119.252 88.4235 118.066 87.2747 117.056 85.9956L116.698 85.5433M119.259 82.2095C118.034 82.3123 116.71 82.2879 115.577 82.6872C116.584 83.6393 117.541 84.6672 118.525 85.6352C118.612 84.9805 118.791 84.3338 118.943 83.6954" fill="black"/>
<path fill-rule="evenodd" clip-rule="evenodd" d="M147.542 25.1115C136.181 19.289 119.253 19.9151 111.26 30.9271C109.987 33.0172 108.696 35.3061 108.069 37.6351C107.283 40.6419 105.893 45.103 105.571 49.4278C105.384 51.9401 106.235 54.3759 106.004 56.5336C105.821 58.2394 104.075 57.7209 104.146 59.3573C104.284 62.5541 104.385 67.2065 106.004 69.7226C107.525 71.8969 110.366 71.7635 112.036 73.8144C113.61 75.7457 114.971 77.8883 116.96 79.4342C121.125 87.2047 133.009 88.9689 141.02 88.2438C160.109 85.211 159.884 56.6816 159.61 41.6747C159.696 33.9932 154.061 28.307 147.542 25.1115Z" fill="#D08B5B"/>
<path fill-rule="evenodd" clip-rule="evenodd" d="M163.682 42.6004C163.829 42.7248 163.975 42.8484 164.111 42.9767C166.777 45.4993 168.088 49.3271 167.579 52.9504C167.141 56.0757 165.247 59.3391 162.474 61.0026C162.894 61.4822 163.218 62.0602 163.439 62.6259C163.982 64.0187 163.944 65.5098 163.352 66.8765C162.748 68.2692 161.542 69.9602 160.173 70.6873C159.495 71.0455 158.698 71.1699 157.97 70.9379C157.521 75.8449 156.167 80.5289 152.654 84.2998C149.828 87.3344 145.978 89.4419 141.859 90.0199C139.621 90.332 137.326 90.2413 135.108 89.8153C134.064 89.6156 133.037 89.3219 132.045 88.9393L132.009 88.9251C130.918 88.504 129.823 88.0807 129.031 87.1958C128.194 86.2629 129.011 84.8577 130.237 85.1253C130.925 85.2751 131.563 85.5671 132.202 85.8601C132.639 86.0601 133.076 86.2606 133.532 86.4166C134.574 86.7717 135.661 87.0469 136.754 87.1898C138.942 87.4789 141.187 87.2452 143.3 86.6255C146.717 85.6218 149.888 83.4143 151.962 80.5104C154.348 77.1714 155.324 73.1623 155.679 69.1255C155.98 65.6886 155.971 62.2299 155.963 58.7767C155.959 57.5607 155.956 56.3453 155.967 55.1318C155.978 53.8348 155.977 52.5378 155.977 51.2411C155.976 50.0832 155.976 48.9256 155.984 47.7683C155.988 47.1249 155.987 46.4819 155.985 45.8392C155.982 44.146 155.978 42.4549 156.085 40.7645C155.98 40.7444 155.873 40.6998 155.767 40.6216C155.146 40.1711 154.601 39.6141 154.055 39.0566C153.629 38.6209 153.202 38.1849 152.738 37.7992C151.672 36.9106 150.514 36.1312 149.309 35.4456C144.8 32.8784 139.586 31.7762 134.423 31.8606C131.584 31.9068 128.799 32.2789 126.024 32.8707L117.421 35.1689C115.869 34.0893 114.137 33.2911 112.418 32.4989C112.181 32.3898 111.945 32.2808 111.709 32.1713C111.571 32.7151 111.26 33.2441 110.962 33.7501C110.821 33.9892 110.683 34.2231 110.568 34.451C110.093 35.3918 109.655 36.3526 109.268 37.3334C108.487 39.3072 107.861 41.3532 107.389 43.424C106.922 45.4767 106.661 47.5596 106.399 49.6449C106.391 49.7148 106.382 49.7846 106.373 49.8544C106.357 49.9836 106.341 50.1131 106.324 50.2427C106.206 51.1722 106.088 52.1104 106.036 53.0427C106.015 53.4293 106.013 53.8174 106.012 54.2049C106.011 54.3921 106.01 54.5791 106.007 54.7658C106.006 54.8348 106.001 54.9174 105.995 55.0085C105.968 55.435 105.93 56.0499 106.21 56.3539C106.238 56.3831 106.267 56.4093 106.301 56.4323C108.159 55.8697 110.296 56.4861 111.146 58.3908C111.2 58.5107 111.068 58.6168 110.965 58.5307C109.232 57.0795 106.229 57.905 105.28 59.8758C104.837 60.7934 104.771 61.905 104.999 62.8888C105.166 63.6094 105.508 64.2549 105.851 64.9016C106.059 65.2939 106.267 65.6867 106.436 66.0969C106.688 66.7074 106.81 67.3131 106.907 67.9618C106.916 68.0231 106.924 68.0883 106.933 68.1559C106.981 68.5305 107.039 68.9777 107.286 69.2408C107.535 69.5053 107.971 69.5857 108.349 69.6553C108.444 69.6727 108.534 69.6894 108.617 69.7081C109.197 69.8388 109.757 69.9971 110.285 70.2738C111.676 71.0007 112.609 72.3818 113.518 73.7275C113.959 74.3796 114.394 75.0234 114.873 75.5804C115.716 76.5626 116.634 77.485 117.614 78.3337C117.847 78.5361 118.115 78.7296 118.389 78.9266C119.214 79.521 120.085 80.1486 120.181 81.1576C120.224 81.6019 119.827 82.04 119.424 82.1507C118.514 82.4021 117.838 81.858 117.173 81.3229C117.106 81.2689 117.039 81.215 116.972 81.1621C116.295 80.6273 115.641 80.0616 115.018 79.4636C113.786 78.2814 112.676 76.9763 111.678 75.5927C111.478 75.3153 111.287 75.0155 111.094 74.7115C110.59 73.9189 110.068 73.0984 109.32 72.5751C108.822 72.2273 108.242 72.0857 107.66 71.9436C107.007 71.7842 106.351 71.6241 105.804 71.1716C104.91 70.4313 104.785 69.5004 104.652 68.5165C104.6 68.1254 104.546 67.726 104.442 67.3267C104.277 66.693 103.985 66.1104 103.693 65.527C103.363 64.8682 103.033 64.2084 102.883 63.473C102.382 60.9917 103.134 57.9527 105.555 56.7305C105.701 56.6568 105.852 56.5907 106.004 56.5336C105.958 56.5 105.915 56.4615 105.877 56.4183C105.61 56.1292 105.498 55.647 105.411 55.2726L105.404 55.244C105.153 54.1695 105.003 53.0568 104.855 51.9604C104.84 51.8521 104.826 51.744 104.811 51.6361C104.476 49.1949 104.653 46.7137 105.045 44.2895C105.412 42.0082 105.989 39.7746 106.776 37.6039C106.502 37.4149 106.285 37.1351 106.166 36.7798C105.943 36.1338 106.082 35.4764 106.221 34.8241C106.244 34.7145 106.267 34.6049 106.288 34.4956C106.333 34.2635 106.382 34.0313 106.433 33.7992C106.316 26.2942 112.614 20.073 118.797 16.6326C125.732 12.7726 134.012 11.1523 141.893 12.0116C145.839 12.4436 149.775 13.4228 153.236 15.4213C156.394 17.2414 158.978 19.9193 160.678 23.1428C162.297 26.2144 163.115 29.7362 163.205 33.1981C163.252 34.9476 163.08 36.6985 162.743 38.4156C162.721 38.5291 162.697 38.6442 162.673 38.7606C162.516 39.5235 162.348 40.339 162.525 41.0966C162.677 41.7493 163.185 42.1794 163.682 42.6004ZM106.794 61.8987C107.844 61.8818 108.736 62.0818 109.649 62.6443C110.524 63.1856 111.337 63.9665 111.732 64.9258C112.059 65.7188 110.747 66.2401 110.362 65.5022C110.299 65.3801 110.238 65.2593 110.177 65.1401C109.864 64.5194 109.571 63.941 109.04 63.4331C108.439 62.8566 107.571 62.3307 106.77 62.0834C106.668 62.0511 106.688 61.9003 106.794 61.8987Z" fill="black"/>
<path fill-rule="evenodd" clip-rule="evenodd" d="M147.346 75.2889C146.744 76.0767 145.653 76.68 144.433 76.9686C143.269 77.2435 141.983 77.2323 140.874 76.8092L140.778 76.7713C139.949 76.4264 139.152 75.7302 138.85 75.0036C138.73 74.7147 138.689 74.4211 138.771 74.1471C138.845 73.9007 139.019 73.6738 139.308 73.4789C139.399 73.4178 139.521 73.4133 139.636 73.4338C139.78 73.4592 139.922 73.5265 140.008 73.6175C140.482 74.1227 141.171 74.6152 141.986 74.6068C142.615 74.6003 143.129 74.3518 143.627 74.0709L143.977 73.8703C144.315 73.6775 144.657 73.4963 145.045 73.4135C145.739 73.2653 146.58 73.5361 147.093 73.983C147.316 74.1778 147.479 74.4069 147.523 74.6536C147.56 74.8607 147.508 75.0769 147.346 75.2889ZM143.739 61.5121C145.117 62.3502 147.216 64.3044 145.734 66.382C143.989 68.214 141.478 66.1135 140.24 65.1636C139.092 64.4273 137.803 66.3208 138.867 67.1805C147.812 73.8074 151.442 61.7312 144.436 60.5267C143.665 60.394 143.378 61.2528 143.739 61.5121ZM128.196 48.6316L128.592 48.523L128.995 48.414L129.268 48.3418C131.143 47.8508 133.211 47.4186 135.07 47.6296C135.748 47.7067 136.298 48.0884 136.394 48.7992C136.475 49.399 136.087 50.1728 135.428 50.2794C133.245 50.6329 131.01 50.5183 128.816 50.8827C127.724 51.064 126.64 51.2891 125.552 51.492C124.724 51.6464 123.869 51.7007 123.035 51.8255L123.227 51.8522C123.294 51.8613 123.277 51.9743 123.211 51.9698C122.936 51.9423 122.66 51.938 122.384 51.9573L122.266 51.967C122.086 51.9924 121.98 51.7773 122.14 51.6682C123.157 50.9778 124.02 50.2296 125.158 49.7207C126.143 49.2807 127.157 48.9179 128.196 48.6316ZM145.262 47.5729C146.704 46.1148 149.769 46.6751 151.483 47.3421C152.462 47.7229 153.393 48.2044 154.168 48.9247L154.243 48.9956L154.36 49.1076C154.883 49.6201 155.466 50.3255 155.383 51.0644C155.371 51.177 155.309 51.3058 155.182 51.3284C154.495 51.4502 153.821 51.0876 153.187 50.8694L152.767 50.7252C152.136 50.5102 151.501 50.3048 150.851 50.1564C150.042 49.9724 149.217 49.8659 148.387 49.8765C147.548 49.8875 146.647 50.1245 145.848 49.7911C144.956 49.4195 144.494 48.3503 145.262 47.5729ZM131.023 59.3326C130.655 59.7084 130.169 59.9204 129.548 59.7943C129.062 59.6958 128.137 59.2071 127.398 58.4544C126.893 57.9394 126.47 57.296 126.355 56.5506C126.329 56.3775 126.237 56.2665 126.116 56.1966C126.021 56.1414 125.896 56.1137 125.759 56.1275C125.643 56.1393 125.52 56.1814 125.425 56.2371C125.243 56.3432 125.169 56.4938 125.154 56.6063C125.009 57.6915 125.428 58.7682 126.081 59.6761C126.962 60.9014 128.256 61.7993 129.016 62.0094C130.318 62.3693 131.689 62.0828 132.701 61.1763C133.509 60.4514 133.924 59.5071 134.308 58.536L134.382 58.3478C134.469 58.1274 134.555 57.9087 134.646 57.6923C134.828 57.2586 134.77 56.8838 134.593 56.5917C134.397 56.268 134.036 56.0402 133.633 55.9702C133.262 55.9055 132.864 55.9763 132.549 56.2036C132.284 56.3956 132.07 56.6998 131.994 57.1497C131.87 57.8812 131.584 58.7206 131.078 59.2744L131.023 59.3326ZM153.341 55.0986C153.038 54.9404 152.8 54.8928 152.464 54.9936C152.278 55.0495 152.094 55.1567 151.95 55.3008C151.807 55.4435 151.705 55.6211 151.665 55.818C151.566 56.3041 151.3 56.7592 150.922 57.0558C150.598 57.3093 150.189 57.4437 149.736 57.3679C149.247 57.2862 148.781 56.9723 148.46 56.6023C148.371 56.4991 148.298 56.3842 148.227 56.268L148.184 56.1981C148.026 55.9369 147.873 55.6941 147.655 55.5023C147.572 55.4293 147.447 55.3787 147.327 55.3787C147.278 55.3787 147.228 55.3867 147.18 55.4015C146.694 55.8904 146.6 56.2613 146.616 56.6291C146.632 57.0149 146.784 57.4055 147.03 57.7699C147.606 58.6247 148.7 59.3256 149.438 59.4844C150.449 59.7018 151.453 59.4408 152.258 58.8758C153.086 58.2945 153.699 57.3919 153.891 56.3747C153.937 56.1297 153.917 55.8653 153.824 55.636C153.733 55.412 153.574 55.2201 153.341 55.0986Z" fill="black"/>
<path d="M105.245 42.3676C105.245 42.3676 104.245 47.8283 106.888 54.6563L99.2904 55.285C99.2904 55.285 97.6699 49.1826 98.1381 42.0537L105.245 42.3676ZM101.048 24.6736L114.324 12.5944C114.476 12.4547 114.658 12.3515 114.856 12.2927C115.112 12.2169 121.614 10.3672 129.836 15.0136L129.836 15.0132C127.164 13.703 119.236 17.6175 116.421 19.879C112.069 23.8538 108.598 29.1683 108.254 32.165C108.196 32.7052 107.819 33.1579 107.302 33.3234C106.956 33.4299 106.594 33.3958 106.284 33.2437C106.126 33.1665 105.98 33.0546 105.852 32.9172L100.931 26.5982C100.44 26.03 100.487 25.1739 101.048 24.6736Z" fill="#1C262C"/>
<circle cx="106.971" cy="61.0369" r="15.4028" fill="#86959E" stroke="#0D0D0D"/>
<path d="M97.345 52.5159C92.7061 56.9392 93.5456 65.5365 99.1604 68.5653C100.733 69.4112 103.118 69.9716 104.876 69.7712C108.631 69.343 111.737 65.3399 112.316 61.5686C113.636 53.0076 103.842 46.6942 97.5237 52.3507C97.4665 52.4088 97.4069 52.46 97.345 52.5159Z" fill="#1C262C"/>
<path d="M113.094 75.1895L113.094 75.1895C110.564 76.0734 108.252 76.2027 105.324 75.8689C103.445 75.6549 102.021 75.043 101.069 74.4889C100.821 74.3443 100.605 74.2037 100.422 74.0752C100.81 73.9919 101.276 73.895 101.759 73.8021C102.371 73.6841 103.003 73.5737 103.531 73.5052C103.796 73.4709 104.028 73.448 104.214 73.4392C104.412 73.4299 104.518 73.4389 104.556 73.4473C106.861 73.9855 108.617 73.7085 110.063 72.9421C111.485 72.1878 112.559 70.9819 113.543 69.7679L113.094 75.1895ZM113.094 75.1895C116.173 74.1143 119.663 71.6052 121.387 65.5461L121.388 65.5451C122.026 63.3191 122.234 60.3916 121.743 58.3002L121.743 58.2999C121.324 56.5093 120.378 53.7678 118.95 51.7654L118.949 51.765C115.456 46.8574 109.565 44.8937 104.992 45.9707L104.992 45.9709C104.147 46.1687 103.914 46.4318 103.856 46.5641C103.802 46.6861 103.815 46.8913 104.021 47.2189C104.218 47.5301 104.521 47.8379 104.794 48.0781C104.927 48.1955 105.047 48.2913 105.133 48.3574C105.142 48.3643 105.15 48.3708 105.158 48.377C105.23 48.3846 105.324 48.397 105.444 48.4171C105.742 48.4669 106.208 48.5645 106.903 48.7564L106.903 48.7565C113.37 50.5427 115.56 55.9483 116.068 59.5917L116.068 59.592M113.094 75.1895L116.068 59.592M116.068 59.592C116.596 63.3973 115.379 67.5064 113.544 69.7677L116.068 59.592Z" fill="#1C262C" stroke="#0D0D0D"/>
<path d="M131.376 13.3327L131.701 12.9529L132.394 13.5459L131.521 13.8111L131.376 13.3327ZM131.376 13.3327C131.521 13.8111 131.521 13.8112 131.521 13.8112L131.521 13.8113L131.52 13.8115L131.518 13.812L131.514 13.8134L131.498 13.8178C131.486 13.8214 131.468 13.8264 131.445 13.8327C131.398 13.8452 131.33 13.8628 131.239 13.8847C131.055 13.9285 130.777 13.9896 130.387 14.0619C129.608 14.2063 128.381 14.3956 126.575 14.5799L126.517 14.5858L126.459 14.5782C121.892 13.9813 118.675 15.0091 116.353 16.9552C114.591 18.4358 113.365 19.696 112.336 21.2321C111.303 22.7728 110.453 24.6132 109.471 27.2737C109.008 28.5332 108.651 30.3352 108.414 32.144C108.177 33.9474 108.065 35.719 108.081 36.9034C108.099 37.9963 108.113 39.0669 108.017 39.9927C107.853 41.6372 106.848 43.6547 104.86 44.2902C104.058 44.5473 102.658 44.6343 101.239 44.643C99.7961 44.6519 98.2522 44.5789 97.1105 44.484C96.5701 44.4429 96.0261 44.2842 95.5269 44.0395C94.133 43.356 93.4897 41.9449 93.4665 40.6474C93.3313 33.4502 95.1227 25.372 100.401 19.2944C103.556 15.6613 108.334 13.0424 113.462 11.7935C118.564 10.5511 124.064 10.6522 128.725 12.5075C129.243 12.5404 129.809 12.5728 130.443 12.543L130.471 12.5417L130.498 12.5434C130.87 12.5672 131.156 12.6558 131.357 12.7464C131.458 12.7915 131.536 12.8367 131.593 12.8738C131.621 12.8923 131.645 12.9089 131.663 12.9224C131.672 12.9291 131.679 12.9351 131.686 12.9402L131.694 12.9473L131.698 12.9502L131.699 12.9516L131.7 12.9522L131.701 12.9526C131.701 12.9527 131.701 12.9529 131.376 13.3327Z" fill="#5386E4" stroke="#0D0D0D"/>
</g>
<defs>
<clipPath id="clip0_1160_28274">
<rect width="261" height="176" rx="15" fill="white"/>
</clipPath>
</defs>
</svg>
