<svg width="24" height="24" viewBox="0 0 24 24" fill="none" xmlns="http://www.w3.org/2000/svg">
<path d="M19.3075 9.08124L17.7138 6.32499C17.5796 6.08979 17.4003 5.88345 17.1861 5.71784C16.9718 5.55224 16.727 5.43065 16.4655 5.36007C16.2041 5.28949 15.9313 5.27131 15.6629 5.30659C15.3944 5.34186 15.1356 5.4299 14.9013 5.56561C14.4835 5.80316 14.1643 6.1822 14.0013 6.63436L12.3513 3.79374C12.2171 3.55854 12.0378 3.3522 11.8236 3.18659C11.6093 3.02099 11.3645 2.8994 11.103 2.82882C10.8416 2.75824 10.5688 2.74006 10.3004 2.77534C10.0319 2.81061 9.77309 2.89865 9.53878 3.03436C9.12095 3.27191 8.80176 3.65095 8.63878 4.10311C8.3526 3.65452 7.90481 3.33323 7.38818 3.20582C6.87156 3.07841 6.32572 3.15465 5.86378 3.41874C5.62938 3.55467 5.4242 3.73566 5.26008 3.95127C5.09596 4.16688 4.97614 4.41285 4.90753 4.67499C4.82531 4.96801 4.81247 5.27615 4.87003 5.57499C4.50386 5.60302 4.14846 5.71188 3.82941 5.89374C3.2696 6.21903 2.86154 6.75293 2.6946 7.37849C2.52767 8.00406 2.61547 8.67029 2.93878 9.23124L3.12628 9.54999C2.80462 9.58731 2.4946 9.69278 2.21691 9.85936C1.65774 10.1829 1.24986 10.7151 1.08286 11.3391C0.915864 11.9632 1.00342 12.628 1.32628 13.1875L4.79503 19.1969C5.53624 20.4828 6.64236 21.5199 7.97333 22.1769C9.30431 22.8339 10.8003 23.0811 12.2719 22.8874C13.7435 22.6937 15.1245 22.0676 16.2401 21.0886C17.3557 20.1095 18.1557 18.8215 18.5388 17.3875L18.5669 17.2656C19.5142 16.1417 20.0932 14.7539 20.2257 13.29C20.3581 11.8262 20.0376 10.3569 19.3075 9.08124ZM17.0857 17.0031C16.8846 17.7645 16.534 18.4782 16.0544 19.1027C15.5748 19.7272 14.9756 20.25 14.2919 20.6406C12.9143 21.4357 11.2774 21.6513 9.74092 21.2399C8.20445 20.8285 6.8942 19.8239 6.09816 18.4469L2.62941 12.4375C2.53606 12.2772 2.49235 12.0928 2.50381 11.9077C2.51527 11.7226 2.58139 11.545 2.6938 11.3975C2.80621 11.2499 2.95986 11.1391 3.1353 11.0789C3.31075 11.0187 3.5001 11.0119 3.67941 11.0594C3.91983 11.1268 4.1248 11.2847 4.25128 11.5L6.50128 15.4C6.56828 15.5124 6.66286 15.6058 6.77606 15.6714C6.88926 15.7371 7.01733 15.7727 7.14816 15.775C7.27959 15.7745 7.40859 15.7395 7.52223 15.6735C7.63588 15.6075 7.73018 15.5128 7.7957 15.3988C7.86121 15.2849 7.89563 15.1558 7.89552 15.0243C7.8954 14.8929 7.86075 14.7638 7.79503 14.65L4.23253 8.48124C4.10821 8.26492 4.07492 8.00808 4.13997 7.76721C4.20502 7.52634 4.36309 7.32118 4.57941 7.19686C4.79573 7.07254 5.05257 7.03925 5.29344 7.1043C5.5343 7.16935 5.73946 7.32742 5.86378 7.54374L9.42628 13.7125C9.47101 13.8057 9.53454 13.8887 9.61289 13.9563C9.69123 14.0238 9.78269 14.0744 9.88153 14.1048C9.98036 14.1353 10.0844 14.145 10.1872 14.1333C10.29 14.1217 10.3892 14.0889 10.4787 14.037C10.5681 13.9851 10.6459 13.9153 10.7071 13.8319C10.7683 13.7486 10.8116 13.6534 10.8343 13.5525C10.857 13.4516 10.8585 13.3471 10.8388 13.2456C10.8192 13.144 10.7787 13.0476 10.72 12.9625L7.90753 8.08749C7.78486 7.8708 7.75248 7.61451 7.8174 7.37412C7.88232 7.13373 8.03933 6.92858 8.25441 6.80311C8.46967 6.68089 8.72454 6.64876 8.96341 6.71375C9.20227 6.77873 9.40573 6.93555 9.52941 7.14999L13.4669 13.975C13.5347 14.0887 13.6308 14.183 13.7458 14.2487C13.8607 14.3144 13.9907 14.3493 14.1232 14.35C14.2547 14.3467 14.3834 14.3113 14.4982 14.2469C14.6693 14.147 14.7939 13.9835 14.8448 13.792C14.8958 13.6005 14.8689 13.3967 14.77 13.225L13.27 10.6187C13.1469 10.406 13.1132 10.1532 13.1763 9.91561C13.2063 9.79504 13.2609 9.68198 13.3367 9.58356C13.4126 9.48514 13.508 9.40348 13.6169 9.34374C13.7212 9.28025 13.8376 9.23913 13.9586 9.22299C14.0797 9.20686 14.2027 9.21605 14.32 9.24999C14.4394 9.27992 14.5515 9.33351 14.6497 9.40759C14.748 9.48167 14.8303 9.57473 14.8919 9.68124L16.4857 12.4469C16.8826 13.1287 17.14 13.8826 17.243 14.6648C17.346 15.4469 17.2925 16.2418 17.0857 17.0031ZM15.5107 2.01249L15.895 0.559364C15.9203 0.46395 15.9641 0.374442 16.0239 0.29595C16.0837 0.217457 16.1584 0.151518 16.2437 0.101897C16.329 0.0522755 16.4233 0.0199439 16.5211 0.00674796C16.6189 -0.00644796 16.7184 -0.000249761 16.8138 0.0249887C16.9092 0.0502271 16.9987 0.0940115 17.0772 0.153842C17.1557 0.213672 17.2216 0.288377 17.2712 0.373691C17.3209 0.459005 17.3532 0.553257 17.3664 0.651066C17.3796 0.748875 17.3734 0.848325 17.3482 0.943739L16.9544 2.39686C16.9127 2.5562 16.8191 2.6971 16.6884 2.79727C16.5576 2.89744 16.3972 2.95118 16.2325 2.94999L16.0357 2.93124C15.8445 2.87861 15.6819 2.75241 15.5835 2.58023C15.4851 2.40806 15.4589 2.20393 15.5107 2.01249ZM17.9763 2.87499L18.8388 1.64686C18.954 1.48388 19.1288 1.37282 19.3253 1.33773C19.5218 1.30264 19.7242 1.34634 19.8888 1.45936C19.9697 1.51635 20.0386 1.5888 20.0915 1.67254C20.1443 1.75627 20.18 1.84964 20.1966 1.94726C20.2131 2.04487 20.2102 2.1448 20.1879 2.24128C20.1657 2.33775 20.1246 2.42887 20.0669 2.50936L19.2044 3.73749C19.1483 3.81815 19.0767 3.88683 18.9938 3.93954C18.9108 3.99226 18.8183 4.02794 18.7214 4.04452C18.6246 4.0611 18.5254 4.05824 18.4296 4.03611C18.3339 4.01397 18.2435 3.97302 18.1638 3.91561C18.0014 3.80209 17.8906 3.62894 17.8555 3.43396C17.8203 3.23899 17.8638 3.03804 17.9763 2.87499ZM22.0919 4.89999L20.8638 5.76249C20.7354 5.84635 20.5858 5.89188 20.4325 5.89374C20.2743 5.89249 20.1205 5.8412 19.9931 5.74723C19.8658 5.65325 19.7714 5.52141 19.7236 5.37055C19.6757 5.2197 19.6768 5.05758 19.7267 4.90738C19.7766 4.75718 19.8727 4.62662 20.0013 4.53436L21.2294 3.67186C21.3099 3.61422 21.401 3.57308 21.4975 3.55083C21.594 3.52857 21.6939 3.52564 21.7915 3.5422C21.8891 3.55876 21.9825 3.59448 22.0662 3.64731C22.15 3.70014 22.2224 3.76902 22.2794 3.84999C22.3924 4.01452 22.4361 4.21694 22.401 4.41345C22.3659 4.60996 22.2549 4.78474 22.0919 4.89999Z" fill="#1C262C"/>
</svg>
