<svg width="24" height="24" viewBox="0 0 24 24" fill="none" xmlns="http://www.w3.org/2000/svg">
<path d="M4.29341 18.293L10.5864 12L4.29341 5.70702C4.11125 5.51842 4.01045 5.26582 4.01273 5.00362C4.01501 4.74142 4.12018 4.49061 4.30559 4.3052C4.491 4.11979 4.74181 4.01462 5.00401 4.01235C5.2662 4.01007 5.5188 4.11086 5.70741 4.29302L12.0004 10.586L18.2934 4.29302C18.3857 4.19751 18.496 4.12133 18.618 4.06892C18.74 4.01651 18.8712 3.98892 19.004 3.98777C19.1368 3.98662 19.2685 4.01192 19.3914 4.0622C19.5143 4.11248 19.6259 4.18673 19.7198 4.28062C19.8137 4.37452 19.8879 4.48617 19.9382 4.60907C19.9885 4.73196 20.0138 4.86364 20.0127 4.99642C20.0115 5.1292 19.9839 5.26042 19.9315 5.38242C19.8791 5.50443 19.8029 5.61477 19.7074 5.70702L13.4144 12L19.7074 18.293C19.8029 18.3853 19.8791 18.4956 19.9315 18.6176C19.9839 18.7396 20.0115 18.8708 20.0127 19.0036C20.0138 19.1364 19.9885 19.2681 19.9382 19.391C19.8879 19.5139 19.8137 19.6255 19.7198 19.7194C19.6259 19.8133 19.5143 19.8876 19.3914 19.9378C19.2685 19.9881 19.1368 20.0134 19.004 20.0123C18.8712 20.0111 18.74 19.9835 18.618 19.9311C18.496 19.8787 18.3857 19.8025 18.2934 19.707L12.0004 13.414L5.70741 19.707C5.5188 19.8892 5.2662 19.99 5.00401 19.9877C4.74181 19.9854 4.491 19.8802 4.30559 19.6948C4.12018 19.5094 4.01501 19.2586 4.01273 18.9964C4.01045 18.7342 4.11125 18.4816 4.29341 18.293Z" fill="black"/>
</svg>
