<svg width="240" height="155" viewBox="0 0 240 155" fill="none" xmlns="http://www.w3.org/2000/svg">
<path d="M229.625 56.7856C232.762 74.5793 230.246 86.9381 210.842 101.845C183.798 122.623 128.369 139.397 84.1047 140.173C42.5201 140.901 17.3654 126.565 10.7194 99.0379C1.32995 60.1472 50.7026 29.7836 118.995 17.7418C164.584 9.70334 222.351 15.5357 229.625 56.7856Z" fill="white" stroke="#1C262C" stroke-width="5.47466" stroke-linejoin="round"/>
<path d="M85.4089 50.1898C85.34 50.5001 85.2617 50.8812 85.1741 51.3329C85.1263 51.7631 85.0393 52.4039 84.9131 53.2551C84.6939 54.3627 84.3218 55.9846 83.7967 58.1206C83.2567 60.2956 82.8804 61.9145 82.6678 62.9773C82.5092 63.7688 82.3422 64.4091 82.1666 64.8982C81.9384 65.542 81.4857 65.9236 80.8086 66.043C80.4066 66.1139 80.0242 66.0686 79.6612 65.9072C79.2356 65.7204 78.972 65.4215 78.8704 65.0104C78.403 64.2565 78.0815 63.6296 77.9061 63.1297C77.3297 61.6751 76.4997 59.4836 75.4161 56.555C75.2076 58.0534 74.9384 59.4135 74.6084 60.6351C74.117 62.4671 73.833 63.8879 73.7565 64.8976C73.8474 65.0416 73.9083 65.2017 73.9394 65.3781C74.0165 65.8153 73.8854 66.2057 73.546 66.5491C73.2485 66.8416 72.8952 67.0238 72.4862 67.096C71.9713 67.1867 71.5216 67.1315 71.1371 66.9303C70.7194 66.7058 70.4593 66.3444 70.3569 65.8461L69.8107 64.6662C69.384 63.607 68.7134 62.0309 67.7989 59.9379C67.0387 58.3485 65.8397 56.1056 64.2018 53.2093C64.1073 53.0442 64.0444 52.8735 64.0134 52.6971C63.9387 52.274 64.0419 51.9104 64.3228 51.6063C64.5721 51.3297 64.9014 51.1553 65.3104 51.0831C65.8464 50.9886 66.3129 51.1391 66.7098 51.5345C66.9297 51.7502 67.2097 52.1626 67.5497 52.7717C68.5916 54.6387 69.882 57.3999 71.421 61.0554C71.7427 59.5806 72.0315 57.8571 72.2873 55.885C72.4913 54.2783 72.6847 53.1279 72.8678 52.4339C73.302 50.7721 73.8858 49.8765 74.6193 49.7471C75.3104 49.6253 75.8812 49.9137 76.3316 50.6124C76.5502 50.9447 76.8169 51.5703 77.1316 52.4893C77.2249 52.771 77.4416 53.4636 77.7816 54.5671C78.1436 55.7541 78.9772 57.8832 80.2823 60.9545C80.7215 59.0737 81.2819 56.3751 81.9636 52.8589C82.0063 52.6478 82.0753 51.9666 82.1704 50.8154C82.2357 49.9894 82.3831 49.3199 82.6125 48.8068C82.864 48.2534 83.2719 47.9269 83.8361 47.8275C84.2663 47.7516 84.6461 47.8228 84.9754 48.0411C85.3036 48.2523 85.5043 48.5659 85.5777 48.982C85.6038 49.1301 85.5475 49.5327 85.4089 50.1898ZM91.1415 53.1931C91.5668 52.5946 92.0504 52.1202 92.5922 51.7702C93.1399 51.4118 93.7487 51.1736 94.4187 51.0554C95.6247 50.8428 96.5519 51.0284 97.2002 51.6122C97.6847 52.0503 98.0619 52.7873 98.3318 53.8233C98.5201 54.6845 98.7124 55.5487 98.909 56.4158C99.222 57.5313 99.4144 58.2101 99.4861 58.4519C99.7229 59.2174 99.9634 59.8803 100.208 60.4408C100.269 60.5827 100.31 60.7101 100.33 60.8229C100.399 61.2179 100.305 61.569 100.046 61.8764C99.7961 62.1896 99.47 62.3816 99.068 62.4525C98.3557 62.5781 97.8316 62.3069 97.4957 61.639C97.2257 61.0975 96.9287 60.3209 96.6049 59.309C96.3026 58.337 96.0949 57.5301 95.9817 56.8883C95.9506 56.712 95.911 56.4462 95.8629 56.0911C95.8207 55.7277 95.784 55.4578 95.7529 55.2815C95.6609 54.7596 95.6004 54.4576 95.5713 54.3755C95.4395 53.9988 95.2219 53.8371 94.9186 53.8906C94.1358 54.0287 93.4904 54.5133 92.9825 55.3446C92.7215 55.7615 92.3978 56.524 92.0115 57.632C92.4616 60.185 92.6093 61.7443 92.4545 62.3097C92.2814 62.9365 91.8951 63.3028 91.2956 63.4085C90.9007 63.4781 90.5251 63.4098 90.1687 63.2036C89.8182 62.9891 89.6088 62.6879 89.5404 62.3C89.5167 62.166 89.5226 61.9722 89.5579 61.7188C89.5799 61.5549 89.4543 60.5953 89.1812 58.84C88.8959 57.4287 88.487 55.0683 87.9544 51.759L87.914 51.4061C87.8096 50.5665 87.7325 50.0056 87.6827 49.7235C87.6442 49.5048 87.5523 49.1901 87.4072 48.7794C87.2679 48.3604 87.1789 48.0416 87.1404 47.8229C87.0695 47.4209 87.1562 47.0675 87.4006 46.7626C87.6438 46.4507 87.9699 46.2587 88.3789 46.1865C89.0772 46.0634 89.6121 46.3545 89.9837 47.0598C90.1923 47.4593 90.3737 48.0964 90.5279 48.9709C90.6523 49.6762 90.7573 50.3957 90.8431 51.1296C90.9226 51.8282 91.0221 52.5161 91.1415 53.1931ZM111.485 60.3067C111.16 60.3639 110.583 60.1021 109.754 59.5212C109.159 59.9459 108.629 60.2794 108.163 60.5216C107.698 60.7709 107.292 60.9259 106.947 60.9869C105.247 61.2866 103.89 61.0568 102.877 60.2975C101.87 59.5369 101.207 58.2503 100.887 56.4378C100.587 54.7381 100.959 53.1746 102.002 51.7472C103.043 50.3128 104.438 49.4414 106.188 49.133C106.858 49.0149 107.667 49.0685 108.616 49.2939C109.761 49.5645 110.388 50.0031 110.495 50.6096C110.539 50.8635 110.498 51.1 110.369 51.319C110.348 51.6136 110.355 51.9797 110.388 52.4173C110.427 52.8467 110.497 53.347 110.598 53.9183C110.836 55.2654 111.102 56.2183 111.397 56.7772C111.429 56.8369 111.656 57.175 112.077 57.7916C112.459 58.3496 112.658 58.6709 112.673 58.7556C112.739 59.1294 112.649 59.4652 112.403 59.763C112.165 60.0596 111.858 60.2408 111.485 60.3067ZM107.581 53.5122C107.542 53.2865 107.51 53.0266 107.488 52.7324C107.471 52.43 107.462 52.0934 107.462 51.7225C107.309 51.6768 107.173 51.6498 107.055 51.6415C106.943 51.6249 106.848 51.6235 106.771 51.6371C105.812 51.8063 105.039 52.3316 104.453 53.213C103.865 54.0875 103.658 55.0184 103.832 56.0057C103.999 56.9508 104.294 57.6333 104.717 58.0532C105.139 58.466 105.688 58.6127 106.365 58.4933C106.803 58.4162 107.203 58.273 107.566 58.0635C107.935 57.8458 108.267 57.5654 108.563 57.2223C108.055 55.5811 107.728 54.3444 107.581 53.5122ZM120.238 49.2625C120.09 49.2886 119.913 49.3162 119.707 49.3452C119.507 49.3659 119.333 49.3893 119.185 49.4155C118.896 49.4664 118.566 49.5537 118.195 49.6773C118.824 52.5042 119.216 54.3549 119.37 55.2294C119.386 55.3211 119.42 55.4933 119.472 55.7459C119.523 55.9915 119.562 56.1919 119.589 56.3471C119.875 57.9692 119.507 58.8704 118.484 59.0507C118.096 59.1191 117.74 59.0583 117.416 58.8682C117.061 58.6691 116.85 58.3791 116.782 57.9982C116.738 57.7443 116.681 57.3616 116.613 56.8501C116.544 56.3386 116.488 55.9558 116.443 55.702C116.293 54.8486 115.907 53.0331 115.286 50.2556C114.845 50.3116 114.172 50.372 113.268 50.437C112.369 50.4937 111.847 50.113 111.703 49.2949C111.633 48.9 111.708 48.5414 111.928 48.2191C112.147 47.8967 112.468 47.6983 112.892 47.6237C113.152 47.5777 113.759 47.5143 114.712 47.4335C114.665 47.2091 114.582 46.8384 114.462 46.3215C114.354 45.8751 114.278 45.5284 114.235 45.2816C114.165 44.8866 114.252 44.5332 114.495 44.2213C114.738 43.9093 115.064 43.7173 115.473 43.6452C116.517 43.4611 117.194 44.2472 117.503 46.0033L117.635 46.8745C118.061 46.7339 118.412 46.6394 118.687 46.5909C119.498 46.4479 120.061 46.4031 120.376 46.4567C120.975 46.5547 121.333 46.9351 121.45 47.5981C121.521 48.0001 121.442 48.3594 121.214 48.6759C120.987 48.9924 120.661 49.1879 120.238 49.2625ZM143.137 54.7256C142.813 54.7828 142.236 54.5209 141.406 53.94C140.812 54.3648 140.282 54.6982 139.815 54.9404C139.35 55.1897 138.945 55.3448 138.599 55.4057C136.9 55.7054 135.543 55.4756 134.529 54.7163C133.522 53.9557 132.859 52.6692 132.54 50.8566C132.24 49.157 132.611 47.5934 133.654 46.1661C134.696 44.7317 136.091 43.8602 137.84 43.5518C138.51 43.4337 139.319 43.4873 140.268 43.7127C141.414 43.9834 142.04 44.422 142.147 45.0285C142.192 45.2824 142.15 45.5188 142.021 45.7379C142 46.0324 142.007 46.3985 142.04 46.8362C142.08 47.2656 142.15 47.7659 142.251 48.3372C142.488 49.6842 142.754 50.6372 143.049 51.196C143.081 51.2558 143.308 51.5939 143.73 52.2104C144.112 52.7684 144.31 53.0898 144.325 53.1744C144.391 53.5482 144.301 53.884 144.056 54.1818C143.817 54.4784 143.511 54.6597 143.137 54.7256ZM139.234 47.931C139.194 47.7053 139.163 47.4454 139.14 47.1513C139.123 46.8488 139.114 46.5122 139.115 46.1413C138.961 46.0957 138.825 46.0687 138.708 46.0604C138.596 46.0438 138.501 46.0423 138.423 46.056C137.464 46.2251 136.691 46.7504 136.105 47.6319C135.517 48.5063 135.311 49.4372 135.485 50.4246C135.651 51.3696 135.946 52.0521 136.369 52.472C136.791 52.8848 137.341 53.0316 138.018 52.9122C138.455 52.8351 138.855 52.6918 139.218 52.4823C139.587 52.2646 139.919 51.9842 140.215 51.6412C139.708 49.9999 139.381 48.7632 139.234 47.931ZM153.443 44.3238C153.57 45.414 153.175 46.04 152.258 46.2016C151.37 46.3583 150.844 45.9783 150.683 45.0614L150.442 44.0023C148.899 44.536 147.908 45.5508 147.466 47.0467L148.415 52.366C148.486 52.768 148.407 53.1237 148.178 53.4332C147.95 53.7497 147.624 53.9452 147.201 54.0199C146.764 54.097 146.401 54.0156 146.111 53.7758C145.841 53.5617 145.67 53.2572 145.601 52.8622L144.379 45.933C144.34 45.7143 144.29 45.3887 144.229 44.956C144.166 44.5162 144.115 44.187 144.076 43.9684C144.007 43.5734 144.065 43.225 144.252 42.923C144.444 42.6127 144.759 42.419 145.197 42.3419C145.979 42.2039 146.516 42.5238 146.806 43.3017C147.89 42.1506 149.194 41.4408 150.717 41.1722C152.128 40.9235 152.998 41.7371 153.329 43.6131C153.392 43.9728 153.431 44.2097 153.443 44.3238ZM161.75 51.2254C160.065 51.5226 158.615 51.3637 157.401 50.7487C156.06 50.069 155.247 48.9216 154.962 47.3066C154.647 45.5222 154.85 43.9303 155.571 42.5307C156.373 40.9784 157.659 40.0462 159.43 39.7341C160.657 39.5177 161.711 39.5355 162.591 39.7874C163.748 40.1215 164.424 40.8387 164.618 41.9389C164.755 42.7147 164.442 43.4788 163.68 44.2312C163.334 44.5759 162.611 45.1178 161.513 45.8569L158.226 48.0618C158.629 48.3689 159.086 48.5718 159.598 48.6706C160.11 48.7694 160.677 48.7641 161.297 48.6547C162.242 48.488 163.008 48.1529 163.596 47.6494C164.12 47.2006 164.559 46.9451 164.912 46.8829C165.645 46.7536 166.075 47.0451 166.2 47.7574C166.342 48.5614 165.869 49.3212 164.78 50.0366C163.868 50.6339 162.858 51.0301 161.75 51.2254ZM159.881 42.2942C159.225 42.4098 158.703 42.7273 158.315 43.2467C157.926 43.766 157.668 44.4878 157.54 45.4121C158.276 44.926 159.009 44.444 159.74 43.9662C160.616 43.3681 161.304 42.836 161.803 42.3697C161.284 42.1851 160.643 42.1599 159.881 42.2942ZM76.237 82.9859C75.7505 84.7224 74.9773 87.4511 73.9172 91.1722C73.339 93.1721 72.9206 94.8203 72.662 96.1167C72.591 96.5801 72.4727 97.2699 72.307 98.1863C72.17 98.894 71.7771 99.3051 71.1283 99.4195C70.7263 99.4904 70.3506 99.4221 70.0013 99.2146C69.6521 99.0072 69.4426 98.7059 69.373 98.311C69.2573 97.6551 69.6623 95.5803 70.5879 92.0865C69.5422 90.6929 67.9142 88.6566 65.7039 85.9775C65.4873 85.7394 65.2667 85.4983 65.0419 85.2544C64.7942 84.9635 64.6468 84.6841 64.5995 84.4161C64.5324 84.0353 64.6249 83.6735 64.8772 83.3309C65.1295 82.9883 65.4531 82.7821 65.8481 82.7125C66.3135 82.6304 66.7072 82.7391 67.0291 83.0387C68.2656 84.1951 69.7866 85.9957 71.5921 88.4407C72.052 86.6362 72.3326 85.5468 72.4339 85.1726C72.7494 84.0335 73.0766 83.0232 73.4157 82.1417C73.6294 81.5804 74.0007 81.2531 74.5297 81.1599C74.9246 81.0902 75.3009 81.162 75.6585 81.3753C76.016 81.5886 76.229 81.8892 76.2974 82.2771C76.3335 82.4816 76.3133 82.7179 76.237 82.9859ZM83.7417 91.5233C82.4369 91.7534 81.2366 91.5033 80.1407 90.773C78.9381 89.9742 78.1679 88.7611 77.83 87.1336C77.5058 85.5836 77.6875 84.119 78.3751 82.7397C79.1935 81.112 80.5582 80.1296 82.4695 79.7926C83.88 79.5439 85.1009 79.9103 86.1321 80.892C87.0588 81.7758 87.6545 82.9688 87.9194 84.471C88.2079 86.1072 88.0169 87.5807 87.3463 88.8916C86.5935 90.3551 85.392 91.2323 83.7417 91.5233ZM82.8244 82.6097C81.9557 82.7556 81.3413 83.2712 80.981 84.1564C80.676 84.901 80.6025 85.7212 80.7604 86.6169C80.9096 87.4632 81.2638 88.0697 81.823 88.4365C82.2673 88.7291 82.7433 88.8306 83.2511 88.741C83.8647 88.6328 84.3605 88.3309 84.7385 87.8352C85.1675 87.2578 85.3263 86.5499 85.2148 85.7114C84.9061 83.4243 84.1093 82.3904 82.8244 82.6097ZM98.8663 81.9081C98.9496 82.3806 99.0787 83.0923 99.2536 84.0432C99.4286 84.9941 99.5577 85.7058 99.641 86.1783C99.6671 86.3264 99.7169 86.5467 99.7903 86.8392C99.8695 87.1234 99.9221 87.3395 99.9482 87.4876C100.018 87.8826 99.9305 88.2325 99.6861 88.5374C99.45 88.848 99.1239 89.0401 98.7078 89.1134C98.1224 89.2167 97.6491 89.0274 97.2879 88.5457C96.4436 89.0364 95.5383 89.3669 94.5721 89.5373C93.5706 89.7139 92.6905 89.6509 91.9318 89.3483C91.0772 88.9973 90.4938 88.3693 90.1816 87.4645C89.5956 85.7498 89.1802 84.1978 88.9352 82.8084C88.7735 81.8916 88.6946 80.8256 88.6985 79.6105C88.6991 78.7887 89.1049 78.3062 89.9159 78.1632C90.325 78.0911 90.6971 78.16 91.0323 78.37C91.3662 78.5729 91.568 78.8718 91.6376 79.2668C91.6923 79.5771 91.7252 80.0731 91.7364 80.7547C91.7545 81.435 91.7941 81.948 91.855 82.2936C92.0303 83.288 92.2157 84.1534 92.4109 84.8898C92.612 85.6179 92.8225 86.2134 93.0423 86.6764C93.2323 86.7229 93.4121 86.753 93.5818 86.7667C93.7585 86.7792 93.9245 86.7718 94.0796 86.7444C94.8625 86.6064 95.703 86.3418 96.6012 85.9507C96.5055 85.4077 96.3931 84.7912 96.2642 84.1013C96.1046 83.2786 95.9931 82.6874 95.9297 82.3277C95.6747 80.8819 95.5216 79.6218 95.4703 78.5473C95.4281 77.6894 95.8337 77.1852 96.6871 77.0347C97.1032 76.9614 97.4824 77.029 97.8246 77.2378C98.1668 77.4465 98.3622 77.7502 98.4106 78.1489C98.7504 80.8596 98.9023 82.1126 98.8663 81.9081ZM123.236 74.306C122.983 77.2012 122.681 79.8432 122.332 82.2319C122.232 82.9039 122.001 83.6172 121.64 84.3718C121.384 84.8969 120.973 85.2057 120.407 85.2982C119.516 85.4408 118.667 84.707 117.859 83.0968C117.554 82.4815 117.115 81.3118 116.542 79.5876C116.449 79.924 116.394 80.1483 116.377 80.2603C116.165 81.1995 115.868 82.6516 115.488 84.6167C115.434 84.9316 115.317 85.1958 115.136 85.4094C114.924 85.9342 114.526 86.2588 113.945 86.3831C113.616 86.4557 113.214 86.221 112.741 85.6792C112.245 85.134 111.791 84.3994 111.381 83.4755C111.008 82.6395 110.334 80.795 109.358 77.9419C109.148 77.3246 109.011 76.8361 108.947 76.4764C108.879 76.0885 108.967 75.7421 109.211 75.4372C109.461 75.1241 109.791 74.9314 110.2 74.8593C110.962 74.725 111.497 75.0196 111.807 75.7431C111.968 76.1219 112.131 76.5949 112.297 77.162C112.528 77.9793 112.668 78.4601 112.715 78.6045C112.904 79.1384 113.203 80.0128 113.614 81.2275C113.883 79.7038 114.169 77.8173 114.47 75.568C114.598 74.6002 115.06 74.046 115.857 73.9055C116.64 73.7675 117.245 74.188 117.672 75.1671C117.975 75.8554 118.327 76.7569 118.727 77.8717C119.311 79.4922 119.662 80.4555 119.782 80.7617C119.807 80.5319 119.982 78.2902 120.309 74.0368C120.357 73.4029 120.744 73.0219 121.471 72.8938C121.873 72.8229 122.248 72.8912 122.597 73.0987C122.954 73.3049 123.166 73.602 123.235 73.9899C123.247 74.0604 123.247 74.1658 123.236 74.306ZM135.433 82.4851C135.109 82.5423 134.532 82.2804 133.702 81.6995C133.108 82.1242 132.578 82.4577 132.111 82.6999C131.646 82.9492 131.241 83.1043 130.895 83.1652C129.196 83.4649 127.839 83.2351 126.825 82.4758C125.818 81.7152 125.155 80.4287 124.836 78.6161C124.536 76.9165 124.907 75.3529 125.95 73.9256C126.992 72.4912 128.387 71.6197 130.136 71.3113C130.806 71.1932 131.615 71.2468 132.564 71.4722C133.71 71.7429 134.336 72.1814 134.443 72.788C134.488 73.0419 134.446 73.2783 134.317 73.4974C134.297 73.7919 134.303 74.158 134.337 74.5957C134.376 75.0251 134.446 75.5254 134.547 76.0966C134.784 77.4437 135.05 78.3967 135.345 78.9555C135.378 79.0152 135.604 79.3534 136.026 79.9699C136.408 80.5279 136.606 80.8493 136.621 80.9339C136.687 81.3077 136.597 81.6435 136.352 81.9413C136.113 82.2379 135.807 82.4192 135.433 82.4851ZM131.53 75.6905C131.49 75.4648 131.459 75.2049 131.436 74.9108C131.419 74.6083 131.411 74.2717 131.411 73.9008C131.257 73.8552 131.122 73.8282 131.004 73.8199C130.892 73.8032 130.797 73.8018 130.719 73.8155C129.76 73.9846 128.987 74.5099 128.401 75.3914C127.814 76.2658 127.607 77.1967 127.781 78.1841C127.948 79.1291 128.242 79.8116 128.666 80.2315C129.087 80.6443 129.637 80.7911 130.314 80.6717C130.751 80.5946 131.151 80.4513 131.514 80.2418C131.883 80.0241 132.215 79.7437 132.511 79.4007C132.004 77.7594 131.677 76.5227 131.53 75.6905ZM144.186 71.4409C144.038 71.467 143.861 71.4945 143.656 71.5235C143.456 71.5443 143.282 71.5677 143.133 71.5938C142.844 71.6448 142.514 71.7321 142.143 71.8556C142.773 74.6825 143.164 76.5332 143.319 77.4078C143.335 77.4994 143.369 77.6716 143.421 77.9243C143.471 78.1699 143.51 78.3702 143.538 78.5254C143.824 80.1475 143.455 81.0487 142.433 81.229C142.045 81.2974 141.689 81.2366 141.364 81.0466C141.009 80.8474 140.798 80.5574 140.731 80.1765C140.686 79.9226 140.63 79.5399 140.561 79.0284C140.493 78.5169 140.436 78.1342 140.391 77.8803C140.241 77.0269 139.855 75.2115 139.235 72.4339C138.794 72.4899 138.121 72.5504 137.216 72.6154C136.317 72.6721 135.795 72.2914 135.651 71.4733C135.582 71.0783 135.656 70.7197 135.876 70.3974C136.095 70.0751 136.417 69.8766 136.84 69.802C137.101 69.756 137.708 69.6926 138.661 69.6118C138.614 69.3874 138.53 69.0167 138.41 68.4998C138.302 68.0534 138.227 67.7068 138.183 67.4599C138.114 67.065 138.2 66.7115 138.443 66.3996C138.687 66.0877 139.013 65.8956 139.422 65.8235C140.466 65.6395 141.142 66.4255 141.452 68.1816L141.584 69.0528C142.01 68.9122 142.36 68.8177 142.635 68.7692C143.446 68.6262 144.009 68.5815 144.324 68.635C144.923 68.733 145.281 69.1135 145.398 69.7764C145.469 70.1784 145.391 70.5377 145.163 70.8542C144.935 71.1707 144.61 71.3662 144.186 71.4409ZM148.608 66.3307C148.157 66.4103 147.739 66.3277 147.354 66.0829C146.969 65.838 146.738 65.497 146.661 65.0597C146.584 64.6225 146.684 64.223 146.962 63.8613C147.24 63.4996 147.605 63.2789 148.056 63.1993C148.508 63.1197 148.922 63.203 149.3 63.449C149.685 63.6938 149.916 64.0349 149.993 64.4722C150.07 64.9094 149.97 65.3089 149.692 65.6706C149.421 66.0311 149.06 66.2511 148.608 66.3307ZM150.875 73.9265C150.946 74.3285 151.07 74.972 151.248 75.8569C151.433 76.7406 151.561 77.3834 151.632 77.7854C151.704 78.1945 151.626 78.5572 151.398 78.8737C151.169 79.1832 150.843 79.3752 150.42 79.4498C149.997 79.5244 149.625 79.4555 149.304 79.2431C148.981 79.0236 148.784 78.7093 148.712 78.3002C148.641 77.8982 148.513 77.2554 148.328 76.3717C148.15 75.4868 148.026 74.8434 147.955 74.4414C147.844 73.8137 147.741 73.0211 147.645 72.0636C147.549 71.1061 147.445 70.3135 147.335 69.6858C147.263 69.2768 147.341 68.9175 147.57 68.6081C147.798 68.2916 148.123 68.096 148.547 68.0214C148.97 67.9468 149.342 68.0193 149.665 68.2388C149.986 68.4512 150.182 68.762 150.255 69.171C150.365 69.7987 150.469 70.5913 150.565 71.5488C150.661 72.5063 150.764 73.2989 150.875 73.9265ZM162.98 77.6824C162.112 77.8354 161.554 77.4939 161.305 76.6579C161.078 75.9489 160.85 75.2364 160.622 74.5203C160.38 73.7632 160.198 73.0425 160.077 72.3584C160.045 72.1751 160 71.8594 159.943 71.4113C159.893 70.962 159.852 70.6457 159.819 70.4623C159.811 70.413 159.796 70.2883 159.775 70.0883C159.753 69.8813 159.731 69.7143 159.709 69.5874C159.606 69.002 159.402 68.7361 159.099 68.7895C158.45 68.9039 157.879 69.3973 157.386 70.2697C156.898 71.1338 156.581 72.1787 156.433 73.4046C156.46 73.6398 156.483 73.9557 156.502 74.3523C156.516 74.6772 156.549 74.9912 156.603 75.2945C156.638 75.492 156.712 75.788 156.825 76.1825C156.944 76.5688 157.021 76.8606 157.056 77.0581C157.126 77.4601 157.044 77.8164 156.808 78.1271C156.58 78.4436 156.254 78.6392 155.831 78.7138C155.408 78.7884 155.035 78.716 154.713 78.4965C154.392 78.284 154.196 77.9768 154.125 77.5748C154.09 77.3773 154.017 77.0848 153.905 76.6974C153.792 76.3028 153.718 76.0068 153.683 75.8093C153.564 75.1323 153.447 74.182 153.333 72.9586C153.219 71.7352 153.102 70.785 152.983 70.1079C152.946 69.8963 152.876 69.585 152.775 69.1738C152.679 68.7544 152.613 68.4424 152.577 68.2379C152.507 67.843 152.591 67.4937 152.829 67.19C153.072 66.8781 153.401 66.6854 153.817 66.6121C154.741 66.4492 155.333 66.9158 155.591 68.0118L155.622 68.1263C156.469 66.908 157.464 66.1981 158.607 65.9967C159.94 65.7617 160.958 66.1565 161.662 67.1813C162.133 67.8692 162.499 68.9572 162.762 70.4453L162.894 71.1964C162.944 71.5221 162.981 71.7519 163.005 71.8859C163.102 72.436 163.301 73.1318 163.602 73.9731C163.91 74.8132 164.112 75.5048 164.208 76.0479C164.277 76.4428 164.194 76.7957 163.958 77.1063C163.722 77.417 163.396 77.6091 162.98 77.6824ZM174.547 68.3673C174.543 70.0769 174.675 71.8571 174.943 73.7077C175.274 75.9982 175.185 77.7192 174.675 78.8707C173.994 80.4089 172.479 81.3851 170.13 81.7992C167.387 82.2829 165.919 81.9818 165.728 80.8956C165.659 80.5077 165.727 80.1721 165.932 79.8888C166.137 79.6055 166.44 79.4284 166.842 79.3575C167.159 79.3016 167.625 79.2813 168.238 79.2967C168.852 79.3122 169.388 79.2795 169.846 79.1986C170.897 79.0133 171.616 78.5557 172.004 77.8256C172.373 77.1133 172.479 76.0656 172.322 74.6825C172.027 75.1126 171.67 75.4592 171.251 75.7222C170.832 75.9851 170.355 76.1639 169.819 76.2584C168.415 76.5058 167.192 76.2524 166.15 75.4981C165.114 74.7354 164.47 73.6418 164.219 72.2171C163.881 70.2988 164.193 68.644 165.155 67.2527C166.151 65.8117 167.683 64.909 169.749 64.5446C170.412 64.4277 170.998 64.4081 171.506 64.4857C172.014 64.5634 172.446 64.7418 172.8 65.0211C173.715 64.9689 174.256 65.4189 174.424 66.371C174.507 66.8435 174.548 67.509 174.547 68.3673ZM170.069 66.9753C168.877 67.1854 168.018 67.7404 167.494 68.6401C167.027 69.4569 166.893 70.433 167.094 71.5685C167.242 72.4078 167.512 73.011 167.904 73.3782C168.296 73.7454 168.809 73.873 169.444 73.7611C170.022 73.6591 170.545 73.2215 171.012 72.4483C171.45 71.7166 171.653 71.0336 171.622 70.3993C171.636 69.6986 171.605 68.6168 171.529 67.1541C171.265 67.0553 171.01 66.9912 170.764 66.9617C170.519 66.9322 170.287 66.9367 170.069 66.9753ZM107.399 101.907C108.329 101.656 108.999 101.494 109.408 101.422C110.727 101.189 111.466 101.524 111.625 102.427C111.789 103.358 111.166 103.926 109.755 104.131C109.308 104.196 108.64 104.346 107.751 104.583C107.855 105.335 108.016 106.289 108.234 107.443C108.555 109.102 108.737 110.048 108.778 110.281C109.005 111.572 109.105 112.609 109.075 113.392C109.046 114.175 108.647 114.635 107.879 114.77C107.484 114.84 107.116 114.774 106.775 114.572C106.441 114.369 106.24 114.074 106.171 113.686C106.155 113.594 106.147 113.505 106.146 113.418C106.137 112.379 106.054 111.416 105.898 110.527L104.965 105.238C104.839 105.267 104.612 105.336 104.282 105.445C104.02 105.528 103.819 105.582 103.678 105.606C103.247 105.682 102.869 105.622 102.544 105.425C102.217 105.22 102.016 104.907 101.942 104.484C101.826 103.828 102.096 103.337 102.751 103.01C103.045 102.864 103.651 102.695 104.57 102.504C104.555 102.376 104.531 101.969 104.497 101.284C104.417 99.6767 104.638 98.4307 105.158 97.5463C105.807 96.4429 106.978 95.742 108.67 95.4435C109.961 95.2159 110.688 95.5641 110.851 96.488C111.012 97.4048 110.494 97.969 109.295 98.1804C108.441 98.3309 107.874 98.74 107.591 99.4079C107.381 99.9032 107.309 100.632 107.377 101.595L107.399 101.907ZM119.782 111.57C118.477 111.8 117.277 111.549 116.181 110.819C114.978 110.02 114.208 108.807 113.87 107.18C113.546 105.63 113.728 104.165 114.415 102.786C115.234 101.158 116.598 100.176 118.51 99.8388C119.92 99.5901 121.141 99.9566 122.172 100.938C123.099 101.822 123.695 103.015 123.96 104.517C124.248 106.153 124.057 107.627 123.387 108.938C122.634 110.401 121.432 111.279 119.782 111.57ZM118.865 102.656C117.996 102.802 117.381 103.317 117.021 104.203C116.716 104.947 116.643 105.767 116.801 106.663C116.95 107.509 117.304 108.116 117.863 108.483C118.308 108.775 118.784 108.877 119.291 108.787C119.905 108.679 120.401 108.377 120.779 107.881C121.208 107.304 121.367 106.596 121.255 105.758C120.946 103.471 120.15 102.437 118.865 102.656ZM134.238 100.512C134.365 101.603 133.97 102.229 133.053 102.39C132.164 102.547 131.639 102.167 131.477 101.25L131.236 100.191C129.694 100.725 128.702 101.739 128.26 103.235L129.209 108.555C129.28 108.957 129.201 109.312 128.972 109.622C128.744 109.938 128.419 110.134 127.996 110.209C127.558 110.286 127.195 110.204 126.905 109.964C126.635 109.75 126.465 109.446 126.395 109.051L125.173 102.122C125.135 101.903 125.085 101.577 125.023 101.145C124.96 100.705 124.909 100.376 124.871 100.157C124.801 99.7621 124.86 99.4136 125.046 99.1116C125.239 98.8014 125.554 98.6077 125.991 98.5306C126.774 98.3925 127.31 98.7125 127.6 99.4903C128.684 98.3393 129.988 97.6294 131.511 97.3608C132.922 97.1121 133.793 97.9258 134.123 99.8018C134.187 100.161 134.225 100.398 134.238 100.512ZM144.024 99.5941C143.981 99.638 143.471 100.15 142.495 101.129C141.869 101.748 141.407 102.299 141.106 102.781C140.834 103.214 140.493 103.467 140.084 103.539C139.682 103.61 139.304 103.528 138.949 103.292C138.594 103.049 138.382 102.738 138.315 102.357C138.216 101.793 138.559 101.081 139.346 100.223C140.081 99.4821 140.815 98.7382 141.549 97.9907C142.337 97.1391 142.681 96.4348 142.583 95.8776C142.467 95.2217 142.024 94.6672 141.254 94.2141C140.489 93.7527 139.746 93.5854 139.027 93.7122C138.646 93.7794 138.163 94.09 137.577 94.6442C136.99 95.1913 136.559 95.4891 136.284 95.5376C135.868 95.611 135.488 95.5215 135.146 95.2692C134.809 95.0087 134.608 94.6915 134.542 94.3177C134.417 93.6124 134.921 92.8583 136.052 92.0553C137.007 91.3705 137.83 90.9672 138.522 90.8453C140.052 90.5754 141.534 90.8959 142.967 91.8067C144.407 92.7163 145.256 93.901 145.514 95.3609C145.768 96.8067 145.272 98.2178 144.024 99.5941ZM140.287 108.096C139.885 108.167 139.496 108.104 139.12 107.909C138.71 107.69 138.469 107.373 138.396 106.957C138.311 106.477 138.374 106.008 138.584 105.549C138.834 104.989 139.245 104.658 139.816 104.557C140.295 104.473 140.701 104.587 141.032 104.899C141.296 105.158 141.464 105.489 141.534 105.891C141.61 106.321 141.565 106.743 141.398 107.158C141.186 107.69 140.816 108.002 140.287 108.096Z" fill="#1C262C"/>
</svg>
