<svg width="64" height="40" viewBox="0 0 64 40" fill="none" xmlns="http://www.w3.org/2000/svg">
<rect width="64" height="40" rx="20" fill="#1877F2"/>
<g clip-path="url(#clip0_2162_65829)">
<path d="M44.0001 20.073C44.0001 13.404 38.6271 7.99805 32.0001 7.99805C25.3701 7.99955 19.9971 13.404 19.9971 20.0745C19.9971 26.1 24.3861 31.095 30.1221 32.001V23.5635H27.0771V20.0745H30.1251V17.412C30.1251 14.3865 31.9176 12.7155 34.6581 12.7155C35.9721 12.7155 37.3446 12.951 37.3446 12.951V15.921H35.8311C34.3416 15.921 33.8766 16.8525 33.8766 17.808V20.073H37.2036L36.6726 23.562H33.8751V31.9995C39.6111 31.0935 44.0001 26.0985 44.0001 20.073Z" fill="white"/>
</g>
<defs>
<clipPath id="clip0_2162_65829">
<rect width="24" height="24" fill="white" transform="translate(20 8)"/>
</clipPath>
</defs>
</svg>
