<svg width="550" height="201" viewBox="0 0 550 201" fill="none" xmlns="http://www.w3.org/2000/svg">
<g clip-path="url(#clip0_1894_49516)">
<path fill-rule="evenodd" clip-rule="evenodd" d="M445.97 82.3597C442.399 79.826 430.807 81.735 426.028 82.3597C423.517 82.6879 422.035 86.0021 420.716 91.0411C413.835 89.3249 404.805 87.6993 398.319 92.3512C396.315 94.1259 395.941 97.1503 398.252 98.838C399.005 99.3545 400.456 99.7932 400.686 100.241C401.615 102.647 402.652 105.828 402.487 108.388C399.533 135.263 393.611 162.21 389.446 188.913L389.336 189.924C388.847 194.467 388.452 199.828 391.486 203.445C393.525 205.204 396.427 204.961 398.919 205.468C422.417 208.671 446.143 205.609 469.736 206.586C473.756 206.817 477.798 207.114 481.828 207.145L481.829 207.097C481.395 207.094 480.96 207.088 480.525 207.079C480.971 193.728 481.89 180.396 482.187 167.04C482.281 162.83 482.308 158.619 482.226 154.408C482.21 153.555 483.512 153.555 483.529 154.408C483.556 155.805 483.568 157.202 483.574 158.599C484.55 157.821 485.635 157.203 486.676 156.508C487.379 156.039 488.033 157.186 487.334 157.653C486.099 158.477 484.784 159.169 483.713 160.222C483.67 160.264 483.625 160.297 483.579 160.324C483.555 173.743 482.652 187.153 482.078 200.554C481.994 202.538 481.917 204.521 481.849 206.505L481.828 207.145C486.19 207.178 490.539 206.898 494.831 205.88C495.556 206.908 497.245 207.112 498.104 205.785C498.534 205.284 498.62 204.432 499.285 204.241C499.464 204.099 499.188 203.998 499.061 204.065C504.934 186.945 499.575 155.042 494.84 137.503C492.769 128.46 487.79 120.088 487.272 110.727C487.217 106.315 490.327 101 486.384 97.4549C486.966 94.2144 483.955 91.514 480.915 91.3004C477.173 77.5544 460.61 93.586 451.643 93.7481C450.413 91.6675 447.678 83.5718 445.97 82.3597ZM395.553 172.35C395.553 171.498 396.856 171.496 396.855 172.35C396.847 181.421 396.081 192.281 394.979 201.277C394.877 202.112 393.573 202.123 393.677 201.277C394.778 192.281 395.544 181.421 395.553 172.35ZM456.659 183.993C455.92 183.59 456.577 182.446 457.317 182.849C462.746 185.807 467.82 189.343 472.701 193.156C473.356 193.668 472.708 194.82 472.043 194.3C467.163 190.487 462.089 186.952 456.659 183.993ZM409.542 182.3C410.056 181.673 411.156 182.324 410.649 182.992C409.47 184.546 408.005 185.77 406.288 186.665C405.552 187.049 404.899 185.938 405.605 185.535L405.631 185.521C407.096 184.757 408.417 183.744 409.444 182.428L409.542 182.3ZM474.745 143.514C474.563 142.683 475.819 142.328 476.002 143.162C476.385 144.914 476.106 146.777 475.708 148.513L475.681 148.629L475.626 148.858C475.555 149.157 475.28 149.324 474.998 149.345C470.206 149.706 465.466 148.049 460.871 146.827L460.531 146.737L460.192 146.649C459.379 146.441 459.723 145.162 460.538 145.371L460.901 145.465C465.318 146.623 469.867 148.255 474.477 148.05L474.525 147.834C474.827 146.461 475.041 144.993 474.768 143.622L474.745 143.514ZM401.181 140.284C401.175 139.431 402.477 139.43 402.484 140.284L402.485 140.451C402.501 141.796 402.609 143.706 403.905 144.419C405.057 145.053 406.587 144.577 407.807 144.092L408.055 143.992L408.413 143.844C409.188 143.521 409.526 144.803 408.759 145.122L408.567 145.201C406.908 145.876 404.776 146.518 403.138 145.499C401.537 144.502 401.228 142.39 401.186 140.616L401.183 140.48L401.181 140.284Z" fill="#D08B5B"/>
<path fill-rule="evenodd" clip-rule="evenodd" d="M404.799 89.165L404.665 89.1898L400.979 89.8873L404.718 90.1742C404.891 90.1874 405.065 90.2039 405.239 90.2236C405.599 90.2636 405.951 90.3139 406.298 90.3748L406.522 90.4158L406.426 90.4108C405.06 90.3463 403.693 90.4595 402.346 90.7474C401.017 91.031 399.837 91.417 398.782 91.9419L398.656 92.0056L398.493 92.0906L398.415 92.1287L398.353 92.1579C398.063 92.2937 397.946 92.3636 397.824 92.5322C397.581 92.8662 397.685 93.2435 397.997 93.5301C398.231 93.7449 398.533 93.8513 398.93 93.9123C398.989 93.9213 399.048 93.9292 399.113 93.9366L399.464 93.9717C400.118 94.0411 400.549 94.4011 400.614 94.9595C400.678 95.5065 400.363 96.0614 399.911 96.1977L399.877 96.2069L399.835 96.2168C399.777 96.2302 399.725 96.2448 399.675 96.2633L399.637 96.278L399.556 96.312L399.552 96.3126L399.549 96.3146L399.472 96.347L399.451 96.3872L399.439 96.3968C399.393 96.4349 399.374 96.462 399.343 96.5207L399.317 96.5729L399.295 96.6486L399.289 96.6731L399.286 96.6933L399.285 96.6993L399.264 96.8377L399.258 96.8847L399.256 96.9153L399.256 99.0408L399.791 97.9506L399.81 97.9662C400.069 98.1786 400.402 98.3531 400.825 98.5231L400.911 98.5571L401.135 98.6409L401.575 98.8012L401.677 98.8395L401.767 98.8749C401.839 98.9035 401.9 98.93 401.956 98.9561C402.04 98.9954 402.114 99.0399 402.179 99.0891L402.216 99.1192L402.428 99.2976L402.951 99.1122C403.012 99.0903 403.068 99.0699 403.121 99.0501L403.629 98.8582L404.063 98.6956C404.626 98.4861 405.132 98.3041 405.625 98.1348L406.223 97.9322L406.659 97.7875C406.811 97.7377 406.971 97.6855 407.147 97.6283L409.612 96.8361L410.086 96.6812C410.353 96.5936 410.592 96.5136 410.841 96.4294L411.301 96.2719L411.747 96.116C413.199 95.6027 414.587 95.0536 417.06 94.0372L416.524 94.3483L416.126 94.5774C415.648 94.8509 415.125 95.1474 414.54 95.4769L411.879 96.9728L411.346 97.2757L410.154 97.9575L409.524 98.315C408.396 98.9517 407.596 99.3825 406.743 99.8057C406.083 100.134 405.405 100.448 404.699 100.754L404.433 100.869L404.025 101.042L403.703 101.184L403.485 101.281L403.342 101.343C402.572 101.671 402.12 101.756 401.618 101.623L401.583 101.613L401.549 101.601L400.572 101.219L400.912 102.226C400.951 102.341 400.989 102.457 401.027 102.574L401.096 102.788L401.151 102.9C401.479 103.562 401.802 104.244 402.127 104.959L402.302 105.344L402.403 105.42C402.439 105.448 402.473 105.489 402.501 105.544C402.631 105.801 402.756 106.057 402.877 106.314L403.005 106.586L403.136 106.874C403.712 108.134 404.234 109.427 404.911 111.231L405.803 113.637L405.937 113.995C407.033 116.936 408.065 119.884 409.034 122.838C410.95 128.665 412.644 134.579 414.113 140.562C417.06 152.58 419.027 164.78 419.992 177.059C420.174 179.373 420.305 181.676 420.385 183.972L420.405 184.568L420.467 185.095C420.516 185.511 420.561 185.914 420.604 186.309L420.63 186.545C420.943 189.468 421.094 191.768 421.078 193.97C421.07 195.063 421.037 196.081 420.976 197.061L420.962 197.287L420.72 200.892L421.91 197.487C421.994 197.246 422.075 197.001 422.167 196.716L422.283 196.352L422.339 196.169C422.389 196.001 422.437 195.828 422.496 195.601L422.707 194.791L422.759 194.596C422.814 194.396 422.859 194.241 422.912 194.076L422.975 193.884L423.021 193.75C423.105 193.509 423.205 193.253 423.362 192.865L423.604 192.267L423.653 192.146V192.049L423.645 191.727C423.628 190.96 423.632 190.153 423.654 189.247L423.674 188.537L423.696 187.929C423.698 187.866 423.701 187.802 423.703 187.735L423.815 184.999L424.031 178.922L424.064 177.896C424.088 177.133 424.108 176.442 424.125 175.769L424.14 175.153L424.144 174.944C424.276 168.915 424.226 162.713 424.008 156.262L423.986 155.637L423.964 155.022C423.597 145.001 422.962 136.472 421.455 119.681L421.204 116.903L420.829 112.791L420.743 111.826C420.569 109.861 420.444 108.328 420.338 106.827L420.292 106.158C420.114 103.506 420.007 100.751 419.955 97.7261L419.946 97.1821L420.181 98.013L420.384 95.2492C420.446 94.4124 420.55 93.6389 420.703 92.9182L420.737 92.7646L420.803 92.471L420.854 92.2762C420.941 91.9471 420.394 90.4332 420.394 90.4332L420.084 90.3577L419.709 90.2677C413.733 88.8485 409.078 88.3828 404.799 89.165ZM463.702 86.7049L463.522 86.7553L463.408 86.7882C462.494 87.0554 461.524 87.4337 460.404 87.939L460.083 88.0853C459.94 88.151 459.113 88.4839 458.784 88.6264L458.728 88.6512C457.514 89.1937 456.79 89.7635 456.631 90.602L456.621 90.659C456.266 91.0045 455.856 91.3366 455.389 91.6553L455.271 91.7346L455.159 91.8079C454.657 92.1331 454.181 92.42 453.733 92.6677L453.612 92.7343L453.528 92.7793L452.722 93.061L451.726 93.4125L451.526 93.482C450.487 93.8419 449.875 94.0309 449.141 94.2142L448.729 94.3166C447.168 94.7019 445.785 95.0022 444.452 95.2375C443.095 95.476 441.701 95.685 440.261 95.8681L439.774 95.9286C439.294 95.9862 438.824 96.0297 438.092 96.088L436.907 96.1813L436.106 96.2473L436.532 96.9404C437.649 98.7563 438.511 100.78 439.475 103.641L439.582 103.962C440.457 106.592 441.072 108.961 442.131 113.507C443.735 120.406 445.056 127.37 446.089 134.372C446.801 139.198 447.378 144.012 447.818 148.811L447.88 149.497L448.854 149.495C448.982 148.021 449.141 146.503 449.332 144.906C449.934 139.934 450.8 135.052 451.931 130.288L452.038 129.842L452.085 129.65L451.988 129.477C451.931 129.374 451.908 129.258 451.924 129.156C452.043 128.405 452.26 127.72 452.674 126.686L453.096 125.647L453.191 125.409L453.198 125.384C453.646 123.785 454.123 122.205 454.63 120.644L454.8 120.124L454.808 120.1C455.544 117.423 456.267 115.213 457.117 113.143C457.782 111.525 458.539 109.939 459.382 108.391L459.541 108.101L459.556 108.073C460.623 105.814 461.76 103.678 462.966 101.676L463.16 101.357L463.177 101.305C463.219 101.184 463.281 101.077 463.363 100.985L463.395 100.952L463.435 100.912L463.524 100.77L464.23 100.591C466.217 100.085 468.286 100.041 470.594 100.391L470.749 100.415L470.904 100.44C472.599 100.72 474.055 101.102 476.7 101.92L479.303 102.731L479.673 102.843L480.023 102.948C481.291 103.324 482.402 103.607 483.48 103.821L483.627 103.849L484.026 103.925L484.224 103.962C485.412 104.177 486.244 104.236 487.031 104.082L487.102 104.068L487.19 104.048L487.268 104.028C488.186 103.779 488.526 103.102 488.103 102.159C487.753 101.378 486.995 100.824 485.88 100.339L485.718 100.27L485.678 100.253L485.636 100.244C485.371 100.186 485.116 100.083 484.875 99.9334C484.387 99.6323 484.183 99.0099 484.404 98.4959C484.632 97.9693 485.255 97.6228 485.689 97.8005L486.017 97.9329L486.375 98.0765L486.596 97.7554C486.608 97.7376 486.62 97.719 486.631 97.6987L486.648 97.6669L486.659 97.6443L486.686 97.6203L486.713 97.5927C486.78 97.5184 486.816 97.4377 486.834 97.3549C486.841 97.3236 486.845 97.2951 486.847 97.2668L486.848 97.2385C486.849 97.1796 486.844 97.1323 486.826 96.9676C486.748 96.2522 486.287 95.6745 485.491 95.0105L485.362 94.9049L485.324 94.8739C483.799 93.6445 481.865 93.012 480.222 93.4001C480.142 93.4187 480.063 93.4394 479.982 93.4634L479.901 93.4887L479.805 93.5213C479.3 93.6993 478.905 93.4805 478.721 92.9913C478.536 92.4987 478.661 91.9548 479.053 91.6612L479.088 91.636L479.208 91.5548L479.347 91.4572L479.502 91.3462L479.573 91.2939L479.675 91.2164C480.462 90.6112 480.895 90.0459 480.768 89.3774L480.759 89.3346L480.748 89.2844L480.727 89.2376L480.661 89.0934L480.592 88.9498L480.573 88.9103L480.547 88.8749C480.276 88.5038 479.822 88.2219 479.173 87.9489L479.097 87.9174C478.825 87.8062 478.067 87.5354 477.954 87.4911L477.945 87.4877C475.7 86.5612 473.261 86.0267 470.808 85.9174C468.4 85.8108 465.987 86.0758 463.702 86.7049Z" fill="#D64568"/>
<path d="M421.651 112.239L421.68 112.464L421.708 112.689C422.506 119.151 423.178 127.283 423.765 133.767C424.934 146.692 425.65 159.67 425.551 172.653C425.525 176.011 425.406 179.358 425.254 182.71L425.22 183.428C425.049 187.082 424.787 190.942 423.787 194.466C423.677 194.856 423.431 195.079 423.147 195.161C423.136 195.572 423.112 195.984 423.085 196.391L423.064 196.697C422.949 198.345 422.618 201.77 421.911 203.264C421.222 204.723 420.074 205.879 418.61 206.515C418.2 206.693 417.782 206.821 417.36 206.91C426.25 207.095 437.926 206.803 446.832 206.584C445.907 206.436 445.382 205.692 445.259 204.742C445.015 202.837 445.474 200.867 446.513 199.265C446.621 199.099 446.748 198.952 446.89 198.826L446.865 197.772C446.847 196.981 446.839 196.189 446.883 195.399C446.978 193.656 447.119 191.913 447.243 190.172C447.494 186.684 447.688 183.19 447.764 179.694C447.92 172.702 447.806 165.703 447.417 158.721C446.637 144.772 444.821 129.255 441.849 115.61C441.633 114.616 441.414 113.622 441.188 112.63C438.877 113.851 434.764 114.29 432.238 114.307C429.072 114.326 424.51 113.586 421.651 112.239Z" fill="#E86BBB"/>
<path fill-rule="evenodd" clip-rule="evenodd" d="M395.002 201.325C396.103 192.329 396.869 181.469 396.878 172.398C396.879 171.544 395.576 171.545 395.575 172.398C395.566 181.469 394.801 192.329 393.699 201.325C393.596 202.17 394.9 202.16 395.002 201.325ZM403.161 145.547C404.863 146.605 407.098 145.871 408.782 145.17C409.549 144.851 409.211 143.569 408.436 143.892C407.154 144.425 405.28 145.211 403.927 144.467C402.577 143.724 402.516 141.68 402.506 140.332C402.5 139.478 401.197 139.478 401.203 140.332C401.217 142.166 401.458 144.487 403.161 145.547ZM406.311 186.713C408.028 185.818 409.493 184.594 410.672 183.04C411.184 182.364 410.052 181.705 409.547 182.371C408.509 183.738 407.157 184.784 405.653 185.569C404.906 185.958 405.566 187.102 406.311 186.713ZM414.564 140.453C417.51 152.464 419.487 164.69 420.456 177.03C420.653 179.535 420.791 182.037 420.869 184.541C420.947 185.193 421.022 185.848 421.092 186.502C421.358 188.978 421.561 191.493 421.543 193.985C421.535 195.103 421.501 196.217 421.426 197.332C421.557 196.959 421.677 196.584 421.794 196.212C422.034 195.448 422.192 194.656 422.436 193.897C422.638 193.269 422.898 192.668 423.141 192.06V192.058C423.068 189.568 423.234 187.054 423.319 184.575C423.428 181.364 423.563 178.157 423.633 174.944C423.773 168.519 423.703 162.088 423.475 155.666C423.017 142.726 421.861 129.847 420.695 116.96C420.371 113.376 420.022 109.794 419.781 106.203C419.539 102.575 419.441 98.9395 419.413 95.3011C419.412 95.0392 419.803 94.9698 419.874 95.2231C419.938 94.3599 420.05 93.4983 420.237 92.6649C417.428 94.4874 414.466 96.0631 411.562 97.72C410.033 98.5932 408.51 99.4813 406.934 100.263C406.068 100.694 405.193 101.09 404.301 101.465C403.376 101.852 402.491 102.386 401.474 102.116C401.386 102.093 401.303 102.059 401.223 102.016C401.338 102.24 401.454 102.462 401.565 102.688C401.949 103.464 402.316 104.245 402.671 105.032C402.765 105.103 402.848 105.201 402.913 105.328C403.086 105.671 403.254 106.018 403.416 106.369C403.449 106.337 403.482 106.306 403.514 106.274C403.651 106.144 403.84 106.341 403.719 106.483C403.664 106.548 403.61 106.611 403.556 106.675C404.618 109 405.481 111.444 406.371 113.83C407.463 116.763 408.499 119.717 409.475 122.691C411.398 128.541 413.095 134.468 414.564 140.453ZM456.682 184.041C462.112 186.999 467.186 190.535 472.066 194.348C472.731 194.868 473.379 193.716 472.723 193.204C467.843 189.39 462.769 185.855 457.34 182.896C456.6 182.494 455.943 183.638 456.682 184.041ZM475.021 149.393C475.303 149.371 475.577 149.205 475.649 148.906C476.089 147.074 476.433 145.078 476.024 143.209C475.842 142.376 474.586 142.731 474.768 143.562C475.091 145.035 474.834 146.628 474.499 148.098C469.764 148.309 465.092 146.58 460.561 145.419C459.746 145.21 459.402 146.489 460.215 146.697C465.021 147.928 469.992 149.771 475.021 149.393ZM380.746 198.265C380.741 198.253 380.736 198.24 380.733 198.228C380.454 197.37 380.448 196.372 380.417 195.473C380.363 193.872 380.42 192.268 380.562 190.673C380.861 187.314 381.506 184.01 382.277 180.735C383.802 174.246 385.959 167.934 387.13 161.358C389.427 148.449 388.882 135.008 393.391 122.557C395.266 117.381 397.943 112.405 401.581 108.293C401.316 107.471 401.057 106.647 400.804 105.821C400.363 104.382 399.912 102.898 399.64 101.417C399.633 101.377 399.625 101.335 399.62 101.294C398.072 100.615 396.663 99.3338 396.422 97.6305C396.318 96.8949 396.438 96.0797 396.751 95.3689C396.112 94.7691 395.702 93.9904 395.8 92.9465C395.982 90.9815 398.238 90.476 399.808 90.0917C401.592 89.656 403.444 89.535 405.27 89.7405C406.191 89.8432 407.103 90.0155 407.994 90.274C408.768 90.4977 409.61 90.728 410.23 91.2681C410.303 91.3311 410.243 91.4537 410.155 91.4537C408.9 91.4489 407.649 90.9798 406.38 90.9183C405.051 90.8555 403.726 90.9666 402.423 91.2449C401.149 91.5166 399.879 91.9143 398.721 92.529C398.396 92.703 397.919 92.8206 398.301 93.1719C398.581 93.4287 399.132 93.4504 399.492 93.4883C400.288 93.5728 400.975 94.0467 401.076 94.9116C401.166 95.6754 400.718 96.5403 399.92 96.7126C399.876 96.7227 399.835 96.7342 399.799 96.7491C399.778 96.7905 399.746 96.8253 399.749 96.769C399.749 96.769 399.747 96.7673 399.747 96.769C399.728 96.8899 399.721 96.9378 399.721 96.9462C399.726 96.9363 399.734 96.8949 399.741 96.8617C399.736 96.8916 399.726 96.9396 399.713 97.0109C399.731 96.933 399.716 97.1237 399.731 97.1534C400.154 97.9487 401.407 98.1725 402.136 98.5153C402.278 98.5814 402.4 98.6595 402.504 98.7471C402.677 98.686 402.853 98.6247 403.03 98.5567C403.905 98.2237 404.778 97.9006 405.664 97.6005C407.374 97.0191 409.105 96.5005 410.815 95.9173C414.052 94.8138 417.182 93.4204 420.36 92.1579C420.461 91.7768 420.578 91.404 420.716 91.0411C420.744 90.9651 420.877 90.9401 420.892 91.0411C420.941 91.3626 420.98 91.6856 421.013 92.0104C421.026 92.0402 421.029 92.0734 421.022 92.1048C421.206 93.9937 421.158 95.9273 421.252 97.8145C421.369 100.167 421.697 102.503 421.789 104.858V104.901C422.131 106.911 422.441 108.927 422.721 110.95C423.035 110.851 423.395 110.871 423.763 111.071C426.366 112.484 429.29 113.272 432.233 113.447C433.715 113.535 435.182 113.485 436.656 113.311C437.625 113.199 438.579 112.993 439.535 112.798C439.032 110.652 438.491 108.516 437.881 106.402C437.378 104.664 436.817 102.934 436.125 101.262C435.427 99.5741 434.557 97.9619 433.748 96.3249C433.375 95.5677 433.814 94.4096 434.783 94.4891C435.07 94.5123 435.357 94.5305 435.645 94.5438C438.449 94.6798 441.366 94.3617 444.134 94.0782C447.286 93.7534 450.479 93.4169 453.603 92.8885C453.834 92.8504 453.928 93.1702 453.7 93.2481C452.218 93.7551 450.754 94.3282 449.235 94.7078C447.671 95.1005 446.098 95.4584 444.512 95.7384C442.993 96.0053 441.467 96.2288 439.936 96.4177C438.938 96.542 437.928 96.6049 436.923 96.6878C438.277 98.8881 439.21 101.37 440.022 103.814C441.066 106.952 441.833 110.181 442.584 113.404C444.19 120.312 445.514 127.289 446.549 134.309C447.292 139.343 447.893 144.396 448.344 149.463C448.478 147.924 448.64 146.389 448.824 144.857C449.44 139.768 450.339 134.713 451.541 129.734C451.433 129.542 451.383 129.312 451.419 129.088C451.635 127.72 452.205 126.528 452.705 125.259C453.202 123.486 453.738 121.725 454.314 119.977C454.969 117.596 455.703 115.251 456.643 112.962C457.361 111.217 458.18 109.517 459.092 107.868C460.182 105.564 461.379 103.309 462.693 101.153C462.761 100.953 462.872 100.765 463.03 100.608C463.269 100.224 463.512 99.8441 463.76 99.468C463.921 99.2228 464.383 99.3719 464.261 99.6834C464.204 99.8294 464.147 99.975 464.089 100.119C469.442 98.7572 474.69 100.84 479.789 102.378C481.076 102.767 482.375 103.118 483.694 103.372C484.732 103.57 485.94 103.812 486.974 103.593C487.666 103.448 487.972 103.128 487.635 102.376C487.287 101.597 486.336 101.085 485.51 100.741C485.199 100.673 484.893 100.552 484.598 100.369C483.911 99.9452 483.61 99.0604 483.934 98.3065C484.229 97.6256 485.088 97.039 485.849 97.3505C485.958 97.3953 486.065 97.4383 486.173 97.4814C486.184 97.4649 486.197 97.4417 486.209 97.4085C486.318 97.1053 486.365 97.4683 486.318 97.0341C486.24 96.3249 485.502 95.6804 484.997 95.2745C483.742 94.2621 481.927 93.5132 480.307 93.8959C480.185 93.9241 480.063 93.9589 479.942 94.002C478.273 94.5902 477.46 92.1446 478.794 91.2333C478.876 91.1786 478.978 91.1091 479.091 91.0279C479.646 90.6352 480.458 89.9741 480.237 89.3778C479.963 88.637 478.35 88.2112 477.739 87.9593C475.531 87.048 473.145 86.5311 470.764 86.425C468.368 86.319 465.942 86.5874 463.631 87.245C462.498 87.5666 461.333 88.0554 460.262 88.5493C459.299 88.9916 457.205 89.5764 457.071 90.8158C457.042 91.0893 456.659 91.182 456.576 90.8837C455.92 88.5044 458.467 86.9685 460.148 85.986C461.25 85.3396 462.501 84.9372 463.711 84.5412C464.87 84.1601 466.054 83.8801 467.263 83.7109C469.857 83.3499 472.482 83.3963 475.055 83.9033C477.398 84.3657 480.006 85.1542 481.9 86.6885C483.062 87.6296 483.589 89.1274 483.121 90.5888C483.105 90.6368 483.089 90.6865 483.072 90.7346C485.165 91.1157 487.145 92.3351 488.469 94.0351C489.557 95.4319 490.127 97.3754 489.153 99.0009C489.194 99.0306 489.235 99.0621 489.274 99.0952C490.202 99.8508 490.892 100.948 491.098 102.147C491.5 104.513 490.094 106.168 488.129 106.801C488.616 107.285 489.083 107.799 489.541 108.312C490.565 109.464 491.544 110.718 492.407 111.997C494.156 114.589 495.651 117.41 496.959 120.254C499.647 126.092 501.343 132.377 502.242 138.749C502.694 141.96 502.997 145.188 503.113 148.429C503.246 152.124 503.111 155.82 503.181 159.517C503.25 163.069 503.636 166.535 504.416 169.998C505.163 173.31 506.16 176.556 507.062 179.825C508.08 183.507 509.2 187.172 509.738 190.968C510.01 192.899 510.205 194.836 510.054 196.79C509.901 198.78 509.19 200.481 508.536 202.332C508.37 202.805 507.863 202.995 507.458 202.894C507.367 203.78 507.038 204.645 506.547 205.394C505.507 206.981 503.904 207.994 502.069 208.362C500.001 208.774 497.869 208.676 495.775 208.6C493.503 208.517 491.23 208.443 488.958 208.347C486.579 208.247 484.201 208.144 481.823 208.041C481.901 205.561 481.995 203.081 482.101 200.602C482.674 187.201 483.577 173.791 483.601 160.372C483.647 160.345 483.693 160.312 483.736 160.269C484.807 159.216 486.121 158.525 487.356 157.701C488.055 157.234 487.402 156.087 486.699 156.556C485.658 157.251 484.572 157.868 483.597 158.647C483.591 157.25 483.579 155.853 483.552 154.456C483.535 153.603 482.232 153.603 482.249 154.456C482.331 158.666 482.303 162.878 482.21 167.088C481.907 180.73 480.954 194.347 480.52 207.984C474.136 207.707 467.752 207.427 461.367 207.19C456.174 206.998 450.981 206.806 445.787 206.614C444.698 206.574 444.085 205.782 443.952 204.746C443.708 202.841 444.167 200.871 445.206 199.269C445.313 199.103 445.44 198.955 445.582 198.83C445.558 197.688 445.512 196.545 445.576 195.403C445.67 193.66 445.812 191.917 445.935 190.176C446.186 186.688 446.38 183.194 446.457 179.698C446.613 172.706 446.499 165.707 446.11 158.725C445.33 144.775 443.514 130.916 440.542 117.271C440.325 116.277 440.107 115.283 439.881 114.29C437.57 115.512 434.759 115.951 432.233 115.967C429.067 115.987 425.971 115.246 423.112 113.9C423.131 114.05 423.151 114.199 423.169 114.35C423.967 120.812 424.639 127.287 425.226 133.77C426.395 146.696 427.111 159.674 427.012 172.657C426.984 176.255 426.849 179.84 426.681 183.432C426.51 187.086 426.248 190.946 425.248 194.47C425.138 194.86 424.892 195.083 424.608 195.165C424.594 195.678 424.561 196.193 424.525 196.7C424.41 198.349 424.079 201.774 423.372 203.268C422.683 204.726 421.535 205.883 420.071 206.519C418.212 207.326 416.2 207.094 414.236 206.965C405.696 206.398 397.163 205.639 388.628 204.973C387.439 204.88 386.25 204.789 385.063 204.695C384.006 204.612 382.913 204.539 381.975 203.981C380.909 203.346 380.076 200.23 380.444 198.941C380.511 198.705 380.612 198.473 380.746 198.265Z" fill="#0D0D0D"/>
<path fill-rule="evenodd" clip-rule="evenodd" d="M436.085 24.2935C426.858 24.2935 413.352 30.5758 412.336 36.62C411.139 43.7429 408.481 70.527 409.928 79.2917C411.375 88.0565 417.019 94.5327 429.499 94.5327C441.98 94.5327 451.295 87.5935 453.434 85.2108C455.573 82.8282 458.164 75.4138 458.164 75.4138C458.164 75.4138 464.998 74.2329 465.029 68.6792C465.061 63.1255 461.597 61.4092 461.597 61.4092C461.597 61.4092 463.466 38.3705 459.537 32.6644C455.607 26.9582 445.312 24.2935 436.085 24.2935Z" fill="#D08B5B"/>
<path fill-rule="evenodd" clip-rule="evenodd" d="M408.226 53.6331C407.721 59.2317 407.531 64.8783 407.433 70.4985C407.339 75.8237 407.799 81.3775 410.774 85.9307C413.376 89.9138 417.338 92.8051 421.75 94.3658C424.261 95.2556 427.041 95.5853 429.694 95.6665C431.063 95.7079 432.437 95.6483 433.799 95.5041C433.97 95.4858 434.142 95.4702 434.314 95.4546C435.468 95.3497 436.612 95.2457 437.452 94.3576C437.717 94.0775 437.713 93.5026 437.322 93.3203C436.576 92.9741 436.071 92.9376 435.253 93.0519C434.575 93.1462 433.896 93.2209 433.214 93.269C431.751 93.3734 430.279 93.3767 428.816 93.2624C426.128 93.0519 423.378 92.278 420.938 91.1051C417.111 89.2626 413.823 86.2436 412.048 82.2822C410.014 77.7464 410.116 72.5012 410.211 67.617L410.215 67.4167C410.321 61.9987 410.518 56.5972 410.979 51.1974C411.154 49.1547 411.403 47.123 411.653 45.0906C411.723 44.5184 411.793 43.9462 411.861 43.3736C412.026 41.9885 412.242 40.6098 412.507 39.2414C412.586 38.8281 412.68 38.4181 412.773 38.0087C412.844 37.7006 412.914 37.3929 412.978 37.0841C413.087 37.1022 413.197 37.1123 413.311 37.1171C413.991 37.1405 414.733 36.9715 415.237 36.4794C415.43 36.6136 415.676 36.6981 415.971 36.713C417.778 36.804 419.603 36.7634 421.424 36.723C422.418 36.7009 423.412 36.6788 424.401 36.6782C427.209 36.6765 430.019 36.6782 432.829 36.6865C433.257 36.6877 433.685 36.6894 434.114 36.6911C436.494 36.7003 438.878 36.7096 441.254 36.6451C441.758 36.6313 442.265 36.6224 442.774 36.6134C444.903 36.5759 447.062 36.5378 449.143 36.1447C450.009 39.2828 449.978 42.7308 448.172 45.5342C447.662 46.3246 448.077 47.2557 448.741 47.7495C449.421 48.2533 450.642 49.0259 451.687 49.1053C451.727 49.1981 451.768 49.2907 451.809 49.3832C451.87 49.5217 451.932 49.6598 451.991 49.7977C452.49 50.9564 452.939 52.1223 453.253 53.3491C453.415 53.9813 453.555 54.624 453.672 55.2707C453.663 55.3839 453.653 55.4969 453.641 55.6097C453.641 55.6168 453.64 55.6238 453.639 55.6312C453.639 55.6359 453.638 55.6408 453.638 55.646C453.631 55.6926 453.623 55.7456 453.618 55.7754C453.603 55.855 453.589 55.9346 453.574 56.0142C453.529 56.2593 453.484 56.5041 453.436 56.748C453.285 57.535 453.168 58.3287 453.085 59.1255C452.934 60.5837 452.949 62.4792 454.343 63.3424C455.089 63.8047 455.983 63.7566 456.771 63.4466C457.21 63.2735 457.595 63.041 457.992 62.8012C458.073 62.752 458.155 62.7025 458.238 62.6531C458.366 62.5767 458.497 62.5065 458.628 62.4364C458.792 62.3484 458.955 62.2607 459.113 62.161C459.19 62.1113 459.265 62.0517 459.335 61.9887C459.863 62.103 460.379 62.3168 460.668 62.4626C461.443 62.8553 462.124 63.4236 462.702 64.0764C463.932 65.4665 464.301 67.4249 464.129 69.2425C463.968 70.9342 463.317 72.8776 462.005 74.0028C461.435 74.493 460.723 74.7798 459.971 74.7716C459.6 74.7682 459.259 74.6887 458.901 74.5926C458.749 74.5518 458.581 74.5339 458.413 74.516C458.193 74.4925 457.972 74.469 457.788 74.3938C457.306 74.1966 456.711 74.7981 456.907 75.2918C456.951 75.4015 456.989 75.5074 457.026 75.6097C457.114 75.8535 457.194 76.0767 457.325 76.281C455.979 78.5211 454.505 80.6916 452.937 82.7743C451.943 84.0934 450.825 85.2649 449.702 86.4417C449.228 86.9382 448.753 87.4356 448.286 87.9454C447.592 88.7043 447.303 90.1988 448.559 90.5234C449.664 90.8114 450.523 89.7785 451.204 88.9589C451.295 88.8491 451.383 88.7431 451.468 88.6446C454.45 85.1867 456.704 81.2167 457.759 76.735C458.235 77.0796 458.781 77.2668 459.356 77.348C460.502 77.5087 461.661 77.2784 462.665 76.6869C466.468 74.4485 467.388 68.3992 465.606 64.6082C465.177 63.6955 464.543 62.8806 463.769 62.2479C463.83 62.1291 463.854 61.9899 463.815 61.8403C463.746 61.5783 463.671 61.3195 463.591 61.0617C463.678 61.0224 463.741 60.9412 463.729 60.8206C463.669 60.1899 463.61 59.5591 463.55 58.9284L463.518 58.5838C463.526 58.2419 463.536 57.9001 463.546 57.5582C463.569 56.7735 463.592 55.9882 463.583 55.1988C463.574 54.3589 463.546 53.5193 463.518 52.6798C463.486 51.7141 463.453 50.7485 463.45 49.7825C463.439 46.6537 463.372 43.5265 463.305 40.3994C463.236 37.2304 463.168 34.0614 463.159 30.8907C463.149 27.8104 463.143 24.7254 463.222 21.647C463.223 21.6251 463.224 21.6038 463.224 21.5824C463.225 21.5632 463.225 21.5439 463.226 21.5243C463.236 21.1465 463.259 20.7491 463.283 20.3413C463.416 18.0894 463.569 15.5189 461.568 14.1693C461.18 13.9077 460.695 13.9044 460.273 14.0734C459.057 13.2101 457.533 12.7941 456.075 12.5538C453.926 12.2001 451.763 11.9881 449.599 11.7759C448.966 11.7139 448.332 11.6518 447.699 11.5862C446.24 11.4354 444.705 11.3776 443.236 11.4107C442.471 11.4278 441.702 11.3997 440.931 11.3715C440.204 11.3449 439.476 11.3183 438.75 11.3296C437.054 11.3577 435.344 11.4223 433.641 11.5648C433.601 11.5607 433.561 11.557 433.521 11.5533C433.481 11.5495 433.44 11.5458 433.4 11.5416C430.82 11.2894 428.244 11.4228 425.666 11.5562C425.042 11.5885 424.417 11.6208 423.793 11.6477C420.741 11.7786 417.519 12.1 414.779 13.5894C414.426 13.7806 414.128 13.998 413.873 14.2402C413.516 14.2914 413.176 14.3946 412.87 14.5681C411.987 14.3863 411.003 14.7893 410.794 15.833C410.49 17.3623 410.375 18.9047 410.557 20.4557C410.559 20.4752 410.561 20.4952 410.564 20.5158C410.566 20.5335 410.567 20.5516 410.57 20.57C410.201 22.0088 410.226 23.5802 410.532 24.9993C410.403 26.7924 410.329 28.5906 410.319 30.3859C410.318 30.6575 410.314 30.9302 410.31 31.2035C410.296 32.1796 410.282 33.1629 410.371 34.1302C410.471 35.2188 410.91 36.0802 411.602 36.907C411.732 37.0628 411.952 37.0886 412.135 37.0508C412.183 37.041 412.224 37.0278 412.261 37.0121C411.92 37.7578 411.638 38.5407 411.361 39.3066C411.3 39.4764 411.239 39.6454 411.177 39.813C410.641 41.281 410.121 42.7739 409.752 44.2949C409.005 47.3616 408.512 50.4866 408.226 53.6331ZM460.012 67.5122C460.167 67.4037 460.322 67.2942 460.491 67.2128C460.512 67.2027 461.402 66.908 461.23 67.2973C461.172 67.4266 461.324 67.5707 461.433 67.4564C461.742 67.1366 461.57 66.7522 461.276 66.4672C460.744 65.952 459.951 66.0711 459.299 66.1939C458.393 66.3645 457.512 66.7688 456.748 67.2874C455.926 67.8458 454.91 68.6195 454.748 69.6783C454.6 70.6509 455.549 71.7229 456.525 71.0717C457.054 70.7187 457.424 70.1939 457.795 69.6673C458.06 69.2919 458.325 68.9155 458.649 68.5997C459.031 68.2285 459.444 67.9021 459.881 67.6037C459.925 67.5737 459.969 67.543 460.012 67.5122Z" fill="#0D0D0D"/>
<path fill-rule="evenodd" clip-rule="evenodd" d="M425.654 82.5605C426.749 82.1062 427.725 81.3482 428.439 80.38C428.688 80.0435 428.752 79.688 428.7 79.3629C428.641 78.9974 428.429 78.6661 428.139 78.4439C427.848 78.221 427.484 78.111 427.133 78.1671C426.827 78.2158 426.523 78.386 426.282 78.739L426.232 78.8096C425.808 79.394 425.254 79.8734 424.624 80.1825C424.016 80.4804 423.337 80.6194 422.634 80.5385C421.294 80.3846 420.371 79.6477 419.39 78.647C419.268 78.5207 419.147 78.3904 419.025 78.258C418.947 78.138 418.84 78.0608 418.721 78.0203C418.589 77.9754 418.44 77.978 418.303 78.0266C418.171 78.0734 418.053 78.1623 417.974 78.2805C417.898 78.3928 417.856 78.5317 417.869 78.6913C417.959 79.7284 418.492 80.6539 419.249 81.3807C420.09 82.1878 421.204 82.7462 422.254 82.942C423.409 83.1578 424.587 83.0032 425.654 82.5605ZM421.708 66.5618C420.478 67.3223 418.605 69.0957 419.928 70.9811C421.485 72.6435 423.727 70.7374 424.832 69.8754C425.856 69.2073 427.007 70.9256 426.057 71.7057C418.073 77.7194 414.833 66.7607 421.086 65.6676C421.775 65.5472 422.03 66.3265 421.708 66.5618ZM436.015 59.5663C435.879 57.8504 433.31 57.4607 433.055 59.1587C432.826 60.6797 433.096 62.077 433.769 63.4464C434.412 64.7547 436.03 64.1443 436.152 62.953C436.316 61.3561 436.099 60.6337 436.015 59.5663ZM416.462 58.8066C416.104 58.3295 415.587 58.0037 414.968 58.1878C413.032 58.7632 413.603 61.5589 414.282 62.9197C414.652 63.6587 415.846 63.8461 416.385 63.1954C417.265 62.1343 417.686 60.0153 416.568 58.9702C416.537 58.9162 416.504 58.8617 416.462 58.8066ZM433.796 52.058L433.49 52.0036C432.545 51.8371 431.369 51.6772 430.7 52.4508C430.345 52.8611 430.223 53.6236 430.7 54.0163C431.539 54.7072 432.466 54.4394 433.472 54.4979C434.3 54.5463 435.097 54.6858 435.895 54.9179C437.646 55.4271 439.072 56.3566 440.568 57.3773C440.764 57.5111 440.964 57.2558 440.871 57.0691C440.008 55.3487 438.335 53.9356 436.659 53.0742C435.764 52.6144 434.786 52.233 433.796 52.058ZM418.227 51.2874L417.993 51.3361C415.446 51.8777 412.138 52.9595 410.932 55.5044C410.886 55.8642 410.934 55.9414 410.974 55.9917L410.987 56.0085C411.019 56.0515 411.045 56.1109 411.199 56.1598C411.241 56.1495 411.284 56.1386 411.328 56.127C411.88 55.9796 412.318 55.7766 412.741 55.5659L413.2 55.3358C413.733 55.0701 414.27 54.8141 414.84 54.6251C416.055 54.2218 417.305 53.9377 418.574 53.786C418.849 53.7532 419.114 53.6587 419.323 53.4968C419.521 53.3431 419.673 53.1303 419.742 52.8475C419.832 52.4815 419.806 52.2044 419.613 51.8742C419.468 51.6262 419.26 51.4543 419.022 51.3556C418.779 51.255 418.502 51.2313 418.227 51.2874Z" fill="#0D0D0D"/>
<path fill-rule="evenodd" clip-rule="evenodd" d="M408.204 63.2499C408.66 64.5178 409.354 65.8377 410.203 66.9047C413.636 69.8754 416.973 68.2306 418.667 64.2044C419.311 61.3591 417.601 58.2943 415.791 56.2012C413.175 53.523 408.907 54.9286 407.704 58.1124C407.631 58.5249 407.587 58.9364 407.566 59.3466C407.591 60.6796 407.748 61.8188 408.204 63.0852M441.208 60.6929C436.685 55.1959 428.223 54.902 428.438 63.3624C429.41 74.0714 445.772 71.4429 441.208 60.6929ZM406.782 56.1073C406.94 55.833 407.116 55.5676 407.308 55.3137C407.379 55.2706 407.42 54.8877 407.681 54.8594C411.168 50.9288 417.294 53.1589 419.508 57.0755C419.912 57.5707 420.242 58.1504 420.485 58.763C422.666 58.3542 425.209 58.4336 427.237 59.2753C429.248 53.9093 435.338 53.4302 439.351 55.7229C441.847 56.9771 443.465 59.6036 445.893 61.0465C451.599 61.4661 457.723 60.1598 463.326 61.6222C467.746 62.5609 464.051 64.8471 463.31 63.3214C458.027 61.7267 451.769 63.0743 446.284 62.715C445.713 63.7006 444.619 64.5072 443.529 64.4728C442.352 75.1351 427.133 73.3671 426.608 63.8889C426.013 62.927 425.272 62.0064 424.212 61.4071C423.806 61.3213 423.414 61.2097 423.056 61.0371C422.444 60.9488 421.5 61.214 420.937 61.7349C419.007 73.5661 407.888 72.1882 405.901 61.8236C405.861 61.7824 405.751 61.6278 405.666 61.3799C404.986 60.4611 403.321 60.1196 403.587 58.5686C403.824 57.0172 405.741 57.0356 406.782 56.1073Z" fill="#0D0D0D"/>
<path d="M392.903 143.512C397.82 165.637 392.903 194.728 389.83 206.508C367.039 207.02 322.071 207.737 324.529 206.508C327.602 204.972 336.821 188.839 336.821 185.766C336.821 182.693 338.357 178.083 334.516 162.718C330.675 147.353 325.297 129.683 325.297 109.709C325.297 89.7346 349.113 75.9062 356.795 76.6744C364.478 77.4426 386.757 115.855 392.903 143.512Z" fill="#D9D9D9" stroke="#D9D9D9"/>
<path d="M305.322 75.1387C323.76 70.8366 357.402 75.4194 357.402 76.881C357.402 78.3426 338.664 85.433 333.747 89.7352C327.601 95.1129 325.296 103.564 325.296 119.697C325.296 135.83 340.661 171.938 337.588 184.229C335.13 194.063 327.345 203.18 323.76 206.509H289.188C287.908 194.473 289.188 177.315 282.274 154.268C278.499 141.683 256.552 103.19 256.154 98.1859C255.756 93.182 286.884 79.4409 305.322 75.1387Z" fill="#E6EBF7" stroke="#E6EBF7"/>
<path d="M288.42 206.509L286.884 193.449C279.97 193.449 257.261 172.735 249.579 161.98C242.589 152.195 227.729 131.221 213.901 122.002C203.358 114.973 185.732 114.063 177.793 115.088C185.732 124.819 198.531 133.14 208.523 164.255C213.901 181.001 229.778 199.082 236.948 206.509H288.42Z" fill="#C3D6ED" stroke="#C3D6ED"/>
<path d="M93 135.5C125.574 114.604 164.477 114.574 177.025 115.087C174.976 112.526 164.612 105.752 151.402 99.3922C132.564 90.3229 95.1667 86.7778 66.725 111.664C32.3632 141.731 29.5224 180.138 24 214.5C37.5 196.5 60.4264 156.396 93 135.5Z" fill="#E6EBF7" stroke="#E6EBF7"/>
<path d="M133.778 113.421C127.236 107.685 111.688 100.502 107.469 101.728" stroke="#C3D6ED" stroke-width="2" stroke-linecap="round"/>
<path d="M116.239 122.191C109.51 116.494 93.8868 109.633 89.9304 110.498" stroke="#C3D6ED" stroke-width="2" stroke-linecap="round"/>
<path d="M89.9305 128.037C86.4553 124.788 76.0816 119.453 72.3914 119.267" stroke="#C3D6ED" stroke-width="2" stroke-linecap="round"/>
<path d="M277.014 128.037C281.399 125.601 291.63 120.729 297.477 120.729" stroke="#C3D6ED" stroke-width="2" stroke-linecap="round"/>
<path d="M279.937 135.345C284.322 132.909 294.553 128.037 300.4 128.037" stroke="#C3D6ED" stroke-width="2" stroke-linecap="round"/>
<path d="M282.861 142.653C287.246 140.217 297.477 135.345 303.323 135.345" stroke="#C3D6ED" stroke-width="2" stroke-linecap="round"/>
<path d="M265.322 101.728C284.48 93.4015 297.951 90.0798 320.862 90.0355" stroke="#C3D6ED" stroke-width="2" stroke-linecap="round"/>
<path d="M287.009 154.003C299.708 146.138 308.637 143 323.825 142.958" stroke="#C3D6ED" stroke-width="2" stroke-linecap="round"/>
<path d="M268.245 110.498C286.395 102.171 299.157 98.8491 320.862 98.8048" stroke="#C3D6ED" stroke-width="2" stroke-linecap="round"/>
<path d="M289.463 162.593C301.316 154.728 309.65 151.59 323.825 151.549" stroke="#C3D6ED" stroke-width="2" stroke-linecap="round"/>
<path d="M271.168 119.267C288.31 110.94 300.363 107.619 320.862 107.574" stroke="#C3D6ED" stroke-width="2" stroke-linecap="round"/>
<path d="M289.463 172.411C301.316 163.672 309.65 160.185 323.825 160.139" stroke="#C3D6ED" stroke-width="2" stroke-linecap="round"/>
</g>
<defs>
<clipPath id="clip0_1894_49516">
<rect width="550" height="201" fill="white"/>
</clipPath>
</defs>
</svg>
