<svg width="20" height="20" viewBox="0 0 20 20" fill="none" xmlns="http://www.w3.org/2000/svg">
<path d="M12.2559 17.2558C12.0987 17.4076 11.8882 17.4916 11.6697 17.4897C11.4512 17.4878 11.2422 17.4002 11.0877 17.2457C10.9332 17.0912 10.8455 16.8822 10.8436 16.6637C10.8417 16.4452 10.9257 16.2347 11.0775 16.0775L16.3217 10.8333H1.66671C1.44569 10.8333 1.23373 10.7455 1.07745 10.5893C0.921171 10.433 0.833374 10.221 0.833374 10C0.833374 9.779 0.921171 9.56704 1.07745 9.41076C1.23373 9.25448 1.44569 9.16668 1.66671 9.16668H16.3217L11.0775 3.92251C10.9257 3.76534 10.8417 3.55484 10.8436 3.33635C10.8455 3.11785 10.9332 2.90884 11.0877 2.75433C11.2422 2.59982 11.4512 2.51218 11.6697 2.51029C11.8882 2.50839 12.0987 2.59238 12.2559 2.74418L18.9225 9.41085C18.9997 9.48843 19.0609 9.58046 19.1025 9.68168C19.1449 9.78247 19.1667 9.89069 19.1667 10C19.1667 10.1093 19.1449 10.2176 19.1025 10.3183C19.0609 10.4196 18.9997 10.5116 18.9225 10.5892L12.2559 17.2558Z" fill="white"/>
</svg>
