<svg width="64" height="40" viewBox="0 0 64 40" fill="none" xmlns="http://www.w3.org/2000/svg">
<rect width="64" height="40" rx="20" fill="white"/>
<path d="M41.8055 18.0415H41V18H32V22H37.6515C36.827 24.3285 34.6115 26 32 26C28.6865 26 26 23.3135 26 20C26 16.6865 28.6865 14 32 14C33.5295 14 34.921 14.577 35.9805 15.5195L38.809 12.691C37.023 11.0265 34.634 10 32 10C26.4775 10 22 14.4775 22 20C22 25.5225 26.4775 30 32 30C37.5225 30 42 25.5225 42 20C42 19.3295 41.931 18.675 41.8055 18.0415Z" fill="#FFC107"/>
<path d="M23.1531 15.3455L26.4386 17.755C27.3276 15.554 29.4806 14 32.0001 14C33.5296 14 34.9211 14.577 35.9806 15.5195L38.8091 12.691C37.0231 11.0265 34.6341 10 32.0001 10C28.1591 10 24.8281 12.1685 23.1531 15.3455Z" fill="#FF3D00"/>
<path d="M31.9999 30.0003C34.5829 30.0003 36.9299 29.0118 38.7044 27.4043L35.6094 24.7853C34.5717 25.5745 33.3036 26.0014 31.9999 26.0003C29.3989 26.0003 27.1904 24.3418 26.3584 22.0273L23.0974 24.5398C24.7524 27.7783 28.1134 30.0003 31.9999 30.0003Z" fill="#4CAF50"/>
<path d="M41.8055 18.0415H41V18H32V22H37.6515C37.2571 23.1082 36.5467 24.0766 35.608 24.7855L35.6095 24.7845L38.7045 27.4035C38.4855 27.6025 42 25 42 20C42 19.3295 41.931 18.675 41.8055 18.0415Z" fill="#1976D2"/>
<rect x="0.5" y="0.5" width="63" height="39" rx="19.5" stroke="#0D0D0D" stroke-opacity="0.24"/>
</svg>
