<svg width="264" height="232" viewBox="0 0 264 232" fill="none" xmlns="http://www.w3.org/2000/svg">
<g clip-path="url(#clip0_1357_36775)">
<rect width="264" height="232" rx="16" fill="#5B2A86"/>
<path d="M48.6977 -12.7857C54.7622 -15.2976 61.5761 -15.2976 67.6406 -12.7857L76.6992 -9.03348C82.7636 -6.5215 87.5818 -1.70332 90.0938 4.36112L93.846 13.4197C96.3579 19.4842 96.3579 26.2981 93.846 32.3626L90.0938 41.4212C87.5818 47.4856 82.7636 52.3038 76.6992 54.8158L67.6406 58.5679C61.5761 61.0799 54.7622 61.0799 48.6977 58.5679L39.6391 54.8158C33.5747 52.3038 28.7565 47.4856 26.2445 41.4212L22.4923 32.3625C19.9804 26.2981 19.9804 19.4842 22.4923 13.4197L26.2445 4.36112C28.7565 -1.70332 33.5747 -6.5215 39.6391 -9.03348L48.6977 -12.7857Z" fill="url(#paint0_linear_1357_36775)"/>
<g clip-path="url(#clip1_1357_36775)">
<path d="M63.3684 11.1278H68.9444L70.9844 7.99976H50.0404L48.0004 11.1278H51.5364C55.2084 11.1278 58.6084 11.3998 59.9684 14.5278H50.0404L48.0004 17.6558H60.3764V17.7918C60.3764 20.1038 58.4724 23.6398 52.2164 23.6398H49.0884V26.6318L61.3284 41.9998H66.9044L54.1204 26.0878C59.4244 25.8158 64.3204 22.8238 65.0004 17.6558H68.9444L70.9844 14.5278H64.8644C64.7284 13.3038 64.1844 12.0798 63.3684 11.1278Z" fill="white"/>
</g>
<path d="M41.2176 -9.12907C46.2991 -13.7854 53.0223 -16.2325 59.9081 -15.9318L72.3865 -15.387C79.2722 -15.0864 85.7565 -12.0627 90.4129 -6.98115L98.8512 2.22768C103.508 7.30923 105.955 14.0324 105.654 20.9181L105.109 33.3965C104.809 40.2823 101.785 46.7666 96.7033 51.423L87.4945 59.8613C82.413 64.5177 75.6898 66.9647 68.804 66.6641L56.3256 66.1193C49.4399 65.8186 42.9556 62.7949 38.2992 57.7134L29.8609 48.5046C25.2045 43.423 22.7574 36.6999 23.0581 29.8141L23.6029 17.3357C23.9035 10.4499 26.9272 3.96565 32.0088 -0.690731L41.2176 -9.12907Z" stroke="#D64568" stroke-opacity="0.4" stroke-width="2.475"/>
<path d="M139.698 112.214C145.762 109.702 152.576 109.702 158.641 112.214L167.699 115.966C173.764 118.478 178.582 123.297 181.094 129.361L184.846 138.42C187.358 144.484 187.358 151.298 184.846 157.362L181.094 166.421C178.582 172.485 173.764 177.304 167.699 179.816L158.641 183.568C152.576 186.08 145.762 186.08 139.698 183.568L130.639 179.816C124.575 177.304 119.756 172.485 117.245 166.421L113.492 157.362C110.98 151.298 110.98 144.484 113.492 138.42L117.245 129.361C119.756 123.297 124.575 118.478 130.639 115.966L139.698 112.214Z" fill="url(#paint1_linear_1357_36775)"/>
<g clip-path="url(#clip2_1357_36775)">
<path d="M157.368 136.263H162.944L164.984 133.135H144.04L142 136.263H145.536C149.208 136.263 152.608 136.535 153.968 139.663H144.04L142 142.791H154.376V142.927C154.376 145.239 152.472 148.775 146.216 148.775H143.088V151.767L155.328 167.135H160.904L148.12 151.223C153.424 150.951 158.32 147.959 159 142.791H162.944L164.984 139.663H158.864C158.728 138.439 158.184 137.215 157.368 136.263Z" fill="white"/>
</g>
<path d="M132.218 115.871C137.299 111.214 144.022 108.767 150.908 109.068L163.386 109.613C170.272 109.913 176.757 112.937 181.413 118.019L189.851 127.227C194.508 132.309 196.955 139.032 196.654 145.918L196.109 158.396C195.809 165.282 192.785 171.766 187.703 176.423L178.494 184.861C173.413 189.517 166.69 191.964 159.804 191.664L147.326 191.119C140.44 190.818 133.956 187.795 129.299 182.713L120.861 173.504C116.204 168.423 113.757 161.7 114.058 154.814L114.603 142.335C114.904 135.45 117.927 128.965 123.009 124.309L132.218 115.871Z" stroke="#D64568" stroke-opacity="0.4" stroke-width="2.475"/>
<path d="M227.698 -28.7857C233.762 -31.2976 240.576 -31.2976 246.641 -28.7857L255.699 -25.0335C261.764 -22.5215 266.582 -17.7033 269.094 -11.6389L272.846 -2.58028C275.358 3.48417 275.358 10.2981 272.846 16.3626L269.094 25.4212C266.582 31.4856 261.764 36.3038 255.699 38.8158L246.641 42.5679C240.576 45.0799 233.762 45.0799 227.698 42.5679L218.639 38.8158C212.575 36.3038 207.757 31.4856 205.245 25.4212L201.492 16.3625C198.98 10.2981 198.98 3.48417 201.492 -2.58028L205.245 -11.6389C207.757 -17.7033 212.575 -22.5215 218.639 -25.0335L227.698 -28.7857Z" fill="url(#paint2_linear_1357_36775)"/>
<g clip-path="url(#clip3_1357_36775)">
<path d="M245.368 -4.73638H250.944L252.984 -7.86438H232.04L230 -4.73638H233.536C237.208 -4.73638 240.608 -4.46438 241.968 -1.33638H232.04L230 1.79162H242.376V1.92762C242.376 4.23962 240.472 7.77562 234.216 7.77562H231.088V10.7676L243.328 26.1356H248.904L236.12 10.2236C241.424 9.95162 246.32 6.95962 247 1.79162H250.944L252.984 -1.33638H246.864C246.728 -2.56038 246.184 -3.78438 245.368 -4.73638Z" fill="white"/>
</g>
<path d="M220.218 -25.1291C225.299 -29.7854 232.022 -32.2325 238.908 -31.9318L251.386 -31.387C258.272 -31.0864 264.757 -28.0627 269.413 -22.9811L277.851 -13.7723C282.508 -8.69077 284.955 -1.96762 284.654 4.91814L284.109 17.3965C283.809 24.2823 280.785 30.7666 275.703 35.423L266.495 43.8613C261.413 48.5177 254.69 50.9647 247.804 50.6641L235.326 50.1193C228.44 49.8186 221.956 46.7949 217.299 41.7134L208.861 32.5046C204.204 27.423 201.757 20.6999 202.058 13.8141L202.603 1.33569C202.904 -5.55007 205.927 -12.0344 211.009 -16.6907L220.218 -25.1291Z" stroke="#D64568" stroke-opacity="0.4" stroke-width="2.475"/>
<g clip-path="url(#clip4_1357_36775)">
<path d="M44.129 82.4081C50.1934 79.8961 57.0074 79.8961 63.0718 82.4081L72.1304 86.1602C78.1948 88.6722 83.013 93.4904 85.525 99.5548L89.2772 108.613C91.7892 114.678 91.7892 121.492 89.2772 127.556L85.525 136.615C83.013 142.679 78.1948 147.497 72.1304 150.009L63.0718 153.762C57.0074 156.274 50.1934 156.274 44.129 153.762L35.0704 150.009C29.0059 147.497 24.1877 142.679 21.6758 136.615L17.9236 127.556C15.4116 121.492 15.4116 114.678 17.9236 108.613L21.6758 99.5548C24.1877 93.4904 29.0059 88.6722 35.0704 86.1602L44.129 82.4081Z" fill="url(#paint3_linear_1357_36775)"/>
<g clip-path="url(#clip5_1357_36775)">
<path d="M61.7996 106.457H67.3756L69.4156 103.329H48.4716L46.4316 106.457H49.9676C53.6396 106.457 57.0396 106.729 58.3996 109.857H48.4716L46.4316 112.985H58.8076V113.121C58.8076 115.433 56.9036 118.969 50.6476 118.969H47.5196V121.961L59.7596 137.329H65.3356L52.5516 121.417C57.8556 121.145 62.7516 118.153 63.4316 112.985H67.3756L69.4156 109.857H63.2956C63.1596 108.633 62.6156 107.409 61.7996 106.457Z" fill="white"/>
</g>
<path d="M36.6488 86.0645C41.7304 81.4082 48.4535 78.9611 55.3393 79.2618L67.8177 79.8066C74.7035 80.1072 81.1878 83.1309 85.8441 88.2125L94.2825 97.4213C98.9389 102.503 101.386 109.226 101.085 116.112L100.54 128.59C100.24 135.476 97.2161 141.96 92.1346 146.617L82.9258 155.055C77.8442 159.711 71.121 162.158 64.2353 161.858L51.7569 161.313C44.8711 161.012 38.3868 157.989 33.7304 152.907L25.2921 143.698C20.6357 138.617 18.1887 131.893 18.4893 125.008L19.0342 112.529C19.3348 105.644 22.3585 99.1593 27.44 94.5029L36.6488 86.0645Z" stroke="#D64568" stroke-opacity="0.4" stroke-width="2.475"/>
</g>
<path d="M144.698 13.2142C150.762 10.7022 157.576 10.7022 163.641 13.2142L172.699 16.9664C178.764 19.4784 183.582 24.2966 186.094 30.361L189.846 39.4196C192.358 45.484 192.358 52.298 189.846 58.3624L186.094 67.421C183.582 73.4855 178.764 78.3036 172.699 80.8156L163.641 84.5678C157.576 87.0798 150.762 87.0798 144.698 84.5678L135.639 80.8156C129.575 78.3036 124.756 73.4855 122.245 67.421L118.492 58.3624C115.98 52.298 115.98 45.484 118.492 39.4196L122.245 30.361C124.756 24.2966 129.575 19.4784 135.639 16.9664L144.698 13.2142Z" fill="url(#paint4_linear_1357_36775)"/>
<g clip-path="url(#clip6_1357_36775)">
<path d="M162.368 37.2635H167.944L169.984 34.1355H149.04L147 37.2635H150.536C154.208 37.2635 157.608 37.5355 158.968 40.6635H149.04L147 43.7915H159.376V43.9275C159.376 46.2395 157.472 49.7755 151.216 49.7755H148.088V52.7675L160.328 68.1355H165.904L153.12 52.2235C158.424 51.9515 163.32 48.9595 164 43.7915H167.944L169.984 40.6635H163.864C163.728 39.4395 163.184 38.2155 162.368 37.2635Z" fill="white"/>
</g>
<path d="M137.218 16.8707C142.299 12.2143 149.022 9.76729 155.908 10.0679L168.386 10.6127C175.272 10.9134 181.757 13.9371 186.413 19.0186L194.851 28.2274C199.508 33.309 201.955 40.0321 201.654 46.9179L201.109 59.3963C200.809 66.282 197.785 72.7664 192.703 77.4227L183.494 85.8611C178.413 90.5174 171.69 92.9645 164.804 92.6638L152.326 92.119C145.44 91.8184 138.956 88.7947 134.299 83.7132L125.861 74.5043C121.204 69.4228 118.757 62.6996 119.058 55.8139L119.603 43.3354C119.904 36.4497 122.927 29.9654 128.009 25.309L137.218 16.8707Z" stroke="#D64568" stroke-opacity="0.4" stroke-width="2.475"/>
<rect x="51" y="184" width="176" height="32" rx="8" fill="#F2542D"/>
<path d="M79.4851 200.1C79.4851 199.139 79.6998 198.28 80.1291 197.524C80.5678 196.759 81.1605 196.166 81.9071 195.746C82.6631 195.317 83.5078 195.102 84.4411 195.102C85.5331 195.102 86.4898 195.382 87.3111 195.942C88.1325 196.502 88.7065 197.277 89.0331 198.266H86.7791C86.5551 197.799 86.2378 197.449 85.8271 197.216C85.4258 196.983 84.9591 196.866 84.4271 196.866C83.8578 196.866 83.3491 197.001 82.9011 197.272C82.4625 197.533 82.1171 197.907 81.8651 198.392C81.6225 198.877 81.5011 199.447 81.5011 200.1C81.5011 200.744 81.6225 201.313 81.8651 201.808C82.1171 202.293 82.4625 202.671 82.9011 202.942C83.3491 203.203 83.8578 203.334 84.4271 203.334C84.9591 203.334 85.4258 203.217 85.8271 202.984C86.2378 202.741 86.5551 202.387 86.7791 201.92H89.0331C88.7065 202.919 88.1325 203.698 87.3111 204.258C86.4991 204.809 85.5425 205.084 84.4411 205.084C83.5078 205.084 82.6631 204.874 81.9071 204.454C81.1605 204.025 80.5678 203.432 80.1291 202.676C79.6998 201.92 79.4851 201.061 79.4851 200.1ZM94.1512 205.126C93.4045 205.126 92.7325 204.963 92.1352 204.636C91.5379 204.3 91.0665 203.829 90.7212 203.222C90.3852 202.615 90.2172 201.915 90.2172 201.122C90.2172 200.329 90.3899 199.629 90.7352 199.022C91.0899 198.415 91.5705 197.949 92.1772 197.622C92.7839 197.286 93.4605 197.118 94.2072 197.118C94.9539 197.118 95.6305 197.286 96.2372 197.622C96.8439 197.949 97.3199 198.415 97.6652 199.022C98.0199 199.629 98.1972 200.329 98.1972 201.122C98.1972 201.915 98.0152 202.615 97.6512 203.222C97.2965 203.829 96.8112 204.3 96.1952 204.636C95.5885 204.963 94.9072 205.126 94.1512 205.126ZM94.1512 203.418C94.5059 203.418 94.8372 203.334 95.1452 203.166C95.4625 202.989 95.7145 202.727 95.9012 202.382C96.0879 202.037 96.1812 201.617 96.1812 201.122C96.1812 200.385 95.9852 199.82 95.5932 199.428C95.2105 199.027 94.7392 198.826 94.1792 198.826C93.6192 198.826 93.1479 199.027 92.7652 199.428C92.3919 199.82 92.2052 200.385 92.2052 201.122C92.2052 201.859 92.3872 202.429 92.7512 202.83C93.1245 203.222 93.5912 203.418 94.1512 203.418ZM109.267 197.132C110.219 197.132 110.984 197.426 111.563 198.014C112.151 198.593 112.445 199.405 112.445 200.45V205H110.485V200.716C110.485 200.109 110.331 199.647 110.023 199.33C109.715 199.003 109.295 198.84 108.763 198.84C108.231 198.84 107.806 199.003 107.489 199.33C107.181 199.647 107.027 200.109 107.027 200.716V205H105.067V200.716C105.067 200.109 104.913 199.647 104.605 199.33C104.297 199.003 103.877 198.84 103.345 198.84C102.804 198.84 102.374 199.003 102.057 199.33C101.749 199.647 101.595 200.109 101.595 200.716V205H99.6349V197.244H101.595V198.182C101.847 197.855 102.169 197.599 102.561 197.412C102.962 197.225 103.401 197.132 103.877 197.132C104.484 197.132 105.025 197.263 105.501 197.524C105.977 197.776 106.346 198.14 106.607 198.616C106.859 198.168 107.223 197.809 107.699 197.538C108.184 197.267 108.707 197.132 109.267 197.132ZM115.299 196.32C114.954 196.32 114.664 196.213 114.431 195.998C114.207 195.774 114.095 195.499 114.095 195.172C114.095 194.845 114.207 194.575 114.431 194.36C114.664 194.136 114.954 194.024 115.299 194.024C115.644 194.024 115.929 194.136 116.153 194.36C116.386 194.575 116.503 194.845 116.503 195.172C116.503 195.499 116.386 195.774 116.153 195.998C115.929 196.213 115.644 196.32 115.299 196.32ZM116.265 197.244V205H114.305V197.244H116.265ZM122.499 197.132C123.423 197.132 124.17 197.426 124.739 198.014C125.309 198.593 125.593 199.405 125.593 200.45V205H123.633V200.716C123.633 200.1 123.479 199.629 123.171 199.302C122.863 198.966 122.443 198.798 121.911 198.798C121.37 198.798 120.941 198.966 120.623 199.302C120.315 199.629 120.161 200.1 120.161 200.716V205H118.201V197.244H120.161V198.21C120.423 197.874 120.754 197.613 121.155 197.426C121.566 197.23 122.014 197.132 122.499 197.132ZM130.495 197.118C131.074 197.118 131.583 197.235 132.021 197.468C132.46 197.692 132.805 197.986 133.057 198.35V197.244H135.031V205.056C135.031 205.775 134.887 206.414 134.597 206.974C134.308 207.543 133.874 207.991 133.295 208.318C132.717 208.654 132.017 208.822 131.195 208.822C130.094 208.822 129.189 208.565 128.479 208.052C127.779 207.539 127.383 206.839 127.289 205.952H129.235C129.338 206.307 129.557 206.587 129.893 206.792C130.239 207.007 130.654 207.114 131.139 207.114C131.709 207.114 132.171 206.941 132.525 206.596C132.88 206.26 133.057 205.747 133.057 205.056V203.852C132.805 204.216 132.455 204.519 132.007 204.762C131.569 205.005 131.065 205.126 130.495 205.126C129.842 205.126 129.245 204.958 128.703 204.622C128.162 204.286 127.733 203.815 127.415 203.208C127.107 202.592 126.953 201.887 126.953 201.094C126.953 200.31 127.107 199.615 127.415 199.008C127.733 198.401 128.157 197.935 128.689 197.608C129.231 197.281 129.833 197.118 130.495 197.118ZM133.057 201.122C133.057 200.646 132.964 200.24 132.777 199.904C132.591 199.559 132.339 199.297 132.021 199.12C131.704 198.933 131.363 198.84 130.999 198.84C130.635 198.84 130.299 198.929 129.991 199.106C129.683 199.283 129.431 199.545 129.235 199.89C129.049 200.226 128.955 200.627 128.955 201.094C128.955 201.561 129.049 201.971 129.235 202.326C129.431 202.671 129.683 202.937 129.991 203.124C130.309 203.311 130.645 203.404 130.999 203.404C131.363 203.404 131.704 203.315 132.021 203.138C132.339 202.951 132.591 202.69 132.777 202.354C132.964 202.009 133.057 201.598 133.057 201.122ZM143.249 205.126C142.615 205.126 142.045 205.014 141.541 204.79C141.037 204.557 140.636 204.244 140.337 203.852C140.048 203.46 139.889 203.026 139.861 202.55H141.835C141.873 202.849 142.017 203.096 142.269 203.292C142.531 203.488 142.853 203.586 143.235 203.586C143.609 203.586 143.898 203.511 144.103 203.362C144.318 203.213 144.425 203.021 144.425 202.788C144.425 202.536 144.295 202.349 144.033 202.228C143.781 202.097 143.375 201.957 142.815 201.808C142.237 201.668 141.761 201.523 141.387 201.374C141.023 201.225 140.706 200.996 140.435 200.688C140.174 200.38 140.043 199.965 140.043 199.442C140.043 199.013 140.165 198.621 140.407 198.266C140.659 197.911 141.014 197.631 141.471 197.426C141.938 197.221 142.484 197.118 143.109 197.118C144.033 197.118 144.771 197.351 145.321 197.818C145.872 198.275 146.175 198.896 146.231 199.68H144.355C144.327 199.372 144.197 199.129 143.963 198.952C143.739 198.765 143.436 198.672 143.053 198.672C142.699 198.672 142.423 198.737 142.227 198.868C142.041 198.999 141.947 199.181 141.947 199.414C141.947 199.675 142.078 199.876 142.339 200.016C142.601 200.147 143.007 200.282 143.557 200.422C144.117 200.562 144.579 200.707 144.943 200.856C145.307 201.005 145.62 201.239 145.881 201.556C146.152 201.864 146.292 202.275 146.301 202.788C146.301 203.236 146.175 203.637 145.923 203.992C145.681 204.347 145.326 204.627 144.859 204.832C144.402 205.028 143.865 205.126 143.249 205.126ZM151.354 205.126C150.608 205.126 149.936 204.963 149.338 204.636C148.741 204.3 148.27 203.829 147.924 203.222C147.588 202.615 147.42 201.915 147.42 201.122C147.42 200.329 147.593 199.629 147.938 199.022C148.293 198.415 148.774 197.949 149.38 197.622C149.987 197.286 150.664 197.118 151.41 197.118C152.157 197.118 152.834 197.286 153.44 197.622C154.047 197.949 154.523 198.415 154.868 199.022C155.223 199.629 155.4 200.329 155.4 201.122C155.4 201.915 155.218 202.615 154.854 203.222C154.5 203.829 154.014 204.3 153.398 204.636C152.792 204.963 152.11 205.126 151.354 205.126ZM151.354 203.418C151.709 203.418 152.04 203.334 152.348 203.166C152.666 202.989 152.918 202.727 153.104 202.382C153.291 202.037 153.384 201.617 153.384 201.122C153.384 200.385 153.188 199.82 152.796 199.428C152.414 199.027 151.942 198.826 151.382 198.826C150.822 198.826 150.351 199.027 149.968 199.428C149.595 199.82 149.408 200.385 149.408 201.122C149.408 201.859 149.59 202.429 149.954 202.83C150.328 203.222 150.794 203.418 151.354 203.418ZM160.282 205.126C159.535 205.126 158.863 204.963 158.266 204.636C157.669 204.3 157.197 203.829 156.852 203.222C156.516 202.615 156.348 201.915 156.348 201.122C156.348 200.329 156.521 199.629 156.866 199.022C157.221 198.415 157.701 197.949 158.308 197.622C158.915 197.286 159.591 197.118 160.338 197.118C161.085 197.118 161.761 197.286 162.368 197.622C162.975 197.949 163.451 198.415 163.796 199.022C164.151 199.629 164.328 200.329 164.328 201.122C164.328 201.915 164.146 202.615 163.782 203.222C163.427 203.829 162.942 204.3 162.326 204.636C161.719 204.963 161.038 205.126 160.282 205.126ZM160.282 203.418C160.637 203.418 160.968 203.334 161.276 203.166C161.593 202.989 161.845 202.727 162.032 202.382C162.219 202.037 162.312 201.617 162.312 201.122C162.312 200.385 162.116 199.82 161.724 199.428C161.341 199.027 160.87 198.826 160.31 198.826C159.75 198.826 159.279 199.027 158.896 199.428C158.523 199.82 158.336 200.385 158.336 201.122C158.336 201.859 158.518 202.429 158.882 202.83C159.255 203.222 159.722 203.418 160.282 203.418ZM170.064 197.132C170.988 197.132 171.734 197.426 172.304 198.014C172.873 198.593 173.158 199.405 173.158 200.45V205H171.198V200.716C171.198 200.1 171.044 199.629 170.736 199.302C170.428 198.966 170.008 198.798 169.476 198.798C168.934 198.798 168.505 198.966 168.188 199.302C167.88 199.629 167.726 200.1 167.726 200.716V205H165.766V197.244H167.726V198.21C167.987 197.874 168.318 197.613 168.72 197.426C169.13 197.23 169.578 197.132 170.064 197.132ZM177.556 195.06L177.332 201.822H175.68L175.442 195.06H177.556ZM176.548 205.098C176.193 205.098 175.899 204.991 175.666 204.776C175.442 204.552 175.33 204.277 175.33 203.95C175.33 203.623 175.442 203.353 175.666 203.138C175.899 202.914 176.193 202.802 176.548 202.802C176.893 202.802 177.178 202.914 177.402 203.138C177.626 203.353 177.738 203.623 177.738 203.95C177.738 204.277 177.626 204.552 177.402 204.776C177.178 204.991 176.893 205.098 176.548 205.098Z" fill="white"/>
<path d="M191.5 192.667C190.05 192.667 188.632 193.097 187.426 193.903C186.22 194.708 185.28 195.854 184.725 197.194C184.17 198.534 184.025 200.008 184.308 201.431C184.591 202.853 185.289 204.16 186.315 205.186C187.34 206.211 188.647 206.91 190.069 207.193C191.492 207.475 192.966 207.33 194.306 206.775C195.646 206.22 196.792 205.28 197.597 204.074C198.403 202.868 198.833 201.45 198.833 200C198.831 198.056 198.058 196.192 196.683 194.817C195.308 193.442 193.444 192.669 191.5 192.667ZM191.5 206C190.313 206 189.153 205.648 188.167 204.989C187.18 204.33 186.411 203.393 185.957 202.296C185.503 201.2 185.384 199.993 185.615 198.83C185.847 197.666 186.418 196.597 187.257 195.757C188.096 194.918 189.166 194.347 190.329 194.115C191.493 193.884 192.7 194.003 193.796 194.457C194.892 194.911 195.83 195.68 196.489 196.667C197.148 197.653 197.5 198.813 197.5 200C197.498 201.591 196.866 203.116 195.741 204.241C194.616 205.366 193.091 205.998 191.5 206ZM188.833 199.333V198C188.833 197.823 188.904 197.654 189.029 197.529C189.154 197.404 189.323 197.333 189.5 197.333C189.677 197.333 189.846 197.404 189.971 197.529C190.096 197.654 190.167 197.823 190.167 198V199.333C190.167 199.51 190.096 199.68 189.971 199.805C189.846 199.93 189.677 200 189.5 200C189.323 200 189.154 199.93 189.029 199.805C188.904 199.68 188.833 199.51 188.833 199.333ZM194.167 198V199.333C194.167 199.51 194.096 199.68 193.971 199.805C193.846 199.93 193.677 200 193.5 200C193.323 200 193.154 199.93 193.029 199.805C192.904 199.68 192.833 199.51 192.833 199.333V198C192.833 197.823 192.904 197.654 193.029 197.529C193.154 197.404 193.323 197.333 193.5 197.333C193.677 197.333 193.846 197.404 193.971 197.529C194.096 197.654 194.167 197.823 194.167 198ZM188.833 201.333H194.167C194.167 202.041 193.886 202.719 193.386 203.219C192.886 203.719 192.207 204 191.5 204C190.793 204 190.114 203.719 189.614 203.219C189.114 202.719 188.833 202.041 188.833 201.333Z" fill="white"/>
</g>
<defs>
<linearGradient id="paint0_linear_1357_36775" x1="18.5691" y1="22.8911" x2="97.7692" y2="22.9175" gradientUnits="userSpaceOnUse">
<stop stop-color="#E25375"/>
<stop offset="1" stop-color="#BB2549"/>
</linearGradient>
<linearGradient id="paint1_linear_1357_36775" x1="109.569" y1="147.891" x2="188.769" y2="147.917" gradientUnits="userSpaceOnUse">
<stop stop-color="#E25375"/>
<stop offset="1" stop-color="#BB2549"/>
</linearGradient>
<linearGradient id="paint2_linear_1357_36775" x1="197.569" y1="6.89114" x2="276.769" y2="6.91751" gradientUnits="userSpaceOnUse">
<stop stop-color="#E25375"/>
<stop offset="1" stop-color="#BB2549"/>
</linearGradient>
<linearGradient id="paint3_linear_1357_36775" x1="14.0004" y1="118.085" x2="93.2004" y2="118.111" gradientUnits="userSpaceOnUse">
<stop stop-color="#E25375"/>
<stop offset="1" stop-color="#BB2549"/>
</linearGradient>
<linearGradient id="paint4_linear_1357_36775" x1="114.569" y1="48.891" x2="193.769" y2="48.9174" gradientUnits="userSpaceOnUse">
<stop stop-color="#E25375"/>
<stop offset="1" stop-color="#BB2549"/>
</linearGradient>
<clipPath id="clip0_1357_36775">
<rect width="264" height="232" rx="16" fill="white"/>
</clipPath>
<clipPath id="clip1_1357_36775">
<rect width="23.12" height="34" fill="white" transform="translate(48.0004 7.99951)"/>
</clipPath>
<clipPath id="clip2_1357_36775">
<rect width="23.12" height="34" fill="white" transform="translate(142 133)"/>
</clipPath>
<clipPath id="clip3_1357_36775">
<rect width="23.12" height="34" fill="white" transform="translate(230 -8.00037)"/>
</clipPath>
<clipPath id="clip4_1357_36775">
<rect width="99" height="99" fill="white" transform="translate(14 64)"/>
</clipPath>
<clipPath id="clip5_1357_36775">
<rect width="23.12" height="34" fill="white" transform="translate(46.4316 103.193)"/>
</clipPath>
<clipPath id="clip6_1357_36775">
<rect width="23.12" height="34" fill="white" transform="translate(147 33.9995)"/>
</clipPath>
</defs>
</svg>
