<svg width="57" height="56" viewBox="0 0 57 56" fill="none" xmlns="http://www.w3.org/2000/svg">
<g clip-path="url(#clip0_3094_229)">
<path d="M28.5135 0.424316C16.9987 0.424316 13.6311 0.436195 12.9765 0.490498C10.6135 0.686922 9.14304 1.05898 7.5411 1.85656C6.30656 2.46959 5.33292 3.1802 4.37201 4.17632C2.62201 5.99292 1.56141 8.22783 1.17747 10.8844C0.990803 12.1741 0.9365 12.4372 0.92547 19.0248C0.921227 21.2207 0.92547 24.1106 0.92547 27.9869C0.92547 39.4924 0.938197 42.8566 0.993348 43.51C1.18426 45.8093 1.54486 47.256 2.3085 48.8384C3.76789 51.8675 6.55516 54.1415 9.8388 54.99C10.9758 55.2827 12.2315 55.4439 13.8436 55.5203C14.5267 55.55 21.4885 55.5712 28.4545 55.5712C35.4206 55.5712 42.3867 55.5627 43.0527 55.5287C44.9194 55.4409 46.0033 55.2954 47.2018 54.9857C50.5066 54.133 53.243 51.893 54.7321 48.8215C55.4809 47.2772 55.8606 45.7754 56.0324 43.5961C56.0697 43.1209 56.0854 35.5452 56.0854 27.9797C56.0854 20.4129 56.0685 12.8512 56.0311 12.3761C55.8572 10.1615 55.4775 8.67244 54.7045 7.0985C54.0703 5.81007 53.366 4.84789 52.3436 3.86407C50.519 2.12129 48.2874 1.06068 45.6283 0.677165C44.3399 0.490922 44.0832 0.435771 37.4905 0.424316H28.5135Z" fill="url(#paint0_radial_3094_229)"/>
<path d="M28.9403 0.424316C17.2474 0.424316 13.8277 0.436379 13.163 0.491522C10.7634 0.690985 9.2702 1.0688 7.64348 1.87872C6.38984 2.50123 5.40114 3.22283 4.42536 4.23436C2.64829 6.07907 1.57128 8.34856 1.1814 11.0463C0.991843 12.3559 0.9367 12.623 0.925499 19.3126C0.921191 21.5424 0.925499 24.4771 0.925499 28.4133C0.925499 40.0968 0.938423 43.5131 0.994428 44.1765C1.18829 46.5115 1.55447 47.9805 2.32992 49.5874C3.8119 52.6634 6.64229 54.9725 9.97672 55.8341C11.1313 56.1314 12.4065 56.2951 14.0435 56.3726C14.7371 56.4028 21.8066 56.4243 28.8805 56.4243C35.9543 56.4243 43.0281 56.4157 43.7045 56.3812C45.6 56.2921 46.7007 56.1443 47.9178 55.8298C51.2737 54.9639 54.0524 52.6892 55.5646 49.5702C56.3249 48.0021 56.7105 46.477 56.885 44.264C56.9229 43.7815 56.9388 36.0886 56.9388 28.406C56.9388 20.7222 56.9216 13.0435 56.8837 12.561C56.7071 10.3122 56.3215 8.80004 55.5366 7.20175C54.8925 5.89339 54.1774 4.91633 53.1391 3.91729C51.2862 2.14754 49.0202 1.07052 46.3199 0.681077C45.0115 0.491953 44.7509 0.435948 38.0562 0.424316H28.9403Z" fill="url(#paint1_radial_3094_229)"/>
<path d="M28.5008 7.63647C22.9704 7.63647 22.2763 7.66066 20.1042 7.75951C17.9363 7.85878 16.4566 8.20199 15.1618 8.70557C13.8225 9.22569 12.6863 9.92144 11.5545 11.0537C10.4217 12.1856 9.72598 13.3217 9.20416 14.6607C8.69932 15.9559 8.35568 17.436 8.2581 19.6031C8.16095 21.7752 8.1355 22.4697 8.1355 28.0001C8.1355 33.5305 8.1601 34.2225 8.25853 36.3946C8.35823 38.5625 8.70144 40.0422 9.20459 41.337C9.72513 42.6763 10.4209 43.8125 11.5532 44.9444C12.6846 46.0771 13.8208 46.7745 15.1593 47.2947C16.4549 47.7982 17.9351 48.1414 20.1025 48.2407C22.2746 48.3396 22.9683 48.3637 28.4983 48.3637C34.0291 48.3637 34.7211 48.3396 36.8932 48.2407C39.0611 48.1414 40.5425 47.7982 41.8382 47.2947C43.1771 46.7745 44.3115 46.0771 45.4429 44.9444C46.5757 43.8125 47.2714 42.6763 47.7932 41.3374C48.2938 40.0422 48.6375 38.562 48.7393 36.395C48.8369 34.2229 48.8623 33.5305 48.8623 28.0001C48.8623 22.4697 48.8369 21.7756 48.7393 19.6035C48.6375 17.4356 48.2938 15.9559 47.7932 14.6611C47.2714 13.3217 46.5757 12.1856 45.4429 11.0537C44.3102 9.92102 43.1775 9.22526 41.8369 8.70557C40.5387 8.20199 39.0581 7.85878 36.8902 7.75951C34.7181 7.66066 34.0266 7.63647 28.4945 7.63647H28.5008ZM26.674 11.3062C27.2162 11.3053 27.8212 11.3062 28.5008 11.3062C33.9379 11.3062 34.5823 11.3257 36.7294 11.4233C38.7149 11.5141 39.7925 11.8458 40.5103 12.1245C41.4606 12.4936 42.1381 12.9348 42.8504 13.6476C43.5631 14.3603 44.0043 15.0391 44.3743 15.9894C44.653 16.7064 44.9852 17.7839 45.0755 19.7694C45.1731 21.916 45.1943 22.5609 45.1943 27.9954C45.1943 33.43 45.1731 34.0748 45.0755 36.2215C44.9848 38.207 44.653 39.2845 44.3743 40.0015C44.0052 40.9518 43.5631 41.6285 42.8504 42.3408C42.1377 43.0535 41.461 43.4947 40.5103 43.8638C39.7933 44.1438 38.7149 44.4747 36.7294 44.5655C34.5828 44.6631 33.9379 44.6843 28.5008 44.6843C23.0633 44.6843 22.4189 44.6631 20.2722 44.5655C18.2868 44.4739 17.2092 44.1421 16.4909 43.8634C15.5406 43.4943 14.8619 43.0531 14.1491 42.3404C13.4364 41.6276 12.9952 40.9505 12.6253 39.9998C12.3465 39.2828 12.0143 38.2053 11.924 36.2198C11.8264 34.0731 11.8069 33.4283 11.8069 27.9904C11.8069 22.5524 11.8264 21.911 11.924 19.7643C12.0148 17.7788 12.3465 16.7013 12.6253 15.9834C12.9943 15.0331 13.4364 14.3544 14.1491 13.6416C14.8619 12.9289 15.5406 12.4877 16.4909 12.1177C17.2088 11.8377 18.2868 11.5068 20.2722 11.4156C22.1508 11.3308 22.8788 11.3053 26.674 11.3011V11.3062ZM39.3708 14.6874C38.0217 14.6874 36.9271 15.7807 36.9271 17.1302C36.9271 18.4793 38.0217 19.5738 39.3708 19.5738C40.7198 19.5738 41.8144 18.4793 41.8144 17.1302C41.8144 15.7811 40.7198 14.6865 39.3708 14.6865V14.6874ZM28.5008 17.5425C22.7256 17.5425 18.0433 22.2249 18.0433 28.0001C18.0433 33.7753 22.7256 38.4556 28.5008 38.4556C34.276 38.4556 38.9567 33.7753 38.9567 28.0001C38.9567 22.2249 34.2756 17.5425 28.5004 17.5425H28.5008ZM28.5008 21.2122C32.2494 21.2122 35.2887 24.2511 35.2887 28.0001C35.2887 31.7487 32.2494 34.788 28.5008 34.788C24.7518 34.788 21.7129 31.7487 21.7129 28.0001C21.7129 24.2511 24.7518 21.2122 28.5008 21.2122Z" fill="white"/>
</g>
<defs>
<radialGradient id="paint0_radial_3094_229" cx="0" cy="0" r="1" gradientUnits="userSpaceOnUse" gradientTransform="translate(15.576 59.8186) rotate(-90) scale(54.6546 50.8469)">
<stop stop-color="#FFDD55"/>
<stop offset="0.1" stop-color="#FFDD55"/>
<stop offset="0.5" stop-color="#FF543E"/>
<stop offset="1" stop-color="#C837AB"/>
</radialGradient>
<radialGradient id="paint1_radial_3094_229" cx="0" cy="0" r="1" gradientUnits="userSpaceOnUse" gradientTransform="translate(-8.45927 4.45846) rotate(78.6776) scale(24.809 102.29)">
<stop stop-color="#3771C8"/>
<stop offset="0.128" stop-color="#3771C8"/>
<stop offset="1" stop-color="#6600FF" stop-opacity="0"/>
</radialGradient>
<clipPath id="clip0_3094_229">
<rect x="0.499146" width="56.0017" height="56" rx="16" fill="white"/>
</clipPath>
</defs>
</svg>
