<svg width="64" height="64" viewBox="0 0 64 64" fill="none" xmlns="http://www.w3.org/2000/svg">
<rect x="5" y="5" width="53.33" height="53.33" rx="26.665" fill="#FF7E07"/>
<path d="M30.031 35.224L29.039 20.6H34.991L33.999 35.224H30.031ZM32.015 43.256C31.119 43.256 30.383 42.968 29.807 42.392C29.231 41.816 28.943 41.1333 28.943 40.344C28.943 39.5333 29.231 38.8613 29.807 38.328C30.383 37.7733 31.119 37.496 32.015 37.496C32.9323 37.496 33.6683 37.7733 34.223 38.328C34.799 38.8613 35.087 39.5333 35.087 40.344C35.087 41.1333 34.799 41.816 34.223 42.392C33.6683 42.968 32.9323 43.256 32.015 43.256Z" fill="white"/>
</svg>
