<svg width="247" height="233" viewBox="0 0 247 233" fill="none" xmlns="http://www.w3.org/2000/svg">
<rect x="0.973633" y="0.221973" width="246" height="232" rx="16" fill="#5386E4"/>
<g clip-path="url(#clip0_1534_40772)">
<path d="M26.6267 155.19C26.0716 155.66 25.6392 156.229 25.3598 156.858C25.0803 157.486 24.9606 158.16 25.009 158.83L20.0181 163.808C19.5531 164.272 19.3027 164.87 19.3164 165.484C19.3302 166.098 19.6071 166.682 20.0923 167.122C20.5775 167.561 21.2355 167.823 21.9359 167.856C22.6362 167.89 23.3278 167.691 23.8735 167.3L29.7286 163.105C30.6125 163.18 31.5058 163.058 32.3261 162.751C33.1464 162.445 33.8671 161.963 34.4217 161.35C34.9763 160.738 35.3469 160.014 35.4992 159.247C35.6515 158.479 35.5807 157.693 35.2933 156.959C35.0058 156.226 34.511 155.569 33.8546 155.05C33.1982 154.532 32.4013 154.167 31.5375 153.991C30.6738 153.815 29.7711 153.832 28.9128 154.042C28.0544 154.252 27.2682 154.647 26.6267 155.19ZM22.764 166.11C22.5623 166.255 22.3067 166.328 22.0477 166.316C21.7887 166.304 21.5454 166.207 21.366 166.044C21.1866 165.882 21.0843 165.666 21.0793 165.439C21.0743 165.212 21.167 164.991 21.3391 164.819L25.5537 160.614C25.7968 161.022 26.1023 161.399 26.4618 161.735C26.8323 162.061 27.2522 162.341 27.7099 162.567L22.764 166.11ZM32.7212 160.711C29.3977 163.522 24.5411 159.089 27.8456 156.294C28.5213 155.723 29.4262 155.408 30.3612 155.418C31.2962 155.428 32.1847 155.762 32.8312 156.348C33.4778 156.933 33.8294 157.722 33.8088 158.54C33.7882 159.358 33.397 160.139 32.7212 160.711Z" fill="#D64568"/>
</g>
<path d="M27.7944 163.374L29.2506 203.115" stroke="#D64568" stroke-width="2" stroke-linejoin="round"/>
<path d="M20.802 166.971C19.844 167.541 17.507 169.211 15.8226 171.327C14.1382 173.444 14.2607 175.451 14.5325 176.19M16.0693 178.06C16.4515 178.474 17.3626 179.297 17.9492 179.276" stroke="#D64568" stroke-linejoin="round"/>
<path fill-rule="evenodd" clip-rule="evenodd" d="M34.2741 197.026C34.3838 195.489 34.4294 193.944 34.4317 192.404C34.4339 190.866 34.3004 189.313 34.2105 187.777C34.0274 184.653 33.8012 181.523 33.9372 178.392C34.0656 175.433 34.5014 172.484 35.2546 169.617C35.6214 168.222 36.0086 166.769 36.6483 165.468C37.2916 164.161 38.3537 163.266 39.526 162.439C40.7742 161.558 42.0115 160.662 43.2543 159.774C44.2976 159.028 46.1916 158.135 47.0342 157.159C47.9209 156.131 48.0042 153.661 48.5757 152.461C49.1324 151.293 50.7996 150.483 52.1044 150.435C54.2642 150.356 55.8966 150.186 57.7454 152.107C58.6677 153.066 57.9995 154.094 58.9631 155.012C59.849 155.855 62.0656 156.674 63.1848 157.141C64.5252 157.701 65.8962 158.188 67.2847 158.616C68.7011 159.052 70.1482 159.363 71.5714 159.772C72.9356 160.164 74.7625 161.918 75.8442 162.841C76.8499 163.7 77.0877 163.591 77.8672 164.651C79.5779 166.976 81.2914 169.329 82.6787 171.864C83.3697 173.127 84.0428 174.457 84.3288 175.877C84.6338 177.391 84.4406 178.873 84.0906 180.363C83.7342 181.879 82.4803 183.356 82.1096 184.869C81.9388 185.567 82.6395 186.295 82.3537 186.957C82.211 187.287 82.0268 187.583 81.8154 187.874C81.6526 188.099 80.9846 188.075 80.9081 188.345C80.8309 188.618 81.3334 189.159 81.3508 189.438C81.3756 189.837 81.4062 190.235 81.4341 190.634L81.5984 192.991C81.7064 194.54 81.8144 196.089 81.9224 197.639C81.9577 198.144 82.0002 198.638 81.8957 199.123C81.9383 199.081 81.9785 199.035 82.015 198.984C82.1216 198.834 82.3636 198.949 82.2748 199.122C82.1266 199.412 81.9058 199.62 81.6431 199.773C81.3484 200.241 34.2228 202.989 33.9418 201.663C33.7842 200.919 33.9918 200.108 34.0593 199.361C34.1295 198.582 34.2185 197.806 34.2741 197.026Z" fill="#D08B5B"/>
<path fill-rule="evenodd" clip-rule="evenodd" d="M82.6079 172.949L33.9933 177.382C33.9707 177.719 33.9521 178.055 33.9375 178.392C33.8015 181.523 34.0277 184.653 34.2107 187.777C34.235 188.192 34.2624 188.607 34.2895 189.023L39.1238 189.636L73.3149 189.2L81.8157 187.874L82.1477 187.251L82.3543 186.178C82.2329 185.745 82.004 185.301 82.1099 184.869C82.1407 184.743 82.1777 184.618 82.2198 184.492L82.1445 183.64L82.6079 172.949Z" fill="#F4C95D"/>
<path fill-rule="evenodd" clip-rule="evenodd" d="M81.476 175.984C81.3486 175.66 80.826 175.821 80.9543 176.148C81.614 177.827 81.2581 179.694 80.6718 181.342C80.5542 181.672 81.088 181.793 81.2041 181.467C81.8208 179.734 82.1688 177.748 81.476 175.984ZM77.8271 185.849C76.1512 186.146 74.4706 186.353 72.7788 186.533C72.7032 186.541 72.6372 186.532 72.5796 186.509C72.6584 187.28 72.7277 188.051 72.7882 188.823C73.2501 188.793 73.7233 188.807 74.1812 188.778C74.7797 188.739 75.377 188.687 75.973 188.62C77.127 188.491 78.2771 188.31 79.4142 188.076C79.8392 187.989 80.3807 187.926 80.8626 187.767C81.3181 187.616 81.7198 187.38 81.9197 186.955C82.0899 186.595 82.1075 186.161 82.0932 185.77C82.0833 185.501 82.0269 185.23 81.9889 184.96C81.9532 184.937 81.9207 184.909 81.8942 184.877C81.3919 185.055 80.8686 185.187 80.3562 185.314C79.5218 185.523 78.6739 185.698 77.8271 185.849ZM78.547 179.533C78.5567 180.053 78.4295 180.529 78.1645 180.977C77.9851 181.28 78.4683 181.534 78.6464 181.234C78.9584 180.707 79.1049 180.123 79.0935 179.513C79.0869 179.162 78.5405 179.183 78.547 179.533ZM35.5738 186.779C35.3462 186.8 35.1169 186.816 34.8886 186.837C34.6931 187.016 34.417 187.114 34.1598 187.069C34.1518 187.091 34.1447 187.116 34.1384 187.145C34.0998 187.321 34.0841 187.509 34.0646 187.688C34.0451 187.864 34.0318 188.042 34.0246 188.219C34.021 188.308 33.9853 188.51 34.0428 188.586C34.0946 188.654 34.203 188.644 34.2784 188.65C34.4814 188.664 34.6867 188.667 34.8909 188.677C35.2767 188.696 35.6625 188.715 36.0476 188.734C36.4252 188.753 36.8381 188.728 37.2099 188.813C37.2459 188.076 37.2764 187.34 37.3027 186.603C36.7354 186.707 36.139 186.727 35.5738 186.779ZM83.3545 183.809C83.1411 184.258 82.9452 184.699 82.5157 184.98C82.4595 185.016 82.396 185.037 82.3306 185.044C82.3875 185.252 82.4261 185.466 82.4607 185.663C82.5368 186.098 82.5663 186.549 82.4721 186.983C82.3802 187.407 82.2163 187.787 81.8778 188.068C81.7205 188.199 81.547 188.301 81.364 188.383C81.3986 188.47 81.4203 188.556 81.4142 188.652C81.4667 188.872 81.5044 189.098 81.5444 189.313C81.6324 189.791 81.7204 190.27 81.7935 190.752C81.9394 191.71 82.0614 192.668 82.1698 193.631C82.2782 194.591 82.3661 195.553 82.4452 196.516C82.4858 197.008 82.5237 197.501 82.5602 197.994C82.5972 198.5 82.6989 199.016 82.4907 199.495C82.323 199.882 81.7081 199.883 81.5064 199.531C81.2506 199.084 81.3011 198.54 81.2767 198.041C81.2533 197.57 81.2278 197.099 81.2003 196.629C81.1445 195.666 81.0791 194.704 81.0199 193.741C80.9622 192.801 80.8991 191.862 80.8455 190.921C80.8179 190.429 80.7991 189.937 80.7784 189.445C80.767 189.172 80.7447 188.881 80.7548 188.595C80.5855 188.642 80.4146 188.682 80.2457 188.723C78.9569 189.035 77.6517 189.276 76.3357 189.444C75.6746 189.528 75.0108 189.595 74.3463 189.643C73.8578 189.678 73.3522 189.731 72.8549 189.731C72.9371 190.909 72.9981 192.088 73.0393 193.268C73.0691 194.119 73.0886 194.97 73.0987 195.822C73.1034 196.27 73.1103 196.718 73.113 197.167C73.1142 197.368 73.1217 197.571 73.1154 197.772C73.1136 197.834 73.1069 197.895 73.0975 197.955C73.1472 198.081 73.1894 198.205 73.2244 198.322C73.3956 198.887 73.4157 199.435 73.3701 200.019C73.3307 200.514 72.9301 200.986 72.3725 200.833C72.282 200.809 72.1915 200.783 72.1016 200.756C71.2934 200.878 70.4779 200.929 69.6553 200.974C68.4532 201.042 67.2498 201.093 66.0464 201.143C63.6861 201.242 61.3248 201.335 58.9636 201.428C54.2186 201.615 49.4736 201.802 44.7286 201.99C43.4117 202.042 42.0948 202.094 40.7779 202.146C40.0963 202.173 39.4159 202.199 38.7358 202.249C38.4186 202.273 38.1009 202.302 37.7835 202.318C37.4155 202.338 37.0858 202.245 36.7305 202.162C36.5297 202.114 36.4439 201.918 36.4801 201.749C36.1645 201.836 35.7727 201.69 35.651 201.337C35.5623 201.082 35.5814 200.8 35.6908 200.556L35.6907 200.555C35.8664 199.114 36.1038 197.678 36.2787 196.236C36.4706 194.657 36.6527 193.075 36.806 191.492C36.9209 190.296 37.0823 191.135 37.1512 189.935C36.6614 189.991 36.1006 189.863 35.6119 189.817C35.2612 189.785 34.9081 189.762 34.5566 189.727C34.5954 190.077 34.601 190.435 34.6229 190.77C34.6658 191.438 34.682 192.103 34.6894 192.771C34.7038 194.061 34.6032 193.314 34.5334 194.601C34.4626 195.898 34.365 197.191 34.2366 198.484C34.1707 199.15 34.0986 199.815 34.021 200.48C33.9852 200.79 33.948 201.099 33.9094 201.409C33.8633 201.775 33.8568 202.12 33.5928 202.403C33.3921 202.618 32.9659 202.616 32.8173 202.332C32.6291 201.974 32.6969 201.659 32.7477 201.273C32.789 200.963 32.8283 200.654 32.8669 200.344C32.9493 199.681 33.0262 199.017 33.0969 198.353C33.2333 197.072 33.3594 195.79 33.467 194.508C33.5756 193.215 33.7644 193.961 33.8702 192.668C33.9236 192.016 33.9771 191.365 34.0435 190.714C34.0771 190.38 34.0928 190.024 34.1403 189.679C34.1211 189.677 34.1018 189.674 34.0826 189.671C33.6645 189.611 33.3014 189.391 33.1813 188.97C33.0667 188.567 33.1684 188.094 33.2378 187.692C33.2971 187.349 33.346 186.912 33.5555 186.613C32.7435 185.658 32.1935 184.44 31.8279 183.263C31.4298 181.98 31.2334 180.633 31.1533 179.296C31.0604 177.746 31.1215 176.2 31.3332 174.674C31.3277 174.352 31.3308 174.03 31.343 173.709C31.4627 170.551 32.3125 166.788 35.3858 165.202C35.3979 165.195 35.4107 165.189 35.4234 165.183C35.658 164.883 35.9544 164.61 36.1927 164.355C36.6147 163.905 37.0571 163.472 37.5281 163.071C38.4607 162.277 39.4919 161.633 40.5669 161.047C41.6539 160.454 42.7587 159.895 43.8186 159.253C44.742 158.693 45.5672 158.028 46.3464 157.284C47.2221 156.448 47.8266 155.341 48.036 154.149C48.0467 154.086 48.1395 154.1 48.1431 154.159C48.2888 156.324 46.8875 158.294 45.2385 159.567C43.2669 161.089 40.8472 161.864 38.8452 163.343C38.3477 163.71 37.8846 164.121 37.4456 164.555C38.1391 164.459 38.8491 164.478 39.5085 164.645C39.7648 164.62 40.0228 164.606 40.2799 164.585C40.8677 164.534 41.4562 164.485 42.0448 164.438C43.2444 164.341 44.4449 164.248 45.6456 164.162C48.0013 163.993 50.3585 163.844 52.7164 163.716C57.4547 163.459 62.2017 163.268 66.9474 163.231C68.2343 163.221 74.985 162.718 75.6133 162.767C74.6642 162.009 73.6309 161.4 72.5013 160.908C71.0883 160.296 69.6369 159.905 68.139 159.555C65.0543 158.833 61.8532 158.146 59.3315 156.118C58.705 155.614 58.1431 155.029 57.6766 154.374C57.231 153.75 56.7317 152.948 56.6915 152.168C56.663 151.614 57.4316 151.384 57.725 151.848C57.9072 152.136 58.0037 152.456 58.1551 152.759C58.3056 153.06 58.4817 153.348 58.6758 153.624C59.0575 154.165 59.5237 154.643 60.0278 155.071C61.1024 155.985 62.3876 156.637 63.7103 157.117C66.7133 158.206 69.9684 158.593 72.8304 160.069C74.0825 160.714 75.2917 161.624 76.0733 162.813C76.1928 162.827 76.3118 162.845 76.4309 162.865C76.3387 162.757 76.2458 162.65 76.1523 162.543C76.0909 162.473 76.1783 162.375 76.2524 162.436C77.6918 163.618 79.0248 164.903 80.242 166.313C81.4064 167.662 82.4981 169.08 83.2927 170.681C84.721 173.556 85.1345 176.889 84.5666 180.04C84.412 180.899 84.1803 181.743 83.8758 182.561C83.7189 182.984 83.5475 183.401 83.3545 183.809Z" fill="#0D0D0D"/>
<path fill-rule="evenodd" clip-rule="evenodd" d="M39.6826 140.078C39.7862 135.843 40.9865 131.002 44.9598 128.779C53.756 124.882 65.8225 133.443 66.7804 142.604C67.1122 145.74 65.4864 149.24 62.3173 150.231C61.64 151.197 60.5846 151.81 59.5405 152.347C47.1268 159.353 38.7583 154.334 39.6826 140.078Z" fill="#D08B5B"/>
<path fill-rule="evenodd" clip-rule="evenodd" d="M36.7041 137.555C37.1059 136.301 37.5333 135.056 37.9856 133.819C38.4261 132.615 38.8189 131.387 39.3785 130.236C42.7209 123.356 49.2484 123.117 52.655 123.875C54.3773 123.06 57.6625 123.152 59.5094 123.763C62.4993 124.752 66.2531 128.938 67.5536 130.832C70.4248 135.016 72.3276 140.654 70.7059 145.669C70.494 146.324 70.2154 146.934 69.8982 147.524C70.1219 147.804 70.3772 148.067 70.6588 148.325C71.4956 149.092 72.3314 149.832 73.062 150.705C73.788 151.572 74.3976 152.5 74.8638 153.531C75.7429 155.475 75.8636 157.708 74.866 159.63C73.998 161.302 72.3987 162.582 70.5509 162.767C70.4563 162.783 70.3615 162.799 70.2662 162.812C70.0356 163.224 69.7499 163.606 69.4202 163.941C68.4102 164.972 65.9347 165.572 64.5132 165.656C64.4424 165.718 64.371 165.779 64.2995 165.839C63.454 166.554 62.5658 167.276 61.5843 167.798C60.9195 168.152 60.042 168.46 59.3271 168.248C59.0145 168.473 58.4873 168.448 58.1633 168.285C57.6306 168.017 57.1871 167.516 56.9093 166.997C56.2359 165.737 56.3351 164.328 56.4457 162.951C56.5675 161.431 56.6824 159.909 56.8001 158.389C56.8923 157.2 56.99 155.991 57.3095 154.838C57.4746 154.24 57.6985 153.663 57.9953 153.117C57.9854 153.073 57.9852 153.028 57.9966 152.985C58.0879 152.646 58.2955 152.462 58.5407 152.225C58.5723 152.194 58.604 152.163 58.6349 152.132C58.7564 151.983 58.8871 151.844 59.0282 151.725C59.082 151.667 59.1351 151.608 59.1883 151.549C59.6295 151.053 60.0446 150.534 60.4099 149.98C60.7643 149.444 61.0817 148.885 61.3824 148.317C61.6882 147.739 61.8814 147.107 62.1867 146.533C62.2128 146.484 62.2834 146.472 62.3244 146.511C62.4291 146.611 62.4981 146.724 62.4903 146.846L62.541 146.852C62.5533 146.668 62.7176 146.512 62.9495 146.544C63.2966 146.591 63.581 146.603 63.8754 146.478C63.8101 146.133 63.749 145.787 63.6885 145.44C63.5778 144.802 63.4731 144.161 63.38 143.521C63.2131 143.567 63.0482 143.631 62.8873 143.71C62.658 143.823 62.4429 143.971 62.2611 144.149C62.0819 144.326 61.9621 144.56 61.7401 144.686C61.4847 144.831 61.1623 144.619 61.2279 144.323C61.3609 143.724 62.2244 143.352 62.7622 143.22C62.9468 143.175 63.1364 143.152 63.3268 143.149C63.2687 142.737 63.2154 142.326 63.1689 141.913C63.1467 141.718 63.1259 141.523 63.1058 141.327C62.6798 141.215 62.2272 141.194 61.7911 141.27C61.6508 141.39 61.5104 141.509 61.3749 141.629C60.9445 142.01 60.5163 142.394 60.0937 142.784C60.0554 142.819 60.0178 142.854 59.9795 142.889C59.7286 143.121 59.3974 142.912 59.4295 142.596C59.6909 140.006 58.0316 138.014 56.1186 136.494C54.001 134.811 50.2607 134.743 47.7074 131.786C46.5912 132.055 44.1053 132.825 43.1295 134.508C41.7634 136.866 42.0286 138.925 42.0139 141.544C41.9994 144.165 41.8186 146.906 42.5096 149.464C43.1469 151.824 44.7108 153.802 47.0559 154.652C47.114 154.673 47.1728 154.693 47.2315 154.713C48.4429 155.118 49.7516 155.197 50.9999 154.915C52.3815 154.602 53.5198 153.925 54.6487 153.102C54.7139 153.055 54.8147 153.143 54.7667 153.211C53.315 155.282 50.3431 156.065 47.9466 155.62C47.8346 155.599 47.7232 155.576 47.6123 155.55C48.1998 157.054 48.1541 158.73 47.5159 160.239C47.1321 161.147 46.5251 161.943 45.7737 162.58C44.9456 163.283 43.9075 163.863 43.3503 164.827C42.84 165.711 43.0365 166.675 43.9825 167.139C44.2209 167.257 44.3258 167.662 44.1006 167.85C44.0145 167.921 43.9284 167.993 43.8403 168.065C43.3352 168.474 41.9353 169.26 41.7052 169.296C39.6623 169.613 38.2276 168.163 37.2786 166.424C36.1643 164.384 36.3414 161.841 37.4127 159.82C38.2721 158.198 40.0218 156.567 39.2297 154.583C38.9471 153.875 38.4005 153.282 37.871 152.747C37.2671 152.139 36.6211 151.572 36.0403 150.941C35.4631 150.314 34.9465 149.627 34.6427 148.825C34.1991 147.652 34.3511 146.361 34.6082 145.165C35.1592 142.597 35.9036 140.055 36.7041 137.555Z" fill="#0D0D0D"/>
<path fill-rule="evenodd" clip-rule="evenodd" d="M48.6393 150.42C49.0917 150.216 49.49 149.891 49.775 149.483C49.8741 149.341 49.8958 149.194 49.8691 149.062C49.839 148.913 49.7449 148.78 49.6199 148.694C49.4946 148.607 49.3404 148.567 49.1937 148.596C49.0663 148.62 48.9413 148.695 48.8456 148.843L48.8256 148.873C48.6562 149.119 48.4314 149.324 48.1716 149.461C47.9212 149.592 47.6383 149.659 47.3421 149.637C46.778 149.595 46.3798 149.307 45.9532 148.911C45.9003 148.862 45.8473 148.81 45.794 148.758C45.7598 148.71 45.7137 148.68 45.6632 148.665C45.6071 148.648 45.5444 148.652 45.4877 148.674C45.4331 148.695 45.3849 148.733 45.3535 148.783C45.3236 148.83 45.3078 148.888 45.316 148.953C45.3692 149.377 45.6067 149.748 45.9351 150.034C46.2999 150.352 46.7757 150.564 47.2188 150.628C47.7069 150.699 48.1986 150.617 48.6393 150.42ZM46.744 143.921C46.2396 144.252 45.4802 145.008 46.0635 145.76C46.7417 146.418 47.6535 145.602 48.104 145.232C48.5237 144.942 49.0323 145.629 48.6453 145.963C45.3868 148.551 43.8632 144.108 46.4697 143.564C46.7566 143.504 46.8756 143.82 46.744 143.921ZM52.64 140.834C52.5573 140.132 51.474 140.012 51.3923 140.712C51.3192 141.339 51.4531 141.908 51.7562 142.459C52.0457 142.985 52.7149 142.71 52.7483 142.22C52.7931 141.563 52.6915 141.27 52.64 140.834ZM44.4271 140.823C44.2697 140.632 44.0479 140.507 43.7908 140.592C42.9876 140.858 43.2689 141.995 43.5744 142.542C43.7405 142.84 44.2441 142.898 44.4606 142.623C44.8135 142.174 44.9584 141.299 44.4737 140.888C44.4602 140.866 44.4452 140.844 44.4271 140.823ZM51.5965 137.789L51.4675 137.772C51.0682 137.718 50.5726 137.671 50.3035 137.998C50.1608 138.172 50.1211 138.486 50.327 138.64C50.6894 138.91 51.0744 138.786 51.4971 138.795C51.8453 138.802 52.1815 138.847 52.5197 138.93C53.2619 139.112 53.8743 139.471 54.5169 139.866C54.6012 139.918 54.6814 139.81 54.6393 139.735C54.2514 139.043 53.5284 138.489 52.8126 138.162C52.4305 137.987 52.0142 137.846 51.5965 137.789ZM45.0542 137.713L44.9568 137.736C43.8967 137.998 42.5251 138.492 42.0575 139.554C42.0437 139.702 42.0652 139.733 42.0825 139.753L42.0883 139.76C42.1026 139.777 42.1143 139.801 42.1794 139.818C42.1971 139.813 42.2149 139.808 42.233 139.803C42.4626 139.734 42.643 139.644 42.8175 139.551L43.0066 139.45C43.226 139.333 43.4475 139.219 43.6835 139.133C44.1872 138.949 44.7073 138.814 45.2374 138.732C45.3523 138.714 45.462 138.671 45.5473 138.602C45.6282 138.536 45.6886 138.446 45.7133 138.329C45.7454 138.178 45.7304 138.064 45.6445 137.932C45.5799 137.833 45.4902 137.765 45.3887 137.729C45.2852 137.691 45.1687 137.686 45.0542 137.713Z" fill="#191919"/>
<path fill-rule="evenodd" clip-rule="evenodd" d="M78.5391 198.827C76.9606 198.809 77.4932 196.024 77.5691 195.006C78.681 191.257 78.2396 187.228 78.5881 183.328C78.761 179.693 79.0213 176.067 79.219 172.434C79.5985 165.06 83.7095 149.927 88.9384 147.326C89.5003 144.357 92.166 141.508 95.6661 141.38C97.9496 138.462 100.75 136.364 104.45 136.631C105.976 136.645 107.512 138.209 108.983 138.468C109.804 138.551 117.045 137.995 118.529 138.806C119.56 139.289 120.508 140.217 120.256 141.452C119.835 142.953 121.252 141.294 124.387 142.764C130.8 146.31 127.235 151.497 127.075 151.66C131.191 156.974 134.775 161.276 136.603 167.889C137.811 172.803 137.883 177.92 138.925 182.866C139.292 184.581 139.819 186.231 140.384 187.889C141.011 190.063 141.477 195.52 141.78 195.558C142.333 195.674 141.509 196.834 140.928 196.856C124.914 200.124 108.454 198.157 92.2394 198.332C87.6684 198.34 83.097 198.471 78.5391 198.827Z" fill="#D08B5B"/>
<path fill-rule="evenodd" clip-rule="evenodd" d="M109.138 143.274C109.201 144.992 103.481 151.593 101.411 151.247C100.03 151.017 97.8935 149.262 95 145.982L94.9198 143.795L95.4308 141.392C92.0468 141.636 89.4874 144.424 88.9381 147.326C83.7615 149.901 79.6806 164.759 79.2313 172.21L79.2187 172.434C79.0211 176.067 78.7607 179.693 78.5878 183.328C78.2394 187.228 78.6807 191.257 77.5689 195.006L77.5638 195.07C77.4725 196.135 76.9919 198.809 78.5388 198.827C83.0968 198.471 87.6681 198.34 92.2391 198.332C108.453 198.157 124.914 200.124 140.928 196.856C141.509 196.834 142.333 195.674 141.78 195.558C141.477 195.52 141.011 190.063 140.384 187.889L140.268 187.546C139.747 186.003 139.267 184.463 138.925 182.866C137.883 177.92 137.811 172.803 136.603 167.889C134.775 161.276 131.19 156.974 127.075 151.66C127.235 151.497 130.8 146.31 124.387 142.764C121.251 141.294 119.835 142.953 120.255 141.452C120.508 140.217 119.559 139.289 118.528 138.806C117.044 137.995 109.804 138.551 108.982 138.468C108.6 138.4 108.213 138.245 107.823 138.051L107.897 138.27C108.688 140.608 109.102 142.276 109.138 143.274Z" fill="#9FD8E5"/>
<path fill-rule="evenodd" clip-rule="evenodd" d="M101.316 153.086C101.306 153.012 101.207 153.016 101.202 153.09L101.128 154.194C101.039 155.543 100.955 156.889 100.908 158.242C100.849 159.93 100.83 161.615 100.853 163.304C100.933 169.184 101.121 175.063 101.325 180.94C100.53 180.914 99.7346 180.89 98.9389 180.868C98.399 180.853 97.8592 180.839 97.3193 180.826L95.9426 180.793L95.3759 180.779C94.9929 180.769 94.5552 180.689 94.3004 181.037C94.1984 181.177 94.1513 181.356 94.2569 181.513C94.5005 181.876 94.8533 181.85 95.2534 181.852C95.631 181.853 96.0086 181.854 96.3861 181.855C97.1951 181.857 98.004 181.857 98.813 181.85C99.6619 181.843 100.51 181.831 101.359 181.815C101.458 184.295 101.651 186.769 101.853 189.243L101.944 190.357C102.19 193.367 102.446 196.38 102.764 199.385C102.79 199.631 103.138 199.617 103.146 199.371C103.255 195.97 103.285 192.566 103.313 189.164C103.333 186.697 103.307 184.232 103.248 181.767C103.36 181.764 103.472 181.761 103.584 181.758C106.766 181.655 109.948 181.552 113.129 181.406C113.124 181.412 113.119 181.419 113.116 181.427C112.905 181.98 112.909 182.676 112.936 183.26C112.967 183.93 113.081 184.589 113.259 185.235C113.897 187.549 115.397 189.588 117.083 191.258L117.138 191.312C117.535 191.703 117.989 192.094 118.243 192.601C118.502 193.119 118.608 193.732 118.747 194.293L118.763 194.358L119.304 196.483C119.476 197.158 119.554 198.148 120.11 198.62C120.628 199.059 121.284 198.796 121.499 198.197C121.666 197.73 121.464 197.232 121.338 196.776L120.351 193.205C120.188 192.623 120.013 192.037 119.691 191.521C119.36 190.992 118.89 190.617 118.411 190.233C117.503 189.506 116.663 188.667 115.945 187.751C115.228 186.836 114.606 185.82 114.157 184.745C113.932 184.207 113.743 183.646 113.606 183.079C113.476 182.54 113.457 181.979 113.319 181.446C113.31 181.41 113.277 181.385 113.241 181.375C113.249 181.351 113.235 181.319 113.201 181.318L110.593 181.246C108.274 181.182 105.955 181.113 103.638 181.022L103.229 181.008C103.14 177.72 102.992 174.433 102.813 171.147C102.648 168.134 102.536 165.118 102.336 162.107C102.237 160.612 102.086 159.123 101.925 157.634C101.76 156.11 101.529 154.603 101.316 153.086ZM126.391 169.674C126.412 169.505 126.198 169.409 126.107 169.566C125.063 171.356 124.598 173.276 124.448 175.332C124.316 177.146 124.441 178.977 124.607 180.785C124.783 182.713 124.977 184.641 125.173 186.567L125.473 189.522L126.225 196.929C126.279 197.459 126.417 197.937 126.883 198.167C126.942 198.214 127.004 198.255 127.076 198.29C127.327 198.413 127.652 198.334 127.785 198.075L127.729 198.115C127.681 198.148 127.735 198.102 127.892 197.978L128.023 197.795C128.117 197.641 128.176 197.491 128.195 197.312C128.224 197.033 128.162 196.731 128.133 196.453L127.64 191.596C127.256 187.82 126.831 184.046 126.477 180.267C126.312 178.506 126.177 176.742 126.16 174.972C126.143 173.212 126.167 171.421 126.391 169.674ZM115.611 137.434L115.549 137.425C113.335 137.14 110.944 137.296 108.971 138.433C108.955 138.442 108.964 138.469 108.982 138.468L109.629 138.418C111.675 138.263 113.717 138.14 115.75 138.549L115.958 138.591C116.69 138.742 117.456 138.931 118.057 139.39C118.631 139.828 118.934 140.526 119.225 141.168L119.264 141.253C119.558 141.887 119.923 142.485 120.531 142.866C121.318 143.359 122.24 143.261 123.124 143.3C124.68 143.368 125.989 144.447 126.671 145.802C127.084 146.623 127.281 147.553 127.347 148.464C127.38 148.928 127.4 149.411 127.355 149.875C127.341 150.023 127.179 150.567 127.085 150.558C126.878 150.537 126.693 150.651 126.635 150.819C126.107 150.344 125.565 149.884 125.007 149.442C123.615 148.341 122.124 147.351 120.561 146.511C119.367 145.869 118.111 145.236 116.816 144.771C116.917 144.765 117.017 144.781 117.116 144.828C117.159 144.849 117.199 144.794 117.164 144.76C116.747 144.351 116.263 144.309 115.782 144.439C115.677 144.41 115.572 144.382 115.467 144.355C115.415 144.342 115.392 144.415 115.435 144.441L115.557 144.513C115.034 144.71 114.527 145.078 114.126 145.368C112.973 146.203 111.968 147.209 110.948 148.196L110.763 148.376C109.865 149.24 108.942 150.082 107.912 150.787C107.372 151.155 106.804 151.499 106.205 151.761C105.691 151.986 104.846 152.147 104.622 152.708C104.414 152.981 104.517 153.315 104.778 153.483C105.225 153.94 106.072 153.603 106.576 153.388C107.183 153.128 107.77 152.82 108.327 152.465C109.409 151.774 110.398 150.928 111.316 150.034C112.275 149.099 113.175 148.111 114.106 147.15C114.509 146.733 114.902 146.307 115.306 145.891L115.509 145.684C115.715 145.475 116.008 145.152 116.327 144.95C116.953 145.294 117.589 145.623 118.21 145.976C119.077 146.469 119.921 147.002 120.752 147.553C122.353 148.614 123.878 149.812 125.299 151.104C127.906 153.473 130.154 156.206 132.136 159.114L132.287 159.336C133.414 161 134.485 162.722 135.268 164.578C136.129 166.621 136.591 168.786 136.879 170.977C137.165 173.153 137.314 175.344 137.625 177.517C137.943 179.746 138.488 181.916 139.097 184.08L139.242 184.593C139.792 186.531 140.358 188.469 140.677 190.462C140.848 191.526 140.966 192.607 140.988 193.686C141.01 194.77 140.879 195.837 140.781 196.915C140.743 197.327 141.16 197.656 141.523 197.697C141.941 197.744 142.288 197.466 142.403 197.074C142.761 195.854 142.785 194.519 142.726 193.255C142.667 191.971 142.456 190.701 142.18 189.447C141.636 186.981 140.848 184.576 140.174 182.144C139.579 180.001 139.154 177.848 138.887 175.64C138.609 173.349 138.409 171.048 137.972 168.779C137.541 166.54 136.807 164.413 135.743 162.395C134.774 160.559 133.588 158.84 132.349 157.177C130.845 155.158 129.204 153.244 127.384 151.513C127.541 151.5 127.701 151.443 127.846 151.345C128.29 151.044 128.482 150.481 128.528 149.972C128.637 148.78 128.555 147.542 128.208 146.393C127.648 144.54 126.312 142.924 124.439 142.318C123.957 142.161 123.449 142.116 122.944 142.122C122.465 142.128 121.945 142.21 121.478 142.075C120.734 141.86 120.387 141.004 120.087 140.357L120.073 140.328C119.689 139.503 119.238 138.801 118.453 138.306C117.615 137.778 116.581 137.562 115.611 137.434ZM94.8198 141.511C94.15 141.306 93.3308 141.545 92.6913 141.769C91.979 142.019 91.3282 142.456 90.7753 142.966C90.1919 143.504 89.7175 144.16 89.392 144.885L89.3609 144.955C89.0639 145.627 88.7313 146.547 88.9199 147.267C88.9253 147.287 88.9313 147.307 88.938 147.326C87.6495 148.021 86.4673 148.876 85.4496 149.942C84.2647 151.183 83.274 152.582 82.4474 154.085C79.1642 160.053 78.8057 167.089 78.6367 173.765L78.5956 175.457C78.5049 179.112 78.3757 182.759 77.8257 186.381L77.7855 186.642C77.1947 190.434 76.2905 194.266 76.5377 198.125C76.6118 199.281 78.3189 199.211 78.3263 198.059C78.3542 193.726 79.209 189.512 79.7354 185.228C80.6618 177.692 79.777 169.989 81.2068 162.509C81.7679 159.574 82.6988 156.713 84.0807 154.06C84.7632 152.75 85.5526 151.479 86.4899 150.336C87.2963 149.352 88.1371 148.403 89.0909 147.566C89.4167 147.87 90.0385 147.686 90.1857 147.22C90.2868 146.9 90.2404 146.532 90.3006 146.199C90.3565 145.889 90.4379 145.582 90.5505 145.288C90.7752 144.703 91.1156 144.136 91.5149 143.655C91.9462 143.134 92.4478 142.696 93.0136 142.329C93.5833 141.96 94.2165 141.833 94.8214 141.556C94.8418 141.546 94.8428 141.518 94.8198 141.511ZM93.7175 181.648C93.7154 181.618 93.6791 181.605 93.6578 181.626C93.4338 181.848 93.3048 182.16 93.1438 182.429C92.9581 182.74 92.7623 183.044 92.5562 183.341C92.1432 183.937 91.6799 184.501 91.2122 185.054C90.7773 185.568 90.3118 186.063 89.8273 186.53C89.3023 187.037 88.7099 187.494 88.2365 188.051C87.2486 189.214 87.1389 190.764 86.975 192.222L86.9569 192.38C86.856 193.245 86.769 194.112 86.6937 194.98C86.6571 195.402 86.6207 195.825 86.5937 196.248L86.5856 196.382C86.563 196.796 86.5681 197.215 86.8178 197.566C87.0851 197.943 87.6655 198.057 87.9942 197.674C88.5588 197.018 88.4073 195.894 88.4538 195.074C88.4922 194.396 88.5392 193.718 88.5947 193.041L88.6232 192.703C88.6897 191.933 88.7378 191.148 88.8853 190.389C89.0153 189.72 89.291 189.208 89.7559 188.71C90.2243 188.208 90.7128 187.738 91.1424 187.2C91.598 186.63 92.0055 186.021 92.3696 185.388C92.6811 184.847 92.9251 184.261 93.147 183.677L93.1838 183.58C93.398 183.01 93.7585 182.266 93.7175 181.648ZM84.3462 157.863C84.3382 157.785 84.2227 157.788 84.2239 157.867C84.234 158.541 84.2446 159.214 84.2554 159.888C84.3419 165.315 84.6102 170.748 84.2651 176.173C84.1023 178.73 83.7225 181.258 83.2683 183.779C83.0359 185.068 82.7896 186.355 82.5581 187.645C82.3324 188.902 82.0874 190.166 81.9182 191.432C81.7521 192.677 81.6083 193.931 81.5692 195.187L81.5647 195.351C81.5503 195.959 81.4083 196.858 81.7616 197.384C82.1445 197.953 82.837 197.938 83.204 197.368C83.5485 196.832 83.4241 195.906 83.4655 195.281C83.5075 194.644 83.5533 194.006 83.6085 193.37C83.7163 192.129 83.8728 190.889 84.0375 189.654C84.3806 187.083 84.9217 184.536 85.2958 181.968C85.6792 179.336 85.9234 176.691 85.8402 174.028C85.7561 171.344 85.3743 168.675 85.133 166.002C84.8879 163.287 84.6229 160.575 84.3462 157.863ZM109.303 140.058C109.139 139.573 108.615 139.285 108.12 139.441C107.666 139.584 107.308 140.156 107.504 140.626C107.719 141.14 108.077 141.571 108.383 142.034C108.665 142.461 109.066 142.791 109.353 143.211L109.066 143.544C108.922 143.711 108.778 143.876 108.632 144.039L108.131 144.599C107.74 145.035 107.347 145.468 106.942 145.889C105.75 147.128 104.538 148.328 103.192 149.401C102.885 149.645 102.576 149.888 102.258 150.117L102.139 150.202C101.921 150.357 101.676 150.51 101.405 150.495C100.746 150.459 100.126 149.782 99.6587 149.363L99.6343 149.342C98.4762 148.316 97.3973 147.188 96.4455 145.967C96.2341 145.696 96.029 145.42 95.8288 145.14C96.248 144.612 96.1068 143.615 96.1081 142.993C96.1091 142.555 96.0944 142.118 96.0808 141.68L96.0787 141.592C96.0737 141.309 96.0765 141.037 95.8846 140.811C95.8734 140.798 95.8513 140.799 95.838 140.806C95.5916 140.948 95.5223 141.171 95.4242 141.423L95.414 141.449C95.2944 141.751 95.1805 142.055 95.0651 142.359C94.9442 142.677 94.8345 142.999 94.7232 143.32C94.6713 143.469 94.6221 143.619 94.5742 143.77C94.5451 143.866 94.5149 143.962 94.4838 144.057L94.4759 144.065C94.4317 144.105 94.3945 144.148 94.3627 144.191C94.2251 144.267 94.1184 144.399 94.073 144.589C93.9743 145.002 94.2219 145.327 94.4437 145.644C95.3449 146.933 96.3632 148.155 97.4856 149.256C98.0431 149.803 98.6276 150.324 99.2342 150.816L99.3402 150.901C99.885 151.336 100.474 151.746 101.183 151.827C102.013 151.921 102.67 151.485 103.284 150.988L103.345 150.938C103.928 150.462 104.497 149.971 105.048 149.458C106.17 148.413 107.234 147.296 108.169 146.079C109.079 144.896 109.973 143.577 110.51 142.173C110.542 142.087 110.445 142.003 110.374 142.076C110.097 142.359 109.832 142.658 109.57 142.96C109.547 142.53 109.61 142.094 109.55 141.663C109.477 141.14 109.471 140.558 109.303 140.058Z" fill="#0D0D0D"/>
<path fill-rule="evenodd" clip-rule="evenodd" d="M103.793 105.173C91.4127 105.017 86.1556 113.937 85.9376 117.843C85.7862 120.555 87.4942 123.611 87.5827 126.026C87.6278 127.258 86.2182 129.96 86.9854 131.731C88.693 135.672 92.1608 139.988 96.3727 139.834C100.585 139.68 106.109 140.646 110.518 133.8C110.932 133.158 116.325 129.396 116.737 125.993C117.765 117.519 112.626 105.284 103.793 105.173Z" fill="#D08B5B"/>
<path fill-rule="evenodd" clip-rule="evenodd" d="M104.176 99.7276C103.716 99.2374 102.962 99.0622 102.301 99.1257C101.34 99.2182 100.524 99.8442 99.5681 99.9234C98.5654 100.007 97.5832 99.6936 96.5823 99.8922C95.9687 100.014 95.3677 100.323 94.99 100.821C93.6059 100.479 92.1379 101.054 91.3071 102.222C90.2248 102.094 89.0802 102.85 88.7889 103.901C87.4232 103.995 86.1729 105.143 86.0709 106.527C85.5299 106.692 85.0693 107.086 84.7965 107.596C84.4794 108.187 84.4474 108.852 84.5324 109.501C83.9012 109.854 83.6002 110.573 83.542 111.324C82.9703 111.785 82.744 112.585 82.8912 113.326C82.4504 113.596 82.2397 114.196 82.2615 114.724C82.282 115.216 82.4284 115.647 82.2623 116.129C82.1144 116.559 82.0687 116.914 82.1748 117.354L82.1856 117.397C82.2041 117.468 82.22 117.537 82.2345 117.605C82.1167 117.716 82.0187 117.854 81.9471 118.013C81.686 118.594 81.7518 119.242 81.988 119.812C81.9074 120.184 81.9336 120.573 82.0857 120.921C81.8389 121.307 81.7187 121.773 81.7765 122.25C81.8413 122.785 82.1032 123.255 82.4866 123.597C82.4147 124.332 82.7408 125.112 83.2969 125.608C83.2367 126.049 83.3193 126.506 83.5738 126.912C83.7552 127.202 83.9929 127.414 84.2634 127.558C84.2637 127.803 84.3059 128.052 84.3962 128.299C84.5217 128.643 84.7244 128.956 84.9851 129.205C84.8704 130.17 85.4834 131.215 86.5035 131.447C86.5892 131.467 86.6706 131.474 86.7482 131.473C86.8824 132.393 87.1349 133.296 87.5059 134.148C88.4492 136.319 90.0884 138.188 92.178 139.314C93.2116 139.871 94.363 140.236 95.5294 140.363C96.3688 140.455 97.1707 140.395 98.0057 140.281C99.0537 140.137 100.105 139.941 101.117 139.632L101.28 139.583C101.7 139.453 102.142 139.306 102.5 139.063C102.902 138.792 103.101 138.389 103.178 137.92C103.222 137.659 103.048 137.386 102.764 137.391L102.746 137.392C102.684 137.395 102.623 137.395 102.56 137.394L102.513 137.392L102.511 137.392C102.508 137.391 102.506 137.391 102.503 137.392C102.475 137.389 102.448 137.381 102.421 137.378C102.107 137.337 101.837 137.399 101.548 137.507L101.512 137.521C101.025 137.709 100.543 137.885 100.038 138.02C99.5168 138.159 98.9879 138.274 98.4566 138.369L98.4039 138.378L98.3876 138.381L98.3795 138.382C98.3779 138.382 98.3763 138.382 98.3747 138.383L98.218 138.408C98.0946 138.427 97.9712 138.445 97.8477 138.463C97.6203 138.494 97.3927 138.52 97.1649 138.542C93.2326 138.908 89.8095 135.922 88.6742 132.233C88.2628 130.897 88.1899 129.553 88.2473 128.203C88.278 128.104 88.2944 127.995 88.2892 127.875C88.2869 127.813 88.2814 127.752 88.2751 127.69C88.3602 126.384 88.5432 125.073 88.6397 123.761C88.7525 122.228 88.7901 120.689 88.6995 119.154C88.6546 118.396 88.5463 117.648 88.4128 116.9L88.3646 116.632C88.8402 116.52 89.2772 116.277 89.6197 115.934C90.4055 116.351 91.4028 116.354 92.1451 115.856C93.0159 116.36 94.2069 116.365 95.0448 115.81C95.5765 116.162 96.235 116.298 96.8706 116.134C97.1565 116.06 97.4381 115.913 97.6766 115.714C97.8529 115.739 98.0308 115.744 98.207 115.729L98.2442 115.748C98.6589 115.948 99.1148 116.072 99.578 116.04C99.921 116.016 100.272 115.935 100.595 115.794C100.953 115.993 101.341 116.123 101.752 116.16C102.353 116.214 102.994 116.058 103.479 115.699C104.407 116.185 105.528 116.224 106.497 115.839C106.71 116.173 106.999 116.457 107.333 116.671C107.283 116.883 107.272 117.107 107.3 117.32C107.346 117.672 107.446 117.986 107.601 118.265C107.46 118.588 107.429 118.98 107.528 119.368C107.67 119.921 108.012 120.395 108.446 120.758C108.515 121.647 109.034 122.465 109.844 122.899C109.885 122.921 109.926 122.939 109.967 122.955C110.003 123.002 110.047 123.042 110.096 123.076C110.618 123.525 111.415 123.458 112.038 123.171C112.05 123.171 112.062 123.172 112.075 123.172C112.301 123.169 112.452 123.075 112.538 122.942C112.631 122.944 112.722 122.95 112.815 122.964C113.153 123.014 113.526 123.122 113.836 123.268C114.64 123.645 115.032 124.351 115.173 125.211C115.326 126.149 115.091 127.119 114.386 127.784C114.044 128.107 113.598 128.318 113.141 128.416C112.637 128.526 112.086 128.323 111.727 128.773C111.655 128.863 111.608 128.985 111.653 129.101C111.793 129.46 112.008 129.592 112.338 129.631C111.885 130.211 111.419 130.773 110.899 131.298C110.337 131.867 109.755 132.42 109.252 133.044C108.72 133.704 108.243 134.4 107.924 135.189C107.741 135.642 107.598 136.107 107.443 136.57L107.415 136.651C107.241 137.143 107.003 137.62 107.317 138.116C107.441 138.311 107.714 138.494 107.958 138.453C108.643 138.339 108.857 137.865 109.047 137.249C109.19 136.784 109.295 136.308 109.45 135.847C109.479 135.761 109.511 135.677 109.545 135.592C109.946 135.689 110.38 135.585 110.726 135.345C111.111 135.499 111.533 135.567 111.939 135.546C112.481 135.516 112.971 135.347 113.387 135.059C113.421 135.049 113.455 135.039 113.488 135.028C114.146 135.253 114.903 135.181 115.476 134.756C115.846 134.481 116.094 134.123 116.227 133.729C116.718 133.702 117.197 133.51 117.537 133.148C117.848 132.815 118.022 132.395 118.062 131.963C118.482 131.864 118.871 131.645 119.169 131.288C119.418 130.991 119.562 130.618 119.602 130.235C120.111 130.069 120.563 129.715 120.8 129.237C121.02 128.791 121.037 128.315 120.905 127.888L120.934 127.844C121.454 127.546 121.842 127.076 121.86 126.424C121.865 126.239 121.838 126.054 121.781 125.881C121.792 125.684 121.774 125.489 121.715 125.301C122.403 124.58 122.621 123.454 122.2 122.546C122.869 121.769 123.01 120.574 122.466 119.701C122.801 119.263 122.962 118.715 122.91 118.138C122.846 117.417 122.493 116.799 122.076 116.229C122.358 115.893 122.498 115.434 122.47 114.997C122.431 114.363 122.074 113.829 121.636 113.392C121.963 112.261 121.507 111.064 120.579 110.39C120.75 110.082 120.804 109.706 120.731 109.331C120.602 108.674 120.091 108.242 119.544 107.905C119.642 107.537 119.599 107.145 119.407 106.775C119.151 106.282 118.692 105.979 118.215 105.727C118.054 104.617 116.776 103.712 115.755 104.325C115.983 103.486 115.206 102.618 114.347 102.555C113.881 101.298 112.406 100.549 111.118 100.913C110.42 100.027 109.171 99.7221 108.135 100.151C106.948 99.3071 105.511 99.2281 104.176 99.7276ZM113.315 124.41C112.503 124.396 111.919 125.081 111.514 125.704C111.133 126.288 112.184 126.851 112.461 126.213C112.561 125.985 112.674 125.744 112.831 125.542C112.86 125.579 112.886 125.619 112.912 125.659L112.937 125.699C112.956 125.729 112.976 125.759 112.993 125.79C112.992 125.796 113.019 125.87 113.02 125.874C113.094 126.074 113.245 126.2 113.446 126.263C113.706 126.343 113.942 126.141 114.016 125.911C114.134 125.543 113.818 125.238 113.495 125.106C113.805 125.044 114.115 125.139 114.349 125.371C114.381 125.403 114.433 125.374 114.433 125.333C114.438 124.762 113.83 124.419 113.315 124.41Z" fill="#191919"/>
<path fill-rule="evenodd" clip-rule="evenodd" d="M98.9736 131.325C98.49 130.59 97.5853 132.467 97.4936 132.787C97.4124 133.071 97.3625 133.36 97.3425 133.652C96.9918 133.744 96.6246 133.758 96.2598 133.702C95.7175 133.618 95.3777 133.34 94.9006 133.108C94.571 132.948 94.171 133.165 94.0134 133.456C93.828 133.799 93.9667 134.143 94.2359 134.384C94.7465 134.841 95.7209 134.914 96.36 134.765C96.7262 134.679 97.0592 134.528 97.3503 134.316C97.3537 134.353 97.3564 134.391 97.3607 134.428L97.3688 134.493C97.4375 135.018 97.6063 135.675 98.0272 136.002C98.7175 136.54 99.5044 135.429 98.8331 134.891L98.8123 134.875C98.3958 134.562 98.2754 133.687 98.2794 133.203C98.2822 132.886 98.3279 132.564 98.4164 132.26L98.4346 132.199C98.4615 132.113 98.7586 131.295 98.8804 131.394L98.8863 131.399C98.9371 131.456 99.0133 131.385 98.9736 131.325ZM95.1767 127.218C94.5748 127.615 93.6687 128.523 94.3651 129.429C95.1747 130.219 96.2628 129.239 96.8003 128.794C97.3012 128.445 97.9084 129.271 97.4467 129.673C93.5584 132.784 91.7384 127.442 94.8492 126.788C95.1917 126.716 95.3338 127.096 95.1767 127.218ZM101.624 123.512C101.018 123.427 100.408 123.599 99.9225 123.97L99.8858 123.999C99.419 124.368 98.9049 125.004 99.2024 125.6C99.3217 125.839 99.654 125.865 99.8599 125.747C100.203 125.551 100.249 125.097 100.552 124.835C100.8 124.621 101.14 124.484 101.471 124.502C102.247 124.544 102.751 125.291 103.016 125.941C103.049 126.024 103.174 126.053 103.219 125.96C103.747 124.879 102.698 123.662 101.624 123.512ZM91.9716 123.464C90.8155 123.411 89.5103 124.658 89.8584 125.865C90.0254 126.445 90.8907 126.396 91.0238 125.823C91.097 125.507 91.0784 125.231 91.2935 124.963C91.4711 124.742 91.73 124.608 92.0138 124.617C92.3267 124.626 92.6203 124.772 92.8471 124.983C93.0519 125.174 93.1807 125.46 93.3917 125.628C93.4437 125.67 93.5112 125.67 93.5593 125.622C93.8996 125.284 93.6633 124.615 93.4276 124.283C93.0902 123.809 92.5574 123.491 91.9716 123.464ZM103.74 121.27C102.976 120.641 101.61 120.057 100.624 120.416C100.058 120.623 99.8419 121.557 100.493 121.827C101.246 122.14 102.095 121.97 102.862 122.294C103.185 122.431 103.489 122.605 103.72 122.868C103.901 123.075 104.088 123.35 104.344 123.464C104.411 123.494 104.501 123.491 104.552 123.429C105.08 122.785 104.236 121.679 103.74 121.27ZM93.1413 120.658C92.6797 120.546 92.1728 120.567 91.7115 120.665C91.2504 120.763 90.7863 120.973 90.4177 121.268L90.3749 121.302C89.9728 121.63 89.4958 122.102 89.5426 122.654C89.5816 123.115 90.0781 123.41 90.4879 123.152C90.8221 122.942 90.9682 122.541 91.2476 122.267C91.4781 122.041 91.7519 121.859 92.0464 121.728C92.3735 121.583 92.7038 121.508 93.0599 121.489C93.3341 121.475 93.6133 121.555 93.8836 121.574C93.8631 121.62 94.0751 121.591 94.1956 121.546C94.2845 121.504 94.2808 121.39 94.2468 121.317C94.078 120.955 93.5045 120.746 93.1413 120.658Z" fill="#191919"/>
<path d="M80.5211 167.021L80.5615 168.123L80.5798 168.622L80.0801 168.641L78.5582 168.696L78.0586 168.715L78.0403 168.215L77.8936 164.213L77.8753 163.713L78.375 163.695L79.8969 163.639L80.3965 163.621L80.4149 164.121L80.4259 164.421L82.5895 164.342L82.9843 164.328L83.0897 164.708L83.5289 166.295L83.6976 166.905L83.0653 166.928L80.5211 167.021Z" fill="#E27C17" stroke="#191919"/>
<path d="M81.5065 172.367L81.5444 173.403L81.5628 173.902L81.0631 173.921L79.4868 173.978L78.9872 173.997L78.9689 173.497L78.8282 169.658L78.8099 169.159L79.3096 169.14L80.8858 169.083L81.3855 169.064L81.4038 169.564L81.4136 169.832L83.6724 169.749L84.06 169.735L84.1701 170.107L84.6205 171.628L84.8034 172.246L84.1593 172.27L81.5065 172.367Z" fill="#E27C17" stroke="#191919"/>
<path d="M82.4933 177.777L82.5325 178.846L82.5508 179.345L82.0511 179.364L80.502 179.42L80.0024 179.439L79.9841 178.939L79.8404 175.019L79.8221 174.519L80.3218 174.501L81.8708 174.444L82.3705 174.426L82.3888 174.925L82.3992 175.21L84.6105 175.129L85.0017 175.114L85.1095 175.491L85.5542 177.045L85.7299 177.659L85.0918 177.682L82.4933 177.777Z" fill="#E27C17" stroke="#191919"/>
<path d="M83.4551 183.221L83.4942 184.29L83.5125 184.789L83.0129 184.808L81.4366 184.865L80.9369 184.884L80.9186 184.384L80.775 180.464L80.7567 179.964L81.2563 179.946L82.8326 179.888L83.3323 179.87L83.3506 180.369L83.361 180.654L85.6198 180.571L86.0094 180.557L86.1182 180.931L86.5697 182.485L86.7487 183.101L86.1079 183.124L83.4551 183.221Z" fill="#E27C17" stroke="#191919"/>
<path d="M78.8565 125.741C80.7191 125.673 85.1601 128.103 87.1477 129.327L86.126 133.253C85.5943 132.884 84.2292 132.389 83.0216 133.367C81.814 134.345 82.3546 136.373 82.7758 137.265C85.4409 146.372 91.3855 166.509 93.8432 174.197C96.9152 183.808 96.6373 197.43 95.975 200.566C95.3128 203.702 90.4817 209.713 83.885 209.954C78.6076 210.148 73.1896 204.383 71.1403 201.476C67.985 196.665 63.6717 188.526 59.2893 185.575C57.4306 184.324 54.5853 184.451 53.4259 184.623L65.2883 169.021C67.429 170.887 68.9556 170.85 73.7503 177.267C77.4278 182.188 81.0444 196.057 84.8963 195.138C88.7483 194.219 84.5443 174.927 84.0425 171.834C83.5406 168.741 74.0396 132.141 74.3423 129.796C74.645 127.451 76.5282 125.827 78.8565 125.741Z" fill="#FF9D27" stroke="#191919"/>
<path d="M85.8167 133.885L85.4159 133.726L85.5149 133.306L86.5288 129.007L86.6569 128.464L87.1827 128.651L95.0947 131.46L95.5909 131.636L95.3892 132.123L93.5955 136.45L93.4068 136.905L92.9488 136.723L85.8167 133.885Z" fill="#E27C17" stroke="#191919"/>
<path d="M94.3813 131.755L94.9295 130.403L95.3259 131.807C95.4687 132.313 95.7213 133.091 96.0112 133.771C96.1565 134.112 96.3055 134.415 96.4481 134.643C96.5193 134.757 96.5831 134.843 96.6374 134.903C96.6857 134.956 96.7131 134.974 96.7177 134.977C96.7185 134.978 96.7185 134.978 96.7179 134.977C96.7729 135.003 96.8985 135.064 96.9912 135.181C97.0458 135.25 97.1187 135.376 97.1088 135.547C97.0987 135.72 97.0092 135.839 96.942 135.903C96.831 136.009 96.6954 136.048 96.6485 136.062C96.5778 136.082 96.5007 136.097 96.428 136.108C96.227 136.14 95.9332 136.164 95.6234 136.191C95.5058 136.2 95.386 136.211 95.268 136.221C94.8152 136.262 94.3577 136.315 93.9981 136.401C93.8176 136.443 93.685 136.49 93.5982 136.534C93.5642 136.551 93.5449 136.565 93.5351 136.572C93.5224 136.601 93.5086 136.631 93.4967 136.653C93.4965 136.653 93.4783 136.689 93.4497 136.727C93.4414 136.738 93.4215 136.763 93.3916 136.791C93.3912 136.791 93.3908 136.792 93.3903 136.792C93.3745 136.807 93.2795 136.896 93.1241 136.919C93.0404 136.925 92.8649 136.889 92.7796 136.845C92.7127 136.793 92.6211 136.68 92.5931 136.626C92.5495 136.527 92.5506 136.439 92.5508 136.42L92.5508 136.419C92.5514 136.367 92.5603 136.326 92.5621 136.318L92.5623 136.317C92.5654 136.303 92.5686 136.291 92.5705 136.284C92.5742 136.271 92.578 136.259 92.5804 136.252C92.5962 136.204 92.6335 136.107 92.6797 135.989C92.777 135.739 92.9401 135.33 93.1333 134.848C93.5199 133.883 94.0297 132.622 94.3813 131.755ZM96.3718 135.101C96.3859 135.097 96.3833 135.096 96.3703 135.101C96.3709 135.101 96.3714 135.101 96.3718 135.101ZM96.2977 135.885C96.3033 135.888 96.3066 135.89 96.3069 135.89C96.3072 135.89 96.3043 135.888 96.2977 135.885Z" fill="#C55B00" stroke="#191919"/>
<path d="M66.1282 165.523C66.9982 166.276 67.1281 167.578 66.4241 168.488L52.8349 186.044C52.1525 186.926 50.8875 187.09 50.0029 186.412C49.1178 185.733 48.9457 184.466 49.6177 183.576L62.9925 165.856C63.7453 164.858 65.1831 164.706 66.1282 165.523Z" fill="#E27C17" stroke="#191919"/>
<path d="M102.328 174.067L102.695 174.233L102.845 174.607C103.401 176 103.478 177.662 103.387 179.097C103.296 180.529 103.029 181.847 102.801 182.658C102.798 182.682 102.794 182.705 102.79 182.726C102.679 182.962 102.345 183.285 102.157 183.371C102.034 183.404 101.833 183.424 101.758 183.42C101.634 183.411 101.54 183.379 101.518 183.372L101.517 183.371C101.457 183.351 101.412 183.329 101.402 183.324L101.401 183.324C101.385 183.316 101.372 183.309 101.365 183.305C101.351 183.298 101.34 183.292 101.336 183.289C101.32 183.28 101.306 183.272 101.304 183.27L100.66 182.873L100.664 182.857C100.542 182.779 100.399 182.687 100.23 182.579C99.8142 182.312 99.2714 182.171 98.676 182.089C98.4174 182.053 98.1718 182.031 97.9298 182.009C97.897 182.006 97.8644 182.003 97.8317 182C97.5891 181.978 97.2847 181.95 97.0377 181.889C97.0402 181.89 97.0395 181.889 97.0352 181.889C97.0192 181.887 96.9531 181.881 96.8192 181.886C96.667 181.892 96.4811 181.911 96.277 181.941C95.8875 181.997 95.486 182.082 95.2275 182.145C94.5489 182.362 93.041 182.468 92.022 181.153C91.2802 180.197 90.5198 179.551 90.1945 179.313C90.1885 179.312 90.1815 179.31 90.1736 179.309C90.0966 179.296 89.986 179.286 89.833 179.282C89.7345 179.279 89.6495 179.278 89.5566 179.277C89.4931 179.277 89.426 179.276 89.3484 179.275C89.1909 179.272 88.9825 179.266 88.7907 179.235C88.376 179.168 88.0808 178.924 87.9162 178.76C87.7347 178.579 87.5904 178.372 87.4843 178.191C87.4767 178.179 87.4693 178.166 87.4619 178.153C87.3531 178.152 87.24 178.146 87.1278 178.137C86.3588 178.08 85.972 177.46 85.8158 177.134C85.6314 176.75 85.5309 176.302 85.4803 175.908C85.4731 175.852 85.4668 175.796 85.4613 175.74C85.4552 175.755 85.449 175.77 85.4427 175.784C85.3677 175.961 85.2197 176.278 84.9612 176.508C84.8206 176.634 84.5446 176.825 84.1546 176.819C83.7408 176.812 83.4514 176.59 83.2907 176.407C83.0217 176.1 82.8996 175.667 82.8227 175.313C82.6778 174.646 82.7012 174.025 82.8223 173.463L82.743 173.395C82.2915 173.007 81.7878 172.119 81.8882 170.905C81.9295 170.405 82.1793 169.836 82.4301 169.358C82.7018 168.84 83.0576 168.277 83.4374 167.75C83.8168 167.223 84.2356 166.709 84.64 166.294C85.0044 165.92 85.4831 165.491 85.9822 165.319L86.3074 166.26L85.9822 165.319C86.2504 165.226 86.5539 165.197 86.8078 165.186C87.0814 165.174 87.3886 165.181 87.7056 165.198C88.3408 165.233 89.0769 165.315 89.7801 165.41C91.1852 165.599 92.5344 165.847 92.8343 165.911C93.1311 165.974 93.3658 166.14 93.4912 166.236C93.6444 166.353 93.7979 166.496 93.9437 166.644C94.2374 166.943 94.5656 167.33 94.8951 167.75C95.5564 168.592 96.2788 169.635 96.8247 170.527C96.9437 170.721 97.2099 171.006 97.6509 171.359C98.0759 171.698 98.6015 172.053 99.169 172.4C100.304 173.092 101.542 173.712 102.328 174.067ZM101.279 183.254C101.279 183.254 101.278 183.253 101.273 183.249C101.277 183.252 101.279 183.254 101.279 183.254ZM84.8614 175.184C84.8614 175.184 84.8607 175.182 84.8591 175.179C84.8606 175.182 84.8614 175.184 84.8614 175.184ZM83.5543 175.099C83.5543 175.099 83.5552 175.098 83.5569 175.095C83.5552 175.098 83.5543 175.099 83.5543 175.099ZM90.2264 179.321C90.2264 179.321 90.2254 179.32 90.2232 179.32C90.2253 179.32 90.2263 179.321 90.2264 179.321Z" fill="#D08B5B" stroke="#191919" stroke-width="2"/>
<rect width="4.97669" height="9.80708" transform="matrix(-0.999329 0.0366164 0.0366164 0.999329 128.698 186.886)" fill="#191919"/>
<path d="M124.361 179.112C124.217 178.757 123.812 171.567 123.627 168.017C123.019 168.333 123.34 175.401 123.577 178.895L113.669 176.969C113.482 177.071 113.145 177.364 113.288 177.718C113.468 178.162 122.764 180.111 123.172 180.096C123.498 180.084 127.596 181.27 129.605 181.864C129.758 181.967 130.017 181.98 129.825 181.202C129.586 180.229 124.54 179.555 124.361 179.112Z" fill="#0D0D0D"/>
<path d="M111.83 185.827C112.32 185.842 121.584 190.227 126.154 192.417C121.396 190.656 111.799 186.982 111.483 186.372C111.087 185.609 111.217 185.809 111.83 185.827Z" fill="#0D0D0D"/>
<path fill-rule="evenodd" clip-rule="evenodd" d="M214.343 195.523C206.809 196.014 199.694 196.511 192.151 196.336C180.079 196.02 144.783 198.68 136.992 198.357C136.404 198.333 134.411 199.06 134.347 198.454C133.851 194.235 132.061 151.434 132.967 148.451C133.874 145.468 138.364 131.125 144.504 124.288C146.218 122.439 148.901 121.649 150.321 119.533C151.528 117.238 151.38 115.922 152.61 114.693C153.144 114.159 154.44 113.903 155.383 113.156C156.32 112.136 155.319 110.005 155.669 108.62C156.367 105.17 159.322 102.865 162.621 102.226C167.191 100.936 172.098 101.817 174.442 105.418C175.314 106.758 174.938 108.439 176.029 110.598C176.018 112.26 177.939 112.591 179.102 113.206L181.45 115.447C188.566 119.178 196.846 121.03 203.149 126.161C208.538 131.324 213.93 137.323 216.499 144.481C217.049 146.438 217.279 148.472 217.551 150.481C218.331 156.354 220.112 162.017 221.675 167.708C223.482 174.884 225.2 182.51 223.39 189.887C222.847 191.455 215.704 195.401 214.343 195.523Z" fill="#D08B5B"/>
<path fill-rule="evenodd" clip-rule="evenodd" d="M176.06 110.581L175.473 110.667L175.642 115.275L168.239 123.699L166.892 125.385C167.842 128.395 167.053 129.946 164.524 130.039C160.731 130.177 163.623 128.95 162.854 127.46L162.822 127.399C162.267 126.38 160.416 124.244 157.271 120.99L153.59 115.229L153.55 114.154L153.435 114.207C153.112 114.357 152.835 114.509 152.65 114.694C151.419 115.923 151.568 117.239 150.361 119.534C148.94 121.65 146.258 122.44 144.543 124.289C138.404 131.126 133.914 145.469 133.007 148.452C132.1 151.435 133.89 194.236 134.387 198.455C134.451 199.061 136.444 198.334 137.032 198.358C144.823 198.681 180.119 196.021 192.191 196.337C199.734 196.513 206.849 196.015 214.382 195.524C215.744 195.402 222.887 191.456 223.429 189.889C225.24 182.511 223.521 174.886 221.714 167.709L221.56 167.15C220.062 161.74 218.402 156.349 217.63 150.771L217.59 150.483C217.319 148.473 217.088 146.439 216.539 144.483C213.97 137.324 208.578 131.326 203.189 126.162C196.948 121.082 188.772 119.217 181.703 115.56L181.489 115.449L179.142 113.208L179.071 113.171C177.902 112.578 176.058 112.228 176.069 110.599L176.06 110.581Z" fill="#D64568"/>
<path fill-rule="evenodd" clip-rule="evenodd" d="M174.863 105.992C174.795 105.794 174.537 105.86 174.524 106.051C174.398 107.946 174.716 109.909 175.021 111.775C175.168 112.676 175.268 113.615 175.473 114.501C175.498 114.595 175.523 114.691 175.546 114.785C175.493 114.89 175.33 115.011 175.253 115.093L174.918 115.449L174.246 116.16C172.932 117.552 171.618 118.945 170.304 120.337L168.374 122.381C167.713 123.082 166.957 123.758 166.383 124.533C166.071 124.954 166.016 125.459 166.353 125.885C166.52 126.096 166.812 126.243 167.102 126.265C166.995 126.43 166.914 126.614 166.866 126.818C166.768 127.233 167.195 127.722 167.623 127.534C168.11 127.324 168.505 126.963 169.002 126.78C169.503 126.593 170.054 126.541 170.583 126.611C170.826 126.644 171.064 126.697 171.298 126.766C168.875 128.009 166.233 128.769 163.518 128.963C162.964 129.003 162.411 129.015 161.859 128.998C160.93 128.97 160.005 128.862 159.093 128.664C158.375 128.509 157.664 128.307 156.972 128.056C156.632 127.933 156.295 127.797 155.968 127.64L155.94 127.624C155.866 127.58 154.499 126.858 154.472 126.743C154.444 126.628 154.443 126.588 154.483 126.485C154.522 126.383 154.641 126.309 154.641 126.309C155.047 126.114 155.47 125.931 155.921 125.912C156.961 125.867 158.123 126.607 159.002 127.107C159.968 127.657 160.862 128.309 161.794 128.909C161.815 128.923 161.839 128.928 161.861 128.928C161.957 128.924 162.042 128.801 161.977 128.709C161.289 127.758 160.38 126.979 159.435 126.304L159.054 126.035C158.188 125.428 157.177 124.757 156.147 124.64C154.885 124.498 153.604 125.341 152.502 125.848L150.549 126.745C150.201 126.905 149.821 127.044 149.472 127.223L150.206 124.551C150.572 123.214 150.938 121.878 151.3 120.54L151.37 120.278C151.729 118.921 152.053 117.511 152.688 116.26C152.84 115.96 153.016 115.676 153.189 115.39C153.369 115.094 153.429 114.772 153.66 114.506C154.116 113.976 154.786 113.651 155.429 113.431C155.587 113.377 155.532 113.166 155.382 113.156C154.712 113.109 154.082 113.29 153.489 113.598L153.243 113.729C152.683 114.024 152.136 114.299 151.731 114.807C150.807 115.966 150.357 117.4 149.948 118.813L149.838 119.193C149.664 119.141 148.506 119.547 148.362 119.639C144.041 121.686 140.788 125.322 138.465 129.528C135.921 134.137 134.635 139.344 133.604 144.487C133.285 146.075 132.984 147.666 132.696 149.261C134.257 149.806 135.904 150.061 137.375 150.856C137.936 151.159 137.472 152.043 136.91 151.739C135.532 150.995 133.984 150.758 132.52 150.253C131.871 153.944 131.309 157.652 130.862 161.372C129.486 172.787 128.776 184.363 129.269 195.865C129.28 196.119 129.364 196.401 129.51 196.64C129.428 196.603 129.364 196.557 129.326 196.501C128.845 195.793 127.73 196.507 128.214 197.219L128.285 197.322C128.647 197.847 128.982 198.245 129.596 198.527C130.215 198.81 130.874 198.837 131.545 198.83C133.824 198.808 136.104 198.764 138.385 198.709C138.607 196.219 138.642 193.713 138.983 191.234C139.07 190.596 140.03 190.83 139.942 191.465C139.614 193.859 139.569 196.279 139.366 198.685C144.242 198.56 149.118 198.382 153.988 198.217C160.588 197.995 167.186 197.739 173.785 197.494L176.613 197.389C184.236 197.11 191.859 196.805 199.48 196.475L201.293 196.395C201.856 192.048 202.187 187.673 202.035 183.282C202.013 182.637 202.998 182.6 203.021 183.246C203.172 187.632 202.846 192.008 202.29 196.353C204.095 196.279 205.899 196.22 207.707 196.219L208.627 196.218C210.467 196.215 212.311 196.187 214.14 195.97C216.171 195.729 218.217 195.273 220.008 194.231C220.814 193.761 221.518 193.172 222.113 192.489C221.47 192.14 220.819 191.806 220.194 191.423C219.653 191.091 220.114 190.206 220.66 190.541C221.333 190.953 222.037 191.308 222.728 191.688C223.193 191.006 223.568 190.254 223.844 189.447C224.28 188.174 224.416 186.817 224.529 185.482C224.662 183.909 224.684 182.328 224.626 180.751C224.504 177.434 224.039 174.14 223.44 170.881C222.867 167.759 222.147 164.667 221.393 161.586L221.29 161.166C220.546 158.138 219.832 155.1 218.997 152.096C218.225 149.319 217.349 146.559 216.326 143.857C215.524 144.403 214.682 144.886 213.893 145.453C213.374 145.826 212.848 144.978 213.364 144.607C214.206 144.002 215.108 143.492 215.957 142.899C214.819 140.009 213.503 137.193 211.952 134.507C208.844 129.127 204.748 124.363 199.599 120.925C197.022 119.205 194.212 117.822 191.28 116.849C188.29 115.856 185.211 115.365 182.076 115.232C181.987 115.228 181.94 115.314 181.946 115.391L181.948 115.405L181.826 115.43C181.769 115.118 181.664 114.817 181.475 114.544C181.045 113.923 180.26 113.544 179.629 113.176L179.48 113.089C178.731 112.654 177.941 112.228 177.083 112.097C177.053 112.093 177.036 112.125 177.056 112.148C177.642 112.782 178.379 113.256 179.058 113.786L179.214 113.909C179.776 114.345 180.557 114.835 180.605 115.598C180.661 116.495 180.514 117.437 180.482 118.336C180.449 119.232 180.437 120.126 180.446 121.023C180.479 124.236 180.698 127.444 181.095 130.632L179.828 129.836C177.856 128.597 175.878 127.363 173.862 126.209C172.643 125.511 171.279 124.925 169.852 125.007C169.452 125.029 169.002 125.104 168.573 125.245C169.023 124.779 169.453 124.284 169.893 123.816C170.619 123.043 171.344 122.271 172.069 121.5L174.16 119.273L176.252 117.045C176.9 116.354 177.665 115.71 177.555 114.662C177.467 113.825 177.016 113.006 176.7 112.208C176.655 112.093 176.614 111.979 176.575 111.866C175.924 109.933 175.521 107.918 174.863 105.992ZM149.894 190.902C150.326 190.429 151.049 191.111 150.617 191.584L150.388 191.833C150.006 192.25 149.628 192.679 149.372 193.186L149.335 193.262C149.06 193.843 148.191 193.369 148.466 192.788C148.805 192.07 149.366 191.48 149.894 190.902ZM169.118 190.068C170.537 189.739 171.914 189.688 173.353 189.913C173.979 190.011 173.751 190.986 173.126 190.888C171.868 190.692 170.656 190.736 169.416 191.024C168.8 191.167 168.5 190.212 169.118 190.068ZM188.044 179.268C188.653 179.088 188.95 180.043 188.341 180.224L188.041 180.313C187.021 180.609 186.047 180.838 184.968 180.637C184.353 180.522 184.565 179.571 185.171 179.658L185.195 179.662C186.193 179.847 187.095 179.55 188.044 179.268ZM153.538 174.02C153.976 173.554 154.7 174.236 154.26 174.703C153.712 175.285 153.058 175.737 152.247 175.79C151.622 175.83 151.578 174.859 152.182 174.791L152.21 174.788C152.754 174.753 153.175 174.406 153.538 174.02ZM211.425 169.221C210.847 168.954 211.314 168.072 211.891 168.339L215.359 169.944C215.937 170.212 215.47 171.094 214.893 170.827L211.425 169.221ZM144.149 171.907C144.782 171.866 144.818 172.867 144.185 172.909C143.59 172.948 142.988 173.199 142.466 173.481C141.909 173.782 141.377 172.937 141.937 172.634C142.619 172.266 143.371 171.958 144.149 171.907ZM175.787 165.907C175.252 165.566 175.713 164.68 176.252 165.024C176.989 165.494 177.661 166.056 178.387 166.541L178.586 166.672C179.12 167.012 178.66 167.898 178.12 167.554C177.317 167.042 176.59 166.419 175.787 165.907ZM138.881 159.973C139.515 159.949 139.553 160.95 138.918 160.974L138.797 160.978C138.274 160.994 137.722 161 137.243 161.23L137.188 161.258C136.628 161.552 136.095 160.707 136.659 160.411C137.36 160.044 138.106 160.001 138.881 159.973ZM193.571 157.252L193.487 157.224C192.887 157.029 193.107 156.052 193.714 156.249C194.628 156.545 195.353 157.142 196.156 157.654C196.691 157.995 196.23 158.881 195.69 158.537C194.999 158.096 194.349 157.529 193.571 157.252ZM156.52 156.002L156.385 155.934C155.81 155.66 156.276 154.777 156.85 155.051C157.306 155.269 157.717 155.565 158.165 155.797L158.301 155.864C158.875 156.139 158.409 157.021 157.835 156.747C157.379 156.53 156.968 156.233 156.52 156.002ZM171.153 145.754L171.251 145.651C171.688 145.183 172.411 145.865 171.974 146.333C170.881 147.502 169.572 148.408 168.25 149.285L168.01 149.444C167.477 149.797 166.949 148.949 167.481 148.598L167.834 148.364C169.009 147.583 170.169 146.779 171.153 145.754ZM198.384 143.82C197.983 143.33 198.796 142.806 199.202 143.267L199.216 143.284C199.633 143.794 200.122 144.251 200.631 144.667L200.727 144.744C201.03 144.987 201.584 145.512 201.998 145.532C202.627 145.563 202.669 146.565 202.035 146.534C201.394 146.502 200.828 146.065 200.332 145.692C199.609 145.149 198.958 144.523 198.384 143.82ZM145.833 142.093C145.359 141.673 146.01 140.953 146.487 141.345L146.504 141.36C147.389 142.145 148.628 142.319 149.739 142.556C150.36 142.688 150.135 143.664 149.513 143.531L149.006 143.424C147.87 143.179 146.729 142.888 145.833 142.093ZM165.114 135.063C165.723 134.881 166.021 135.837 165.411 136.018C164.376 136.327 163.399 136.712 162.448 137.232C161.892 137.536 161.36 136.691 161.919 136.385C162.942 135.826 163.999 135.394 165.114 135.063ZM154.276 114.324C154.289 114.278 154.24 114.229 154.195 114.247C153.105 114.706 153.747 116.156 154.122 117.025L154.191 117.183C154.781 118.575 155.583 119.922 156.45 121.156C157.357 122.448 158.356 123.679 159.432 124.831C159.899 125.33 160.381 125.815 160.879 126.284L161.067 126.459C161.569 126.925 162.226 127.754 162.975 127.632C163.782 127.504 164.202 126.607 163.586 125.961C163.151 125.503 162.559 125.147 162.076 124.734C161.598 124.325 161.133 123.902 160.68 123.466C159.751 122.572 158.868 121.623 158.056 120.619C157.27 119.648 156.515 118.648 155.824 117.605L155.687 117.395C155.16 116.584 153.97 115.406 154.276 114.324ZM193.834 123.377C194.345 122.993 194.87 123.842 194.363 124.223C193.429 124.924 192.616 125.76 191.599 126.346C191.055 126.659 190.53 125.837 191.051 125.511L191.07 125.499C192.086 124.914 192.901 124.077 193.834 123.377Z" fill="#0D0D0D"/>
<path fill-rule="evenodd" clip-rule="evenodd" d="M163.794 60.4314C156.816 60.6871 149.8 66.4601 147.371 70.069C144.562 74.242 142.944 93.8396 144.281 100.42C145.618 107.001 151.319 114.018 160.757 113.672C170.196 113.327 175.896 111.932 176.063 110.204C176.231 108.476 181.875 98.6841 181.875 98.6841C181.875 98.6841 187.942 96.7031 187.812 92.507C187.682 88.3109 184.317 86.9058 184.317 86.9058C184.317 86.9058 184.89 70.3065 181.761 66.1049C178.631 61.9034 170.772 60.1757 163.794 60.4314Z" fill="#D08B5B"/>
<path fill-rule="evenodd" clip-rule="evenodd" d="M159.423 52.1859C158.317 51.9799 157.933 53.7251 159.024 53.8774C159.771 53.9816 160.52 54.1196 161.261 54.2926C160.961 54.2854 160.664 54.33 160.379 54.4412L160.207 54.3868C157.812 53.6399 155.224 53.1048 152.762 53.8368C150.778 55.4081 155.791 55.4537 156.605 55.622C153.918 55.8866 151.099 55.3684 148.519 56.4537C147.53 56.8978 147.987 58.4564 149.747 57.665C149.71 57.7999 149.705 57.9401 149.727 58.0715C148.92 58.1827 148.089 58.4387 147.37 58.9413C141.867 59.0046 140.052 63.6344 144.623 61.8894C144.501 61.9995 144.404 62.1193 144.33 62.2438L144.258 62.2518C143.035 62.3974 139.822 63.2349 140.049 64.7228C139.206 64.9428 138.292 65.2951 137.668 65.8354C136.97 66.4401 137.796 67.5307 138.582 67.2857C138.82 67.2114 139.04 67.0986 139.256 66.9755C139.346 67.068 139.46 67.1593 139.604 67.2481C138.261 68.4408 136.462 69.4673 135.806 71.2151C135.692 71.6337 135.991 72.1184 136.415 72.2046C137.887 72.5043 139.042 71.3196 140 70.197C139.807 70.8033 139.686 71.3888 139.666 71.9024C138.922 72.3434 137.983 73.1901 137.374 74.1363C136.332 74.7877 135.045 75.8414 135.059 77.0886C135.069 77.9954 135.954 78.4626 136.748 78.2843L136.774 78.2771C136.418 78.9604 136.255 79.6919 136.157 80.4967L136.081 80.5485C135.344 81.0529 134.61 81.6633 134.623 82.6078C134.632 83.3305 135.357 83.7595 136.007 83.5877C136.1 83.5632 136.186 83.5303 136.267 83.4913C136.265 83.5157 136.263 83.54 136.262 83.5644C136.004 83.7794 135.748 83.9967 135.5 84.2233L135.296 84.4107C134.447 85.1988 133.648 86.0816 133.95 87.3447C134.054 87.7771 134.496 87.9876 134.895 88.0131C134.984 88.0188 135.069 88.0163 135.152 88.0104L135.122 88.1019C134.626 89.6147 134.363 92.0103 136.126 91.7401C135.938 94.1862 137.401 94.4955 138.346 93.2354C137.231 94.6916 135.433 103.714 139.088 101.988C139.325 103.981 139.76 105.993 140.725 107.768L140.753 107.827C141.248 108.823 143.378 111.754 143.949 109.531C143.381 106.82 141.95 104.281 141.632 101.493C141.893 101.442 142.108 101.175 142.195 100.887C142.53 102.309 143.225 103.567 144.157 104.67C144.312 105.047 144.484 105.418 144.674 105.785C145.278 106.953 146.041 108.028 146.905 109.01C147.367 109.536 147.856 110.046 148.448 110.421C148.919 110.72 149.464 110.908 149.989 111.089C150.862 111.915 151.966 112.522 153.041 113C154.812 113.786 156.716 114.187 158.633 114.352C160.593 114.52 162.562 114.39 164.485 113.977C166.323 113.584 168.275 112.679 169.356 111.052C169.449 110.912 169.262 110.789 169.143 110.85C165.894 112.529 162.194 113.072 158.573 112.712C156.883 112.545 155.212 112.133 153.65 111.454C152.332 110.882 151.206 110.021 150.014 109.247C149.776 108.949 149.537 108.656 149.266 108.385L148.843 107.966C148.527 107.651 148.217 107.331 147.932 106.984C147.054 105.914 146.314 104.692 145.807 103.396C144.822 100.873 144.961 98.0897 145.021 95.4205L145.026 95.1853C145.076 92.7154 145.203 90.2502 145.406 87.7897C145.614 87.7124 145.812 87.585 145.972 87.4312C146.475 83.2418 148.21 78.9162 151.301 75.9896C149.527 78.709 148.576 81.7618 148.476 85.0507C148.459 85.6221 149.226 85.5876 149.389 85.1409C150.993 80.3447 151.711 75.2079 157.08 73.1587C159.347 76.0468 160.423 79.6148 162.355 82.6892C162.842 83.4039 163.83 83.0167 163.876 82.2155C164.005 79.9562 163.033 77.754 161.856 75.8248L162.795 76.8873C170.029 85.0867 170.642 86.3284 170.372 99.3049C170.464 99.9503 171.296 100.228 171.649 99.602C173.609 95.4224 172.519 90.4162 171.756 86.0542C171.988 86.4805 172.211 86.9083 172.428 87.343C172.548 86.8894 172.806 87.3792 172.773 88.0463C173.17 88.8732 173.547 89.7253 173.891 90.5955C173.975 93.4029 173.156 96.12 173.256 98.9224C173.223 99.7072 174.268 99.7902 174.621 99.2401C174.922 98.7705 175.202 98.3182 175.442 97.8426C175.448 99.0145 175.022 100.071 174.743 101.178C174.54 101.577 174.455 101.987 174.613 102.422L174.629 102.465C174.889 103.178 175.751 103.301 176.272 102.787C176.277 103.244 176.333 103.703 176.486 104.129C175.938 104.903 175.438 105.702 175.077 106.582C174.872 107.127 175.192 107.564 175.641 107.765C175.307 108.715 175.191 109.688 175.546 110.603C175.652 110.879 176.056 110.964 176.202 110.665C176.679 109.683 176.926 108.611 177.377 107.618C177.46 107.435 177.548 107.254 177.639 107.075C178.168 106.583 178.591 105.995 178.99 105.375C180.564 107.125 181.849 103.203 182.076 102.016L182.192 101.898C182.002 104.701 180.46 107.315 180.536 110.119C180.616 110.701 181.265 111.216 181.83 110.802C183.783 109.2 184.11 106.419 184.582 104.078C184.671 104.119 184.768 104.144 184.866 104.155C185.029 105.721 181.619 110.929 184.533 110.83C187.697 109.055 187.157 104.29 187.477 101.177C187.708 102.092 187.589 103.614 188.274 104.259C185.725 111.292 190.359 108.909 191.332 103.679C191.481 103.884 191.658 104.068 191.871 104.223C192.307 104.542 192.867 104.51 193.16 104.009C193.763 102.976 193.492 101.786 193.183 100.684C195.629 99.4984 196.603 96.9272 196.694 94.2351C196.761 94.3277 196.833 94.419 196.914 94.508C197.224 94.8494 197.82 94.7019 198.02 94.3236C198.602 93.2178 198.249 91.8502 197.684 90.7031C197.847 90.6262 197.991 90.5124 198.084 90.366C198.883 88.9113 199.087 87.2939 198.939 85.6643C199.059 85.7763 199.187 85.8807 199.33 85.9733C199.762 86.2528 200.285 85.9123 200.413 85.4842C200.829 84.0991 199.728 82.7548 198.809 81.8606C198.486 81.5461 198.12 81.248 197.724 80.9987C197.521 80.4912 197.305 79.9985 197.084 79.5272C197.359 78.9103 197.504 78.2533 197.547 77.5778C197.814 77.9839 198.141 78.3423 198.605 78.6057C199.036 78.8505 199.507 78.4892 199.518 78.0346C199.55 76.6629 198.436 75.4974 197.599 74.5115L197.515 74.4095C197.367 74.227 197.134 73.9337 196.871 73.6614C196.826 73.5395 196.779 73.4182 196.731 73.2979C197.364 73.6132 198.312 73.3307 198.226 72.4572C197.998 69.6234 194.986 68.3559 194.035 65.8787C198.531 69.6487 197.882 64.6177 194.749 62.7666C194.496 62.569 194.236 62.384 193.973 62.2053C194.314 61.9702 194.404 61.4705 194.069 61.1237C193.138 60.1599 191.771 60.0037 190.493 59.9415C190.036 59.9192 189.59 59.9312 189.143 59.9832L189.021 59.9984L188.986 59.9897C188.677 59.6472 188.333 59.3351 188.005 59.0681C190.398 58.5165 187.983 55.05 182.525 56.5442C182.218 56.4003 181.902 56.2733 181.583 56.1589C182.404 56.0889 183.22 55.9835 184.027 55.7858C184.746 55.6095 184.827 54.5035 184.176 54.191C181.572 52.9982 178.634 53.4239 175.919 54.171C175.981 54.0411 176.007 53.8983 176.003 53.7524C176.907 53.6306 176.936 52.2201 175.889 52.1775C174.131 52.106 172.467 52.5109 170.943 53.2504C170.744 53.2342 170.544 53.2267 170.343 53.2274C169.938 50.135 166 52.8563 165.168 54.3823C163.371 53.3361 161.468 52.558 159.423 52.1859Z" fill="#0D0D0D"/>
<path fill-rule="evenodd" clip-rule="evenodd" d="M157.517 104.735C158.333 104.362 159.05 103.762 159.564 103.011C159.742 102.75 159.781 102.48 159.733 102.235C159.678 101.961 159.508 101.717 159.283 101.557C159.057 101.396 158.779 101.323 158.514 101.375C158.285 101.421 158.059 101.558 157.887 101.831L157.851 101.886C157.546 102.339 157.141 102.717 156.673 102.967C156.221 103.209 155.711 103.333 155.177 103.292C154.16 103.212 153.442 102.681 152.672 101.953C152.577 101.861 152.481 101.765 152.385 101.669C152.323 101.58 152.24 101.525 152.149 101.498C152.048 101.467 151.935 101.474 151.833 101.514C151.734 101.553 151.647 101.623 151.591 101.715C151.537 101.802 151.509 101.908 151.523 102.028C151.62 102.809 152.049 103.493 152.641 104.021C153.299 104.608 154.158 104.999 154.956 105.118C155.837 105.249 156.723 105.099 157.517 104.735ZM154.091 92.7592C153.182 93.3678 151.814 94.7593 152.866 96.1469C154.09 97.3595 155.733 95.8575 156.545 95.1757C157.301 94.6427 158.219 95.9088 157.522 96.5244C151.651 101.288 148.897 93.0999 153.596 92.101C154.113 91.9909 154.328 92.5725 154.091 92.7592ZM164.717 87.0784C164.566 85.7859 162.613 85.5628 162.467 86.8525C162.336 88.0078 162.578 89.0558 163.125 90.0716C163.648 91.0421 164.854 90.5362 164.914 89.6329C164.994 88.4221 164.81 87.8823 164.717 87.0784ZM149.909 87.0463C149.625 86.6958 149.225 86.464 148.761 86.6203C147.314 87.1086 147.822 89.2046 148.374 90.2137C148.674 90.7617 149.582 90.8702 149.972 90.3637C150.608 89.5378 150.867 87.9255 149.993 87.1669C149.969 87.127 149.942 87.0867 149.909 87.0463ZM162.831 81.4681L162.598 81.4354C161.878 81.3359 160.984 81.2477 160.5 81.8507C160.243 82.1704 160.172 82.7498 160.543 83.0332C161.197 83.5318 161.891 83.3039 162.653 83.3202C163.281 83.3338 163.887 83.4171 164.497 83.5703C165.835 83.9064 166.94 84.5691 168.099 85.2986C168.251 85.3943 168.396 85.1959 168.32 85.0574C167.619 83.7818 166.315 82.7607 165.024 82.1564C164.335 81.8338 163.584 81.5728 162.831 81.4681ZM151.035 81.3174L150.859 81.3607C148.949 81.8403 146.476 82.7492 145.635 84.705C145.61 84.9782 145.649 85.0351 145.68 85.072L145.691 85.0843C145.716 85.1159 145.738 85.16 145.855 85.1928C145.887 85.1838 145.919 85.1744 145.952 85.1644C146.366 85.0378 146.691 84.8723 147.005 84.7014L147.346 84.5148C147.741 84.2994 148.14 84.0911 148.566 83.9325C149.474 83.5942 150.411 83.345 151.367 83.1952C151.574 83.1628 151.772 83.0841 151.925 82.956C152.071 82.8344 152.18 82.6695 152.224 82.4539C152.282 82.1749 152.255 81.9663 152.1 81.7223C151.983 81.539 151.821 81.4149 151.638 81.3469C151.451 81.2777 151.242 81.2674 151.035 81.3174Z" fill="#191919"/>
<path fill-rule="evenodd" clip-rule="evenodd" d="M165.535 105.227C164.451 102.889 162.21 101.224 159.681 100.678C157.824 100.279 155.894 100.364 154.025 100.618C153.046 100.751 151.995 100.869 151.082 101.273C150.303 101.619 149.68 102.242 149.221 102.963C148.675 103.817 148.318 104.785 148.078 105.772C148.044 105.912 148.012 106.054 147.983 106.196C148.13 106.929 148.407 107.547 149.096 107.986C149.769 108.415 150.558 108.571 151.34 108.608C151.416 108.568 151.488 108.527 151.554 108.485C152.744 107.734 153.538 106.031 155.081 106.201C156.457 106.353 157.423 108.07 158.275 109.067C160.9 109.281 163.482 108.387 165.553 106.79C165.642 106.267 165.629 105.742 165.535 105.227ZM146.129 104.135C146.316 103.531 146.558 102.944 146.851 102.388C147.817 100.551 149.348 99.0597 151.199 98.1713C155.576 96.0725 161.383 97.2262 165.092 100.269C166.359 101.31 167.658 102.859 168.096 104.561C168.209 104.579 168.317 104.635 168.407 104.715C170.942 102.959 173.556 101.263 175.563 98.8845C177.021 97.1562 178.005 95.1379 178.572 92.939C178.619 92.758 178.904 92.7738 178.902 92.9722C178.902 93.0186 178.901 93.065 178.9 93.1114C178.924 93.0252 179.054 93.0644 179.066 93.1467C179.511 95.7764 180.049 98.562 179.746 101.233C179.564 102.827 178.898 104.013 177.997 105.301C177.031 106.681 175.928 107.972 174.798 109.213C174.08 110.001 173.334 110.906 172.442 111.497C171.404 112.184 170.218 112.721 169.103 113.262C167.97 113.814 166.817 114.328 165.64 114.78C163.288 115.687 160.847 116.344 158.35 116.684C156.351 116.955 154.067 117.255 152.116 116.558C150.621 116.024 149.393 115.006 148.403 113.762C147.325 112.408 146.455 110.852 145.945 109.196C145.415 107.477 146.041 104.418 146.129 104.135Z" fill="#0D0D0D"/>
<path fill-rule="evenodd" clip-rule="evenodd" d="M143.747 94.26C144.618 95.3617 146.169 95.666 147.582 95.4895C150.629 95.0783 151.462 91.5134 151.462 88.7663C149.433 89.4277 151.505 85.1941 144.478 84.9944C141.999 84.8757 142.736 86.3674 141.685 87.5156C141.793 89.8405 142.266 92.3537 143.747 94.26ZM158.215 91.0539C160.336 99.5804 170.148 97.1742 170.902 89.3905C169.918 88.7378 170.108 87.0299 168.895 86.4582C166.961 85.3013 164.603 85.4402 162.46 85.5476C159.726 85.8394 158.987 87.0219 157.625 88.3323C157.724 89.1707 157.956 90.16 158.215 91.0539ZM139.441 83.754C139.541 83.7331 139.642 83.7133 139.743 83.6944C139.821 83.6458 139.912 83.6072 140.02 83.5821C140.264 83.5094 140.508 83.4574 140.752 83.4253C144.236 82.4929 152.408 83.3361 152.855 86.3713C153.988 86.7099 154.943 86.3345 156.242 86.3207C157.075 82.091 174.164 82.0576 175.078 84.5557C175.081 84.5547 175.084 84.5539 175.087 84.5528C175.867 84.2758 177.032 84.293 177.933 84.2206C179.859 84.109 181.795 84.2128 183.696 84.5569C187.248 84.9979 192.093 85.489 189.801 90.0607C189.8 90.0615 189.8 90.0624 189.799 90.0632L189.799 90.0628C189.392 90.5193 188.66 90.1905 188.612 89.5946C189.36 87.4411 187.485 87.2545 186.028 86.6969C182.41 85.5241 178.768 85.4765 175.089 86.0151C174.824 86.3577 174.413 86.6631 173.973 86.8311C171.519 87.3381 172.888 89.1518 171.338 89.4797C171.862 95.9578 164.24 99.7836 159.592 95.6828C157.734 93.9667 157.21 91.3429 156.707 88.9789C156.485 88.9368 156.341 88.8198 156.253 88.6611C155.705 88.144 155.355 87.6608 154.304 87.5518C153.253 87.4429 152.459 87.7679 152.353 87.8624C152.328 87.9196 152.3 87.977 152.268 88.0345C152.224 88.1203 152.161 88.1896 152.089 88.245C153.358 94.6685 148.572 98.9356 143.467 95.767C141.226 93.7765 140.652 90.6245 140.458 87.7994C140.158 87.6302 139.959 87.2882 140.045 86.8459C140.163 86.2362 139.815 85.7248 139.283 85.4812C138.591 85.1647 138.665 83.9139 139.441 83.754Z" fill="#191919"/>
<g clip-path="url(#clip1_1534_40772)">
<mask id="path-36-outside-1_1534_40772" maskUnits="userSpaceOnUse" x="114.057" y="137.224" width="71.5535" height="73.4789" fill="black">
<rect fill="white" x="114.057" y="137.224" width="71.5535" height="73.4789"/>
<path d="M167.031 149.154L168.779 150.781L169.168 151.143C169.168 151.143 169.175 151.331 168.987 151.338C167.744 153.263 165.981 156.334 166.493 160.075C167.005 163.815 168.038 166.408 169.794 168.224C171.153 169.49 172.673 169.998 173.991 170.137C173.804 170.144 173.624 170.339 173.436 170.346C170.112 171.783 165.683 173.825 164.19 179.142C163.696 181.04 163.404 183.306 163.112 185.572C162.527 190.104 161.776 195.207 159.249 197.931C155.639 201.822 151.204 203.676 146.118 203.111C141.218 202.538 135.681 199.922 131.012 195.394C126.156 190.873 123.153 185.721 122.225 180.868C121.289 175.827 122.811 171.261 126.421 167.37C128.948 164.646 132.647 163.194 138.629 162.599C149.657 161.443 152.039 154.778 153.574 150.587C154.762 147.16 155.096 146.02 158.462 145.709C161.626 145.029 164.117 146.441 167.031 149.154ZM169.731 146.048C166.623 143.154 162.96 140.469 157.547 141.231C145.027 142.63 153.794 156.593 137.909 158.303C132.114 158.891 126.916 160.397 123.125 164.483C113.372 174.802 117.059 188.387 127.93 198.326C138.808 208.453 152.604 211.143 162.163 200.643C167.036 195.39 166.693 186.005 168.166 180.124C170.146 172.722 182.04 174.729 181.182 166.679C181.155 165.928 180.947 165.372 180.565 165.198C179.011 163.751 175.019 167.468 172.494 165.117C171.523 164.213 170.899 162.545 170.414 159.555C169.874 155.064 175.372 151.479 173.235 149.49C172.069 148.405 170.904 147.32 169.731 146.048Z"/>
</mask>
<path d="M167.031 149.154L168.779 150.781L169.168 151.143C169.168 151.143 169.175 151.331 168.987 151.338C167.744 153.263 165.981 156.334 166.493 160.075C167.005 163.815 168.038 166.408 169.794 168.224C171.153 169.49 172.673 169.998 173.991 170.137C173.804 170.144 173.624 170.339 173.436 170.346C170.112 171.783 165.683 173.825 164.19 179.142C163.696 181.04 163.404 183.306 163.112 185.572C162.527 190.104 161.776 195.207 159.249 197.931C155.639 201.822 151.204 203.676 146.118 203.111C141.218 202.538 135.681 199.922 131.012 195.394C126.156 190.873 123.153 185.721 122.225 180.868C121.289 175.827 122.811 171.261 126.421 167.37C128.948 164.646 132.647 163.194 138.629 162.599C149.657 161.443 152.039 154.778 153.574 150.587C154.762 147.16 155.096 146.02 158.462 145.709C161.626 145.029 164.117 146.441 167.031 149.154ZM169.731 146.048C166.623 143.154 162.96 140.469 157.547 141.231C145.027 142.63 153.794 156.593 137.909 158.303C132.114 158.891 126.916 160.397 123.125 164.483C113.372 174.802 117.059 188.387 127.93 198.326C138.808 208.453 152.604 211.143 162.163 200.643C167.036 195.39 166.693 186.005 168.166 180.124C170.146 172.722 182.04 174.729 181.182 166.679C181.155 165.928 180.947 165.372 180.565 165.198C179.011 163.751 175.019 167.468 172.494 165.117C171.523 164.213 170.899 162.545 170.414 159.555C169.874 155.064 175.372 151.479 173.235 149.49C172.069 148.405 170.904 147.32 169.731 146.048Z" fill="#E27C17"/>
<path d="M169.168 151.143L171.166 151.07L171.136 150.243L170.53 149.679L169.168 151.143ZM168.987 151.338L168.914 149.339L167.872 149.377L167.307 150.253L168.987 151.338ZM169.794 168.224L168.356 169.614L168.392 169.652L168.431 169.688L169.794 168.224ZM173.991 170.137L174.065 172.136L174.202 168.148L173.991 170.137ZM173.436 170.346L173.363 168.347L172.987 168.361L172.642 168.51L173.436 170.346ZM164.19 179.142L162.264 178.601L162.259 178.62L162.254 178.639L164.19 179.142ZM146.118 203.111L145.886 205.097L145.897 205.098L146.118 203.111ZM131.012 195.394L132.405 193.958L132.39 193.944L132.375 193.93L131.012 195.394ZM122.225 180.868L120.258 181.233L120.26 181.244L122.225 180.868ZM138.629 162.599L138.827 164.589L138.838 164.588L138.629 162.599ZM153.574 150.587L155.452 151.274L155.458 151.258L155.464 151.242L153.574 150.587ZM158.462 145.709L158.646 147.7L158.765 147.689L158.882 147.664L158.462 145.709ZM157.547 141.231L157.769 143.219L157.797 143.216L157.826 143.212L157.547 141.231ZM137.909 158.303L138.111 160.293L138.123 160.291L137.909 158.303ZM123.125 164.483L124.579 165.857L124.585 165.85L124.592 165.843L123.125 164.483ZM127.93 198.326L129.293 196.862L129.286 196.856L129.28 196.85L127.93 198.326ZM162.163 200.643L160.697 199.283L160.69 199.29L160.684 199.297L162.163 200.643ZM168.166 180.124L166.234 179.607L166.23 179.623L166.226 179.638L168.166 180.124ZM181.182 166.679L179.183 166.752L179.186 166.821L179.193 166.891L181.182 166.679ZM180.565 165.198L179.202 166.662L179.44 166.883L179.735 167.017L180.565 165.198ZM170.414 159.555L168.428 159.794L168.433 159.835L168.44 159.875L170.414 159.555ZM165.668 150.618L167.416 152.245L170.142 149.317L168.394 147.69L165.668 150.618ZM167.416 152.245L167.805 152.607L170.53 149.679L170.142 149.317L167.416 152.245ZM169.168 151.143C167.169 151.216 167.169 151.215 167.169 151.214C167.169 151.214 167.169 151.213 167.169 151.212C167.169 151.211 167.169 151.21 167.169 151.208C167.169 151.206 167.169 151.203 167.169 151.2C167.168 151.195 167.168 151.19 167.168 151.185C167.168 151.174 167.168 151.163 167.168 151.152C167.168 151.13 167.168 151.106 167.169 151.082C167.17 151.034 167.174 150.978 167.182 150.917C167.197 150.803 167.232 150.62 167.327 150.411C167.425 150.193 167.607 149.912 167.924 149.683C168.253 149.445 168.61 149.35 168.914 149.339L169.06 153.336C169.458 153.322 169.885 153.201 170.265 152.926C170.634 152.66 170.848 152.33 170.969 152.065C171.085 151.808 171.13 151.577 171.149 151.428C171.16 151.349 171.164 151.278 171.166 151.22C171.167 151.191 171.168 151.163 171.168 151.138C171.168 151.126 171.168 151.114 171.167 151.102C171.167 151.097 171.167 151.091 171.167 151.086C171.167 151.083 171.167 151.08 171.167 151.078C171.167 151.076 171.167 151.075 171.166 151.074C171.166 151.073 171.166 151.072 171.166 151.072C171.166 151.071 171.166 151.07 169.168 151.143ZM167.307 150.253C166.035 152.223 163.894 155.836 164.511 160.346L168.474 159.803C168.068 156.833 169.454 154.302 170.667 152.422L167.307 150.253ZM164.511 160.346C165.052 164.296 166.185 167.369 168.356 169.614L171.231 166.833C169.892 165.448 168.958 163.334 168.474 159.803L164.511 160.346ZM168.431 169.688C170.161 171.298 172.11 171.949 173.781 172.126L174.202 168.148C173.236 168.046 172.146 167.681 171.156 166.76L168.431 169.688ZM173.918 168.139C173.543 168.152 173.249 168.256 173.081 168.327C172.92 168.394 172.781 168.472 172.753 168.487C172.689 168.523 172.736 168.494 172.804 168.466C172.881 168.434 173.082 168.357 173.363 168.347L173.509 172.344C173.884 172.331 174.178 172.227 174.347 172.156C174.507 172.089 174.647 172.011 174.674 171.996C174.739 171.96 174.691 171.989 174.623 172.017C174.547 172.049 174.346 172.126 174.065 172.136L173.918 168.139ZM172.642 168.51C169.351 169.933 164.038 172.287 162.264 178.601L166.115 179.683C167.329 175.362 170.872 173.633 174.23 172.181L172.642 168.51ZM162.254 178.639C161.722 180.683 161.416 183.085 161.128 185.316L165.095 185.828C165.392 183.527 165.67 181.396 166.125 179.646L162.254 178.639ZM161.128 185.316C160.835 187.59 160.515 189.878 159.975 191.919C159.429 193.984 158.716 195.565 157.783 196.57L160.715 199.291C162.31 197.572 163.235 195.24 163.843 192.94C164.457 190.616 164.804 188.086 165.095 185.828L161.128 185.316ZM157.783 196.57C154.553 200.052 150.723 201.61 146.339 201.123L145.897 205.098C151.685 205.742 156.726 203.591 160.715 199.291L157.783 196.57ZM146.35 201.124C141.944 200.609 136.802 198.222 132.405 193.958L129.62 196.83C134.561 201.621 140.493 204.467 145.886 205.097L146.35 201.124ZM132.375 193.93C127.755 189.629 125.02 184.837 124.189 180.492L120.26 181.244C121.286 186.604 124.557 192.117 129.65 196.858L132.375 193.93ZM124.191 180.503C123.384 176.154 124.657 172.212 127.887 168.73L124.954 166.009C120.965 170.31 119.195 175.501 120.258 181.233L124.191 180.503ZM127.887 168.73C129.931 166.526 133.051 165.164 138.827 164.589L138.431 160.609C132.243 161.225 127.964 162.765 124.954 166.009L127.887 168.73ZM138.838 164.588C144.773 163.966 148.593 161.823 151.128 159.091C153.602 156.424 154.695 153.342 155.452 151.274L151.696 149.899C150.919 152.022 150.053 154.369 148.195 156.371C146.398 158.309 143.513 160.076 138.421 160.61L138.838 164.588ZM155.464 151.242C155.771 150.355 155.989 149.718 156.208 149.201C156.423 148.693 156.584 148.438 156.712 148.29C156.859 148.12 157.147 147.839 158.646 147.7L158.277 143.717C156.41 143.89 154.848 144.334 153.69 145.669C153.166 146.273 152.811 146.965 152.524 147.644C152.24 148.314 151.971 149.105 151.685 149.932L155.464 151.242ZM158.882 147.664C161.042 147.2 162.871 148.014 165.668 150.618L168.394 147.69C165.363 144.869 162.21 142.858 158.041 143.753L158.882 147.664ZM171.094 144.584C167.883 141.595 163.621 138.356 157.268 139.251L157.826 143.212C162.3 142.582 165.364 144.714 168.369 147.511L171.094 144.584ZM157.325 139.244C153.742 139.644 151.416 141.001 149.849 143.024C148.412 144.88 147.725 147.212 147.103 148.989C146.432 150.905 145.769 152.46 144.52 153.68C143.315 154.859 141.348 155.921 137.695 156.314L138.123 160.291C142.412 159.83 145.307 158.505 147.316 156.541C149.283 154.619 150.19 152.275 150.878 150.312C151.614 148.209 152.076 146.682 153.012 145.473C153.819 144.431 155.092 143.518 157.769 143.219L157.325 139.244ZM137.707 156.313C131.73 156.92 125.941 158.507 121.659 163.123L124.592 165.843C127.891 162.287 132.498 160.862 138.111 160.293L137.707 156.313ZM121.672 163.109C116.357 168.732 114.652 175.35 115.825 181.9C116.983 188.371 120.915 194.622 126.581 199.802L129.28 196.85C124.074 192.091 120.726 186.58 119.762 181.195C118.812 175.887 120.14 170.553 124.579 165.857L121.672 163.109ZM126.567 199.79C132.228 205.06 138.784 208.526 145.334 209.209C151.966 209.9 158.432 207.712 163.642 201.99L160.684 199.297C156.335 204.074 151.123 205.791 145.748 205.23C140.292 204.662 134.51 201.719 129.293 196.862L126.567 199.79ZM163.629 202.003C166.466 198.945 167.682 194.811 168.405 190.991C168.769 189.062 169.025 187.112 169.272 185.35C169.524 183.554 169.767 181.964 170.106 180.61L166.226 179.638C165.828 181.225 165.561 183.013 165.311 184.794C165.056 186.61 164.817 188.437 164.474 190.247C163.783 193.902 162.733 197.088 160.697 199.283L163.629 202.003ZM170.098 180.641C170.441 179.36 171.199 178.454 172.312 177.664C173.499 176.822 174.92 176.221 176.573 175.462C178.1 174.761 179.904 173.891 181.226 172.526C182.674 171.029 183.447 169.054 183.171 166.467L179.193 166.891C179.347 168.329 178.954 169.121 178.351 169.744C177.622 170.498 176.49 171.098 174.904 171.827C173.443 172.498 171.572 173.285 169.999 174.401C168.352 175.569 166.881 177.188 166.234 179.607L170.098 180.641ZM183.181 166.605C183.162 166.085 183.078 165.51 182.86 164.971C182.646 164.443 182.216 163.752 181.395 163.378L179.735 167.017C179.295 166.817 179.16 166.492 179.153 166.473C179.141 166.443 179.175 166.521 179.183 166.752L183.181 166.605ZM181.928 163.734C180.831 162.713 179.469 162.797 178.666 162.934C177.871 163.07 176.925 163.398 176.316 163.582C174.715 164.065 174.199 163.972 173.857 163.654L171.131 166.581C173.314 168.613 176.057 167.838 177.471 167.411C178.37 167.14 178.871 166.957 179.341 166.877C179.802 166.798 179.521 166.959 179.202 166.662L181.928 163.734ZM173.857 163.654C173.431 163.258 172.873 162.227 172.388 159.235L168.44 159.875C168.924 162.862 169.614 165.169 171.131 166.581L173.857 163.654ZM172.4 159.316C172.227 157.877 173.01 156.465 174.131 154.625C174.604 153.849 175.238 152.832 175.535 151.847C175.695 151.316 175.804 150.657 175.671 149.944C175.532 149.193 175.153 148.543 174.598 148.026L171.872 150.954C171.872 150.954 171.865 150.947 171.852 150.932C171.84 150.917 171.824 150.895 171.808 150.866C171.774 150.805 171.75 150.738 171.739 150.675C171.717 150.557 171.751 150.539 171.705 150.694C171.588 151.081 171.282 151.614 170.715 152.544C169.757 154.117 168.062 156.742 168.428 159.794L172.4 159.316ZM174.598 148.026C173.426 146.936 172.315 145.901 171.202 144.693L168.26 147.403C169.492 148.74 170.712 149.875 171.872 150.954L174.598 148.026Z" fill="#191919" mask="url(#path-36-outside-1_1534_40772)"/>
<path d="M162.924 185.579C163.217 183.313 163.516 181.234 164.002 179.149C165.496 173.832 169.924 171.79 173.249 170.352C173.436 170.346 173.617 170.151 173.804 170.144C172.486 170.005 170.966 169.496 169.606 168.231C167.858 166.603 166.825 164.01 166.306 160.082C165.793 156.341 167.751 153.45 168.8 151.344C168.8 151.344 168.793 151.157 168.98 151.15L168.592 150.788L166.844 149.161C163.93 146.448 161.626 145.029 157.886 145.354C154.707 145.658 154.186 146.805 152.998 150.232C151.47 154.611 149.268 161.082 138.053 162.244C132.071 162.84 128.372 164.291 125.845 167.015C122.235 170.906 120.714 175.473 121.649 180.513C122.577 185.366 125.587 190.706 130.437 195.039C135.293 199.56 140.642 202.183 145.542 202.756C150.628 203.321 155.063 201.467 158.673 197.576C161.582 195.026 162.333 189.924 162.924 185.579Z" fill="#FF9D27"/>
<path d="M150.349 164.469L154.815 159.651L164.432 168.601L159.966 173.416L150.349 164.469ZM141.708 173.82L146.178 169.004L155.791 177.956L151.322 182.771L141.708 173.82ZM136.41 181.81L138.962 179.059L146.517 186.094L143.963 188.845L136.41 181.81ZM167.227 164.747L158.486 156.609L204.609 109.623L210.63 115.228L167.227 164.747Z" fill="#1C262C"/>
<path d="M156.73 195.767C159.111 195.68 160.969 193.677 160.882 191.292C160.795 188.908 158.794 187.046 156.414 187.133C154.034 187.22 152.175 189.224 152.263 191.608C152.35 193.992 154.35 195.855 156.73 195.767Z" fill="#1C262C"/>
<path d="M146.583 200.462C148.446 200.394 149.901 198.826 149.832 196.96C149.764 195.094 148.198 193.637 146.336 193.705C144.473 193.773 143.018 195.341 143.087 197.207C143.155 199.073 144.721 200.53 146.583 200.462Z" fill="#1C262C"/>
<path d="M210.412 124.634C209.149 125.996 208.628 127.143 209.606 128.235C210.771 129.32 211.868 128.528 213.132 127.166C214.395 125.804 214.916 124.657 213.938 123.565C212.966 122.661 211.682 123.46 210.412 124.634Z" fill="#1C262C"/>
<path d="M207.683 123.375L208.957 122L211.98 124.813L210.703 126.189L207.683 123.375ZM216.736 118.012C215.473 119.374 214.952 120.521 215.93 121.613C217.096 122.698 218.192 121.906 219.456 120.544C220.719 119.182 221.24 118.035 220.262 116.943C219.103 116.046 217.819 116.845 216.736 118.012Z" fill="#1C262C"/>
<path d="M214.022 116.653L215.3 115.277L218.321 118.089L217.045 119.465L214.022 116.653ZM222.873 111.397C221.61 112.759 221.089 113.906 222.067 114.997C223.232 116.082 224.329 115.29 225.593 113.928C226.856 112.566 227.377 111.42 226.399 110.328C225.233 109.243 224.137 110.035 222.873 111.397Z" fill="#1C262C"/>
<path d="M220.099 109.938L221.375 108.563L224.398 111.377L223.12 112.752L220.099 109.938ZM195.26 110.529C193.997 111.891 192.893 112.495 191.735 111.598C190.569 110.513 191.277 109.359 192.541 107.997C193.804 106.635 194.908 106.031 196.066 106.928C197.038 107.833 196.336 109.174 195.26 110.529Z" fill="#1C262C"/>
<path d="M193.695 110.351L194.973 108.978L197.992 111.793L196.714 113.167L193.695 110.351ZM201.39 103.726C200.127 105.088 199.023 105.692 197.865 104.795C196.699 103.71 197.407 102.556 198.671 101.194C199.934 99.8324 201.038 99.2281 202.197 100.125C203.175 101.217 202.473 102.559 201.39 103.726Z" fill="#1C262C"/>
<path d="M200.041 103.631L201.318 102.255L204.338 105.069L203.062 106.445L200.041 103.631ZM207.527 97.1108C206.264 98.4728 205.167 99.2648 204.001 98.1798C202.836 97.0948 203.544 95.9411 204.808 94.5791C206.071 93.2172 207.168 92.4252 208.333 93.5102C209.499 94.5952 208.791 95.7489 207.527 97.1108Z" fill="#1C262C"/>
<path d="M206.113 96.9164L207.391 95.5408L210.412 98.3528L209.136 99.7283L206.113 96.9164Z" fill="#1C262C"/>
<path d="M214.307 118.289C204.56 128.795 201.846 131.526 195.436 125.559C189.025 119.591 191.545 116.68 201.292 106.173C214.288 92.1643 213.956 88.2295 222.691 96.1793C231.245 104.324 227.303 104.28 214.307 118.289Z" fill="#1C262C"/>
<path d="M211.883 103.342C213.229 103.292 214.279 102.16 214.23 100.812C214.18 99.4646 213.05 98.4121 211.704 98.4614C210.359 98.5107 209.309 99.6431 209.358 100.991C209.407 102.338 210.538 103.391 211.883 103.342Z" fill="#8A959B"/>
<path d="M205.566 110.151C206.911 110.102 207.962 108.97 207.912 107.622C207.863 106.274 206.732 105.222 205.387 105.271C204.042 105.32 202.991 106.453 203.041 107.801C203.09 109.148 204.221 110.201 205.566 110.151Z" fill="#8A959B"/>
<path d="M199.429 116.767C200.774 116.717 201.825 115.585 201.776 114.237C201.726 112.89 200.596 111.837 199.25 111.886C197.905 111.936 196.854 113.068 196.904 114.416C196.953 115.763 198.084 116.816 199.429 116.767Z" fill="#8A959B"/>
<path d="M218.876 109.852C220.222 109.802 221.272 108.67 221.223 107.322C221.173 105.975 220.043 104.922 218.698 104.971C217.352 105.021 216.302 106.153 216.351 107.501C216.401 108.848 217.531 109.901 218.876 109.852Z" fill="#8A959B"/>
<path d="M214.405 115.842C213.503 116.815 212.004 116.87 211.032 115.966C210.061 115.061 210.006 113.56 210.909 112.587C211.811 111.614 213.31 111.559 214.281 112.463C215.253 113.368 215.308 114.869 214.405 115.842Z" fill="#8A959B"/>
<path d="M206.422 123.277C207.768 123.227 208.818 122.095 208.769 120.747C208.719 119.4 207.589 118.347 206.243 118.396C204.898 118.446 203.848 119.578 203.897 120.926C203.946 122.273 205.077 123.326 206.422 123.277Z" fill="#8A959B"/>
</g>
<defs>
<clipPath id="clip0_1534_40772">
<rect width="19.7351" height="20.0209" fill="white" transform="matrix(0.741161 0.671327 -0.763541 0.645759 27.4287 148.107)"/>
</clipPath>
<clipPath id="clip1_1534_40772">
<rect width="120" height="120.209" fill="white" transform="translate(110.533 92.2069) rotate(-2.09843)"/>
</clipPath>
</defs>
</svg>
