<svg width="40" height="40" viewBox="0 0 40 40" fill="none" xmlns="http://www.w3.org/2000/svg">
<rect width="40" height="40" rx="20" fill="#0D0D0D" fill-opacity="0.3"/>
<path d="M27.3075 17.0812L25.7138 14.325C25.5796 14.0898 25.4003 13.8834 25.1861 13.7178C24.9718 13.5522 24.727 13.4306 24.4655 13.3601C24.2041 13.2895 23.9313 13.2713 23.6629 13.3066C23.3944 13.3419 23.1356 13.4299 22.9013 13.5656C22.4835 13.8032 22.1643 14.1822 22.0013 14.6344L20.3513 11.7937C20.2171 11.5585 20.0378 11.3522 19.8236 11.1866C19.6093 11.021 19.3645 10.8994 19.103 10.8288C18.8416 10.7582 18.5688 10.7401 18.3004 10.7753C18.0319 10.8106 17.7731 10.8986 17.5388 11.0344C17.121 11.2719 16.8018 11.651 16.6388 12.1031C16.3526 11.6545 15.9048 11.3332 15.3882 11.2058C14.8716 11.0784 14.3257 11.1547 13.8638 11.4187C13.6294 11.5547 13.4242 11.7357 13.2601 11.9513C13.096 12.1669 12.9761 12.4128 12.9075 12.675C12.8253 12.968 12.8125 13.2761 12.87 13.575C12.5039 13.603 12.1485 13.7119 11.8294 13.8937C11.2696 14.219 10.8615 14.7529 10.6946 15.3785C10.5277 16.0041 10.6155 16.6703 10.9388 17.2312L11.1263 17.55C10.8046 17.5873 10.4946 17.6928 10.2169 17.8594C9.65774 18.1829 9.24986 18.7151 9.08286 19.3391C8.91586 19.9632 9.00342 20.628 9.32628 21.1875L12.795 27.1969C13.5362 28.4828 14.6424 29.5199 15.9733 30.1769C17.3043 30.8339 18.8003 31.0811 20.2719 30.8874C21.7435 30.6937 23.1245 30.0676 24.2401 29.0886C25.3557 28.1095 26.1557 26.8215 26.5388 25.3875L26.5669 25.2656C27.5142 24.1417 28.0932 22.7539 28.2257 21.29C28.3581 19.8262 28.0376 18.3569 27.3075 17.0812ZM25.0857 25.0031C24.8846 25.7645 24.534 26.4782 24.0544 27.1027C23.5748 27.7272 22.9756 28.25 22.2919 28.6406C20.9143 29.4357 19.2774 29.6513 17.7409 29.2399C16.2045 28.8285 14.8942 27.8239 14.0982 26.4469L10.6294 20.4375C10.5361 20.2772 10.4923 20.0928 10.5038 19.9077C10.5153 19.7226 10.5814 19.545 10.6938 19.3975C10.8062 19.2499 10.9599 19.1391 11.1353 19.0789C11.3107 19.0187 11.5001 19.0119 11.6794 19.0594C11.9198 19.1268 12.1248 19.2847 12.2513 19.5L14.5013 23.4C14.5683 23.5124 14.6629 23.6058 14.7761 23.6714C14.8893 23.7371 15.0173 23.7727 15.1482 23.775C15.2796 23.7745 15.4086 23.7395 15.5222 23.6735C15.6359 23.6075 15.7302 23.5128 15.7957 23.3988C15.8612 23.2849 15.8956 23.1558 15.8955 23.0243C15.8954 22.8929 15.8607 22.7638 15.795 22.65L12.2325 16.4812C12.1082 16.2649 12.0749 16.0081 12.14 15.7672C12.205 15.5263 12.3631 15.3212 12.5794 15.1969C12.7957 15.0725 13.0526 15.0392 13.2934 15.1043C13.5343 15.1694 13.7395 15.3274 13.8638 15.5437L17.4263 21.7125C17.471 21.8057 17.5345 21.8887 17.6129 21.9563C17.6912 22.0238 17.7827 22.0744 17.8815 22.1048C17.9804 22.1353 18.0844 22.145 18.1872 22.1333C18.29 22.1217 18.3892 22.0889 18.4787 22.037C18.5681 21.9851 18.6459 21.9153 18.7071 21.8319C18.7683 21.7486 18.8116 21.6534 18.8343 21.5525C18.857 21.4516 18.8585 21.3471 18.8388 21.2456C18.8192 21.144 18.7787 21.0476 18.72 20.9625L15.9075 16.0875C15.7849 15.8708 15.7525 15.6145 15.8174 15.3741C15.8823 15.1337 16.0393 14.9286 16.2544 14.8031C16.4697 14.6809 16.7245 14.6488 16.9634 14.7137C17.2023 14.7787 17.4057 14.9356 17.5294 15.15L21.4669 21.975C21.5347 22.0887 21.6308 22.183 21.7458 22.2487C21.8607 22.3144 21.9907 22.3493 22.1232 22.35C22.2547 22.3467 22.3834 22.3113 22.4982 22.2469C22.6693 22.147 22.7939 21.9835 22.8448 21.792C22.8958 21.6005 22.8689 21.3967 22.77 21.225L21.27 18.6187C21.1469 18.406 21.1132 18.1532 21.1763 17.9156C21.2063 17.795 21.2609 17.682 21.3367 17.5836C21.4126 17.4851 21.508 17.4035 21.6169 17.3437C21.7212 17.2803 21.8376 17.2391 21.9586 17.223C22.0797 17.2069 22.2027 17.216 22.32 17.25C22.4394 17.2799 22.5515 17.3335 22.6497 17.4076C22.748 17.4817 22.8303 17.5747 22.8919 17.6812L24.4857 20.4469C24.8826 21.1287 25.14 21.8826 25.243 22.6648C25.346 23.4469 25.2925 24.2418 25.0857 25.0031ZM23.5107 10.0125L23.895 8.55936C23.9203 8.46395 23.9641 8.37444 24.0239 8.29595C24.0837 8.21746 24.1584 8.15152 24.2437 8.1019C24.329 8.05228 24.4233 8.01994 24.5211 8.00675C24.6189 7.99355 24.7184 7.99975 24.8138 8.02499C24.9092 8.05023 24.9987 8.09401 25.0772 8.15384C25.1557 8.21367 25.2216 8.28838 25.2712 8.37369C25.3209 8.459 25.3532 8.55326 25.3664 8.65107C25.3796 8.74887 25.3734 8.84833 25.3482 8.94374L24.9544 10.3969C24.9127 10.5562 24.8191 10.6971 24.6884 10.7973C24.5576 10.8974 24.3972 10.9512 24.2325 10.95L24.0357 10.9312C23.8445 10.8786 23.6819 10.7524 23.5835 10.5802C23.4851 10.4081 23.4589 10.2039 23.5107 10.0125ZM25.9763 10.875L26.8388 9.64686C26.954 9.48388 27.1288 9.37282 27.3253 9.33773C27.5218 9.30264 27.7242 9.34634 27.8888 9.45936C27.9697 9.51635 28.0386 9.5888 28.0915 9.67254C28.1443 9.75627 28.18 9.84964 28.1966 9.94726C28.2131 10.0449 28.2102 10.1448 28.1879 10.2413C28.1657 10.3378 28.1246 10.4289 28.0669 10.5094L27.2044 11.7375C27.1483 11.8181 27.0767 11.8868 26.9938 11.9395C26.9108 11.9923 26.8183 12.0279 26.7214 12.0445C26.6246 12.0611 26.5254 12.0582 26.4296 12.0361C26.3339 12.014 26.2435 11.973 26.1638 11.9156C26.0014 11.8021 25.8906 11.6289 25.8555 11.434C25.8203 11.239 25.8638 11.038 25.9763 10.875ZM30.0919 12.9L28.8638 13.7625C28.7354 13.8464 28.5858 13.8919 28.4325 13.8937C28.2743 13.8925 28.1205 13.8412 27.9931 13.7472C27.8658 13.6533 27.7714 13.5214 27.7236 13.3706C27.6757 13.2197 27.6768 13.0576 27.7267 12.9074C27.7766 12.7572 27.8727 12.6266 28.0013 12.5344L29.2294 11.6719C29.3099 11.6142 29.401 11.5731 29.4975 11.5508C29.594 11.5286 29.6939 11.5256 29.7915 11.5422C29.8891 11.5588 29.9825 11.5945 30.0662 11.6473C30.15 11.7001 30.2224 11.769 30.2794 11.85C30.3924 12.0145 30.4361 12.2169 30.401 12.4134C30.3659 12.61 30.2549 12.7847 30.0919 12.9Z" fill="#E5E9F1"/>
</svg>
