<svg width="32" height="32" viewBox="0 0 32 32" fill="none" xmlns="http://www.w3.org/2000/svg">
<path d="M28.3333 5.33333V22.6667C28.3333 23.7215 28.0205 24.7526 27.4345 25.6297C26.8485 26.5068 26.0155 27.1904 25.041 27.594C24.0664 27.9977 22.9941 28.1033 21.9595 27.8975C20.925 27.6917 19.9746 27.1838 19.2288 26.4379C18.4829 25.692 17.9749 24.7417 17.7691 23.7071C17.5634 22.6726 17.669 21.6002 18.0726 20.6257C18.4763 19.6511 19.1599 18.8182 20.037 18.2322C20.914 17.6461 21.9452 17.3333 23 17.3333C23.9389 17.3382 24.8595 17.5937 25.6667 18.0733V6.66667H13.6667V22.6667C13.6667 23.7215 13.3539 24.7526 12.7678 25.6297C12.1818 26.5068 11.3489 27.1904 10.3743 27.594C9.39978 27.9977 8.32742 28.1033 7.29285 27.8975C6.25829 27.6917 5.30798 27.1838 4.5621 26.4379C3.81622 25.692 3.30827 24.7417 3.10248 23.7071C2.89669 22.6726 3.00231 21.6002 3.40598 20.6257C3.80965 19.6511 4.49323 18.8182 5.37029 18.2322C6.24736 17.6461 7.2785 17.3333 8.33334 17.3333C9.27225 17.3382 10.1928 17.5937 11 18.0733V5.33333C11 4.97971 11.1405 4.64057 11.3905 4.39052C11.6406 4.14048 11.9797 4 12.3333 4H27C27.3536 4 27.6928 4.14048 27.9428 4.39052C28.1929 4.64057 28.3333 4.97971 28.3333 5.33333Z" fill="#647689"/>
</svg>
