<svg width="29" height="19" viewBox="0 0 29 19" fill="none" xmlns="http://www.w3.org/2000/svg">
<path d="M6.88 3V17H3.64V5.6H0.840001V3H6.88ZM14.872 0.159999H17.652L11.052 19H8.27203L14.872 0.159999ZM24.4841 8.7C25.7107 8.9 26.6507 9.36 27.3041 10.08C27.9574 10.7867 28.2841 11.6667 28.2841 12.72C28.2841 13.5333 28.0707 14.2867 27.6441 14.98C27.2174 15.66 26.5641 16.2067 25.6841 16.62C24.8174 17.0333 23.7507 17.24 22.4841 17.24C21.4974 17.24 20.5241 17.1133 19.5641 16.86C18.6174 16.5933 17.8107 16.22 17.1441 15.74L18.4041 13.26C18.9374 13.66 19.5507 13.9733 20.2441 14.2C20.9507 14.4133 21.6707 14.52 22.4041 14.52C23.2174 14.52 23.8574 14.3667 24.3241 14.06C24.7907 13.74 25.0241 13.2933 25.0241 12.72C25.0241 11.5733 24.1507 11 22.4041 11H20.9241V8.86L23.8041 5.6H17.8441V3H27.6441V5.1L24.4841 8.7Z" fill="#1C262C"/>
</svg>
