<svg width="16" height="16" viewBox="0 0 16 16" fill="none" xmlns="http://www.w3.org/2000/svg">
<path d="M7.99984 0.666672C6.54944 0.666672 5.13162 1.09676 3.92566 1.90256C2.7197 2.70836 1.77977 3.85367 1.22472 5.19366C0.669681 6.53365 0.524457 8.00814 0.807415 9.43067C1.09037 10.8532 1.78881 12.1599 2.81439 13.1855C3.83998 14.211 5.14665 14.9095 6.56918 15.1924C7.99171 15.4754 9.4662 15.3302 10.8062 14.7751C12.1462 14.2201 13.2915 13.2801 14.0973 12.0742C14.9031 10.8682 15.3332 9.4504 15.3332 8C15.3309 6.05579 14.5575 4.19186 13.1828 2.81709C11.808 1.44232 9.94406 0.668965 7.99984 0.666672ZM7.99984 14C6.81315 14 5.65311 13.6481 4.66642 12.9888C3.67972 12.3295 2.91069 11.3925 2.45656 10.2961C2.00244 9.19975 1.88362 7.99335 2.11513 6.82946C2.34664 5.66558 2.91808 4.59648 3.7572 3.75736C4.59631 2.91825 5.66541 2.3468 6.8293 2.11529C7.99319 1.88378 9.19958 2.0026 10.2959 2.45673C11.3923 2.91085 12.3294 3.67989 12.9887 4.66658C13.6479 5.65328 13.9998 6.81332 13.9998 8C13.9979 9.59071 13.3651 11.1157 12.2403 12.2405C11.1155 13.3653 9.59054 13.9981 7.99984 14ZM5.99984 5.33334H7.33317V10.6667H5.99984V5.33334ZM8.66651 5.33334H9.99984V10.6667H8.66651V5.33334Z" fill="#D64568"/>
</svg>
