<svg width="16" height="16" viewBox="0 0 16 16" fill="none" xmlns="http://www.w3.org/2000/svg">
<path d="M7.99935 0.666656C6.54896 0.666656 5.13113 1.09675 3.92517 1.90255C2.71921 2.70834 1.77928 3.85365 1.22424 5.19364C0.669193 6.53364 0.523969 8.00812 0.806927 9.43065C1.08989 10.8532 1.78832 12.1599 2.8139 13.1854C3.83949 14.211 5.14616 14.9095 6.56869 15.1924C7.99122 15.4754 9.46571 15.3301 10.8057 14.7751C12.1457 14.2201 13.291 13.2801 14.0968 12.0742C14.9026 10.8682 15.3327 9.45039 15.3327 7.99999C15.3304 6.05577 14.557 4.19184 13.1823 2.81707C11.8075 1.4423 9.94357 0.66895 7.99935 0.666656ZM7.99935 14C6.81266 14 5.65263 13.6481 4.66593 12.9888C3.67924 12.3295 2.9102 11.3924 2.45608 10.2961C2.00195 9.19973 1.88313 7.99333 2.11464 6.82945C2.34615 5.66556 2.9176 4.59646 3.75671 3.75735C4.59583 2.91823 5.66492 2.34679 6.82881 2.11528C7.9927 1.88377 9.1991 2.00259 10.2955 2.45671C11.3918 2.91084 12.3289 3.67987 12.9882 4.66657C13.6475 5.65326 13.9994 6.8133 13.9994 7.99999C13.9974 9.59069 13.3646 11.1157 12.2399 12.2405C11.1151 13.3653 9.59006 13.998 7.99935 14ZM6.66602 5.33332L10.666 7.99999L6.66602 10.6667V5.33332Z" fill="#D64568"/>
</svg>
