<svg width="24" height="24" viewBox="0 0 24 24" fill="none" xmlns="http://www.w3.org/2000/svg">
<path d="M7.49312 22.862C7.69044 22.9781 7.92161 23.0229 8.14802 22.9891C8.37443 22.9552 8.58238 22.8447 8.73712 22.676L19.7371 10.676C19.8683 10.533 19.9551 10.3548 19.9868 10.1633C20.0185 9.97177 19.9938 9.77516 19.9156 9.59746C19.8375 9.41976 19.7093 9.26865 19.5467 9.16256C19.3842 9.05647 19.1942 8.99998 19.0001 9H13.1331L13.9921 2.124C14.0192 1.90423 13.9725 1.6817 13.8594 1.49132C13.7464 1.30093 13.5733 1.15344 13.3674 1.072C13.1615 0.990551 12.9344 0.979748 12.7217 1.04128C12.509 1.10281 12.3227 1.2332 12.1921 1.412L4.19212 12.412C4.08371 12.5611 4.01863 12.7373 4.00409 12.9211C3.98955 13.1049 4.0261 13.2892 4.10972 13.4535C4.19333 13.6178 4.32074 13.7558 4.47787 13.8523C4.63501 13.9487 4.81574 13.9998 5.00012 14H9.61212L7.05212 21.684C6.97968 21.9012 6.98395 22.1366 7.06421 22.351C7.14447 22.5654 7.29587 22.7458 7.49312 22.862ZM6.96412 12L11.5261 5.727L11.0081 9.876C10.9905 10.0167 11.0031 10.1595 11.0449 10.2949C11.0867 10.4304 11.1568 10.5554 11.2506 10.6617C11.3444 10.768 11.4598 10.8531 11.589 10.9115C11.7182 10.9698 11.8583 11 12.0001 11H16.7271L10.4321 17.867L11.9481 13.316C11.9982 13.1657 12.0118 13.0058 11.9879 12.8492C11.964 12.6926 11.9033 12.544 11.8108 12.4155C11.7182 12.287 11.5964 12.1823 11.4555 12.1101C11.3146 12.0379 11.1585 12.0001 11.0001 12H6.96412Z" fill="#6F848F"/>
</svg>
