<svg width="64" height="40" viewBox="0 0 64 40" fill="none" xmlns="http://www.w3.org/2000/svg">
<rect width="64" height="40" rx="20" fill="#FFFC17"/>
<path d="M27.055 13.3242C26.5347 14.4898 26.7402 16.5781 26.8235 18.0386C26.2615 18.3499 25.5399 17.8036 25.1315 17.8036C24.7065 17.8036 24.1992 18.0828 24.1194 18.4991C24.0621 18.7992 24.1966 19.2363 25.161 19.617C25.5339 19.7644 26.4211 19.9379 26.6266 20.4218C26.9154 21.1018 25.1436 24.2404 22.3614 24.6983C22.2564 24.7156 22.1615 24.7712 22.0949 24.8543C22.0283 24.9373 21.9948 25.0421 22.0007 25.1484C22.0492 25.9939 23.9451 26.3252 24.7854 26.4553C24.8713 26.5715 24.9407 27.0624 25.0508 27.4362C25.1002 27.6036 25.2277 27.8039 25.5556 27.8039C25.9831 27.8039 26.6934 27.4744 27.9301 27.679C29.1425 27.8811 30.2821 29.6 32.4702 29.6C34.5039 29.6 35.7172 27.8733 36.8845 27.679C37.5601 27.5672 38.1403 27.6027 38.789 27.7293C39.2357 27.8169 39.6363 27.8655 39.7638 27.4267C39.8757 27.0477 39.9442 26.5663 40.0283 26.4527C40.8609 26.3235 42.7654 25.9931 42.8131 25.1475C42.819 25.0412 42.7854 24.9365 42.7189 24.8534C42.6523 24.7703 42.5574 24.7148 42.4523 24.6974C39.717 24.2464 37.8914 21.1174 38.1871 20.421C38.3918 19.9379 39.2729 19.7662 39.6528 19.6161C40.3588 19.3378 40.7126 18.9952 40.7048 18.5989C40.6953 18.0915 40.0847 17.7888 39.6355 17.7888C39.1784 17.7888 38.5219 18.33 37.9903 18.0369C38.0735 16.5643 38.2782 14.4855 37.7587 13.3207C36.7744 11.1153 34.5846 10 32.3956 10C30.2205 10 28.0472 11.0997 27.055 13.3242Z" fill="white" stroke="#0D0D0D"/>
</svg>
