<svg width="64" height="64" viewBox="0 0 64 64" fill="none" xmlns="http://www.w3.org/2000/svg">
<path d="M31.9987 5.33334C26.7245 5.33334 21.5688 6.89732 17.1835 9.82749C12.7982 12.7577 9.38026 16.9224 7.36192 21.7951C5.34359 26.6678 4.8155 32.0296 5.84444 37.2024C6.87338 42.3752 9.41313 47.1268 13.1425 50.8562C16.8719 54.5856 21.6235 57.1253 26.7963 58.1543C31.9691 59.1832 37.3309 58.6551 42.2036 56.6368C47.0763 54.6185 51.2411 51.2005 54.1712 46.8152C57.1014 42.4299 58.6654 37.2742 58.6654 32C58.6654 28.4981 57.9756 25.0305 56.6355 21.7951C55.2954 18.5598 53.3311 15.6201 50.8549 13.1438C48.3787 10.6676 45.439 8.70335 42.2036 7.36322C38.9683 6.0231 35.5006 5.33334 31.9987 5.33334ZM47.1347 27.2987L31.1347 41.9653C30.6281 42.4298 29.9618 42.6808 29.2746 42.6659C28.5875 42.651 27.9327 42.3714 27.4467 41.8853L19.4467 33.8853C19.192 33.6394 18.9889 33.3451 18.8491 33.0198C18.7093 32.6944 18.6358 32.3445 18.6327 31.9904C18.6296 31.6363 18.6971 31.2852 18.8312 30.9575C18.9653 30.6297 19.1633 30.332 19.4137 30.0816C19.664 29.8312 19.9618 29.6332 20.2895 29.4992C20.6172 29.3651 20.9684 29.2976 21.3224 29.3007C21.6765 29.3038 22.0264 29.3773 22.3518 29.5171C22.6771 29.6568 22.9714 29.86 23.2174 30.1147L29.412 36.3093L43.5294 23.368C44.0506 22.8899 44.7404 22.6385 45.4471 22.669C46.1537 22.6995 46.8193 23.0094 47.2974 23.5307C47.7755 24.0519 48.0269 24.7417 47.9964 25.4484C47.9659 26.155 47.656 26.8206 47.1347 27.2987Z" fill="#28A745"/>
</svg>
