<svg width="139" height="32" viewBox="0 0 139 32" fill="none" xmlns="http://www.w3.org/2000/svg">
<path d="M11.5385 3.62495C13.4987 2.813 15.7012 2.813 17.6614 3.62495L20.5894 4.83778C22.5497 5.64974 24.107 7.20713 24.919 9.16735L26.1318 12.0954C26.9438 14.0557 26.9438 16.2581 26.1318 18.2184L24.919 21.1464C24.107 23.1066 22.5497 24.664 20.5894 25.476L17.6614 26.6888C15.7012 27.5008 13.4987 27.5008 11.5385 26.6888L8.61047 25.476C6.65024 24.664 5.09285 23.1066 4.2809 21.1464L3.06807 18.2184C2.25612 16.2581 2.25612 14.0557 3.06807 12.0954L4.2809 9.16735C5.09285 7.20713 6.65024 5.64974 8.61047 4.83778L11.5385 3.62495Z" fill="url(#paint0_linear_1777_349)"/>
<path d="M9.18844 4.88068C10.8114 3.3935 12.9586 2.61196 15.1579 2.70798L19.1913 2.88408C21.3905 2.9801 23.4615 3.94582 24.9486 5.56879L27.6762 8.54538C29.1634 10.1683 29.9449 12.3156 29.8489 14.5148L29.6728 18.5482C29.5768 20.7474 28.611 22.8184 26.9881 24.3056L24.0115 27.0331C22.3885 28.5203 20.2412 29.3019 18.042 29.2058L14.0086 29.0297C11.8094 28.9337 9.73846 27.968 8.25129 26.345L5.52375 23.3685C4.03657 21.7455 3.25503 19.5982 3.35105 17.399L3.52715 13.3656C3.62317 11.1664 4.58889 9.0954 6.21185 7.60822L9.18844 4.88068Z" stroke="#D64568" stroke-opacity="0.4"/>
<path d="M41.49 21.805C40.914 21.805 40.536 21.763 40.356 21.679C40.176 21.595 40.05 21.451 39.978 21.247L36 10.267C36 10.039 36.426 9.77502 37.278 9.47502C38.142 9.17502 39.012 9.02502 39.888 9.02502C41.016 9.02502 41.616 9.37902 41.688 10.087L42.3 15.793H42.552L43.056 10.087C43.116 9.37902 43.926 9.02502 45.486 9.02502C46.086 9.02502 46.488 9.10902 46.692 9.27702C46.896 9.43302 47.01 9.64302 47.034 9.90702L47.628 15.793H47.88L48.348 10.087C48.384 9.73902 48.792 9.47502 49.572 9.29502C50.364 9.11502 51.144 9.02502 51.912 9.02502C52.692 9.02502 53.22 9.13902 53.496 9.36702C53.784 9.59502 53.928 9.83502 53.928 10.087L50.076 21.247C49.944 21.619 49.056 21.805 47.412 21.805C46.92 21.805 46.59 21.763 46.422 21.679C46.254 21.595 46.14 21.451 46.08 21.247L45.144 18.115H44.928L43.974 21.247C43.866 21.619 43.038 21.805 41.49 21.805Z" fill="#E7E7E7"/>
<path d="M59.4653 17.737C59.4653 18.517 59.8373 18.907 60.5813 18.907C61.0133 18.907 61.5773 18.763 62.2733 18.475C62.9692 18.175 63.3353 18.025 63.3713 18.025C63.5993 18.025 63.8993 18.367 64.2712 19.051C64.6432 19.735 64.8293 20.239 64.8293 20.563C64.8293 21.031 64.3492 21.385 63.3892 21.625C62.4292 21.865 61.4872 21.985 60.5632 21.985C59.6512 21.985 58.8833 21.913 58.2593 21.769C57.6473 21.625 57.1432 21.445 56.7472 21.229C56.3632 21.001 56.0212 20.725 55.7213 20.401C55.4333 20.077 55.2172 19.771 55.0732 19.483C54.9293 19.183 54.8153 18.853 54.7313 18.493C54.6112 17.965 54.5513 17.419 54.5513 16.855C54.5513 14.671 55.1213 13.165 56.2612 12.337C56.8252 11.917 57.4553 11.623 58.1513 11.455C58.8473 11.287 59.6693 11.203 60.6173 11.203C63.6532 11.203 65.1712 12.259 65.1712 14.371C65.1712 16.615 63.4672 17.737 60.0592 17.737H59.4653ZM59.4293 15.109V16.297C59.7773 16.297 60.0592 16.159 60.2752 15.883C60.5033 15.607 60.6173 15.271 60.6173 14.875C60.6173 14.155 60.4312 13.795 60.0592 13.795C59.6392 13.795 59.4293 14.233 59.4293 15.109Z" fill="#E7E7E7"/>
<path d="M71.6989 23.137C71.4709 23.545 71.1289 23.827 70.6729 23.983C70.2289 24.151 69.7189 24.235 69.1429 24.235C68.5789 24.235 68.1649 24.223 67.9009 24.199C67.6369 24.187 67.3549 24.139 67.0549 24.055C66.7669 23.983 66.5389 23.881 66.3709 23.749C65.9869 23.425 65.7949 22.921 65.7949 22.237C65.7949 21.253 66.0469 20.761 66.5509 20.761C66.7069 20.761 66.8269 20.737 66.9109 20.689C67.1389 20.581 67.2529 20.209 67.2529 19.573V10.195C67.2529 9.93102 67.5949 9.67302 68.2789 9.42102C68.9749 9.15702 69.7129 9.02502 70.4929 9.02502C71.6809 9.02502 72.2749 9.30702 72.2749 9.87102V19.825C72.2749 20.653 72.2389 21.313 72.1669 21.805C72.0949 22.297 71.9389 22.741 71.6989 23.137Z" fill="#E7E7E7"/>
<path d="M77.0477 21.967C75.9557 21.967 75.0977 21.709 74.4737 21.193C74.2217 20.977 73.9997 20.659 73.8077 20.239C73.6277 19.819 73.5377 19.327 73.5377 18.763C73.5377 18.199 73.6697 17.707 73.9337 17.287C74.2097 16.867 74.5397 16.543 74.9237 16.315C75.3077 16.087 75.7577 15.901 76.2737 15.757C77.0537 15.553 77.9117 15.451 78.8477 15.451H79.4417C79.4417 14.959 79.2737 14.611 78.9377 14.407C78.7937 14.323 78.5717 14.281 78.2717 14.281C77.9837 14.281 77.6297 14.359 77.2097 14.515C76.8017 14.671 76.4597 14.833 76.1837 15.001C75.9077 15.157 75.7217 15.235 75.6257 15.235C75.4097 15.235 75.1157 14.953 74.7437 14.389C74.3717 13.813 74.1857 13.291 74.1857 12.823C74.1857 12.667 74.4077 12.463 74.8517 12.211C75.2957 11.959 75.9197 11.731 76.7237 11.527C77.5397 11.311 78.3317 11.203 79.0997 11.203C79.8677 11.203 80.5277 11.269 81.0797 11.401C81.6437 11.521 82.0997 11.671 82.4477 11.851C82.8077 12.031 83.1077 12.271 83.3477 12.571C83.5997 12.871 83.7857 13.141 83.9057 13.381C84.0377 13.621 84.1337 13.933 84.1937 14.317C84.2777 14.761 84.3197 15.307 84.3197 15.955V21.373C84.3197 21.505 83.9957 21.613 83.3477 21.697C82.7117 21.769 82.0757 21.805 81.4397 21.805C80.8157 21.805 80.4077 21.787 80.2157 21.751C80.0357 21.715 79.9277 21.673 79.8917 21.625C79.8557 21.577 79.8257 21.493 79.8017 21.373L79.6577 20.347H79.5137C79.2137 21.427 78.3917 21.967 77.0477 21.967ZM79.4597 18.979V16.873C79.1477 16.873 78.8957 17.005 78.7037 17.269C78.5117 17.533 78.4157 17.833 78.4157 18.169C78.4157 18.961 78.5957 19.357 78.9557 19.357C79.1117 19.357 79.2317 19.321 79.3157 19.249C79.4117 19.165 79.4597 19.075 79.4597 18.979Z" fill="#E7E7E7"/>
<path d="M101.979 15.865V21.373C101.979 21.505 101.637 21.613 100.953 21.697C100.281 21.769 99.5789 21.805 98.8469 21.805C98.1269 21.805 97.6589 21.775 97.4429 21.715C97.2269 21.643 97.1189 21.529 97.1189 21.373V16.387C97.1189 14.671 96.9449 13.813 96.5969 13.813C96.5129 13.813 96.4289 13.849 96.3449 13.921C96.2609 13.993 96.2189 14.119 96.2189 14.299V21.373C96.2189 21.505 95.8769 21.613 95.1929 21.697C94.5209 21.769 93.8189 21.805 93.0869 21.805C92.3549 21.805 91.8809 21.775 91.6649 21.715C91.4609 21.643 91.3589 21.529 91.3589 21.373V16.387C91.3589 15.055 91.2749 14.257 91.1069 13.993C91.0229 13.873 90.9149 13.813 90.7829 13.813C90.5549 13.813 90.4409 13.975 90.4409 14.299V21.373C90.4409 21.505 90.0989 21.613 89.4149 21.697C88.7309 21.769 88.0229 21.805 87.2909 21.805C86.5709 21.805 86.1029 21.775 85.8869 21.715C85.6829 21.643 85.5809 21.529 85.5809 21.373V12.499C85.5809 12.247 85.9229 11.995 86.6069 11.743C87.3029 11.491 88.0349 11.365 88.8029 11.365C89.5709 11.365 90.0029 11.587 90.0989 12.031L90.2609 12.823H90.3869C90.7349 12.139 91.3109 11.653 92.1149 11.365C92.4509 11.257 92.8829 11.203 93.4109 11.203C94.4669 11.203 95.2349 11.743 95.7149 12.823C95.8709 12.463 96.2609 12.103 96.8849 11.743C97.5089 11.383 98.1989 11.203 98.9549 11.203C100.143 11.203 100.941 11.575 101.349 12.319C101.769 13.051 101.979 14.233 101.979 15.865Z" fill="#E7E7E7"/>
<path d="M119.645 15.865V21.373C119.645 21.505 119.303 21.613 118.619 21.697C117.947 21.769 117.245 21.805 116.513 21.805C115.793 21.805 115.325 21.775 115.109 21.715C114.893 21.643 114.785 21.529 114.785 21.373V16.387C114.785 14.671 114.611 13.813 114.263 13.813C114.179 13.813 114.095 13.849 114.011 13.921C113.927 13.993 113.885 14.119 113.885 14.299V21.373C113.885 21.505 113.543 21.613 112.859 21.697C112.187 21.769 111.485 21.805 110.753 21.805C110.021 21.805 109.547 21.775 109.331 21.715C109.127 21.643 109.025 21.529 109.025 21.373V16.387C109.025 15.055 108.941 14.257 108.773 13.993C108.689 13.873 108.581 13.813 108.449 13.813C108.221 13.813 108.107 13.975 108.107 14.299V21.373C108.107 21.505 107.765 21.613 107.081 21.697C106.397 21.769 105.689 21.805 104.957 21.805C104.237 21.805 103.769 21.775 103.553 21.715C103.349 21.643 103.247 21.529 103.247 21.373V12.499C103.247 12.247 103.589 11.995 104.273 11.743C104.969 11.491 105.701 11.365 106.469 11.365C107.237 11.365 107.669 11.587 107.765 12.031L107.927 12.823H108.053C108.401 12.139 108.977 11.653 109.781 11.365C110.117 11.257 110.549 11.203 111.077 11.203C112.133 11.203 112.901 11.743 113.381 12.823C113.537 12.463 113.927 12.103 114.551 11.743C115.175 11.383 115.865 11.203 116.621 11.203C117.809 11.203 118.607 11.575 119.015 12.319C119.435 13.051 119.645 14.233 119.645 15.865Z" fill="#E7E7E7"/>
<path d="M125.863 12.499V21.373C125.863 21.505 125.515 21.613 124.819 21.697C124.135 21.769 123.427 21.805 122.695 21.805C121.975 21.805 121.507 21.775 121.291 21.715C121.087 21.643 120.985 21.529 120.985 21.373V12.823C120.985 12.559 121.321 12.301 121.993 12.049C122.677 11.785 123.421 11.653 124.225 11.653C125.317 11.653 125.863 11.935 125.863 12.499ZM123.415 7.76501C124.207 7.76501 124.825 7.88501 125.269 8.12501C125.725 8.35301 125.953 8.77301 125.953 9.38501C125.953 10.465 125.113 11.005 123.433 11.005C121.753 11.005 120.913 10.465 120.913 9.38501C120.913 8.30501 121.747 7.76501 123.415 7.76501Z" fill="#E7E7E7"/>
<path d="M138.06 15.829V21.373C138.06 21.505 137.718 21.613 137.034 21.697C136.35 21.769 135.642 21.805 134.91 21.805C134.19 21.805 133.722 21.775 133.506 21.715C133.302 21.643 133.2 21.529 133.2 21.373V15.649C133.2 15.109 133.176 14.755 133.128 14.587C133.092 14.419 133.056 14.269 133.02 14.137C132.936 13.909 132.786 13.795 132.57 13.795C132.234 13.795 132.066 13.957 132.066 14.281V21.373C132.066 21.505 131.724 21.613 131.04 21.697C130.368 21.769 129.666 21.805 128.934 21.805C128.214 21.805 127.746 21.775 127.53 21.715C127.314 21.643 127.206 21.529 127.206 21.373V12.499C127.206 12.247 127.548 11.995 128.232 11.743C128.928 11.491 129.66 11.365 130.428 11.365C131.196 11.365 131.628 11.587 131.724 12.031L131.886 12.823H132.012C132.36 12.127 132.96 11.641 133.812 11.365C134.16 11.257 134.544 11.203 134.964 11.203C136.176 11.203 136.992 11.569 137.412 12.301C137.844 13.021 138.06 14.197 138.06 15.829Z" fill="#E7E7E7"/>
<defs>
<linearGradient id="paint0_linear_1777_349" x1="1.79997" y1="15.1569" x2="27.3999" y2="15.1654" gradientUnits="userSpaceOnUse">
<stop stop-color="#E25375"/>
<stop offset="1" stop-color="#BB2549"/>
</linearGradient>
</defs>
</svg>
