<svg width="139" height="32" viewBox="0 0 139 32" fill="none" xmlns="http://www.w3.org/2000/svg">
<path d="M11.5384 3.62508C13.4986 2.81313 15.7011 2.81313 17.6613 3.62508L20.5893 4.83791C22.5496 5.64987 24.1069 7.20726 24.9189 9.16748L26.1317 12.0955C26.9437 14.0558 26.9437 16.2582 26.1317 18.2185L24.9189 21.1465C24.1069 23.1067 22.5496 24.6641 20.5893 25.4761L17.6613 26.6889C15.7011 27.5009 13.4986 27.5009 11.5384 26.6889L8.61035 25.4761C6.65012 24.6641 5.09273 23.1067 4.28078 21.1465L3.06795 18.2185C2.256 16.2582 2.256 14.0558 3.06795 12.0955L4.28078 9.16748C5.09273 7.20726 6.65012 5.64987 8.61035 4.83791L11.5384 3.62508Z" fill="url(#paint0_linear_1207_31368)"/>
<path d="M9.18832 4.8808C10.8113 3.39362 12.9585 2.61208 15.1578 2.7081L19.1912 2.8842C21.3904 2.98022 23.4614 3.94594 24.9485 5.56891L27.6761 8.5455C29.1633 10.1684 29.9448 12.3157 29.8488 14.5149L29.6727 18.5483C29.5767 20.7475 28.6109 22.8185 26.988 24.3057L24.0114 27.0332C22.3884 28.5204 20.2411 29.302 18.0419 29.2059L14.0085 29.0298C11.8093 28.9338 9.73834 27.9681 8.25117 26.3451L5.52363 23.3686C4.03645 21.7456 3.25491 19.5983 3.35093 17.3991L3.52703 13.3657C3.62305 11.1665 4.58877 9.09552 6.21173 7.60834L9.18832 4.8808Z" stroke="#D64568" stroke-opacity="0.4"/>
<path d="M41.49 21.8049C40.914 21.8049 40.536 21.7629 40.356 21.6789C40.176 21.5949 40.05 21.4509 39.978 21.2469L36 10.2669C36 10.0389 36.426 9.7749 37.278 9.4749C38.142 9.1749 39.012 9.0249 39.888 9.0249C41.016 9.0249 41.616 9.3789 41.688 10.0869L42.3 15.7929H42.552L43.056 10.0869C43.116 9.3789 43.926 9.0249 45.486 9.0249C46.086 9.0249 46.488 9.1089 46.692 9.2769C46.896 9.4329 47.01 9.6429 47.034 9.9069L47.628 15.7929H47.88L48.348 10.0869C48.384 9.7389 48.792 9.4749 49.572 9.2949C50.364 9.1149 51.144 9.0249 51.912 9.0249C52.692 9.0249 53.22 9.1389 53.496 9.3669C53.784 9.5949 53.928 9.8349 53.928 10.0869L50.076 21.2469C49.944 21.6189 49.056 21.8049 47.412 21.8049C46.92 21.8049 46.59 21.7629 46.422 21.6789C46.254 21.5949 46.14 21.4509 46.08 21.2469L45.144 18.1149H44.928L43.974 21.2469C43.866 21.6189 43.038 21.8049 41.49 21.8049Z" fill="#D64568"/>
<path d="M59.4653 17.7371C59.4653 18.5171 59.8373 18.9071 60.5813 18.9071C61.0133 18.9071 61.5773 18.7631 62.2733 18.4751C62.9692 18.1751 63.3353 18.0251 63.3713 18.0251C63.5993 18.0251 63.8993 18.3671 64.2712 19.0511C64.6432 19.7351 64.8293 20.2391 64.8293 20.5631C64.8293 21.0311 64.3492 21.3851 63.3892 21.6251C62.4292 21.8651 61.4872 21.9851 60.5632 21.9851C59.6512 21.9851 58.8833 21.9131 58.2593 21.7691C57.6473 21.6251 57.1432 21.4451 56.7472 21.2291C56.3632 21.0011 56.0212 20.7251 55.7213 20.4011C55.4333 20.0771 55.2172 19.7711 55.0732 19.4831C54.9293 19.1831 54.8153 18.8531 54.7313 18.4931C54.6112 17.9651 54.5513 17.4191 54.5513 16.8551C54.5513 14.6711 55.1213 13.1651 56.2612 12.3371C56.8252 11.9171 57.4553 11.6231 58.1513 11.4551C58.8473 11.2871 59.6693 11.2031 60.6173 11.2031C63.6532 11.2031 65.1712 12.2591 65.1712 14.3711C65.1712 16.6151 63.4672 17.7371 60.0592 17.7371H59.4653ZM59.4293 15.1091V16.2971C59.7773 16.2971 60.0592 16.1591 60.2752 15.8831C60.5033 15.6071 60.6173 15.2711 60.6173 14.8751C60.6173 14.1551 60.4312 13.7951 60.0592 13.7951C59.6392 13.7951 59.4293 14.2331 59.4293 15.1091Z" fill="#D64568"/>
<path d="M71.6989 23.1369C71.4709 23.5449 71.1289 23.8269 70.6729 23.9829C70.2289 24.1509 69.7189 24.2349 69.1429 24.2349C68.5789 24.2349 68.1649 24.2229 67.9009 24.1989C67.6369 24.1869 67.3549 24.1389 67.0549 24.0549C66.7669 23.9829 66.5389 23.8809 66.3709 23.7489C65.9869 23.4249 65.7949 22.9209 65.7949 22.2369C65.7949 21.2529 66.0469 20.7609 66.5509 20.7609C66.7069 20.7609 66.8269 20.7369 66.9109 20.6889C67.1389 20.5809 67.2529 20.2089 67.2529 19.5729V10.1949C67.2529 9.9309 67.5949 9.6729 68.2789 9.4209C68.9749 9.1569 69.7129 9.0249 70.4929 9.0249C71.6809 9.0249 72.2749 9.3069 72.2749 9.8709V19.8249C72.2749 20.6529 72.2389 21.3129 72.1669 21.8049C72.0949 22.2969 71.9389 22.7409 71.6989 23.1369Z" fill="#D64568"/>
<path d="M77.0476 21.9671C75.9556 21.9671 75.0976 21.7091 74.4736 21.1931C74.2216 20.9771 73.9996 20.6591 73.8076 20.2391C73.6276 19.8191 73.5376 19.3271 73.5376 18.7631C73.5376 18.1991 73.6696 17.7071 73.9336 17.2871C74.2096 16.8671 74.5396 16.5431 74.9236 16.3151C75.3076 16.0871 75.7576 15.9011 76.2736 15.7571C77.0536 15.5531 77.9116 15.4511 78.8476 15.4511H79.4416C79.4416 14.9591 79.2736 14.6111 78.9376 14.4071C78.7936 14.3231 78.5716 14.2811 78.2716 14.2811C77.9836 14.2811 77.6296 14.3591 77.2096 14.5151C76.8016 14.6711 76.4596 14.8331 76.1836 15.0011C75.9076 15.1571 75.7216 15.2351 75.6256 15.2351C75.4096 15.2351 75.1156 14.9531 74.7436 14.3891C74.3716 13.8131 74.1856 13.2911 74.1856 12.8231C74.1856 12.6671 74.4076 12.4631 74.8516 12.2111C75.2956 11.9591 75.9196 11.7311 76.7236 11.5271C77.5396 11.3111 78.3316 11.2031 79.0996 11.2031C79.8676 11.2031 80.5276 11.2691 81.0796 11.4011C81.6436 11.5211 82.0996 11.6711 82.4476 11.8511C82.8076 12.0311 83.1076 12.2711 83.3476 12.5711C83.5996 12.8711 83.7856 13.1411 83.9056 13.3811C84.0376 13.6211 84.1336 13.9331 84.1936 14.3171C84.2776 14.7611 84.3196 15.3071 84.3196 15.9551V21.3731C84.3196 21.5051 83.9956 21.6131 83.3476 21.6971C82.7116 21.7691 82.0756 21.8051 81.4396 21.8051C80.8156 21.8051 80.4076 21.7871 80.2156 21.7511C80.0356 21.7151 79.9276 21.6731 79.8916 21.6251C79.8556 21.5771 79.8256 21.4931 79.8016 21.3731L79.6576 20.3471H79.5136C79.2136 21.4271 78.3916 21.9671 77.0476 21.9671ZM79.4596 18.9791V16.8731C79.1476 16.8731 78.8956 17.0051 78.7036 17.2691C78.5116 17.5331 78.4156 17.8331 78.4156 18.1691C78.4156 18.9611 78.5956 19.3571 78.9556 19.3571C79.1116 19.3571 79.2316 19.3211 79.3156 19.2491C79.4116 19.1651 79.4596 19.0751 79.4596 18.9791Z" fill="#D64568"/>
<path d="M101.979 15.8651V21.3731C101.979 21.5051 101.637 21.6131 100.953 21.6971C100.281 21.7691 99.5788 21.8051 98.8468 21.8051C98.1268 21.8051 97.6588 21.7751 97.4428 21.7151C97.2268 21.6431 97.1188 21.5291 97.1188 21.3731V16.3871C97.1188 14.6711 96.9448 13.8131 96.5968 13.8131C96.5128 13.8131 96.4288 13.8491 96.3448 13.9211C96.2608 13.9931 96.2188 14.1191 96.2188 14.2991V21.3731C96.2188 21.5051 95.8768 21.6131 95.1928 21.6971C94.5208 21.7691 93.8188 21.8051 93.0868 21.8051C92.3548 21.8051 91.8808 21.7751 91.6648 21.7151C91.4608 21.6431 91.3588 21.5291 91.3588 21.3731V16.3871C91.3588 15.0551 91.2748 14.2571 91.1068 13.9931C91.0228 13.8731 90.9148 13.8131 90.7828 13.8131C90.5548 13.8131 90.4408 13.9751 90.4408 14.2991V21.3731C90.4408 21.5051 90.0988 21.6131 89.4148 21.6971C88.7308 21.7691 88.0228 21.8051 87.2908 21.8051C86.5708 21.8051 86.1028 21.7751 85.8868 21.7151C85.6828 21.6431 85.5808 21.5291 85.5808 21.3731V12.4991C85.5808 12.2471 85.9228 11.9951 86.6068 11.7431C87.3028 11.4911 88.0348 11.3651 88.8028 11.3651C89.5708 11.3651 90.0028 11.5871 90.0988 12.0311L90.2608 12.8231H90.3868C90.7348 12.1391 91.3108 11.6531 92.1148 11.3651C92.4508 11.2571 92.8828 11.2031 93.4108 11.2031C94.4668 11.2031 95.2348 11.7431 95.7148 12.8231C95.8708 12.4631 96.2608 12.1031 96.8848 11.7431C97.5088 11.3831 98.1988 11.2031 98.9548 11.2031C100.143 11.2031 100.941 11.5751 101.349 12.3191C101.769 13.0511 101.979 14.2331 101.979 15.8651Z" fill="#D64568"/>
<path d="M119.645 15.8651V21.3731C119.645 21.5051 119.303 21.6131 118.619 21.6971C117.947 21.7691 117.245 21.8051 116.513 21.8051C115.793 21.8051 115.325 21.7751 115.109 21.7151C114.893 21.6431 114.785 21.5291 114.785 21.3731V16.3871C114.785 14.6711 114.611 13.8131 114.263 13.8131C114.179 13.8131 114.095 13.8491 114.011 13.9211C113.927 13.9931 113.885 14.1191 113.885 14.2991V21.3731C113.885 21.5051 113.543 21.6131 112.859 21.6971C112.187 21.7691 111.485 21.8051 110.753 21.8051C110.021 21.8051 109.547 21.7751 109.331 21.7151C109.127 21.6431 109.025 21.5291 109.025 21.3731V16.3871C109.025 15.0551 108.941 14.2571 108.773 13.9931C108.689 13.8731 108.581 13.8131 108.449 13.8131C108.221 13.8131 108.107 13.9751 108.107 14.2991V21.3731C108.107 21.5051 107.765 21.6131 107.081 21.6971C106.397 21.7691 105.689 21.8051 104.957 21.8051C104.237 21.8051 103.769 21.7751 103.553 21.7151C103.349 21.6431 103.247 21.5291 103.247 21.3731V12.4991C103.247 12.2471 103.589 11.9951 104.273 11.7431C104.969 11.4911 105.701 11.3651 106.469 11.3651C107.237 11.3651 107.669 11.5871 107.765 12.0311L107.927 12.8231H108.053C108.401 12.1391 108.977 11.6531 109.781 11.3651C110.117 11.2571 110.549 11.2031 111.077 11.2031C112.133 11.2031 112.901 11.7431 113.381 12.8231C113.537 12.4631 113.927 12.1031 114.551 11.7431C115.175 11.3831 115.865 11.2031 116.621 11.2031C117.809 11.2031 118.607 11.5751 119.015 12.3191C119.435 13.0511 119.645 14.2331 119.645 15.8651Z" fill="#D64568"/>
<path d="M125.863 12.4991V21.3731C125.863 21.5051 125.515 21.6131 124.819 21.6971C124.135 21.7691 123.427 21.8051 122.695 21.8051C121.975 21.8051 121.507 21.7751 121.291 21.7151C121.087 21.6431 120.985 21.5291 120.985 21.3731V12.8231C120.985 12.5591 121.321 12.3011 121.993 12.0491C122.677 11.7851 123.421 11.6531 124.225 11.6531C125.317 11.6531 125.863 11.9351 125.863 12.4991ZM123.415 7.76514C124.207 7.76514 124.825 7.88514 125.269 8.12514C125.725 8.35314 125.953 8.77314 125.953 9.38514C125.953 10.4651 125.113 11.0051 123.433 11.0051C121.753 11.0051 120.913 10.4651 120.913 9.38514C120.913 8.30514 121.747 7.76514 123.415 7.76514Z" fill="#D64568"/>
<path d="M138.06 15.8291V21.3731C138.06 21.5051 137.718 21.6131 137.034 21.6971C136.35 21.7691 135.642 21.8051 134.91 21.8051C134.19 21.8051 133.722 21.7751 133.506 21.7151C133.302 21.6431 133.2 21.5291 133.2 21.3731V15.6491C133.2 15.1091 133.176 14.7551 133.128 14.5871C133.092 14.4191 133.056 14.2691 133.02 14.1371C132.936 13.9091 132.786 13.7951 132.57 13.7951C132.234 13.7951 132.066 13.9571 132.066 14.2811V21.3731C132.066 21.5051 131.724 21.6131 131.04 21.6971C130.368 21.7691 129.666 21.8051 128.934 21.8051C128.214 21.8051 127.746 21.7751 127.53 21.7151C127.314 21.6431 127.206 21.5291 127.206 21.3731V12.4991C127.206 12.2471 127.548 11.9951 128.232 11.7431C128.928 11.4911 129.66 11.3651 130.428 11.3651C131.196 11.3651 131.628 11.5871 131.724 12.0311L131.886 12.8231H132.012C132.36 12.1271 132.96 11.6411 133.812 11.3651C134.16 11.2571 134.544 11.2031 134.964 11.2031C136.176 11.2031 136.992 11.5691 137.412 12.3011C137.844 13.0211 138.06 14.1971 138.06 15.8291Z" fill="#D64568"/>
<defs>
<linearGradient id="paint0_linear_1207_31368" x1="1.79985" y1="15.157" x2="27.3998" y2="15.1655" gradientUnits="userSpaceOnUse">
<stop stop-color="#E25375"/>
<stop offset="1" stop-color="#BB2549"/>
</linearGradient>
</defs>
</svg>
