<svg width="192" height="192" viewBox="0 0 192 192" fill="none" xmlns="http://www.w3.org/2000/svg">
<g clip-path="url(#clip0_2712_72998)">
<path d="M192 96C192 42.9807 149.019 0 96 0C42.9807 0 0 42.9807 0 96C0 149.019 42.9807 192 96 192C149.019 192 192 149.019 192 96Z" fill="#0D0D0D"/>
<path d="M91.8575 35.5291L110.095 36.3253C120.158 36.7648 129.636 41.1839 136.441 48.6107L148.774 62.0697C155.58 69.4965 159.156 79.3226 158.717 89.3864L157.921 107.624C157.48 117.688 153.062 127.165 145.635 133.97L132.176 146.303C124.75 153.108 114.923 156.684 104.859 156.245L86.6218 155.449C76.5581 155.01 67.081 150.591 60.2756 143.164L47.9428 129.704C41.1373 122.278 37.5608 112.451 38.0003 102.388L38.7966 84.1505C39.236 74.0868 43.6551 64.6098 51.082 57.8044L64.541 45.4715C71.9678 38.666 81.7938 35.0897 91.8575 35.5291Z" stroke="#D64568" stroke-opacity="0.6" stroke-width="4"/>
<path d="M75.4724 40.1273C84.3357 36.4559 94.2946 36.4559 103.158 40.1273L116.397 45.6112C125.26 49.2825 132.303 56.3245 135.974 65.1879L141.458 78.4272C145.13 87.2906 145.13 97.2494 141.458 106.113L135.974 119.352C132.303 128.216 125.26 135.258 116.397 138.928L103.158 144.413C94.2946 148.084 84.3357 148.084 75.4724 144.413L62.2331 138.928C53.3696 135.258 46.3277 128.216 42.6565 119.352L37.1725 106.113C33.5011 97.2494 33.5011 87.2906 37.1725 78.4272L42.6564 65.1879C46.3277 56.3245 53.3696 49.2825 62.2331 45.6112L75.4724 40.1273Z" fill="url(#paint0_linear_2712_72998)"/>
</g>
<defs>
<linearGradient id="paint0_linear_2712_72998" x1="31.4386" y1="92.27" x2="147.192" y2="92.3085" gradientUnits="userSpaceOnUse">
<stop stop-color="#E25375"/>
<stop offset="1" stop-color="#BB2549"/>
</linearGradient>
<clipPath id="clip0_2712_72998">
<rect width="192" height="192" fill="white"/>
</clipPath>
</defs>
</svg>
